<?xml version="1.0" encoding="UTF-8" standalone="no"?>
<!DOCTYPE svg PUBLIC "-//W3C//DTD SVG 1.1//EN" "http://www.w3.org/Graphics/SVG/1.1/DTD/svg11.dtd">
<svg width="100%" height="100%" viewBox="0 0 50 50" version="1.1" xmlns="http://www.w3.org/2000/svg" xmlns:xlink="http://www.w3.org/1999/xlink" xml:space="preserve" xmlns:serif="http://www.serif.com/" style="fill-rule:evenodd;clip-rule:evenodd;stroke-linejoin:round;stroke-miterlimit:2;">
    <path d="M0,0L50,0L50,50L0,0Z" style="fill:white;"/>
    <g transform="matrix(1.66663,0,0,1.66663,7.87987,-36.2633)">
        <path d="M16.664,25.176C16.664,25.176 18.197,28.279 18.197,28.279L21.629,28.778C22.244,28.867 22.491,29.624 22.045,30.057L19.563,32.45L20.15,35.86C20.255,36.477 19.605,36.936 19.06,36.65L15.991,35.062L12.923,36.672C12.377,36.958 11.728,36.498 11.833,35.882L12.421,32.472L9.938,30.058C9.492,29.624 9.738,28.867 10.354,28.778L13.785,28.279L15.319,25.176C15.595,24.616 16.39,24.623 16.664,25.176Z" style="fill-opacity:0.5;fill-rule:nonzero;"/>
    </g>
</svg>
