<?xml version="1.0" encoding="UTF-8" standalone="no"?>
<svg
   id="Layer_1"
   data-name="Layer 1"
   version="1.1"
   viewBox="0 0 590.3 125.3"
   sodipodi:docname="amiga500.svg"
   inkscape:version="1.3 (0e150ed, 2023-07-21)"
   xmlns:inkscape="http://www.inkscape.org/namespaces/inkscape"
   xmlns:sodipodi="http://sodipodi.sourceforge.net/DTD/sodipodi-0.dtd"
   xmlns="http://www.w3.org/2000/svg"
   xmlns:svg="http://www.w3.org/2000/svg">
  <defs
     id="defs1">
    <style
       id="style1">&#10;      .cls-1 {&#10;        fill: none;&#10;      }&#10;&#10;      .cls-1, .cls-2, .cls-3, .cls-4 {&#10;        stroke-width: 0px;&#10;      }&#10;&#10;      .cls-2, .cls-4 {&#10;        fill: red;&#10;      }&#10;&#10;      .cls-3 {&#10;        fill: #fff;&#10;      }&#10;&#10;      .cls-4 {&#10;        fill-rule: evenodd;&#10;      }&#10;    </style>
  </defs>
  <sodipodi:namedview
     id="namedview94"
     bordercolor="#000000"
     borderopacity="0.25"
     inkscape:current-layer="Layer_1"
     inkscape:cx="351"
     inkscape:cy="44.5"
     inkscape:deskcolor="#d1d1d1"
     inkscape:pagecheckerboard="0"
     inkscape:pageopacity="0.0"
     inkscape:showpageshadow="2"
     inkscape:window-height="960"
     inkscape:window-maximized="0"
     inkscape:window-width="1752"
     inkscape:window-x="210"
     inkscape:window-y="81"
     inkscape:zoom="1"
     pagecolor="#ffffff" />
  <g
     id="g5"
     style="fill:#ffffff;fill-opacity:1">
    <path
       id="path4"
       class="cls-3"
       d="M28.2,32.8c-1.7,1-3.7,1.5-5.8,1.5-6.6,0-11.9-5.3-11.9-11.9s5.3-11.9,11.9-11.9,4.1.6,5.8,1.5V.8c-1.9-.5-3.8-.8-5.8-.8C10,0,0,10,0,22.4s10,22.4,22.4,22.4,4-.3,5.8-.8v-11.3Z"
       style="fill:#ffffff;fill-opacity:1" />
    <polygon
       id="polygon4"
       class="cls-3"
       points="34.7 12.6 28.2 12.6 28.2 21.6 34.7 21.6 37.6 21.6 38.8 21.6 47.8 12.6 37.6 12.6 34.7 12.6"
       style="fill:#ffffff;fill-opacity:1" />
    <polygon
       id="polygon5"
       class="cls-3"
       points="34.7 32.2 37.6 32.2 47.8 32.2 38.8 23.2 37.6 23.2 34.7 23.2 28.2 23.2 28.2 32.2 34.7 32.2"
       style="fill:#ffffff;fill-opacity:1" />
  </g>
  <g
     id="g13"
     style="fill:#ffffff;fill-opacity:1">
    <path
       id="path5"
       class="cls-3"
       d="M89.5,35.6c-2.1.5-4.5,1.1-8.3,1.1-7.4,0-16-3.8-16-14.3s6.8-14.6,16-14.6,5.6.6,8.3,1.4l-.6,6c-2.4-1.3-4.7-2-7.3-2-5.3,0-8.7,3.8-8.7,9s3.9,8.8,9.3,8.8,4.9-.6,7-1.4l.4,5.8Z"
       style="fill:#ffffff;fill-opacity:1" />
    <path
       id="path6"
       class="cls-3"
       d="M90.8,25.8c0-6.9,5.2-10.9,12.1-10.9s12.1,4,12.1,10.9-5.2,10.9-12.1,10.9-12.1-4-12.1-10.9ZM107.6,25.8c0-3.1-1.4-5.9-4.7-5.9s-4.7,2.8-4.7,5.9,1.4,5.8,4.7,5.8,4.7-2.8,4.7-5.8Z"
       style="fill:#ffffff;fill-opacity:1" />
    <path
       id="path7"
       class="cls-3"
       d="M117.7,15.4h6.6v3.8h0c1.4-3,4.3-4.3,7.6-4.3s5.4,1.3,6.5,4c1.7-2.8,4.4-4,7.4-4,6,0,7.4,3.4,7.4,9v12.3h-7.2v-11.2c0-2.4-.8-4.1-2.9-4.1s-4.1,2-4.1,6.5v8.8h-7.2v-11.2c0-2.4-.8-4.1-2.9-4.1s-4.1,2-4.1,6.5v8.8h-7.2V15.4Z"
       style="fill:#ffffff;fill-opacity:1" />
    <path
       id="path8"
       class="cls-3"
       d="M156.9,15.4h6.6v3.8h0c1.4-3,4.3-4.3,7.6-4.3s5.4,1.3,6.5,4c1.7-2.8,4.4-4,7.4-4,6,0,7.4,3.4,7.4,9v12.3h-7.2v-11.2c0-2.4-.8-4.1-2.9-4.1s-4.1,2-4.1,6.5v8.8h-7.2v-11.2c0-2.4-.8-4.1-2.9-4.1s-4.1,2-4.1,6.5v8.8h-7.2V15.4Z"
       style="fill:#ffffff;fill-opacity:1" />
    <path
       id="path9"
       class="cls-3"
       d="M195.2,25.8c0-6.9,5.2-10.9,12.1-10.9s12.1,4,12.1,10.9-5.2,10.9-12.1,10.9-12.1-4-12.1-10.9ZM211.9,25.8c0-3.1-1.4-5.9-4.7-5.9s-4.7,2.8-4.7,5.9,1.4,5.8,4.7,5.8,4.7-2.8,4.7-5.8Z"
       style="fill:#ffffff;fill-opacity:1" />
    <path
       id="path10"
       class="cls-3"
       d="M244.5,36.2h-6.6v-3.7h0c-.9,2.3-3.8,4.2-7.2,4.2-6.2,0-9.5-5.1-9.5-11.3s3.2-10.5,8.9-10.5,5.3.8,7.2,3.2h0V6.2h7.2v30ZM232.9,31.2c2.4,0,4.4-2.3,4.4-5.3s-1.8-5.4-4.4-5.4-4.4,2.4-4.4,5.2,1.6,5.6,4.4,5.6Z"
       style="fill:#ffffff;fill-opacity:1" />
    <path
       id="path11"
       class="cls-3"
       d="M247,25.8c0-6.9,5.2-10.9,12.1-10.9s12.1,4,12.1,10.9-5.2,10.9-12.1,10.9-12.1-4-12.1-10.9ZM263.8,25.8c0-3.1-1.4-5.9-4.7-5.9s-4.7,2.8-4.7,5.9,1.4,5.8,4.7,5.8,4.7-2.8,4.7-5.8Z"
       style="fill:#ffffff;fill-opacity:1" />
    <path
       id="path12"
       class="cls-3"
       d="M288.9,21.2c-.8-.2-1.6-.2-2.4-.2-3.4,0-5.2,2.4-5.2,6.5v8.8h-7.2V15.4h6.6v3.8h0c1.2-2.6,3-4.3,6.2-4.3s1.7.1,2.4.2l-.4,6Z"
       style="fill:#ffffff;fill-opacity:1" />
    <path
       id="path13"
       class="cls-3"
       d="M296.5,27.9c.4,2.9,2.6,4,6.1,4s4.2-.4,6.4-1.6v5.1c-2.3.9-5,1.3-7.6,1.3-6.9,0-12.1-4-12.1-10.9s4.7-10.9,11.2-10.9,10.5,5.5,10.5,11.7v1.3h-14.4ZM304.5,23.8c0-2.4-1.1-4.4-4-4.4s-3.8,2-4,4.4h8Z"
       style="fill:#ffffff;fill-opacity:1" />
  </g>
  <g
     id="g18"
     style="fill:#ff0000;fill-opacity:1">
    <g
       id="g17"
       style="fill:#ff0000;fill-opacity:1">
      <path
         id="path14"
         class="cls-2"
         d="M44.9,93.1h-19.4l-3,4.5c-.8,1.4-1.5,2.4-1.8,3-.8,1.3-1.3,2.3-1.6,3.1-.8,1.4-1.2,2.6-1.2,3.6,0,1.9,1.9,3,5.7,3.5,1.7.3,2.6,1,2.6,2.2s-1,2.2-3.1,2.2l-3.7-.2-6.3-.3-8.2.6h-2.6c-1.5,0-2.3-.6-2.3-1.7s.3-1.6.9-2.1c.6-.4,1.8-.7,3.5-.9,1.7-.2,3.1-.9,4.3-2.1l3.8-4.7,1.6-2.5,1.7-2.4,1.7-2.5,30.4-43.3c1.5-2.3,2.6-3.7,3.3-4.2.6-.5,1.6-.8,3-.8s2.5.4,3,1.2c.5.8.8,2.4.8,5l3,48.2c0,1.9.1,3.5.4,4.6.2,1,.7,1.9,1.4,2.6h0c.6.7,1.4,1.2,2.2,1.4,1.1.4,1.7,1,1.7,2,0,1.4-1,2.1-2.9,2.1l-3.1-.3-5.7-.3c-1.8,0-3.8,0-5.9.2-2.1.1-4.4.3-6.9.4h-3.2c-1.5,0-2.2-.6-2.2-1.8s.3-1.4.9-1.8c.6-.4,1.7-.7,3.4-.9,1.7-.2,2.8-.7,3.4-1.4.6-.7.9-2,.9-3.8v-3.9l-.5-8.5h0ZM44.5,88.3l-.9-22.2-15,22.2h15.9Z"
         style="fill:#ff0000;fill-opacity:1" />
      <path
         id="path15"
         class="cls-2"
         d="M192,60.2l-12.1,42.2c-.6,2.1-.9,3.6-.9,4.7,0,2.4,1.3,3.6,3.8,3.6s3.5.7,3.5,2.2-1,2.1-3,2.1h-5.6l-10.4-.4c-2,0-3.5,0-4.5,0-1,0-3.6.3-7.6.7h-.4c-1.7,0-2.5-.6-2.5-1.9s.3-1.3.9-1.6,1.9-.6,3.9-1.1c2.1-.4,3.3-1,3.8-1.6.4-.7,1.2-2.8,2.2-6.5l12-42c.4-1.5.7-2.6.7-3.1,0-1.7-1.2-2.5-3.6-2.5s-3.1-.6-3.1-1.8.3-1.3.8-1.7c.5-.4,1.2-.6,2.1-.6h9.7c6.2,0,10.5-.2,12.9-.5l5.1-.3c1.3,0,1.9.6,1.9,1.8s-.3,1.4-1,1.8-1.8.7-3.5,1c-1.7.3-2.8.8-3.4,1.4-.6.6-1.2,2-1.8,4.1h0Z"
         style="fill:#ff0000;fill-opacity:1" />
      <path
         id="path16"
         class="cls-2"
         d="M251,96.4s-2,7.2-3,10.4c-1.1,3.8-11.5,9.7-24.2,9.7s-17.4-2.4-23.5-7.2c-6-4.8-9-11-9-18.7s1.8-11.9,5.5-17.3c3.7-5.4,8.8-10.1,15.5-14,5.4-3.2,11.3-5.7,17.7-7.5,6.3-1.8,12.5-2.7,18.6-2.7s7.7.3,10.9,1c1.6.4,2.4,1.1,2.4,2.1s-.2,1.3-.6,2.2l-2.4,7.3c-1,3.3-2.2,5-3.8,5s-2.5-1.3-2.5-3.9l.2-4.9c0-1.7-.3-2.8-1-3.5-.7-.7-1.8-1-3.4-1-4.1,0-8.3.8-12.6,2.5-4.3,1.7-8.4,4-12.2,7.1-4.6,3.7-8.1,8.2-10.8,13.5-2.6,5.3-3.9,10.9-3.9,16.6s1.5,10.6,4.6,14.1,7.3,5.2,12.6,5.2,2.7-.2,3.3-.7c.6-.5,1.2-1.6,1.7-3.3l3.6-12.5c.3-.7.4-1.5.4-2.4,0-1.4-.3-2.3-.9-2.7s-2.1-.8-4.6-1.1c-1.3,0-2-.6-2-1.9s1.1-2.1,3.4-2.1h4.8c0,0,8.7.4,8.7.4h2.3c2.8,0,5.4-.1,7.6-.4h4.6c1.6,0,2.4.6,2.4,1.7s-1.3,2.4-3.9,2.7c-1.7,0-3,.5-3.8,1.4-.9,1-1.7,2.7-2.4,5.2h0Z"
         style="fill:#ff0000;fill-opacity:1" />
      <path
         id="path17"
         class="cls-2"
         d="M290.8,93.1h-19.4l-3,4.5c-.8,1.4-1.5,2.4-1.8,3-.8,1.3-1.3,2.3-1.6,3.1-.8,1.4-1.2,2.6-1.2,3.6,0,1.9,1.9,3,5.7,3.5,1.7.3,2.6,1,2.6,2.2s-1,2.2-3.1,2.2l-3.7-.2-3-.2c-2.3-.1-4.5-.1-6.8,0l-6.1.4c-1.5,0-2.3-.6-2.3-1.7s.3-1.6.9-2.1c.6-.4,1.8-.7,3.5-.9,1.7-.2,1.8-.9,3-2.1l3.8-4.7,1.6-2.5,1.7-2.4,1.7-2.5,30.4-43.3c1.5-2.3,2.6-3.7,3.3-4.2.6-.5,1.6-.8,3-.8s2.5.4,3,1.2c.5.8.8,2.4.8,5l3,48.2c0,3.3.3,5.4,1,6.5s1.9,1.7,3.8,2c1.9.3,2.8,1,2.8,2.2s-1,2.1-2.9,2.1l-3.1-.3-7.6-.3c-1.8,0-3.8,0-5.9.2-2.1.1-4.4.3-6.9.4h-3.2c-1.5,0-2.2-.6-2.2-1.8s.3-1.4.9-1.8c.6-.4,1.7-.7,3.4-.9,1.7-.2,2.8-.7,3.4-1.4.6-.7.9-2,.9-3.8v-3.9l-.5-8.5h0ZM290.4,88.3l-.9-22.2-15,22.2h15.9Z"
         style="fill:#ff0000;fill-opacity:1" />
    </g>
    <path
       id="path18"
       class="cls-2"
       d="M137.1,63.7l-30.4,45.3c-1.5,2.2-2.6,3.7-3.3,4.2-.7.6-1.7.9-2.9.9s-2.1-.3-2.6-.9c-.4-.6-.7-1.8-.7-3.8l-1.5-45.9-9.7,26.5-1.5,5.2c-1.2,4.1-1.9,6.5-2.1,7.4-.2.9-.3,2-.3,3.3s.4,2.6,1.1,3c.7.5,2.5,1,5.3,1.4,1.6.2,2.4.9,2.4,2.1s-1,2.3-3.1,2.3l-3.6-.3-5.7-.2-7.5.3c-1.7,0-2.5-.6-2.5-1.9s.8-1.8,2.5-2.3c1-.3,1.8-.9,2.5-1.6.3-.4.6-.7.6-.7.7-.9,2.1-4.2,4.1-9.9l12.5-35.2c1.2-3.5,1.7-5.6,1.7-6.4s-.3-1.2-.9-1.5c-.6-.3-1.8-.6-3.7-.9-1.9-.3-2.8-1-2.8-2.1s.3-1.1.8-1.5c.5-.4,1.1-.7,1.8-.7l3.6.4h18.1c.8,0,1.2.1,1.3.4.2.3.3,1.1.3,2.4l1.5,39.3,26-40.1c.6-1,1.1-1.6,1.3-1.7.3-.2.8-.3,1.5-.3h19.1c1.4,0,2.1.6,2.1,1.7s-1.1,2.5-3.3,2.7-3.6.7-4.1,1.3c-.5.7-1.1,2.2-1.7,4.6l-9.4,39.3c-.3,1.1-.5,2.4-.8,3.9-.3,1.5-.4,2.6-.4,3.1,0,1.1.3,1.9.9,2.4.6.5,1.7.9,3.4,1.2,1.7.3,2.5,1,2.5,2.2s-1.1,2.2-3.4,2.2h-3.1c-4.6-.5-8.3-.8-11.2-.8s-6,.1-8.3.4l-4.8.4c-1.6,0-2.4-.7-2.4-2s.6-1.8,1.7-2.2l1.6-.3h1.2c0,0,1.1-.3,1.1-.3,1.3-.1,2.2-.6,2.7-1.5.5-.9,1.3-3.1,2.2-6.6l9.8-38.3h0Z"
       style="fill:#ff0000;fill-opacity:1" />
  </g>
  <path
     d="m 335.19922,123.19922 v 2.10156 h 10.40039 c 7.69999,0 14.80079,-0.80156 21.30078,-2.10156 z"
     id="path130"
     style="fill:#ffffff" />
  <path
     d="m 549.34961,119.79883 c -0.0164,1e-5 -0.0324,0.002 -0.0488,0.002 h 0.0996 c -0.017,0 -0.0337,-0.002 -0.0508,-0.002 z"
     id="path129"
     style="fill:#ffffff" />
  <path
     d="m 537.30078,118.19922 c 3.78458,1.09553 7.86669,1.59556 12.04883,1.59961 4.18281,-0.004 8.26562,-0.50391 12.05078,-1.59961 z"
     id="path128"
     style="fill:#ffffff" />
  <path
     d="m 459.65039,119.79883 c -0.017,1e-5 -0.0337,0.002 -0.0508,0.002 h 0.0996 c -0.0164,0 -0.0324,-0.002 -0.0488,-0.002 z"
     id="path127"
     style="fill:#ffffff" />
  <path
     d="m 447.59961,118.19922 c 3.78516,1.0957 7.86797,1.59572 12.05078,1.59961 4.18214,-0.004 8.26425,-0.50408 12.04883,-1.59961 z"
     id="path126"
     style="fill:#ffffff" />
  <path
     d="m 358.09961,118.19922 c -4,1.1 -8.39961,2 -13.09961,2.5 h 31.19922 c 2.3,-0.8 4.4,-1.6 6.5,-2.5 z"
     id="path125"
     style="fill:#ffffff" />
  <path
     d="m 526.69922,113.19922 c 1.3,0.9 2.70117,1.8 4.20117,2.5 h 36.79883 c 1.4,-0.7 2.80117,-1.6 4.20117,-2.5 z"
     id="path124"
     style="fill:#ffffff" />
  <path
     d="m 437.09961,113.19922 c 1.3,0.9 2.70117,1.8 4.20117,2.5 h 36.79883 c 1.4,-0.7 2.80117,-1.6 4.20117,-2.5 z"
     id="path123"
     style="fill:#ffffff" />
  <path
     d="m 370.40039,113.19922 c -1.6,0.9 -3.40078,1.7 -5.30078,2.5 h 0.0996 22.5 c 1.5,-0.8 2.90117,-1.6 4.20117,-2.5 z"
     id="path122"
     style="fill:#ffffff" />
  <path
     d="m 555.40039,108.19922 c -1.1,1.2 -2.29961,2.1 -3.59961,2.5 H 575 c 0.9,-0.8 1.7,-1.6 2.5,-2.5 z"
     id="path121"
     style="fill:#ffffff" />
  <path
     d="m 521,108.19922 c 0.8,0.9 1.6,1.7 2.5,2.5 h 23.19922 c -1.3,-0.4 -2.49961,-1.3 -3.59961,-2.5 z"
     id="path120"
     style="fill:#ffffff" />
  <path
     d="m 465.69922,108.19922 c -1.1,1.2 -2.29961,2.1 -3.59961,2.5 h 23.20117 c 0.9,-0.8 1.7,-1.6 2.5,-2.5 z"
     id="path119"
     style="fill:#ffffff" />
  <path
     d="m 431.30078,108.19922 c 0.8,0.9 1.6,1.7 2.5,2.5 H 457 c -1.3,-0.4 -2.49961,-1.3 -3.59961,-2.5 z"
     id="path118"
     style="fill:#ffffff" />
  <path
     d="m 378,108.19922 c -1.1,0.9 -2.20039,1.7 -3.40039,2.5 h 21 c 1.1,-0.8 2.09961,-1.6 3.09961,-2.5 z"
     id="path117"
     style="fill:#ffffff" />
  <path
     d="m 558.30078,103.19922 c -0.4,0.9 -0.70156,1.8 -1.10156,2.5 h 22.40039 c 0.6,-0.8 1.20117,-1.6 1.70117,-2.5 z"
     id="path116"
     style="fill:#ffffff" />
  <path
     d="m 517.30078,103.19922 c 0.6,0.9 1.09922,1.7 1.69922,2.5 h 22.5 c -0.4,-0.8 -0.79961,-1.6 -1.09961,-2.5 h -0.0996 z"
     id="path115"
     style="fill:#ffffff" />
  <path
     d="m 468.69922,103.19922 c -0.4,0.9 -0.69961,1.8 -1.09961,2.5 H 490 c 0.6,-0.8 1.19922,-1.6 1.69922,-2.5 z"
     id="path114"
     style="fill:#ffffff" />
  <path
     d="m 427.59961,103.19922 c 0.6,0.9 1.10117,1.7 1.70117,2.5 h 22.5 c -0.4,-0.8 -0.80156,-1.6 -1.10156,-2.5 h -0.0996 z"
     id="path113"
     style="fill:#ffffff" />
  <path
     d="m 383,103.19922 c -0.7,0.9 -1.50078,1.7 -2.30078,2.5 h 20.60156 c 0.8,-0.8 1.59883,-1.7 2.29883,-2.5 z"
     id="path112"
     style="fill:#ffffff" />
  <path
     d="m 559.80078,98.199219 c -0.2,0.899999 -0.40117,1.700001 -0.70117,2.500001 h 23.70117 c 0.4,-0.8 0.89883,-1.600002 1.29883,-2.500001 z"
     id="path111"
     style="fill:#ffffff" />
  <path
     d="m 470.19922,98.199219 c -0.2,0.899999 -0.39922,1.700001 -0.69922,2.500001 h 23.69922 c 0.4,-0.8 0.90078,-1.600002 1.30078,-2.500001 z"
     id="path110"
     style="fill:#ffffff" />
  <path
     d="m 386.5,98.199219 c -0.5,0.799999 -1,1.700001 -1.5,2.500001 h 20.59961 c 0.6,-0.8 1.20078,-1.700002 1.80078,-2.500001 z"
     id="path109"
     style="fill:#ffffff" />
  <path
     d="m 514.40039,98.099609 c 0.4,0.899999 0.79883,1.700001 1.29883,2.500001 h 23.70117 c -0.2,-0.8 -0.50117,-1.600002 -0.70117,-2.500001 z"
     id="path108"
     style="fill:#ffffff" />
  <path
     d="m 424.80078,98.099609 c 0.4,0.899999 0.79883,1.700001 1.29883,2.500001 h 23.59961 c -0.2,-0.8 -0.49922,-1.600002 -0.69922,-2.500001 z"
     id="path107"
     style="fill:#ffffff" />
  <path
     d="m 388.5,93.199219 c -0.2,0.799999 -0.50039,1.700001 -0.90039,2.5 h 21.20117 c 0.5,-0.799999 0.89883,-1.700001 1.29883,-2.5 z"
     id="path106"
     style="fill:#ffffff" />
  <path
     d="m 560.69922,93.099609 c -0.1,0.899999 -0.29844,1.700001 -0.39844,2.5 h 24.79883 c 0.3,-0.799999 0.60039,-1.600001 0.90039,-2.5 z"
     id="path105"
     style="fill:#ffffff" />
  <path
     d="m 512.5,93.099609 c 0.3,0.899999 0.60039,1.700001 0.90039,2.5 h 24.79883 c -0.2,-0.799999 -0.29844,-1.600001 -0.39844,-2.5 z"
     id="path104"
     style="fill:#ffffff" />
  <path
     d="m 471.09961,93.099609 c -0.1,0.899999 -0.30039,1.700001 -0.40039,2.5 H 495.5 c 0.3,-0.799999 0.60039,-1.600001 0.90039,-2.5 z"
     id="path103"
     style="fill:#ffffff" />
  <path
     d="m 422.80078,93.099609 c 0.3,0.899999 0.59844,1.700001 0.89844,2.5 H 448.5 c -0.2,-0.799999 -0.30039,-1.600001 -0.40039,-2.5 z"
     id="path102"
     style="fill:#ffffff" />
  <path
     d="m 561.40039,88.099609 c 0,0.899999 -0.20078,1.700001 -0.30078,2.5 h 25.80078 c 0.2,-0.799999 0.49922,-1.7 0.69922,-2.5 z"
     id="path101"
     style="fill:#ffffff" />
  <path
     d="m 510.90039,88.099609 c 0.2,0.899999 0.49922,1.700001 0.69922,2.5 h 25.80078 c -0.1,-0.799999 -0.20078,-1.600001 -0.30078,-2.5 z"
     id="path100"
     style="fill:#ffffff" />
  <path
     d="m 471.80078,88.099609 c 0,0.899999 -0.20078,1.700001 -0.30078,2.5 h 25.80078 c 0.2,-0.799999 0.49922,-1.7 0.69922,-2.5 z"
     id="path99"
     style="fill:#ffffff" />
  <path
     d="m 421.19922,88.099609 c 0.2,0.899999 0.50117,1.700001 0.70117,2.5 h 25.79883 c -0.1,-0.799999 -0.19883,-1.600001 -0.29883,-2.5 z"
     id="path98"
     style="fill:#ffffff" />
  <path
     d="m 389.40039,88.099609 c 0,0.8 -0.10078,1.700001 -0.30078,2.5 h 22 c 0.3,-0.799999 0.60039,-1.7 0.90039,-2.5 z"
     id="path97"
     style="fill:#ffffff" />
  <path
     d="m 561.80078,83.099609 c 0,0.899999 -0.10117,1.700001 -0.20117,2.5 h 0.0996 26.5 c 0.2,-0.799999 0.3,-1.7 0.5,-2.5 z"
     id="path96"
     style="fill:#ffffff" />
  <path
     d="m 509.80078,83.099609 c 0.2,0.899999 0.3,1.700001 0.5,2.5 h 26.5 c 0,-0.799999 -0.10117,-1.600001 -0.20117,-2.5 z"
     id="path95"
     style="fill:#ffffff" />
  <path
     d="m 472.09961,83.099609 c 0,0.899999 -0.0992,1.700001 -0.19922,2.5 H 472 498.5 c 0.2,-0.799999 0.3,-1.7 0.5,-2.5 z"
     id="path94"
     style="fill:#ffffff" />
  <path
     d="m 420.09961,83.099609 c 0.2,0.899999 0.3,1.700001 0.5,2.5 h 26.5 c 0,-0.799999 -0.0992,-1.600001 -0.19922,-2.5 z"
     id="path93"
     style="fill:#ffffff" />
  <path
     d="m 389.09961,83.099609 c 0.2,0.8 0.30078,1.700001 0.30078,2.5 h 23.29883 c 0.2,-0.799999 0.30039,-1.7 0.40039,-2.5 z"
     id="path92"
     style="fill:#ffffff" />
  <path
     d="m 562.19922,78.099609 c 0,0.899999 3.9e-4,1.700001 -0.0996,2.5 h 27 c 0.1,-0.799999 0.20039,-1.7 0.40039,-2.5 z"
     id="path91"
     style="fill:#ffffff" />
  <path
     d="m 509.09961,78.099609 c 0.1,0.899999 0.20039,1.700001 0.40039,2.5 h 27.09961 c 0,-0.799999 3.9e-4,-1.7 -0.0996,-2.5 h -0.0996 z"
     id="path90"
     style="fill:#ffffff" />
  <path
     d="m 472.59961,78.099609 c 0,0.899999 3.9e-4,1.700001 -0.0996,2.5 h 27 c 0.1,-0.799999 0.20039,-1.7 0.40039,-2.5 z"
     id="path89"
     style="fill:#ffffff" />
  <path
     d="m 419.40039,78.099609 c 0.1,0.899999 0.20039,1.700001 0.40039,2.5 h 27.09961 c 0,-0.799999 3.9e-4,-1.7 -0.0996,-2.5 h -0.10156 z"
     id="path88"
     style="fill:#ffffff" />
  <path
     d="m 387.30078,78.099609 c 0.4,0.8 0.79961,1.700001 1.09961,2.5 h 25 v -2.5 z"
     id="path87"
     style="fill:#ffffff" />
  <path
     d="m 562.19922,73.099609 v 2.5 h 27.5 c 0,-0.799999 0.10117,-1.7 0.20117,-2.5 z"
     id="path86"
     style="fill:#ffffff" />
  <path
     d="m 508.5,73.099609 c 0,0.8 0.0992,1.700001 0.19922,2.5 h 27.5 v -2.5 z"
     id="path85"
     style="fill:#ffffff" />
  <path
     d="m 472.59961,73.099609 v 2.5 h 27.5 c 0,-0.799999 0.10117,-1.7 0.20117,-2.5 z"
     id="path84"
     style="fill:#ffffff" />
  <path
     d="m 419,73.099609 c 0,0.8 0.0992,1.700001 0.19922,2.5 h 27.5 v -2.5 h -0.0996 z"
     id="path83"
     style="fill:#ffffff" />
  <path
     d="m 383.80078,73.099609 c 0.7,0.8 1.4,1.600001 2,2.5 h 27.39844 c 0,-0.799999 -0.19844,-1.7 -0.39844,-2.5 z"
     id="path82"
     style="fill:#ffffff" />
  <path
     d="m 562.5,68.099609 v 2.5 h 27.69922 c 0,-0.799999 0.002,-1.7 0.10156,-2.5 z"
     id="path81"
     style="fill:#ffffff" />
  <path
     d="m 508.30078,68.099609 c 0,0.899999 -3.9e-4,1.700001 0.0996,2.5 h 27.79883 v -2.5 h -0.0996 z"
     id="path80"
     style="fill:#ffffff" />
  <path
     d="m 472.80078,68.099609 v 2.5 H 500.5 c 0,-0.799999 -3.9e-4,-1.7 0.0996,-2.5 z"
     id="path79"
     style="fill:#ffffff" />
  <path
     d="m 418.69922,68.099609 c 0,0.899999 0.002,1.700001 0.10156,2.5 h 27.79883 v -2.5 H 446.5 Z"
     id="path78"
     style="fill:#ffffff" />
  <path
     d="m 377.90039,68.099609 c 1.2,0.8 2.29883,1.600001 3.29883,2.5 h 0.10156 31 c -0.2,-0.799999 -0.50078,-1.7 -0.80078,-2.5 z"
     id="path77"
     style="fill:#ffffff" />
  <path
     d="M 562.40039,63.099609 V 64.5 65.599609 h 27.79883 V 64.5 63.099609 Z"
     id="path76"
     style="fill:#ffffff" />
  <path
     d="M 508.30078,63.099609 V 64.5 65.599609 h 27.79883 V 64.5 63.099609 Z"
     id="path75"
     style="fill:#ffffff" />
  <path
     d="M 472.69922,63.099609 V 64.5 65.599609 H 500.5 V 64.5 63.099609 Z"
     id="path74"
     style="fill:#ffffff" />
  <path
     d="M 418.69922,63.099609 V 64.5 65.599609 H 446.5 V 64.5 63.099609 Z"
     id="path73"
     style="fill:#ffffff" />
  <path
     d="m 367.40039,63.099609 c 2.3,0.7 4.39883,1.600001 6.29883,2.5 h 36.90039 c -0.4,-0.799999 -0.79883,-1.7 -1.29883,-2.5 z"
     id="path72"
     style="fill:#ffffff" />
  <path
     d="m 335.2207,59.5 c -0.007,2.69e-4 -0.0141,-2.7e-4 -0.0215,0 v 0.09961 z"
     id="path71"
     style="fill:#ffffff" />
  <path
     d="M 335.5,58.199219 335.2207,59.5 c 8.19081,-0.29847 15.38567,0.10021 21.58008,1.199219 h 50.89844 c -0.6,-0.899999 -1.19844,-1.700001 -1.89844,-2.5 z"
     id="path70"
     style="fill:#ffffff" />
  <path
     d="m 562.40039,58.099609 v 2.5 h 27.79883 c 0,-0.899999 3.9e-4,-1.7 -0.0996,-2.5 z"
     id="path69"
     style="fill:#ffffff" />
  <path
     d="m 508.5,58.099609 c 0,0.8 3.9e-4,1.700001 -0.0996,2.5 h 27.79883 v -2.5 z"
     id="path68"
     style="fill:#ffffff" />
  <path
     d="m 472.69922,58.099609 v 2.5 H 500.5 c 0,-0.899999 3.9e-4,-1.7 -0.0996,-2.5 z"
     id="path67"
     style="fill:#ffffff" />
  <path
     d="m 418.80078,58.099609 c 0,0.8 -0.002,1.700001 -0.10156,2.5 H 446.5 v -2.5 z"
     id="path66"
     style="fill:#ffffff" />
  <path
     d="m 562.19922,53.099609 v 2.5 h 0.10156 27.59961 c 0,-0.799999 -0.10117,-1.7 -0.20117,-2.5 z"
     id="path65"
     style="fill:#ffffff" />
  <path
     d="m 508.80078,53.099609 c 0,0.8 -0.20117,1.700001 -0.20117,2.5 h 27.59961 v -2.5 z"
     id="path64"
     style="fill:#ffffff" />
  <path
     d="m 472.5,53.099609 v 2.5 h 0.0996 27.59961 c 0,-0.799999 -0.0992,-1.7 -0.19922,-2.5 z"
     id="path63"
     style="fill:#ffffff" />
  <path
     d="m 419.09961,53.099609 c 0,0.8 -0.19922,1.700001 -0.19922,2.5 H 446.5 v -2.5 z"
     id="path62"
     style="fill:#ffffff" />
  <path
     d="m 336.80078,53.099609 -0.60156,2.5 H 403.5 c -0.9,-0.899999 -1.79922,-1.7 -2.69922,-2.5 z"
     id="path61"
     style="fill:#ffffff" />
  <path
     d="m 561.90039,48.099609 c 0,0.8 -3.9e-4,1.700001 0.0996,2.5 h 0.0996 27.30078 c -0.1,-0.899999 -0.20039,-1.7 -0.40039,-2.5 z"
     id="path60"
     style="fill:#ffffff" />
  <path
     d="m 509.40039,48.099609 c -0.1,0.8 -0.30039,1.700001 -0.40039,2.5 h 27.30078 c 0,-0.899999 -3.9e-4,-1.7 0.0996,-2.5 z"
     id="path59"
     style="fill:#ffffff" />
  <path
     d="m 472.30078,48.099609 c 0,0.8 -3.9e-4,1.700001 0.0996,2.5 h 0.0996 27.30078 c -0.1,-0.899999 -0.20039,-1.7 -0.40039,-2.5 z"
     id="path58"
     style="fill:#ffffff" />
  <path
     d="m 419.80078,48.099609 c -0.1,0.8 -0.30039,1.700001 -0.40039,2.5 h 27.29883 c 0,-0.899999 0.002,-1.7 0.10156,-2.5 z"
     id="path57"
     style="fill:#ffffff" />
  <path
     d="m 338,48.099609 -0.59961,2.5 H 397.5 c -1.3,-0.899999 -2.6,-1.7 -4,-2.5 z"
     id="path56"
     style="fill:#ffffff" />
  <path
     d="m 561.59961,43.099609 c 0,0.8 0.10117,1.600001 0.20117,2.5 h 26.79883 c -0.2,-0.899999 -0.3,-1.7 -0.5,-2.5 z"
     id="path55"
     style="fill:#ffffff" />
  <path
     d="m 510.40039,43.099609 c -0.2,0.8 -0.4,1.700001 -0.5,2.5 h 26.79883 c 0,-0.899999 0.10117,-1.7 0.20117,-2.5 z"
     id="path54"
     style="fill:#ffffff" />
  <path
     d="m 472,43.099609 c 0,0.8 0.0992,1.600001 0.19922,2.5 H 499 c -0.2,-0.899999 -0.3,-1.7 -0.5,-2.5 z"
     id="path53"
     style="fill:#ffffff" />
  <path
     d="m 420.69922,43.099609 c -0.2,0.8 -0.4,1.700001 -0.5,2.5 H 447 c 0,-0.899999 0.0992,-1.7 0.19922,-2.5 z"
     id="path52"
     style="fill:#ffffff" />
  <path
     d="m 339.30078,43.099609 -0.60156,2.5 H 388.5 c -2,-0.899999 -4.2,-1.8 -6.5,-2.5 z"
     id="path51"
     style="fill:#ffffff" />
  <path
     d="m 561.09961,38.099609 c 0.1,0.8 0.20078,1.600001 0.30078,2.5 H 587.5 c -0.2,-0.899999 -0.49922,-1.7 -0.69922,-2.5 z"
     id="path50"
     style="fill:#ffffff" />
  <path
     d="m 511.80078,38.099609 c -0.3,0.8 -0.50117,1.700001 -0.70117,2.5 h 26.09961 c 0,-0.899999 0.20078,-1.7 0.30078,-2.5 z"
     id="path49"
     style="fill:#ffffff" />
  <path
     d="m 471.40039,38.099609 c 0.1,0.8 0.19883,1.600001 0.29883,2.5 h 26.10156 c -0.2,-0.899999 -0.50117,-1.7 -0.70117,-2.5 z"
     id="path48"
     style="fill:#ffffff" />
  <path
     d="m 422.09961,38.099609 c -0.3,0.8 -0.49922,1.700001 -0.69922,2.5 H 447.5 c 0,-0.899999 0.20078,-1.7 0.30078,-2.5 z"
     id="path47"
     style="fill:#ffffff" />
  <path
     d="m 340.5,38.099609 -0.59961,2.5 h 32.40039 C 365.50079,39.299611 357.79921,38.5 349.19922,38.5 v -0.400391 z"
     id="path46"
     style="fill:#ffffff" />
  <path
     d="m 560.30078,33.099609 c 0.2,0.8 0.29844,1.600001 0.39844,2.5 H 586 c -0.3,-0.899999 -0.6,-1.7 -1,-2.5 z"
     id="path45"
     style="fill:#ffffff" />
  <path
     d="m 513.59961,33.099609 c -0.3,0.8 -0.7,1.600001 -1,2.5 h 25.30078 c 0.1,-0.899999 0.30039,-1.7 0.40039,-2.5 z"
     id="path44"
     style="fill:#ffffff" />
  <path
     d="m 470.69922,33.099609 c 0.2,0.8 0.30039,1.600001 0.40039,2.5 h 25.30078 c -0.3,-0.899999 -0.6,-1.7 -1,-2.5 z"
     id="path43"
     style="fill:#ffffff" />
  <path
     d="m 423.90039,33.099609 c -0.3,0.8 -0.7,1.600001 -1,2.5 h 25.29883 c 0.1,-0.899999 0.30039,-1.7 0.40039,-2.5 z"
     id="path42"
     style="fill:#ffffff" />
  <path
     d="m 341.69922,33.099609 -0.59961,2.5 h 8.80078 l 0.59961,-2.5 z"
     id="path41"
     style="fill:#ffffff" />
  <path
     d="m 559,28.099609 c 0.2,0.8 0.49922,1.600001 0.69922,2.5 h 24.20117 c -0.4,-0.899999 -0.80078,-1.7 -1.30078,-2.5 z"
     id="path40"
     style="fill:#ffffff" />
  <path
     d="m 469.40039,28.099609 c 0.2,0.8 0.49922,1.600001 0.69922,2.5 h 24.20117 c -0.4,-0.899999 -0.80078,-1.7 -1.30078,-2.5 z"
     id="path39"
     style="fill:#ffffff" />
  <path
     d="m 343.09961,28.099609 -0.59961,2.5 h 8.69922 L 351.40039,30 373.59961,28.099609 Z"
     id="path38"
     style="fill:#ffffff" />
  <path
     d="m 515.90039,28 c -0.5,0.799999 -0.90078,1.600001 -1.30078,2.5 h 24.20117 c 0.2,-0.899999 0.39922,-1.700001 0.69922,-2.5 z"
     id="path37"
     style="fill:#ffffff" />
  <path
     d="m 426.19922,28 c -0.5,0.799999 -0.89883,1.600001 -1.29883,2.5 h 24.19922 c 0.2,-0.899999 0.40117,-1.700001 0.70117,-2.5 z"
     id="path36"
     style="fill:#ffffff" />
  <path
     d="m 344.19922,23.099609 -0.59961,2.5 H 399 l 0.59961,-2.5 z"
     id="path35"
     style="fill:#ffffff" />
  <path
     d="m 557,23 c 0.4,0.799999 0.79922,1.600001 1.19922,2.5 h 23 c -0.6,-0.899999 -1.19883,-1.700001 -1.79883,-2.5 z"
     id="path34"
     style="fill:#ffffff" />
  <path
     d="m 519.19922,23 c -0.6,0.799999 -1.19883,1.600001 -1.79883,2.5 h 22.90039 c 0.4,-0.899999 0.79922,-1.800001 1.19922,-2.5 z"
     id="path33"
     style="fill:#ffffff" />
  <path
     d="m 467.19922,23 c 0.4,0.799999 0.80117,1.600001 1.20117,2.5 h 0.0996 22.90039 c -0.6,-0.899999 -1.20078,-1.700001 -1.80078,-2.5 z"
     id="path32"
     style="fill:#ffffff" />
  <path
     d="m 429.5,23 c -0.6,0.799999 -1.20078,1.600001 -1.80078,2.5 h 22.90039 c 0.4,-0.899999 0.80117,-1.800001 1.20117,-2.5 z"
     id="path31"
     style="fill:#ffffff" />
  <path
     d="m 550.19922,18 c 1.9,0.2 3.50039,1.000001 4.90039,2.5 h 22.09961 c -0.8,-0.899999 -1.69961,-1.700001 -2.59961,-2.5 h -24.29883 z"
     id="path30"
     style="fill:#ffffff" />
  <path
     d="m 523.90039,18 c -0.9,0.799999 -1.79961,1.600001 -2.59961,2.5 h 22.09961 c 1.4,-1.499999 3.00039,-2.3 4.90039,-2.5 z"
     id="path29"
     style="fill:#ffffff" />
  <path
     d="m 460.5,18 c 1.9,0.2 3.50039,1.000001 4.90039,2.5 H 487.5 c -0.8,-0.899999 -1.69961,-1.700001 -2.59961,-2.5 h -24.30078 z"
     id="path28"
     style="fill:#ffffff" />
  <path
     d="m 434.19922,18 c -0.9,0.799999 -1.79961,1.600001 -2.59961,2.5 h 22.09961 c 1.4,-1.499999 3.00039,-2.3 4.90039,-2.5 z"
     id="path27"
     style="fill:#ffffff" />
  <path
     d="m 345.5,18 -0.59961,2.5 h 55.40039 l 0.59961,-2.5 z"
     id="path26"
     style="fill:#ffffff" />
  <path
     d="m 531.5,13 c -1.5,0.699999 -2.90078,1.600001 -4.30078,2.5 h 44.20117 c -1.4,-0.899999 -2.80078,-1.800001 -4.30078,-2.5 z"
     id="path25"
     style="fill:#ffffff" />
  <path
     d="m 441.80078,13 c -1.5,0.699999 -2.90078,1.600001 -4.30078,2.5 h 44.19922 c -1.4,-0.899999 -2.79883,-1.800001 -4.29883,-2.5 z"
     id="path24"
     style="fill:#ffffff" />
  <path
     d="m 346.69922,13 -0.59961,2.5 H 401.5 l 0.59961,-2.5 z"
     id="path21"
     style="fill:#ffffff" />
  <path
     d="m 549.30078,9.3007812 c -3.7,0 -7.30117,0.3992196 -10.70117,1.1992188 H 560 C 556.6,9.7000008 553.00078,9.3007813 549.30078,9.3007812 Z"
     id="path20"
     style="fill:#ffffff" />
  <path
     d="m 459.59961,9.3007812 c -3.7,0 -7.29922,0.3992196 -10.69922,1.1992188 h 21.40039 c -3.4,-0.7999992 -7.00117,-1.1992187 -10.70117,-1.1992188 z"
     id="path19"
     style="fill:#ffffff" />
  <path
     d="m 348,8 -0.59961,2.5 h 55.40039 L 403.40039,8 Z"
     id="path3"
     style="fill:#ffffff" />
  <path
     d="M 404.40039,4.1992188 371.59961,5.5 h 32.5 z"
     id="path1"
     style="fill:#ffffff" />
  <path
     id="path22"
     class="cls-4"
     d="M319.6,55.9c-.9.9-2,1.4-3.3,1.4s-2.4-.5-3.3-1.4c-.9-.9-1.4-2-1.4-3.3,0-2.6,2.1-4.6,4.6-4.6s2.4.5,3.3,1.4c.9.9,1.4,2,1.4,3.3s-.5,2.4-1.4,3.3ZM313.6,49.9c-.7.7-1.1,1.7-1.1,2.7s.4,2,1.1,2.7c.7.7,1.7,1.1,2.7,1.1,2.1,0,3.9-1.7,3.9-3.9s-.4-2-1.1-2.7c-.7-.7-1.7-1.1-2.7-1.1s-2,.4-2.7,1.1Z"
     style="fill:#ff0000;fill-opacity:1" />
  <path
     id="path23"
     class="cls-4"
     d="M318.5,54.5c0,.1,0,.2.2.2h0s0,0,0,0v.3h-1c0-.1,0-.1,0-.2,0,0,0,0,0,0,0,0,0-.2,0-.4v-.8c0-.3-.1-.5-.3-.6-.1,0-.3,0-.6,0h-1.4v2.1h-.9v-5.2h2.4c.4,0,.7,0,1,.2.5.2.8.7.8,1.3s0,.6-.2.8c0,.2-.2.3-.4.4.1,0,.2.2.3.3.1.1.2.4.2.7v.7c0,.2,0,.3,0,.4h0ZM317.4,52c.1-.1.2-.3.2-.6h0c0-.3-.1-.5-.3-.6-.1,0-.3,0-.5,0h-1.5v1.5h1.4c.3,0,.5,0,.7-.2Z"
     style="fill:#ff0000;fill-opacity:1" />
</svg>
