<?xml version="1.0" encoding="UTF-8" standalone="no"?>
<svg
   id="Layer_1"
   data-name="Layer 1"
   version="1.1"
   viewBox="0 0 642.49293 116.5"
   sodipodi:docname="amiga1200.svg"
   inkscape:version="1.3 (0e150ed, 2023-07-21)"
   width="642.49292"
   height="116.5"
   xmlns:inkscape="http://www.inkscape.org/namespaces/inkscape"
   xmlns:sodipodi="http://sodipodi.sourceforge.net/DTD/sodipodi-0.dtd"
   xmlns="http://www.w3.org/2000/svg"
   xmlns:svg="http://www.w3.org/2000/svg">
  <defs
     id="defs1">
    <style
       id="style1">&#10;      .cls-1 {&#10;        fill: none;&#10;      }&#10;&#10;      .cls-1, .cls-2, .cls-3, .cls-4 {&#10;        stroke-width: 0px;&#10;      }&#10;&#10;      .cls-2, .cls-4 {&#10;        fill: red;&#10;      }&#10;&#10;      .cls-3 {&#10;        fill: #fff;&#10;      }&#10;&#10;      .cls-4 {&#10;        fill-rule: evenodd;&#10;      }&#10;    </style>
  </defs>
  <sodipodi:namedview
     id="namedview94"
     bordercolor="#000000"
     borderopacity="0.25"
     inkscape:current-layer="Layer_1"
     inkscape:cx="387"
     inkscape:cy="44.5"
     inkscape:deskcolor="#d1d1d1"
     inkscape:pagecheckerboard="0"
     inkscape:pageopacity="0.0"
     inkscape:showpageshadow="2"
     inkscape:window-height="960"
     inkscape:window-maximized="0"
     inkscape:window-width="1752"
     inkscape:window-x="22"
     inkscape:window-y="83"
     inkscape:zoom="1"
     pagecolor="#ffffff" />
  <g
     id="g5"
     style="fill:#ffffff;fill-opacity:1">
    <path
       id="path4"
       class="cls-3"
       d="m 28.2,32.8 c -1.7,1 -3.7,1.5 -5.8,1.5 -6.6,0 -11.9,-5.3 -11.9,-11.9 0,-6.6 5.3,-11.9 11.9,-11.9 6.6,0 4.1,0.6 5.8,1.5 V 0.8 C 26.3,0.3 24.4,0 22.4,0 10,0 0,10 0,22.4 c 0,12.4 10,22.4 22.4,22.4 12.4,0 4,-0.3 5.8,-0.8 V 32.7 Z"
       style="fill:#ffffff;fill-opacity:1" />
    <polygon
       id="polygon4"
       class="cls-3"
       points="28.2,21.6 34.7,21.6 37.6,21.6 38.8,21.6 47.8,12.6 37.6,12.6 34.7,12.6 28.2,12.6 "
       style="fill:#ffffff;fill-opacity:1" />
    <polygon
       id="polygon5"
       class="cls-3"
       points="47.8,32.2 38.8,23.2 37.6,23.2 34.7,23.2 28.2,23.2 28.2,32.2 34.7,32.2 37.6,32.2 "
       style="fill:#ffffff;fill-opacity:1" />
  </g>
  <g
     id="g13"
     style="fill:#ffffff;fill-opacity:1">
    <path
       id="path5"
       class="cls-3"
       d="m 89.5,35.6 c -2.1,0.5 -4.5,1.1 -8.3,1.1 -7.4,0 -16,-3.8 -16,-14.3 0,-10.5 6.8,-14.6 16,-14.6 9.2,0 5.6,0.6 8.3,1.4 l -0.6,6 c -2.4,-1.3 -4.7,-2 -7.3,-2 -5.3,0 -8.7,3.8 -8.7,9 0,5.2 3.9,8.8 9.3,8.8 5.4,0 4.9,-0.6 7,-1.4 l 0.4,5.8 z"
       style="fill:#ffffff;fill-opacity:1" />
    <path
       id="path6"
       class="cls-3"
       d="m 90.8,25.8 c 0,-6.9 5.2,-10.9 12.1,-10.9 6.9,0 12.1,4 12.1,10.9 0,6.9 -5.2,10.9 -12.1,10.9 -6.9,0 -12.1,-4 -12.1,-10.9 z m 16.8,0 c 0,-3.1 -1.4,-5.9 -4.7,-5.9 -3.3,0 -4.7,2.8 -4.7,5.9 0,3.1 1.4,5.8 4.7,5.8 3.3,0 4.7,-2.8 4.7,-5.8 z"
       style="fill:#ffffff;fill-opacity:1" />
    <path
       id="path7"
       class="cls-3"
       d="m 117.7,15.4 h 6.6 v 3.8 0 c 1.4,-3 4.3,-4.3 7.6,-4.3 3.3,0 5.4,1.3 6.5,4 1.7,-2.8 4.4,-4 7.4,-4 6,0 7.4,3.4 7.4,9 V 36.2 H 146 V 25 c 0,-2.4 -0.8,-4.1 -2.9,-4.1 -2.1,0 -4.1,2 -4.1,6.5 v 8.8 h -7.2 V 25 c 0,-2.4 -0.8,-4.1 -2.9,-4.1 -2.1,0 -4.1,2 -4.1,6.5 v 8.8 h -7.2 V 15.4 Z"
       style="fill:#ffffff;fill-opacity:1" />
    <path
       id="path8"
       class="cls-3"
       d="m 156.9,15.4 h 6.6 v 3.8 0 c 1.4,-3 4.3,-4.3 7.6,-4.3 3.3,0 5.4,1.3 6.5,4 1.7,-2.8 4.4,-4 7.4,-4 6,0 7.4,3.4 7.4,9 v 12.3 h -7.2 V 25 c 0,-2.4 -0.8,-4.1 -2.9,-4.1 -2.1,0 -4.1,2 -4.1,6.5 v 8.8 H 171 V 25 c 0,-2.4 -0.8,-4.1 -2.9,-4.1 -2.1,0 -4.1,2 -4.1,6.5 v 8.8 h -7.2 V 15.4 Z"
       style="fill:#ffffff;fill-opacity:1" />
    <path
       id="path9"
       class="cls-3"
       d="m 195.2,25.8 c 0,-6.9 5.2,-10.9 12.1,-10.9 6.9,0 12.1,4 12.1,10.9 0,6.9 -5.2,10.9 -12.1,10.9 -6.9,0 -12.1,-4 -12.1,-10.9 z m 16.7,0 c 0,-3.1 -1.4,-5.9 -4.7,-5.9 -3.3,0 -4.7,2.8 -4.7,5.9 0,3.1 1.4,5.8 4.7,5.8 3.3,0 4.7,-2.8 4.7,-5.8 z"
       style="fill:#ffffff;fill-opacity:1" />
    <path
       id="path10"
       class="cls-3"
       d="m 244.5,36.2 h -6.6 v -3.7 0 c -0.9,2.3 -3.8,4.2 -7.2,4.2 -6.2,0 -9.5,-5.1 -9.5,-11.3 0,-6.2 3.2,-10.5 8.9,-10.5 5.7,0 5.3,0.8 7.2,3.2 v 0 -11.9 h 7.2 z m -11.6,-5 c 2.4,0 4.4,-2.3 4.4,-5.3 0,-3 -1.8,-5.4 -4.4,-5.4 -2.6,0 -4.4,2.4 -4.4,5.2 0,2.8 1.6,5.6 4.4,5.6 z"
       style="fill:#ffffff;fill-opacity:1" />
    <path
       id="path11"
       class="cls-3"
       d="m 247,25.8 c 0,-6.9 5.2,-10.9 12.1,-10.9 6.9,0 12.1,4 12.1,10.9 0,6.9 -5.2,10.9 -12.1,10.9 -6.9,0 -12.1,-4 -12.1,-10.9 z m 16.8,0 c 0,-3.1 -1.4,-5.9 -4.7,-5.9 -3.3,0 -4.7,2.8 -4.7,5.9 0,3.1 1.4,5.8 4.7,5.8 3.3,0 4.7,-2.8 4.7,-5.8 z"
       style="fill:#ffffff;fill-opacity:1" />
    <path
       id="path12"
       class="cls-3"
       d="M 288.9,21.2 C 288.1,21 287.3,21 286.5,21 c -3.4,0 -5.2,2.4 -5.2,6.5 v 8.8 h -7.2 V 15.4 h 6.6 v 3.8 0 c 1.2,-2.6 3,-4.3 6.2,-4.3 3.2,0 1.7,0.1 2.4,0.2 l -0.4,6 z"
       style="fill:#ffffff;fill-opacity:1" />
    <path
       id="path13"
       class="cls-3"
       d="m 296.5,27.9 c 0.4,2.9 2.6,4 6.1,4 3.5,0 4.2,-0.4 6.4,-1.6 v 5.1 c -2.3,0.9 -5,1.3 -7.6,1.3 -6.9,0 -12.1,-4 -12.1,-10.9 0,-6.9 4.7,-10.9 11.2,-10.9 6.5,0 10.5,5.5 10.5,11.7 v 1.3 h -14.4 z m 8,-4.1 c 0,-2.4 -1.1,-4.4 -4,-4.4 -2.9,0 -3.8,2 -4,4.4 z"
       style="fill:#ffffff;fill-opacity:1" />
  </g>
  <g
     id="g18"
     style="fill:#ff0000;fill-opacity:1">
    <g
       id="g17"
       style="fill:#ff0000;fill-opacity:1">
      <path
         id="path14"
         class="cls-2"
         d="M 44.9,93.1 H 25.5 l -3,4.5 c -0.8,1.4 -1.5,2.4 -1.8,3 -0.8,1.3 -1.3,2.3 -1.6,3.1 -0.8,1.4 -1.2,2.6 -1.2,3.6 0,1.9 1.9,3 5.7,3.5 1.7,0.3 2.6,1 2.6,2.2 0,1.2 -1,2.2 -3.1,2.2 l -3.7,-0.2 -6.3,-0.3 -8.2,0.6 H 2.3 c -1.5,0 -2.3,-0.6 -2.3,-1.7 0,-1.1 0.3,-1.6 0.9,-2.1 0.6,-0.4 1.8,-0.7 3.5,-0.9 1.7,-0.2 3.1,-0.9 4.3,-2.1 l 3.8,-4.7 1.6,-2.5 1.7,-2.4 1.7,-2.5 30.4,-43.3 c 1.5,-2.3 2.6,-3.7 3.3,-4.2 0.6,-0.5 1.6,-0.8 3,-0.8 1.4,0 2.5,0.4 3,1.2 0.5,0.8 0.8,2.4 0.8,5 l 3,48.2 c 0,1.9 0.1,3.5 0.4,4.6 0.2,1 0.7,1.9 1.4,2.6 v 0 c 0.6,0.7 1.4,1.2 2.2,1.4 1.1,0.4 1.7,1 1.7,2 0,1.4 -1,2.1 -2.9,2.1 l -3.1,-0.3 -5.7,-0.3 c -1.8,0 -3.8,0 -5.9,0.2 -2.1,0.1 -4.4,0.3 -6.9,0.4 H 39 c -1.5,0 -2.2,-0.6 -2.2,-1.8 0,-1.2 0.3,-1.4 0.9,-1.8 0.6,-0.4 1.7,-0.7 3.4,-0.9 1.7,-0.2 2.8,-0.7 3.4,-1.4 0.6,-0.7 0.9,-2 0.9,-3.8 v -3.9 z m -0.4,-4.8 -0.9,-22.2 -15,22.2 z"
         style="fill:#ff0000;fill-opacity:1" />
      <path
         id="path15"
         class="cls-2"
         d="m 192,60.2 -12.1,42.2 c -0.6,2.1 -0.9,3.6 -0.9,4.7 0,2.4 1.3,3.6 3.8,3.6 2.5,0 3.5,0.7 3.5,2.2 0,1.5 -1,2.1 -3,2.1 h -5.6 l -10.4,-0.4 c -2,0 -3.5,0 -4.5,0 -1,0 -3.6,0.3 -7.6,0.7 h -0.4 c -1.7,0 -2.5,-0.6 -2.5,-1.9 0,-1.3 0.3,-1.3 0.9,-1.6 0.6,-0.3 1.9,-0.6 3.9,-1.1 2.1,-0.4 3.3,-1 3.8,-1.6 0.4,-0.7 1.2,-2.8 2.2,-6.5 l 12,-42 c 0.4,-1.5 0.7,-2.6 0.7,-3.1 0,-1.7 -1.2,-2.5 -3.6,-2.5 -2.4,0 -3.1,-0.6 -3.1,-1.8 0,-1.2 0.3,-1.3 0.8,-1.7 0.5,-0.4 1.2,-0.6 2.1,-0.6 h 9.7 c 6.2,0 10.5,-0.2 12.9,-0.5 l 5.1,-0.3 c 1.3,0 1.9,0.6 1.9,1.8 0,1.2 -0.3,1.4 -1,1.8 -0.7,0.4 -1.8,0.7 -3.5,1 -1.7,0.3 -2.8,0.8 -3.4,1.4 -0.6,0.6 -1.2,2 -1.8,4.1 v 0 z"
         style="fill:#ff0000;fill-opacity:1" />
      <path
         id="path16"
         class="cls-2"
         d="m 251,96.4 c 0,0 -2,7.2 -3,10.4 -1.1,3.8 -11.5,9.7 -24.2,9.7 -12.7,0 -17.4,-2.4 -23.5,-7.2 -6,-4.8 -9,-11 -9,-18.7 0,-7.7 1.8,-11.9 5.5,-17.3 3.7,-5.4 8.8,-10.1 15.5,-14 5.4,-3.2 11.3,-5.7 17.7,-7.5 6.3,-1.8 12.5,-2.7 18.6,-2.7 6.1,0 7.7,0.3 10.9,1 1.6,0.4 2.4,1.1 2.4,2.1 0,1 -0.2,1.3 -0.6,2.2 l -2.4,7.3 c -1,3.3 -2.2,5 -3.8,5 -1.6,0 -2.5,-1.3 -2.5,-3.9 l 0.2,-4.9 c 0,-1.7 -0.3,-2.8 -1,-3.5 -0.7,-0.7 -1.8,-1 -3.4,-1 -4.1,0 -8.3,0.8 -12.6,2.5 -4.3,1.7 -8.4,4 -12.2,7.1 -4.6,3.7 -8.1,8.2 -10.8,13.5 -2.6,5.3 -3.9,10.9 -3.9,16.6 0,5.7 1.5,10.6 4.6,14.1 3.1,3.5 7.3,5.2 12.6,5.2 5.3,0 2.7,-0.2 3.3,-0.7 0.6,-0.5 1.2,-1.6 1.7,-3.3 l 3.6,-12.5 c 0.3,-0.7 0.4,-1.5 0.4,-2.4 0,-1.4 -0.3,-2.3 -0.9,-2.7 -0.6,-0.4 -2.1,-0.8 -4.6,-1.1 -1.3,0 -2,-0.6 -2,-1.9 0,-1.3 1.1,-2.1 3.4,-2.1 h 4.8 c 0,0 8.7,0.4 8.7,0.4 h 2.3 c 2.8,0 5.4,-0.1 7.6,-0.4 h 4.6 c 1.6,0 2.4,0.6 2.4,1.7 0,1.1 -1.3,2.4 -3.9,2.7 -1.7,0 -3,0.5 -3.8,1.4 -0.9,1 -1.7,2.7 -2.4,5.2 v 0 z"
         style="fill:#ff0000;fill-opacity:1" />
      <path
         id="path17"
         class="cls-2"
         d="m 290.8,93.1 h -19.4 l -3,4.5 c -0.8,1.4 -1.5,2.4 -1.8,3 -0.8,1.3 -1.3,2.3 -1.6,3.1 -0.8,1.4 -1.2,2.6 -1.2,3.6 0,1.9 1.9,3 5.7,3.5 1.7,0.3 2.6,1 2.6,2.2 0,1.2 -1,2.2 -3.1,2.2 l -3.7,-0.2 -3,-0.2 c -2.3,-0.1 -4.5,-0.1 -6.8,0 l -6.1,0.4 c -1.5,0 -2.3,-0.6 -2.3,-1.7 0,-1.1 0.3,-1.6 0.9,-2.1 0.6,-0.4 1.8,-0.7 3.5,-0.9 1.7,-0.2 1.8,-0.9 3,-2.1 l 3.8,-4.7 1.6,-2.5 1.7,-2.4 1.7,-2.5 30.4,-43.3 c 1.5,-2.3 2.6,-3.7 3.3,-4.2 0.6,-0.5 1.6,-0.8 3,-0.8 1.4,0 2.5,0.4 3,1.2 0.5,0.8 0.8,2.4 0.8,5 l 3,48.2 c 0,3.3 0.3,5.4 1,6.5 0.7,1.1 1.9,1.7 3.8,2 1.9,0.3 2.8,1 2.8,2.2 0,1.2 -1,2.1 -2.9,2.1 l -3.1,-0.3 -7.6,-0.3 c -1.8,0 -3.8,0 -5.9,0.2 -2.1,0.1 -4.4,0.3 -6.9,0.4 h -3.2 c -1.5,0 -2.2,-0.6 -2.2,-1.8 0,-1.2 0.3,-1.4 0.9,-1.8 0.6,-0.4 1.7,-0.7 3.4,-0.9 1.7,-0.2 2.8,-0.7 3.4,-1.4 0.6,-0.7 0.9,-2 0.9,-3.8 v -3.9 l -0.5,-8.5 v 0 z m -0.4,-4.8 -0.9,-22.2 -15,22.2 z"
         style="fill:#ff0000;fill-opacity:1" />
    </g>
    <path
       id="path18"
       class="cls-2"
       d="M 137.1,63.7 106.7,109 c -1.5,2.2 -2.6,3.7 -3.3,4.2 -0.7,0.6 -1.7,0.9 -2.9,0.9 -1.2,0 -2.1,-0.3 -2.6,-0.9 -0.4,-0.6 -0.7,-1.8 -0.7,-3.8 L 95.7,63.5 86,90 84.5,95.2 c -1.2,4.1 -1.9,6.5 -2.1,7.4 -0.2,0.9 -0.3,2 -0.3,3.3 0,1.3 0.4,2.6 1.1,3 0.7,0.5 2.5,1 5.3,1.4 1.6,0.2 2.4,0.9 2.4,2.1 0,1.2 -1,2.3 -3.1,2.3 l -3.6,-0.3 -5.7,-0.2 -7.5,0.3 c -1.7,0 -2.5,-0.6 -2.5,-1.9 0,-1.3 0.8,-1.8 2.5,-2.3 1,-0.3 1.8,-0.9 2.5,-1.6 0.3,-0.4 0.6,-0.7 0.6,-0.7 0.7,-0.9 2.1,-4.2 4.1,-9.9 L 90.7,62.9 c 1.2,-3.5 1.7,-5.6 1.7,-6.4 0,-0.8 -0.3,-1.2 -0.9,-1.5 -0.6,-0.3 -1.8,-0.6 -3.7,-0.9 -1.9,-0.3 -2.8,-1 -2.8,-2.1 0,-1.1 0.3,-1.1 0.8,-1.5 0.5,-0.4 1.1,-0.7 1.8,-0.7 l 3.6,0.4 h 18.1 c 0.8,0 1.2,0.1 1.3,0.4 0.2,0.3 0.3,1.1 0.3,2.4 l 1.5,39.3 26,-40.1 c 0.6,-1 1.1,-1.6 1.3,-1.7 0.3,-0.2 0.8,-0.3 1.5,-0.3 h 19.1 c 1.4,0 2.1,0.6 2.1,1.7 0,1.1 -1.1,2.5 -3.3,2.7 -2.2,0.2 -3.6,0.7 -4.1,1.3 -0.5,0.7 -1.1,2.2 -1.7,4.6 l -9.4,39.3 c -0.3,1.1 -0.5,2.4 -0.8,3.9 -0.3,1.5 -0.4,2.6 -0.4,3.1 0,1.1 0.3,1.9 0.9,2.4 0.6,0.5 1.7,0.9 3.4,1.2 1.7,0.3 2.5,1 2.5,2.2 0,1.2 -1.1,2.2 -3.4,2.2 H 143 c -4.6,-0.5 -8.3,-0.8 -11.2,-0.8 -2.9,0 -6,0.1 -8.3,0.4 l -4.8,0.4 c -1.6,0 -2.4,-0.7 -2.4,-2 0,-1.3 0.6,-1.8 1.7,-2.2 l 1.6,-0.3 h 1.2 c 0,0 1.1,-0.3 1.1,-0.3 1.3,-0.1 2.2,-0.6 2.7,-1.5 0.5,-0.9 1.3,-3.1 2.2,-6.6 l 9.8,-38.3 v 0 z"
       style="fill:#ff0000;fill-opacity:1" />
  </g>
  <path
     id="path22"
     class="cls-4"
     d="m 319.6,55.9 c -0.9,0.9 -2,1.4 -3.3,1.4 -1.3,0 -2.4,-0.5 -3.3,-1.4 -0.9,-0.9 -1.4,-2 -1.4,-3.3 0,-2.6 2.1,-4.6 4.6,-4.6 2.5,0 2.4,0.5 3.3,1.4 0.9,0.9 1.4,2 1.4,3.3 0,1.3 -0.5,2.4 -1.4,3.3 z m -6,-6 c -0.7,0.7 -1.1,1.7 -1.1,2.7 0,1 0.4,2 1.1,2.7 0.7,0.7 1.7,1.1 2.7,1.1 2.1,0 3.9,-1.7 3.9,-3.9 0,-2.2 -0.4,-2 -1.1,-2.7 -0.7,-0.7 -1.7,-1.1 -2.7,-1.1 -1,0 -2,0.4 -2.7,1.1 z"
     style="fill:#ff0000;fill-opacity:1" />
  <path
     id="path23"
     class="cls-4"
     d="m 318.5,54.5 c 0,0.1 0,0.2 0.2,0.2 v 0 c 0,0 0,0 0,0 V 55 h -1 c 0,-0.1 0,-0.1 0,-0.2 0,0 0,0 0,0 0,0 0,-0.2 0,-0.4 v -0.8 c 0,-0.3 -0.1,-0.5 -0.3,-0.6 -0.1,0 -0.3,0 -0.6,0 h -1.4 v 2.1 h -0.9 v -5.2 h 2.4 c 0.4,0 0.7,0 1,0.2 0.5,0.2 0.8,0.7 0.8,1.3 0,0.6 0,0.6 -0.2,0.8 0,0.2 -0.2,0.3 -0.4,0.4 0.1,0 0.2,0.2 0.3,0.3 0.1,0.1 0.2,0.4 0.2,0.7 v 0.7 c 0,0.2 0,0.3 0,0.4 v 0 z M 317.4,52 c 0.1,-0.1 0.2,-0.3 0.2,-0.6 v 0 c 0,-0.3 -0.1,-0.5 -0.3,-0.6 -0.1,0 -0.3,0 -0.5,0 h -1.5 v 1.5 h 1.4 c 0.3,0 0.5,0 0.7,-0.2 z"
     style="fill:#ff0000;fill-opacity:1" />
  <line
     class="cls-1"
     x1="483.44608"
     y1="57.856979"
     x2="483.44778"
     y2="58.009022"
     id="line1"
     style="fill:#002684" />
  <path
     class="cls-1"
     d="M 368.60342,8.6913026 V 112.59907 H 349.49563 V 31.1 c -2.35152,1.37003 -4.7723,2.567751 -6.46499,2.934331 l -5.09327,1.099741 V 13.460225 l 3.3195,-0.716268 c 0.73316,-0.158795 2.70289,-1.000071 5.42775,-3.1488736 l 1.14535,-0.9037808 h 20.77345 m 2.73837,-2.7383715 h -24.4629 l -0.74668,0.5878799 -1.14535,0.9037808 c -2.33969,1.8447265 -3.94285,2.5305864 -4.31956,2.6251882 l -3.30767,0.712888 -2.16063,0.46625 v 27.277288 l 3.31612,-0.716267 5.09327,-1.099741 c 0.88857,-0.192581 1.94101,-0.559161 3.14887,-1.096362 v 79.735434 h 24.58453 z"
     id="path1"
     style="fill:#ffffff" />
  <path
     class="cls-1"
     d="m 421.46699,5.6150691 c 19.2649,0 34.93831,15.6734179 34.93831,34.9383089 0,8.353638 -2.96474,16.413336 -8.34857,22.706016 L 424.2949,93.491286 h 31.39076 v 19.107784 h -70.71283 l 5.34836,-6.80454 35.8235,-45.575894 7.9499,-10.113899 0.24495,-0.34124 c 1.93595,-2.699518 2.95967,-5.883867 2.95967,-9.208429 0,-8.728665 -7.10186,-15.830524 -15.83053,-15.830524 -8.72866,0 -15.83052,7.101859 -15.83052,15.830524 0,4.400652 1.76871,8.492161 4.9784,11.517715 l 2.69107,2.537344 -2.17246,2.993457 -6.31295,8.699947 -2.686,3.701278 -3.46478,-2.9867 c -7.71507,-6.650814 -12.14107,-16.296774 -12.14107,-26.464731 0,-19.264891 15.67342,-34.9383089 34.93831,-34.9383089 m 0,-2.7383715 c -20.77513,0 -37.67668,16.9015464 -37.67668,37.6766804 0,10.963622 4.7723,21.366393 13.09047,28.539204 l 3.46477,2.9867 2.25523,1.944396 1.75012,-2.410646 2.68601,-3.701278 6.31295,-8.699947 2.17245,-2.993457 1.41395,-1.949464 -1.75181,-1.652145 -2.69107,-2.537343 c -2.6556,-2.503558 -4.11854,-5.885556 -4.11854,-9.52433 0,-7.218422 5.87373,-13.092153 13.09215,-13.092153 7.21842,0 13.09216,5.873731 13.09216,13.092153 0,2.748507 -0.84635,5.382141 -2.44613,7.61372 l -0.20947,0.292251 -7.91273,10.066598 -35.82351,45.575893 -5.34835,6.80454 -3.48336,4.43106 h 79.08843 V 90.754604 h -28.49359 l 20.24469,-25.75691 c 5.78419,-6.78089 8.96854,-15.460565 8.96854,-24.442626 0,-20.775135 -16.90154,-37.6766811 -37.67668,-37.6766811 v 0 z"
     id="path2"
     style="fill:#ffffff" />
  <path
     class="cls-1"
     d="m 508.08974,3.7990608 c 7.58332,0 14.38955,1.9866286 20.23118,5.9024492 5.80278,3.890481 10.37574,9.505747 13.59219,16.688693 3.76716,8.411075 5.69297,18.984466 5.72338,31.43637 v 0.06419 c -0.0304,12.441768 -1.95622,23.015159 -5.72338,31.426234 -3.21645,7.182946 -7.7911,12.798213 -13.59219,16.688693 -5.84163,3.91751 -12.64955,5.90245 -20.23118,5.90245 -7.58162,0 -14.38954,-1.98662 -20.23117,-5.90245 -5.80278,-3.89048 -10.37575,-9.505747 -13.59219,-16.688693 -3.76716,-8.412764 -5.69298,-18.986155 -5.72338,-31.43637 v -0.06419 c 0.0304,-12.441768 1.95622,-23.015159 5.72338,-31.426234 3.21644,-7.182946 7.7911,-12.798212 13.59219,-16.688693 5.84163,-3.9175099 12.64955,-5.9024492 20.23117,-5.9024492 m 0,88.9979192 c 7.62048,0 12.97897,-3.692832 16.38124,-11.291348 2.62857,-5.866974 4.0307,-14.046613 4.05435,-23.65203 -0.0253,-9.605416 -1.42747,-17.785055 -4.05435,-23.652029 -3.40227,-7.596827 -8.76076,-11.291348 -16.38124,-11.291348 -7.62047,0 -12.97897,3.692832 -16.38124,11.291348 -2.62856,5.866974 -4.03069,14.046613 -4.05434,23.652029 0.0253,9.605417 1.42747,17.785056 4.05434,23.65203 3.40227,7.596827 8.76077,11.291348 16.38124,11.291348 m 0,-91.73798 c -8.13571,0 -15.45549,2.1420451 -21.75662,6.3670094 -6.23524,4.1810426 -11.13762,10.1848496 -14.56692,17.8441816 -3.92427,8.76414 -5.93117,19.712558 -5.96327,32.539489 v 0.07095 c 0.0321,12.840445 2.039,23.792242 5.96327,32.556382 3.43099,7.659332 8.33168,13.663138 14.56692,17.844188 6.30113,4.22496 13.62091,6.367 21.75662,6.367 8.13572,0 15.4555,-2.14204 21.75663,-6.367 6.23524,-4.18105 11.13762,-10.184856 14.56692,-17.844188 3.92426,-8.76414 5.93116,-19.712558 5.96326,-32.539489 v -0.07095 c -0.0321,-12.842134 -2.039,-23.792242 -5.96326,-32.556382 C 540.9823,17.610859 536.08161,11.607052 529.84637,7.4260094 523.54524,3.2010451 516.22546,1.059 508.08974,1.059 Z m 0,88.997919 c -6.51567,0 -10.92645,-3.072855 -13.88106,-9.6713 -2.47146,-5.520665 -3.79081,-13.313452 -3.81615,-22.540463 0.0236,-9.211808 1.343,-17.004595 3.81615,-22.52526 2.95461,-6.598445 7.36539,-9.6713 13.88106,-9.6713 6.51567,0 10.92646,3.072855 13.88106,9.6713 2.47146,5.520665 3.79081,13.313452 3.81615,22.540463 -0.0237,9.211808 -1.343,17.004595 -3.81615,22.52526 -2.9546,6.598445 -7.36539,9.6713 -13.88106,9.6713 z"
     id="path3"
     style="fill:#ffffff" />
  <path
     class="cls-1"
     d="m 600.20613,3.7990608 c 7.58331,0 14.38954,1.9866286 20.23117,5.9024492 5.80278,3.890481 10.37575,9.505747 13.59219,16.688693 3.76716,8.411075 5.69298,18.984466 5.72338,31.43637 v 0.06419 c -0.0304,12.441768 -1.95622,23.015159 -5.72338,31.426234 -3.21644,7.182946 -7.7911,12.798213 -13.59219,16.688693 -5.84163,3.91751 -12.64955,5.90245 -20.23117,5.90245 -7.58163,0 -14.38954,-1.98662 -20.23118,-5.90245 -5.80278,-3.89048 -10.37574,-9.505747 -13.59219,-16.688693 -3.76716,-8.412764 -5.69297,-18.986155 -5.72338,-31.43637 v -0.06419 c 0.0304,-12.441768 1.95622,-23.015159 5.72338,-31.426234 3.21645,-7.182946 7.7911,-12.798212 13.59219,-16.688693 5.84164,-3.9175099 12.64955,-5.9024492 20.23118,-5.9024492 m 0,88.9979192 c 7.62048,0 12.97897,-3.692832 16.38124,-11.291348 2.62856,-5.866974 4.03069,-14.046613 4.05434,-23.65203 -0.0253,-9.605416 -1.42747,-17.785055 -4.05434,-23.652029 -3.40227,-7.596827 -8.76076,-11.291348 -16.38124,-11.291348 -7.62048,0 -12.97897,3.692832 -16.38124,11.291348 -2.62857,5.866974 -4.0307,14.046613 -4.05435,23.652029 0.0253,9.605417 1.42747,17.785056 4.05435,23.65203 3.40227,7.596827 8.76076,11.291348 16.38124,11.291348 m 0,-91.73798 c -8.13572,0 -15.4555,2.1420451 -21.75663,6.3670094 -6.23524,4.1810426 -11.13762,10.1848496 -14.56692,17.8441816 -3.92426,8.76414 -5.93116,19.712558 -5.96326,32.539489 v 0.07095 c 0.0321,12.840445 2.039,23.792242 5.96326,32.556382 3.43099,7.659332 8.33168,13.663138 14.56692,17.844188 6.30113,4.22496 13.62091,6.367 21.75663,6.367 8.13571,0 15.45549,-2.14204 21.75662,-6.367 6.23524,-4.18105 11.13762,-10.184856 14.56692,-17.844188 3.92427,-8.76414 5.93117,-19.712558 5.96327,-32.539489 v -0.07095 c -0.0321,-12.842134 -2.039,-23.792242 -5.96327,-32.556382 C 633.09868,17.610859 628.19799,11.607052 621.96275,7.4260094 615.66162,3.2010451 608.34184,1.059 600.20613,1.059 Z m 0,88.997919 c -6.51567,0 -10.92646,-3.072855 -13.88106,-9.6713 -2.47146,-5.520665 -3.79081,-13.313452 -3.81615,-22.540463 0.0236,-9.211808 1.343,-17.004595 3.81615,-22.52526 2.9546,-6.598445 7.36539,-9.6713 13.88106,-9.6713 6.51567,0 10.92645,3.072855 13.88106,9.6713 2.47146,5.520665 3.79081,13.313452 3.81615,22.540463 -0.0236,9.211808 -1.343,17.004595 -3.81615,22.52526 -2.95461,6.598445 -7.36539,9.6713 -13.88106,9.6713 z"
     id="path4-5"
     style="fill:#ffffff" />
  <path
     class="cls-1"
     d="m 354.20036,12.897684 h -4.91251 c -2.7823,2.196103 -5.37032,3.57627 -7.14579,3.959743 V 29.92424 c 2.57958,-0.557472 9.01247,-4.637156 11.55826,-6.657571 v 85.129401 h 10.69502 V 12.897684 h -10.19667 z"
     id="path5-5"
     style="fill:#ffffff" />
  <path
     class="cls-1"
     d="m 444.80481,60.590284 v 0 c 4.62871,-5.378763 7.39411,-12.384331 7.39411,-20.036906 0,-16.972497 -13.75943,-30.731927 -30.73193,-30.731927 -16.97249,0 -30.73192,13.75943 -30.73192,30.731927 0,9.308099 4.14387,17.643154 10.6815,23.278692 l 6.31295,-8.699946 c -3.87527,-3.653978 -6.29943,-8.831713 -6.29943,-14.578746 0,-11.066669 8.97023,-20.036905 20.0369,-20.036905 11.06667,0 20.03691,8.970236 20.03691,20.036905 0,4.351663 -1.39199,8.375599 -3.74689,11.659618 h 0.0287 l -8.33506,10.603799 -35.8235,45.575895 h 57.85211 V 97.697668 H 415.63887 L 444.8065,60.590284 Z"
     id="path6-5"
     style="fill:#ffffff" />
  <path
     class="cls-1"
     d="M 538.075,28.109921 C 532.26884,15.144467 521.61943,8.0054427 508.08974,8.0054427 c -13.52968,0 -24.17909,7.1407133 -29.98525,20.1044783 -3.5239,7.870495 -5.32639,17.869521 -5.3568,29.718342 v 0.05406 c 0.0287,11.848821 1.83121,21.847847 5.3568,29.718342 5.80616,12.965455 16.45557,20.104475 29.98525,20.104475 13.52969,0 24.1791,-7.14071 29.98526,-20.104475 3.5239,-7.870495 5.32639,-17.869521 5.3568,-29.718342 v -0.05406 C 543.40139,45.979442 541.5989,35.980416 538.075,28.11161 Z m -29.98526,68.89344 c -21.10117,0 -24.60311,-23.690883 -24.64196,-39.149759 0.0388,-15.457186 3.5391,-39.149759 24.64196,-39.149759 21.10286,0 24.60311,23.690883 24.64197,39.149759 -0.0389,15.457187 -3.53911,39.149759 -24.64197,39.149759 z"
     id="path7-8"
     style="fill:#ffffff" />
  <path
     class="cls-1"
     d="M 630.19138,28.109921 C 624.38522,15.144467 613.73581,8.0054427 600.20613,8.0054427 c -13.52969,0 -24.1791,7.1407133 -29.98525,20.1044783 -3.52391,7.870495 -5.3264,17.869521 -5.35681,29.718342 v 0.05406 c 0.0287,11.848821 1.83122,21.847847 5.35681,29.718342 5.80615,12.965455 16.45556,20.104475 29.98525,20.104475 13.52968,0 24.17909,-7.14071 29.98525,-20.104475 3.5239,-7.870495 5.32639,-17.869521 5.3568,-29.718342 v -0.05406 c -0.0304,-11.848821 -1.8329,-21.847847 -5.3568,-29.716653 z m -29.98525,68.89344 c -21.10117,0 -24.60311,-23.690883 -24.64197,-39.149759 0.0389,-15.457186 3.53911,-39.149759 24.64197,-39.149759 21.10286,0 24.60311,23.690883 24.64196,39.149759 -0.0388,15.457187 -3.5391,39.149759 -24.64196,39.149759 z"
     id="path8-2"
     style="fill:#ffffff" />
</svg>
