<?xml version="1.0" encoding="UTF-8" standalone="no"?>
<svg
   width="694.78375"
   height="165.918"
   version="1.1"
   id="svg12"
   sodipodi:docname="apple2gs.svg"
   inkscape:version="1.3 (0e150ed, 2023-07-21)"
   xmlns:inkscape="http://www.inkscape.org/namespaces/inkscape"
   xmlns:sodipodi="http://sodipodi.sourceforge.net/DTD/sodipodi-0.dtd"
   xmlns="http://www.w3.org/2000/svg"
   xmlns:svg="http://www.w3.org/2000/svg">
  <defs
     id="defs12" />
  <sodipodi:namedview
     id="namedview12"
     pagecolor="#ffffff"
     bordercolor="#000000"
     borderopacity="0.25"
     inkscape:showpageshadow="2"
     inkscape:pageopacity="0.0"
     inkscape:pagecheckerboard="0"
     inkscape:deskcolor="#d1d1d1"
     inkscape:zoom="2"
     inkscape:cx="306.75"
     inkscape:cy="110.5"
     inkscape:window-width="2112"
     inkscape:window-height="1035"
     inkscape:window-x="183"
     inkscape:window-y="194"
     inkscape:window-maximized="0"
     inkscape:current-layer="svg12" />
  <g
     style="fill:#f9f9f9"
     id="g2"
     transform="matrix(1.0968552,0,0,1.0968552,-48.784267,-21.260344)">
    <path
       d="m 342.455,152.604 c 1.287,4.1 2.459,7.377 3.513,9.836 1.054,2.459 2.75,4.451 5.094,5.972 1.639,1.172 3.132,1.844 4.479,2.02 1.346,0.176 2.021,0.791 2.021,1.845 0,1.641 -1.229,2.459 -3.688,2.459 -1.523,0 -3.485,-0.176 -5.884,-0.527 -2.401,-0.351 -5.357,-0.526 -8.87,-0.526 -4.918,0 -8.87,0.147 -11.856,0.438 -2.985,0.294 -5.065,0.439 -6.235,0.439 -1.992,0 -2.985,-0.702 -2.985,-2.107 0,-1.872 1.169,-2.811 3.513,-2.811 2.926,0 4.857,-0.291 5.796,-0.878 0.937,-0.585 1.405,-1.696 1.405,-3.338 0,-1.52 -0.526,-4.154 -1.581,-7.903 l -6.85,-22.482 c -0.236,-0.936 -1.114,-1.405 -2.635,-1.405 h -21.779 c -0.352,0 -0.733,0.148 -1.142,0.439 -0.396,0.27 -0.678,0.677 -0.791,1.142 l -4.215,15.632 c -1.757,6.91 -2.635,11.417 -2.635,13.524 0,1.757 0.352,2.929 1.054,3.513 0.702,0.588 1.872,0.997 3.513,1.229 2.341,0.352 4.098,0.764 5.27,1.229 1.169,0.47 1.757,1.348 1.757,2.635 0,1.405 -0.997,2.108 -2.986,2.108 -1.29,0 -3.222,-0.176 -5.796,-0.527 -2.577,-0.352 -5.739,-0.527 -9.485,-0.527 -2.577,0 -4.83,0.148 -6.762,0.439 -1.933,0.291 -3.54,0.439 -4.83,0.439 -2.108,0 -3.162,-0.761 -3.162,-2.283 0,-0.937 0.294,-1.551 0.879,-1.845 0.587,-0.291 1.316,-0.497 2.195,-0.614 0.936,-0.122 1.873,-0.24 2.81,-0.352 0.994,-0.115 1.96,-0.527 2.898,-1.229 1.639,-1.169 2.868,-2.838 3.688,-5.006 0.818,-2.165 1.696,-4.83 2.635,-7.992 l 27.927,-90.631 c 0.467,-1.287 0.849,-2.311 1.142,-3.074 0.291,-0.76 0.906,-1.142 1.845,-1.142 1.287,0 2.107,0.763 2.459,2.283 0.352,1.523 0.936,3.514 1.757,5.973 z M 306.272,91.656 c -0.469,0 -0.82,0.47 -1.054,1.405 l -8.255,31.089 a 5.158,5.158 0 0 0 -0.176,1.229 v 0.526 c 0,0.703 0.409,1.055 1.229,1.055 h 17.564 c 0.352,0 0.702,-0.146 1.054,-0.439 0.352,-0.291 0.527,-0.615 0.527,-0.966 0,-0.233 -0.118,-0.818 -0.352,-1.757 l -9.484,-30.562 c -0.35,-1.052 -0.701,-1.58 -1.053,-1.58 z"
       style="fill:#f9f9f9"
       transform="matrix(0.84547,0,0,0.76529,-24.949,-6.99)"
       id="path1" />
    <path
       d="m 375.827,105.884 c 0,0.82 0.176,1.229 0.527,1.229 0.351,0 0.817,-0.291 1.405,-0.879 l 1.756,-2.107 c 3.044,-3.513 6.147,-6.06 9.31,-7.641 3.161,-1.58 6.613,-2.371 10.362,-2.371 3.864,0 7.553,0.938 11.065,2.811 3.513,1.874 6.557,4.509 9.134,7.903 2.574,3.398 4.624,7.553 6.147,12.471 1.521,4.918 2.283,10.363 2.283,16.335 0,6.56 -0.884,12.531 -2.646,17.916 -1.762,5.387 -4.229,10.041 -7.401,13.963 -3.173,3.925 -6.93,6.969 -11.277,9.134 -4.347,2.165 -9.166,3.249 -14.452,3.249 -5.521,0 -10.635,-1.348 -15.333,-4.039 l -0.705,0.526 -0.173,24.941 c 0,2.107 0.173,3.688 0.524,4.742 0.351,1.054 1.229,1.872 2.635,2.459 1.169,0.585 2.311,0.936 3.425,1.054 1.111,0.115 2.047,0.233 2.81,0.352 0.761,0.115 1.375,0.352 1.845,0.702 0.467,0.352 0.702,1.055 0.702,2.108 0,1.638 -1.229,2.459 -3.688,2.459 -11.425,-0.18 -20.99,-0.114 -29.858,0 -2.108,0 -3.162,-0.938 -3.162,-2.811 0,-1.642 0.643,-2.459 1.933,-2.459 1.287,0 2.81,-0.352 4.566,-1.054 1.521,-0.588 2.547,-1.405 3.073,-2.459 0.527,-1.054 0.791,-2.753 0.791,-5.094 v -79.391 c 0,-3.161 -0.412,-5.269 -1.229,-6.323 -0.821,-1.054 -1.729,-1.726 -2.723,-2.02 -0.996,-0.291 -1.904,-0.467 -2.723,-0.527 -0.82,-0.058 -4.03,2.616 -4.03,1.444 0,-1.405 3.707,-5.717 5.524,-6.362 6.602,-4.476 8.69,-5.914 14.139,-9.923 1.521,-1.756 2.75,-2.634 3.689,-2.634 1.169,0 1.756,1.229 1.756,3.688 v 8.608 z m 3.881,63.033 c 2.47,2.709 5.941,4.062 10.412,4.062 3.411,0 6.529,-0.823 9.353,-2.47 2.824,-1.646 5.267,-3.974 7.325,-6.977 2.059,-3.002 3.645,-6.592 4.765,-10.771 1.116,-4.177 1.677,-8.738 1.677,-13.684 0,-10.476 -2.207,-18.597 -6.62,-24.365 -4.413,-5.768 -9.97,-8.653 -16.675,-8.653 -4.942,0 -8.502,1.444 -10.679,4.328 -2.176,2.885 -3.263,7.268 -3.263,13.151 v 32.843 c 0.001,5.65 1.236,9.83 3.705,12.536 z m 76.036,-63.033 c 0,0.82 0.176,1.229 0.527,1.229 0.351,0 0.817,-0.291 1.405,-0.879 l 1.756,-2.107 c 3.044,-3.513 6.147,-6.06 9.31,-7.641 3.161,-1.58 6.613,-2.371 10.362,-2.371 3.864,0 7.553,0.938 11.065,2.811 3.513,1.874 6.557,4.509 9.134,7.903 2.574,3.398 4.624,7.553 6.147,12.471 1.521,4.918 2.283,10.363 2.283,16.335 0,6.56 -0.884,12.531 -2.646,17.916 -1.762,5.387 -4.229,10.041 -7.401,13.963 -3.173,3.925 -6.93,6.969 -11.277,9.134 -4.347,2.165 -9.166,3.249 -14.452,3.249 -5.521,0 -10.635,-1.348 -15.333,-4.039 l -0.705,0.526 -0.173,24.941 c 0,2.107 0.173,3.688 0.524,4.742 0.351,1.054 1.229,1.872 2.635,2.459 1.169,0.585 2.311,0.936 3.425,1.054 1.111,0.115 2.047,0.233 2.81,0.352 0.761,0.115 1.375,0.352 1.845,0.702 0.467,0.352 0.702,1.055 0.702,2.108 0,1.638 -1.229,2.459 -3.688,2.459 -10.713,-0.245 -19.995,-0.04 -29.858,0 -2.108,0 -3.162,-0.938 -3.162,-2.811 0,-1.642 0.643,-2.459 1.933,-2.459 1.287,0 2.81,-0.352 4.566,-1.054 1.521,-0.588 2.547,-1.405 3.073,-2.459 0.527,-1.054 0.791,-2.753 0.791,-5.094 v -79.391 c 0,-3.161 -0.412,-5.269 -1.229,-6.323 -0.821,-1.054 -1.729,-1.726 -2.723,-2.02 -0.996,-0.291 -1.904,-0.467 -2.723,-0.527 -0.82,-0.058 -4.03,1.456 -4.03,0.284 0,-1.405 3.707,-4.557 5.524,-5.202 5.552,-3.703 8.166,-6.108 14.139,-9.923 1.521,-1.756 2.75,-2.634 3.689,-2.634 1.169,0 1.756,1.229 1.756,3.688 v 8.608 z m 3.881,63.033 c 2.47,2.709 5.941,4.062 10.412,4.062 3.411,0 6.529,-0.823 9.353,-2.47 2.824,-1.646 5.267,-3.974 7.325,-6.977 2.059,-3.002 3.645,-6.592 4.765,-10.771 1.116,-4.177 1.677,-8.738 1.677,-13.684 0,-10.476 -2.207,-18.597 -6.62,-24.365 -4.413,-5.768 -9.97,-8.653 -16.675,-8.653 -4.942,0 -8.502,1.444 -10.679,4.328 -2.176,2.885 -3.263,7.268 -3.263,13.151 v 32.843 c 10e-4,5.65 1.236,9.83 3.705,12.536 z m 75.859,-7.706 c 0,3.864 1.111,6.323 3.338,7.377 0.936,0.469 1.871,0.732 2.81,0.79 0.937,0.061 1.784,0.148 2.547,0.264 0.761,0.118 1.375,0.382 1.845,0.79 0.466,0.412 0.702,1.142 0.702,2.196 0,1.641 -1.172,2.459 -3.513,2.459 -1.992,0 -4.271,-0.176 -6.834,-0.527 -2.563,-0.352 -5.291,-0.527 -8.184,-0.527 -3.008,0 -5.708,0.176 -8.096,0.527 -2.391,0.352 -4.405,0.527 -6.043,0.527 -2.108,0 -3.162,-0.937 -3.162,-2.811 0,-1.639 0.585,-2.459 1.757,-2.459 1.287,0 2.867,-0.352 4.742,-1.054 1.639,-0.585 2.635,-1.375 2.985,-2.371 0.352,-0.994 0.527,-2.371 0.527,-4.128 V 70.93 c 0,-1.521 -0.382,-2.635 -1.142,-3.337 a 7.591,7.591 0 0 0 -2.635,-1.581 31.175,31.175 0 0 1 -2.635,-1.054 c -0.763,-0.352 -1.142,-0.878 -1.142,-1.581 0,-1.287 0.791,-2.135 2.371,-2.547 1.581,-0.409 3.423,-1.023 5.527,-1.844 4.051,-1.521 7.028,-2.956 8.938,-4.304 1.91,-1.345 3.153,-2.02 3.732,-2.02 0.925,0 1.504,0.293 1.737,0.878 0.233,0.587 0.352,1.405 0.352,2.459 0,1.523 -0.088,3.279 -0.264,5.27 -0.176,1.992 -0.264,4.215 -0.264,6.674 v 93.268 z m 30.563,-36.183 c -0.938,0 -1.522,0.176 -1.756,0.527 -0.236,0.351 -0.352,1.114 -0.352,2.283 v 4.215 c 0,10.891 2.311,19.497 6.938,25.82 4.625,6.322 10.627,9.484 18.004,9.484 3.276,0 6.117,-0.527 8.519,-1.581 2.398,-1.054 4.391,-2.223 5.972,-3.513 1.581,-1.287 2.563,-4.647 3.44,-5.701 0.877,-1.054 1.989,-2.128 2.34,-2.128 0.937,0 1.157,3.381 1.157,4.668 0,1.289 -0.702,2.985 -2.107,5.093 -1.405,2.108 -3.425,4.188 -6.06,6.235 -2.635,2.051 -5.769,3.837 -9.396,5.357 -3.631,1.521 -7.729,2.283 -12.295,2.283 -4.803,0 -9.164,-0.966 -13.086,-2.897 -3.924,-1.933 -7.289,-4.713 -10.1,-8.344 -2.81,-3.628 -4.978,-8.019 -6.498,-13.173 -1.523,-5.151 -2.283,-10.947 -2.283,-17.389 0,-6.438 0.848,-12.265 2.547,-17.477 1.695,-5.209 4.066,-9.63 7.113,-13.261 3.043,-3.628 6.644,-6.438 10.802,-8.431 4.155,-1.99 8.694,-2.986 13.612,-2.986 4.216,0 8.079,0.733 11.593,2.195 3.513,1.466 6.498,3.426 8.957,5.885 2.459,2.459 4.361,5.329 5.709,8.606 1.345,3.279 2.02,6.792 2.02,10.538 0,1.523 -0.469,2.52 -1.405,2.986 -0.938,0.469 -2.459,0.702 -4.566,0.702 h -38.819 z m 28.006,-5.83 c 3.86,-0.126 4.652,2.52 1.326,-9.276 -0.788,-2.793 -2.428,-5.813 -4.827,-8.272 -2.4,-2.46 -4.25,-3.495 -7.996,-3.495 -4.101,0 -7.671,1.581 -10.714,4.742 -3.047,3.161 -5.036,7.144 -5.973,11.943 l -0.526,2.811 v 0.352 c 0,1.054 0.702,1.581 2.107,1.581 h 11.417 c 5.736,0 8.875,-0.063 15.186,-0.386 z"
       style="fill:#f9f9f9"
       transform="matrix(0.84547,0,0,0.76529,-24.949,-6.99)"
       id="path2" />
  </g>
  <path
     d="m 632.92332,93.276571 c 0,-1.85369 -0.1755,-3.06681 -0.52978,-3.63827 -0.35319,-0.57036 -1.31623,-1.03433 -2.88473,-1.39081 a 22.143313,22.143313 0 0 0 -2.29682,-0.26654 20.064773,20.064773 0 0 1 -1.76593,-0.15904 c -0.51333,-0.0702 -0.90491,-0.19524 -1.18022,-0.37293 -0.27421,-0.1755 -0.41132,-0.51553 -0.41132,-1.0124 0,-0.99595 0.66689,-1.49172 2.00176,-1.49172 0.78535,0 2.17945,0.14259 4.18231,0.42558 2.00176,0.28518 4.69015,0.42667 8.06627,0.42667 3.7688,0 6.63378,-0.14149 8.59825,-0.42667 1.96228,-0.28299 3.21818,-0.42668 3.7688,-0.42668 1.17802,0 1.76593,0.46397 1.76593,1.38642 0,0.49798 -0.1371,0.85226 -0.41132,1.06615 -0.2764,0.21279 -0.62959,0.35648 -1.06066,0.42667 -0.50674,0.079 -1.01788,0.13272 -1.53011,0.15905 a 14.686892,14.686892 0 0 0 -1.94363,0.26653 c -1.41384,0.28519 -2.29791,0.72941 -2.65,1.33268 -0.35319,0.60547 -0.52978,1.83065 -0.52978,3.67776 v 16.203839 c 0,1.63541 -0.60875,3.14469 -1.82517,4.53001 -1.21751,1.38643 -2.88473,2.55897 -5.00495,3.51872 -2.12022,0.95974 -4.57608,1.70451 -7.3599,2.23868 -2.7893,0.53307 -5.753,0.7996 -8.8933,0.7996 -4.87004,0 -9.36385,-0.85335 -13.48474,-2.55896 -4.12198,-1.70561 -7.65605,-4.06824 -10.6011,-7.08897 -2.94396,-3.01965 -5.23968,-6.6272 -6.89045,-10.82048 -1.64747,-4.193279 -2.47231,-8.777039 -2.47231,-13.752369 0,-5.33072 0.92136,-10.251211 2.76737,-14.764771 1.84381,-4.512462 4.37645,-8.404104 7.59682,-11.67383 3.21817,-3.268628 7.06484,-5.826495 11.54001,-7.675793 4.47517,-1.847104 9.34411,-2.771753 14.60463,-2.771753 2.12022,0 4.12198,0.129429 6.00747,0.388287 1.8833,0.257761 3.59111,0.589011 5.12232,0.994848 1.53011,0.405836 2.82659,0.845675 3.88616,1.319516 0.31808,0.141495 0.37073,-1.580568 0.6614,-1.563018 0.54514,0.0351 1.41385,-0.17111 1.68916,0.126138 0.25666,0.232533 0.46506,2.983446 0.521,3.622913 0.32796,3.772085 0.72064,5.10257 0.72064,9.502057 0,1.990792 -0.51114,2.98564 -1.53121,2.98564 -0.86432,0 -1.47089,-0.479326 -1.82517,-1.439074 a 63.442106,63.442106 0 0 0 -1.47198,-3.571361 c -2.74982,-6.253172 -7.57927,-9.381403 -14.48617,-9.381403 -3.37831,0 -6.49777,0.798511 -9.36385,2.397726 -2.86718,1.599215 -5.35814,3.875189 -7.47836,6.822439 -2.12022,2.950541 -3.7677,6.504352 -4.94682,10.661433 -1.17692,4.157081 -1.76593,8.794586 -1.76593,13.911416 0,4.76254 0.60766,9.06222 1.82516,12.89902 1.21751,3.837889 2.86609,7.125169 4.94682,9.860729 2.07964,2.73665 4.51466,4.85029 7.30177,6.34421 a 18.569759,18.569759 0 0 0 8.8933,2.23758 c 2.27597,0 4.0803,-0.28518 5.41737,-0.85555 1.33377,-0.57036 2.35495,-1.37326 3.06242,-2.40759 0.70637,-1.03434 1.15718,-2.26501 1.35461,-3.69092 0.19524,-1.42591 0.29396,-2.99442 0.29396,-4.70551 z m 24.23063,-32.834363 a 16.775304,16.775304 0 0 1 4.18121,-5.873659 c 1.80542,-1.634315 3.98488,-2.900086 6.53726,-3.789635 2.55019,-0.88955 5.43492,-1.33597 8.65638,-1.33597 3.29715,0 6.22136,0.421193 8.77374,1.262481 a 29.066664,29.066664 0 0 1 2.7926,1.063949 c 0.17549,0.08007 0.25008,-1.091371 0.56707,-1.247124 0.55391,-0.27202 1.38204,-0.278602 1.63761,0.02742 0.6274,0.712956 0.59778,6.995743 0.59778,14.030972 0,1.49282 -0.51113,2.238682 -1.53121,2.238682 -0.86432,0 -1.43359,-0.479326 -1.7078,-1.437977 -0.27531,-0.960846 -0.84458,-2.362627 -1.70671,-4.211925 -1.25699,-2.841951 -2.63245,-5.010434 -4.12308,-6.502157 -1.49172,-1.49282 -3.61194,-2.239779 -6.35956,-2.239779 -3.53297,0 -6.30034,0.975105 -8.3032,2.923119 -2.00176,1.949112 -3.00209,4.623245 -3.00209,8.0224 0,2.83537 0.88297,5.137669 2.65,6.907994 1.76594,1.771421 4.5344,3.542842 8.3032,5.313167 3.1392,1.488432 5.92631,2.976865 8.36242,4.4642 2.43173,1.488435 4.49382,3.135915 6.18188,4.942435 a 18.602665,18.602665 0 0 1 3.82802,6.10948 c 0.86432,2.2683 1.29429,4.88978 1.29429,7.86445 0,3.118359 -0.57036,5.986639 -1.70671,8.609219 -1.13963,2.62148 -2.70923,4.88868 -4.71099,6.8016 -2.00176,1.91182 -4.39839,3.4178 -7.1844,4.51575 -2.78821,1.09686 -5.82979,1.64748 -9.12803,1.64748 -5.18154,0 -9.3825,-0.74586 -12.60177,-2.23868 -3.22037,-1.49173 -4.82836,-3.76551 -4.82836,-6.82244 0,-1.20764 0.0384,-2.38018 0.11737,-3.51872 0.0768,-1.13634 0.11846,-2.20138 0.11846,-3.19843 0,-0.78096 -0.0198,-1.40178 -0.0592,-1.86465 -0.0406,-0.46287 -0.0581,-0.76341 -0.0581,-0.9071 0,-2.202479 0.58902,-3.304819 1.76594,-3.304819 0.54843,0 0.9433,0.19633 1.17802,0.58572 0.23583,0.39157 0.41242,0.924649 0.52978,1.599209 l 0.41242,2.39773 c 0.15576,0.92574 0.39158,1.8844 0.70747,2.87815 1.17693,3.6251 3.07888,6.43415 5.71133,8.42275 2.63026,1.98969 5.43601,2.98564 8.42165,2.98564 1.72536,0 3.37393,-0.32138 4.94682,-0.96194 a 12.172899,12.172899 0 0 0 4.06166,-2.66865 c 1.13853,-1.13964 2.04124,-2.49206 2.70923,-4.05837 0.66689,-1.56521 1.00143,-3.27192 1.00143,-5.12451 0,-3.27411 -1.1188,-6.209289 -3.35638,-8.807739 -2.23758,-2.59955 -5.59396,-5.03676 -10.06913,-7.31493 a 280.47356,280.47356 0 0 1 -6.65462,-3.522 c -2.08183,-1.13964 -3.88616,-2.45586 -5.41847,-3.95197 -1.53011,-1.49392 -2.74872,-3.273019 -3.65143,-5.338398 -0.90381,-2.062087 -1.35461,-4.661634 -1.35461,-7.794253 -0.002,-2.775044 0.4881,-5.300004 1.47088,-7.579269 z"
     style="fill:#f9f9f9;stroke-width:0.88229"
     id="path3" />
  <g
     style="fill:#040404"
     id="g12"
     transform="matrix(1.0968552,0,0,1.0968552,-48.784267,-21.260344)">
    <path
       d="m 542.726,112.09 c 0,1.434 0.023,2.599 0.074,3.494 0.05,0.897 0.197,1.637 0.446,2.217 a 3.088,3.088 0 0 0 1.188,1.412 c 0.543,0.36 1.31,0.672 2.301,0.94 0.892,0.27 1.732,0.403 2.525,0.403 0.791,0 1.485,0.047 2.079,0.135 0.593,0.09 1.063,0.292 1.41,0.605 0.346,0.315 0.52,0.83 0.52,1.546 0,1.257 0.333,1.902 -1.746,1.902 -10.833,0.047 -20.213,-0.072 -29.588,-0.02 -2.079,0 -3.118,-0.716 -3.118,-2.151 0,-0.625 0.172,-1.075 0.52,-1.344 0.345,-0.27 0.791,-0.448 1.336,-0.538 a 11.67,11.67 0 0 1 1.856,-0.135 8.23,8.23 0 0 0 2.08,-0.268 c 1.186,-0.27 2.101,-0.583 2.746,-0.94 0.643,-0.358 1.114,-0.829 1.411,-1.413 0.297,-0.581 0.469,-1.344 0.52,-2.284 0.049,-0.94 0.074,-2.128 0.074,-3.562 V 50.527 c 0,-2.15 -0.174,-3.606 -0.52,-4.369 -0.348,-0.76 -1.261,-1.364 -2.747,-1.814 -0.99,-0.269 -1.93,-0.403 -2.821,-0.403 -0.793,0 -1.511,-0.044 -2.154,-0.134 -0.645,-0.088 -1.14,-0.246 -1.485,-0.471 -0.348,-0.222 -0.52,-0.693 -0.52,-1.411 0,-1.255 0.743,-1.882 2.228,-1.882 0.792,0 2.376,0.18 4.752,0.537 2.377,0.36 5.692,0.538 9.95,0.538 4.256,0 7.573,-0.178 9.95,-0.538 2.377,-0.356 3.958,-0.537 4.752,-0.537 1.485,0 2.227,0.627 2.227,1.882 0,0.627 -0.148,1.054 -0.444,1.277 -0.298,0.224 -0.743,0.382 -1.337,0.47 -0.594,0.09 -1.288,0.158 -2.08,0.202 a 18.48,18.48 0 0 0 -2.523,0.335 c -1.883,0.36 -2.996,0.964 -3.341,1.815 -0.349,0.853 -0.52,2.352 -0.52,4.503 z"
       style="fill:#f9f9f9;stroke-width:0.804381"
       transform="translate(-4.737,4.562)"
       id="path4" />
    <path
       d="m 574.206,112.09 c 0,1.434 0.023,2.599 0.075,3.494 0.049,0.897 0.197,1.637 0.445,2.217 a 3.088,3.088 0 0 0 1.188,1.412 c 0.543,0.36 1.31,0.672 2.302,0.94 0.892,0.27 1.731,0.403 2.524,0.403 0.792,0 1.486,0.047 2.08,0.135 0.593,0.09 1.062,0.292 1.41,0.605 0.345,0.315 0.52,0.83 0.52,1.546 0,1.257 -1.04,1.882 -3.119,1.882 -10.042,-0.247 -20.063,-0.098 -28.216,0 -2.079,0 -2.034,0.245 -2.034,-1.19 0,-0.625 -1.2,-2.417 -0.851,-2.685 0.345,-0.27 1.079,-0.068 1.623,-0.158 a 11.67,11.67 0 0 1 1.857,-0.135 8.23,8.23 0 0 0 2.079,-0.268 c 1.187,-0.27 2.102,-0.583 2.747,-0.94 0.642,-0.358 1.113,-0.829 1.41,-1.413 0.298,-0.581 0.47,-1.344 0.52,-2.284 0.049,-0.94 0.074,-2.128 0.074,-3.563 v -61.56 c 0,-2.152 -0.174,-3.607 -0.519,-4.37 -0.348,-0.76 -1.262,-1.364 -2.748,-1.814 -0.99,-0.269 -1.93,-0.403 -2.821,-0.403 -0.793,0 -1.51,-0.044 -2.153,-0.134 -0.646,-0.088 -1.14,-0.246 -1.486,-0.471 -0.347,-0.222 -0.519,-0.693 -0.519,-1.411 0,-1.255 0.742,-1.882 2.228,-1.882 0.791,0 2.376,0.18 4.751,0.537 2.377,0.36 5.692,0.538 9.95,0.538 4.256,0 7.574,-0.178 9.95,-0.538 2.377,-0.356 3.959,-0.537 4.753,-0.537 1.484,0 2.227,0.627 2.227,1.882 0,0.627 -0.148,1.054 -0.445,1.277 -0.298,0.224 -0.742,0.382 -1.337,0.47 -0.593,0.09 -1.287,0.158 -2.079,0.202 -0.793,0.047 -1.633,0.158 -2.524,0.335 -1.882,0.36 -2.996,0.964 -3.34,1.815 -0.35,0.853 -0.52,2.352 -0.52,4.503 z"
       style="fill:#f9f9f9;stroke-width:0.804381"
       transform="translate(-4.737,4.562)"
       id="path5" />
    <path
       d="m 139.774,41.79 c 6.045,-6.183 9.194,-14.866 9.629,-26.545 l 0.015,-0.424 -0.445,0.085 c -21.228,4.049 -32.19,16.453 -32.585,36.868 l -0.007,0.397 0.422,-0.06 c 10.112,-1.477 17.626,-4.854 22.972,-10.321 z"
       style="fill:#008000;stroke-width:0.944209"
       transform="translate(-4.737,4.562)"
       id="path6" />
    <path
       d="m 66.72,146.795 0.39,0.523 c 3.509,4.719 7.533,9.31 11.959,13.649 3.37,3.303 8.74,5.121 15.118,5.121 4.674,0 9.52,-1.025 12.649,-2.675 6.471,-3.41 9.9,-3.417 12.404,-3.42 0.503,0 0.972,-0.003 1.424,-0.027 l 0.408,-0.025 c 0.542,-0.032 1.102,-0.067 1.732,-0.067 2.22,0 5.535,0.405 11.562,3.58 4.206,1.647 8.284,2.479 12.123,2.479 h 0.002 c 10.45,0 19.612,-6.098 28.01,-18.627 l 0.343,-0.511 z"
       style="fill:#0000ff;stroke-width:0.944209"
       transform="translate(-4.737,4.562)"
       id="path7" />
    <path
       d="m 176.086,68.614 a 67.768,67.768 0 0 1 4.52,-3.837 l 0.272,-0.21 -0.223,-0.256 C 172.778,55.252 161.992,50.367 149.463,50.183 l -0.574,-0.002 c -6.35,0 -11.964,1.11 -16.236,3.208 -5.541,2.72 -9.662,3.324 -9.702,3.33 -0.072,0.008 -0.526,0.025 -1.77,0.025 -1.51,0 -2.813,-0.023 -2.97,-0.044 l -0.1,-0.011 c -1.776,-0.215 -6.305,-0.91 -9.976,-2.734 -4.989,-2.48 -10.547,-3.791 -16.073,-3.791 l -0.364,0.002 c -14.611,0.152 -26.826,6.79 -34.416,18.449 z"
       style="fill:#008000;stroke-width:0.944209"
       transform="translate(-4.737,4.562)"
       id="path8" />
    <path
       d="m 163.835,87.98 c 1.438,-6.482 5.319,-12.775 11.648,-18.798 l 0.596,-0.568 H 57.281 l -0.105,0.161 c -3.64,5.633 -6.052,12.148 -7.197,19.204 z"
       style="fill:#ffff00;stroke-width:0.944209"
       transform="translate(-4.737,4.562)"
       id="path9" />
    <path
       d="m 166.618,107.111 c -2.873,-5.502 -4.284,-11.86 -2.854,-18.728 l 0.082,-0.398 H 49.99 l -0.045,0.282 c -0.963,6.119 -0.963,12.452 -0.072,18.843 h 116.745 z"
       style="fill:#ff6600;stroke-width:0.944209"
       transform="translate(-4.737,4.562)"
       id="path10" />
    <path
       d="M 55.466,127.181 H 185.58 l 0.762,-1.536 -0.313,-0.144 c -6.227,-2.875 -14.575,-9.167 -19.328,-18.204 l -0.098,-0.187 H 49.869 l 0.054,0.378 c 0.794,5.536 2.417,12.262 5.543,19.693 z"
       style="fill:#ff0000;stroke-width:0.944209"
       transform="translate(-4.737,4.562)"
       id="path11" />
    <path
       d="m 66.722,146.795 h 108.11 c 4.128,-6.237 7.531,-13.104 10.52,-19.139 l 0.235,-0.474 h -130.1 l 0.196,0.458 c 2.843,6.622 6.537,13.022 11.039,19.155 z"
       style="fill:#800080;stroke-width:0.944209"
       transform="translate(-4.737,4.562)"
       id="path12" />
  </g>
</svg>
