<?xml version="1.0" encoding="UTF-8" standalone="no"?>
<svg
   id="Layer_1"
   data-name="Layer 1"
   version="1.1"
   viewBox="0 0 3839 932.2"
   sodipodi:docname="arcadia.svg"
   inkscape:version="1.3 (0e150ed, 2023-07-21)"
   xmlns:inkscape="http://www.inkscape.org/namespaces/inkscape"
   xmlns:sodipodi="http://sodipodi.sourceforge.net/DTD/sodipodi-0.dtd"
   xmlns="http://www.w3.org/2000/svg"
   xmlns:svg="http://www.w3.org/2000/svg">
  <sodipodi:namedview
     id="namedview25"
     pagecolor="#ffffff"
     bordercolor="#000000"
     borderopacity="0.25"
     inkscape:showpageshadow="2"
     inkscape:pageopacity="0.0"
     inkscape:pagecheckerboard="0"
     inkscape:deskcolor="#d1d1d1"
     inkscape:zoom="0.17921334"
     inkscape:cx="1919.5"
     inkscape:cy="465.92515"
     inkscape:window-width="1392"
     inkscape:window-height="1212"
     inkscape:window-x="611"
     inkscape:window-y="33"
     inkscape:window-maximized="0"
     inkscape:current-layer="Layer_1" />
  <defs
     id="defs1">
    <style
       id="style1">&#10;      .cls-1 {&#10;        fill: #2fbb37;&#10;      }&#10;&#10;      .cls-1, .cls-2, .cls-3, .cls-4 {&#10;        stroke-width: 0px;&#10;      }&#10;&#10;      .cls-2 {&#10;        fill: #1e35a0;&#10;      }&#10;&#10;      .cls-3 {&#10;        fill: #c70a11;&#10;      }&#10;&#10;      .cls-4 {&#10;        fill: #fff;&#10;      }&#10;    </style>
  </defs>
  <g
     id="g10"
     style="fill:#ffffff">
    <path
       class="cls-4"
       d="M600.2,241.2c34.7-29.7,59.3-58.5,59.3-114.4s-28.8-105.5-142.7-105.5h-91.1c-28,0-50.6,22.6-50.6,50.6v289.8h110V119.2h31.7c32.6,0,45.8,40.8,12.3,52.5-34.7,12-43.1,71.2-21.1,106.8l51.4,83.2h115.1l-74.3-120.5Z"
       id="path1"
       style="fill:#ffffff" />
    <rect
       class="cls-4"
       x="1613.6"
       y="21.3"
       width="110"
       height="340.4"
       id="rect1"
       style="fill:#ffffff" />
    <path
       class="cls-4"
       d="M2623,214.2c32.5-25.4,49.4-66.2,43.4-107-.6-3-1.2-5.4-1.7-7.1-40.3-125.4-231.7-125.4-272,.2-4,12.7-6.6,26.7-7.2,42.1,0,.6.5,1.1,1,1.1h108.9c-.6-3.7-.7-7.2-.4-10.7.6-12.6,8.3-22,18.2-27.1,29.3-14.9,54.4,27.2,28.5,47.5l-145.5,114c-39.5,31-17.6,94.5,32.6,94.5h5.4c.2,0,.4-.1.6-.2v.2c-.1,0,232.4,0,232.4,0v-97.9h-107.6l63.4-49.6Z"
       id="path2"
       style="fill:#ffffff" />
    <rect
       class="cls-4"
       x="2141.4"
       y="158.2"
       width="156.3"
       height="97.9"
       id="rect2"
       style="fill:#ffffff" />
    <path
       class="cls-4"
       d="M3358.7,2.8v98h37.6c7.7,0,13.8,6.2,13.8,13.8v246.9h110V62.1c0-32.6-26.5-59.1-59.1-59.1l-102.3-.2h0Z"
       id="path3"
       style="fill:#ffffff" />
    <path
       class="cls-4"
       d="M1413.6,21.9l-17.5-.6h-67.6c-28,0-50.6,22.6-50.6,50.6v239.2c0,28,22.6,50.5,50.6,50.5h85.2c231.3-15,231.3-324.7,0-339.7ZM1395.9,263.7h-8.1V119.2h8.1c108.2.1,108.2,144.5,0,144.5Z"
       id="path4"
       style="fill:#ffffff" />
    <path
       class="cls-4"
       d="M865.8,119.2h41.7V21.3h-41.7c-254.9,0-254.9,340.4,0,340.3h0c0,.1,41.7.1,41.7.1v-97.9h-41.7c-108.2-.2-108.2-144.6,0-144.6Z"
       id="path5"
       style="fill:#ffffff" />
    <path
       class="cls-4"
       d="M246.9,361.7h110l-100.8-294.4C232.6-1,136-1,112.6,67.3L11.7,361.7h109.9l11.3-46.1h102.7l11.3,46.1ZM152.1,237.3l25.6-104.6c1.3-7.4,11.9-7.4,13.2,0l25.6,104.6h-64.4Z"
       id="path6"
       style="fill:#ffffff" />
    <path
       class="cls-4"
       d="M1155.3,361.7h110l-100.9-294.4c-23.4-68.3-120.1-68.3-143.5,0l-100.8,294.4h109.9l11.3-46.1h102.7l11.3,46.1ZM1060.4,237.3l25.6-104.6c1.3-7.4,11.9-7.4,13.2,0l25.6,104.6h-64.4Z"
       id="path7"
       style="fill:#ffffff" />
    <path
       class="cls-4"
       d="M1976.4,361.7h110l-100.9-294.4c-23.5-68.3-120.1-68.3-143.5,0l-100.9,294.4h109.9l11.3-46.1h102.7l11.4,46.1ZM1881.5,237.3l25.6-104.6c1.3-7.4,11.9-7.4,13.2,0l25.6,104.6h-64.4Z"
       id="path8"
       style="fill:#ffffff" />
    <path
       class="cls-4"
       d="M2852.7,0c-114.1,0-156.2,83.2-156.2,185.9s42.1,185.9,156.2,185.9,156.2-83.2,156.2-185.9S2966.8,0,2852.7,0ZM2852.7,273.7c-25.5,0-46.2-21.3-46.2-87.8s20.6-87.8,46.2-87.8,46.2,21.3,46.2,87.8-20.7,87.8-46.2,87.8Z"
       id="path9"
       style="fill:#ffffff" />
    <path
       class="cls-4"
       d="M3190.4,0c-114.1,0-156.2,83.2-156.2,185.9s42.1,185.9,156.2,185.9,156.2-83.2,156.2-185.9S3304.4,0,3190.4,0ZM3190.4,273.7c-25.5,0-46.2-21.3-46.2-87.8s20.6-87.8,46.2-87.8,46.2,21.3,46.2,87.8-20.7,87.8-46.2,87.8Z"
       id="path10"
       style="fill:#ffffff" />
  </g>
  <g
     id="g22"
     style="fill:#ffffff">
    <g
       id="g18"
       style="fill:#ffffff">
      <path
         class="cls-4"
         d="M2220.3,619.5l-5.4,15.2c18.2.9,54.2-3.6,52.3,17.8-.9,10.7-10.7,35.3-14.7,46l-57.6,158.4c-9.5,27.2-42.8,42.8-74,42.8l-5.3,15.2h249.2l29.6-81.6h-15c-28.4,49.5-23,62-75.6,62s-45.3-2.2-43.1-27.7c.6-7.1,7.5-24.5,9.9-31.7l25.2-69.1h20.8c20.4,0,34.7,20,28.1,39.3l-4.9,14.2h12.5l34.6-101.4h-12.5l-.6,1.8c-5.4,15.8-20.2,26.4-36.9,26.4h-34l30-82.5c9.9-26.8,9.8-25.4,37-25.4,62.6,0,73.9,15.7,65.2,39.9h15.1l21.5-59.5c-.1-.1-251.4-.1-251.4-.1Z"
         id="path11"
         style="fill:#ffffff" />
      <path
         class="cls-4"
         d="M2425.1,815.9c7.2-19.1,25-67.6,26.6-85.9.3-4-1.2-9.5-6.3-9.5-9.9,0-24.6,26.2-29.2,34.2l-8-4c13.2-23.8,34-56.8,64.2-56.8s25.2,11.9,23.8,28.2c-.8,8.7-2.7,17.5-5.4,25l.7.8c14.4-23.8,40.5-54.1,70.7-54.1s28.1,9.9,26.6,27.8c-.8,8.7-3.5,17.5-5.8,25.4l.7.8c15.7-24.6,38.1-54.1,70.3-54.1s31.2,11.1,29.5,31c-1.1,13.1-8.4,32.2-13.5,44.9l-9.6,23c-3.5,8.3-16.2,35-16.9,42.9-.3,3.6,2,8.7,6,8.7s12.1-6.3,17.9-13.6c6-7.5,11.3-15.9,14-19.8l7.6,4.4c-4.1,7.1-9,14.9-14.7,22.3-13.1,17.2-30.4,32.5-50.9,32.5s-27.6-11.5-26.1-28.2c1-11.1,9.2-33,13.8-44.1l10-23.9c4.1-9.9,16.4-37.4,17.2-46.5.5-5.2-2.7-9.9-7.9-9.9-27.4,0-64,81.5-72.6,102.6l-18.2,44.9h-42.9l36.6-95.4c4-9.5,12.5-29.8,13.4-39.4.5-6-.5-12.7-7.2-12.7-30.2,0-60.3,75.5-69.8,98.2l-20.6,49.3h-43.3l19.3-49Z"
         id="path12"
         style="fill:#ffffff" />
      <path
         class="cls-4"
         d="M2834.2,818.7c-20.7,27-48.3,51.7-82.4,51.7s-55.3-22.7-52.1-59.2c5.2-59.2,54-117.3,115.6-117.3s47.8,8.3,45.6,33.4c-3.9,44.9-75.6,60-110.9,68.8-1.9,7.6-3.7,15.1-4.4,22.7-1.4,15.5,5.7,29.8,22.8,29.8s42-21.5,56.5-37.4l9.3,7.5ZM2823.6,722.1c.8-9.1-3.7-16.3-13.3-16.3-28.6,0-48.2,55.6-55.7,77.5,27.4-7.9,66.3-29.8,69-61.2Z"
         id="path13"
         style="fill:#ffffff" />
      <path
         class="cls-4"
         d="M2896.5,865.2h-44.5l19.8-49.7c8.7-21.9,22.5-62,24.5-84.7.4-4.4.1-9.9-5.1-9.9-11.1,0-24.5,25.8-29.3,34.6l-8.4-4c13.3-24.2,34.9-57.6,65.5-57.6s23.1,13.1,21.8,27.8c-1,11.5,27.1-27.8,58.5-27.8s27.3,10.3,25.9,26.6c-1.3,14.3-12,23.5-25.9,23.5s-14.9-16.3-24.4-16.3c-21.5,0-52.8,77.1-60.4,95l-18,42.5Z"
         id="path14"
         style="fill:#ffffff" />
      <path
         class="cls-4"
         d="M3033.8,745.2c3-34.6,37.5-51.3,68.1-51.3s47.1,6.8,44.9,31.4c-.8,9.5-8.6,16.7-18.2,16.7s-15.8-10.7-15.3-20.7c.4-9.5-2-13.9-12.7-13.9s-22,6.4-23.1,18.7c-1.3,14.7,10.1,25.4,18.4,34.6,14.1,15.9,25.8,31.8,23.8,55.2-3,34.2-39.7,54.4-70.4,54.4s-52.7-10.7-50.3-38.2c.9-10.7,8-18.7,19.1-18.7s17.7,6.8,16.8,17.5l-1,6.8-.9,6.4c-.8,8.7,8,12.7,15.2,12.7,13.5,0,24.9-11.5,26-24.6,1.2-13.5-5.7-21.1-13.2-30.6-12-15.9-29.1-34.6-27.2-56.4Z"
         id="path15"
         style="fill:#ffffff" />
      <path
         class="cls-4"
         d="M3145.7,802c4.9-55.7,51.2-108.1,108.4-108.1s63.4,29.8,60,68.8c-4.7,53.7-52.7,107.7-108.4,107.7s-63.5-28.6-60-68.4ZM3209.2,757.9c-8.9,19.9-19.9,50.1-21.8,71.5-1.1,12.3,2.4,27.4,17.5,27.4,36.6,0,65.3-96.2,67.7-124.4,1.1-12.7-3.8-25-18.1-25-23.4,0-37.8,32.2-45.3,50.5Z"
         id="path16"
         style="fill:#ffffff" />
      <path
         class="cls-4"
         d="M3345.6,802c6.7-17.9,21-53.3,22.5-71.2.4-4.4-1.1-10.7-6.6-10.7-10.7,0-24.4,24.6-29.5,33.4l-7.7-3.2c13-25.4,33.6-56.4,64.6-56.4s24.5,10.3,23,27.4l-4,22.7-1.9,7.5.7.8c15.6-28.2,42.5-58.4,76.7-58.4s31.2,11.1,29.5,31c-1.1,13.1-8.4,32.2-13.5,44.9l-9.6,23c-3.5,8.3-16.2,35-16.9,42.9-.3,3.6,2,8.7,6,8.7,11.1,0,26.5-25.8,31.9-33.4l7.6,4.4c-13.6,23.5-36.2,54.8-65.6,54.8s-27.6-11.5-26.2-28.2c1-11.1,9.3-33,13.8-44.1l10-23.9c4.1-9.9,16.4-37.4,17.2-46.5.5-5.2-2.7-9.9-7.9-9.9-34.6.8-62.4,72.3-73.3,97l-21.9,50.5h-41.5l22.6-63.1Z"
         id="path17"
         style="fill:#ffffff" />
      <ellipse
         class="cls-4"
         cx="2179.5"
         cy="673.7"
         rx="22.8"
         ry="21.8"
         id="ellipse17"
         style="fill:#ffffff" />
      <path
         class="cls-4"
         d="M2214.9,634.7c-10.7,0-42.4.4-18.8,24.3,4.8,4.9-1.2,11.9-1.2,11.9l-17.2,2.8-19.7,7.4s-26.5-61.6,62.2-61.6"
         id="path18"
         style="fill:#ffffff" />
    </g>
    <g
       id="g21"
       style="fill:#ffffff">
      <g
         id="g20"
         style="fill:#ffffff">
        <path
           class="cls-4"
           d="M1924.1,798c13.1,0,23.6-10.6,23.6-23.6s-10.6-23.6-23.6-23.6-23.6,10.6-23.6,23.6,10.5,23.6,23.6,23.6"
           id="path19"
           style="fill:#ffffff" />
        <path
           class="cls-4"
           d="M1885.8,724l4.2-2.6c3.4-2.1,7-4.3,10.5-6.7,1.8,5,3.7,9.4,5.3,12.9-18.7,7.3-32,25.5-32,46.8s9.7,34.1,24.2,42.9c-4.3,2.5-11.3,3.1-17.9,1.4-21.7-5.8-28.2-26.6-28.2-43.5,0-20.2,16.3-40.2,33.9-51.2M1912.7,657.1c.5,0,1.9,0,3.3,2.2,1.1,1.7,2.3,4.9,2.3,11,0,13.5-5.5,20-13.2,27.2-1.8-7-3.1-12.1-3.1-19.6,0-13.8,6.8-20.8,10.7-20.8M1924.1,740c19,0,34.4,15.4,34.4,34.4s-15.4,34.4-34.4,34.4-34.4-15.4-34.4-34.4,15.3-34.4,34.4-34.4M1885.7,828.4c9.2,1.1,15.7.5,21.1-.8,6.6,2.7,12.5,7,12.5,13.8,0,15.2-4.9,24.4-12.5,18.5-7.6-6-29.9-6.5-29.9,9.8s25.5,23.9,40.2,6,15.7-39.7,9.8-51.1c0,0,0,0,0-.2,26.4-1.5,47.4-23.3,47.4-50.1s-22.5-50.2-50.2-50.2-6.6.3-9.7,1c-1.9-4-4.3-9.5-6.5-15.9,10.5-8.7,19.1-20.5,19.1-38.9s-1.2-11.9-3.7-15.7c-2.5-4-6.3-6.2-10.6-6.2-9.5,0-19.4,11-19.4,29.5s1.9,19.5,4.4,28.2c-3.9,2.8-8.1,5.4-12.2,7.9l-4.3,2.6c-20.4,12.8-48.3,34.8-48.3,58.6,0,30.4,25.1,50,52.9,53.2"
           id="path20"
           style="fill:#ffffff" />
      </g>
      <path
         class="cls-4"
         d="M1755.9,619.5v295.4h295.3v-295.4h-295.3ZM1903.6,903.2c-75.1,0-136-60.9-136-136s60.9-136,136-136,136,60.9,136,136c0,75.1-60.9,136-136,136Z"
         id="path21"
         style="fill:#ffffff" />
    </g>
  </g>
  <path
     d="M 158,471.09961 0,932.19922 h 232.5 l 158,-461.09961 z"
     id="polygon22"
     style="fill:#c70a11;fill-opacity:1" />
  <path
     d="M 475.90039,471.09961 317.80078,932.19922 h 232.5 l 158,-461.09961 z"
     id="polygon23"
     style="fill:#2fbb37;fill-opacity:1" />
  <path
     d="m 793.69922,471.09961 -158,461.09961 h 232.5 L 1026.1992,471.09961 Z"
     id="polygon24"
     style="fill:#1e35a0;fill-opacity:1" />
  <g
     id="g25"
     style="fill:#ffffff">
    <path
       class="cls-4"
       d="M3609.6,244h94.7v17.7h-37.2v99.3h-20.5v-99.3h-37v-17.7Z"
       id="path24"
       style="fill:#ffffff" />
    <path
       class="cls-4"
       d="M3717.6,244h28.8l32.3,91.6h.3l31.5-91.6h28.5v117h-19.5v-90.3h-.3l-32.4,90.3h-16.9l-32.4-90.3h-.3v90.3h-19.5v-117h-.1Z"
       id="path25"
       style="fill:#ffffff" />
  </g>
</svg>
