<?xml version="1.0" encoding="UTF-8" standalone="no"?>
<svg
   height="168.296"
   viewBox="0 0 542.915 106.868"
   width="854.984"
   version="1.1"
   id="svg5"
   sodipodi:docname="atom-wht.svg"
   inkscape:version="1.3 (0e150ed, 2023-07-21)"
   xmlns:inkscape="http://www.inkscape.org/namespaces/inkscape"
   xmlns:sodipodi="http://sodipodi.sourceforge.net/DTD/sodipodi-0.dtd"
   xmlns="http://www.w3.org/2000/svg"
   xmlns:svg="http://www.w3.org/2000/svg">
  <defs
     id="defs5" />
  <sodipodi:namedview
     id="namedview5"
     pagecolor="#ffffff"
     bordercolor="#000000"
     borderopacity="0.25"
     inkscape:showpageshadow="2"
     inkscape:pageopacity="0.0"
     inkscape:pagecheckerboard="0"
     inkscape:deskcolor="#d1d1d1"
     inkscape:zoom="0.9345204"
     inkscape:cx="426.95697"
     inkscape:cy="170.14075"
     inkscape:window-width="1984"
     inkscape:window-height="1169"
     inkscape:window-x="0"
     inkscape:window-y="25"
     inkscape:window-maximized="0"
     inkscape:current-layer="svg5" />
  <text
     fill="#fff"
     fill-opacity=".5"
     font-family="TrasksHand"
     font-size=".37"
     stroke-width=".185"
     x="-58.913"
     y="75.787"
     transform="translate(161.43 -25.382)"
     id="text1"><tspan
       x="-58.913"
       y="75.787"
       id="tspan1">John Loreth 2022</tspan></text>
  <path
     d="m30.43 54.29-30.1-.127-.09-.762c-.125-1.04.418-7.864.848-10.668.193-1.257.418-2.8.5-3.429.382-2.92 1.88-8.965 3.211-12.954 1.383-4.145 2.743-7.2 4.902-11.011 1.998-3.528 3.475-5.523 6.112-8.254 2.856-2.957 5.691-4.875 8.963-6.063C28.468-.074 31.654-.442 35.13.688c3.924 1.296 6.2 2.758 9.678 6.218 4.673 4.649 8.478 11.338 11.423 20.08 1.777 5.275 3.21 12.57 3.917 19.938.302 3.143.511 6.115.465 6.604l-.083.89z"
     fill="#52ad67"
     id="path1"
     style="fill:#c2bdbc;fill-opacity:1" />
  <path
     d="M56.573 105.285c-1.177-.871-2.789-1.986-3.582-2.477-2.397-1.485-4.85-2.962-5.924-3.567-1.215-.684-8.971-4.565-9.123-4.565-.058 0-.659-.246-1.334-.547-.675-.301-1.364-.576-1.532-.61-.167-.036-.796-.291-1.397-.569-.6-.278-1.95-.813-2.997-1.19a579.552 579.552 0 0 1-3.175-1.15c-1.883-.692-7.22-2.305-12.065-3.645-1.528-.423-6.998-1.616-9.017-1.966C1.773 84.19.304 83.895.108 83.728c-.122-.105-.143-.608-.048-1.12l.175-.93 1.318.17c2.035.26 6.975 1.114 8.81 1.522.909.201 3.08.663 4.827 1.025 5.018 1.041 5.667 1.186 6.477 1.442.419.133 1.39.346 2.159.473s1.968.39 2.667.582l1.27.35.08-.88c.044-.484.025-.936-.042-1.003s-1.018-.237-2.112-.377C12.515 82.617.072 71.037 0 57.57l.077-1.629h60.706l-.04 2.667c-.07 4.513-1.636 8.92-4.92 13.843-1.247 1.87-5.69 6.187-7.79 7.573-3.728 2.456-9.047 4.54-12.442 4.872-2.725.266-2.621.186-2.621 2.045 0 1.572.025 1.635.698 1.78 2.047.442 11.703 3.893 15.558 5.56 4.732 2.046 5.905 2.592 10.795 5.026 5.638 2.808 7.278 3.755 7.156 4.132-.107.33-7.456 3.43-8.13 3.43-.183 0-1.297-.713-2.474-1.584z"
     fill="#38894b"
     id="path2"
     style="fill:#ffffff;fill-opacity:1" />
  <path
     id="path3"
     d="M 124.46376 15.174272 L 114.88419 15.175513 L 67.587834 75.866401 L 77.883022 75.880043 L 90.960058 59.298105 L 112.85144 59.408485 L 112.78447 76.134291 L 123.26445 76.134291 L 124.46376 15.174272 z M 218.87415 15.614556 C 214.44016 15.614556 210.3259 16.436237 206.53257 18.078902 C 202.73925 19.720901 199.45385 21.97313 196.67519 24.834461 C 193.89719 27.695791 191.76041 30.981277 190.26442 34.690607 C 188.76842 38.346603 188.01959 42.161497 188.01959 46.135493 C 188.01959 50.110156 188.79446 53.951091 190.34379 57.659754 C 191.89312 61.369084 194.05718 64.65457 196.83518 67.5159 C 199.66718 70.377231 202.97985 72.628794 206.77318 74.271459 C 210.56651 75.860791 214.60015 76.65643 218.87415 76.65643 C 223.14881 76.65643 227.18303 75.860791 230.97636 74.271459 C 234.76969 72.628794 238.05451 70.377231 240.83251 67.5159 C 243.6645 64.65457 245.85518 61.396366 247.40451 57.74037 C 248.95384 54.083707 249.72871 50.268239 249.72871 46.294243 L 249.72995 46.294243 C 249.72995 42.160914 248.95451 38.239279 247.40451 34.530616 C 245.85518 30.76862 243.6645 27.483134 240.83251 24.674471 C 238.05451 21.813807 234.76969 19.589526 230.97636 17.999527 C 227.23637 16.410195 223.20215 15.614556 218.87415 15.614556 z M 159.47435 15.722456 C 155.44168 15.722456 151.56858 16.491775 147.85459 18.031773 C 144.19326 19.518438 140.95555 21.669477 138.14355 24.483474 C 135.33022 27.244805 133.12815 30.482811 131.53682 34.199474 C 129.94482 37.86347 129.14937 41.820525 129.14937 46.06852 C 129.14937 50.156516 129.91878 54.084475 131.45744 57.854471 C 133.04944 61.571134 135.22423 64.86313 137.98356 67.730461 C 140.79556 70.597791 144.03327 72.854904 147.6946 74.500902 C 151.40926 76.094234 155.3084 76.890835 159.39373 76.890835 C 161.78173 76.890835 164.19604 76.598655 166.6367 76.013989 C 169.1307 75.429989 171.54501 74.527222 173.87967 73.306556 C 176.26767 72.031891 178.52373 70.385939 180.64639 68.367941 C 182.76839 66.35061 184.59825 63.960715 186.13691 61.199384 L 175.55151 61.199384 C 173.48218 63.642049 171.04183 65.554805 168.22916 66.93547 C 165.46983 68.315469 162.55168 69.005422 159.47435 69.005422 C 156.66235 69.005422 153.92973 68.420969 151.2764 67.25297 C 148.62306 66.084971 146.28755 64.439594 144.27155 62.315596 C 142.25488 60.191598 140.66274 57.748953 139.49541 54.988289 C 138.32874 52.174292 137.74543 49.227226 137.74543 46.147895 C 137.74543 43.067898 138.3027 40.174249 139.41603 37.466252 C 140.5307 34.704921 142.09613 32.288985 144.1128 30.21832 C 146.1288 28.147655 148.46307 26.528319 151.1164 25.36032 C 153.8224 24.191655 156.66177 23.606629 159.6331 23.606629 C 161.80843 23.606629 163.79892 23.899475 165.60359 24.483474 C 167.40759 25.068141 168.97245 25.811417 170.29912 26.713417 C 171.67845 27.563416 172.76617 28.386058 173.56217 29.182724 C 174.41084 29.978723 175.233 30.828741 176.029 31.731406 L 176.18899 31.891397 L 186.53503 31.890156 L 186.45441 31.731406 C 185.34108 29.766742 184.14843 27.987341 182.8751 26.394676 C 181.6011 24.748011 179.79614 23.102633 177.46147 21.457302 C 174.59614 19.386637 171.57191 17.926125 168.38791 17.076792 C 165.20458 16.17346 162.23368 15.722456 159.47435 15.722456 z M 253.40601 16.760533 L 253.40601 75.96686 L 262.19679 75.96686 L 262.19679 48.524185 L 262.3605 48.524185 L 282.22038 75.96686 L 293.20762 75.96686 L 276.36027 53.88448 C 277.66294 53.88448 279.23594 53.645143 281.08061 53.165144 C 282.9806 52.631811 284.88082 51.725308 286.77948 50.445309 C 288.73282 49.164643 290.36086 47.297739 291.66353 44.844409 C 292.96553 42.391078 293.61566 39.349812 293.61566 35.722482 C 293.61566 33.109151 293.1548 30.549612 292.2328 28.042948 C 291.31013 25.535617 289.92582 23.428803 288.08049 21.721472 C 286.34449 20.121473 284.22897 18.893787 281.73297 18.040455 C 279.29097 17.187122 276.06149 16.760533 272.0455 16.760533 L 253.40601 16.760533 z M 299.17935 16.760533 L 299.17935 75.96686 L 307.71961 75.96686 L 307.71961 30.202197 L 307.87712 30.202197 L 336.82048 75.96686 L 345.67575 75.96686 L 345.67575 16.760533 L 337.1355 16.760533 L 337.1355 61.804619 L 336.97675 61.804619 L 308.50964 16.760533 L 299.17935 16.760533 z M 218.87415 23.482605 C 222.40081 23.482605 225.55294 24.172078 228.33094 25.550076 C 231.16294 26.874742 233.51416 28.676355 235.38416 30.955019 C 237.25415 33.180351 238.66939 35.643581 239.63072 38.345578 C 240.59272 40.994909 241.07435 43.670954 241.07435 46.373618 C 241.07435 48.758282 240.62 51.275503 239.71133 53.924167 C 238.80334 56.520831 237.41414 58.957927 235.54415 61.236591 C 233.72748 63.461923 231.40288 65.290244 228.57155 66.72091 C 225.73955 68.098908 222.50748 68.788381 218.87415 68.788381 C 215.24082 68.788381 212.00809 68.098908 209.17676 66.72091 C 206.39876 65.343578 204.07539 63.515256 202.2054 61.236591 C 200.3354 58.957927 198.94621 56.494123 198.03821 53.844792 C 197.12954 51.195462 196.67519 48.626157 196.67519 46.135493 C 196.67519 43.698162 197.12954 41.154899 198.03821 38.505569 C 198.94621 35.856238 200.30812 33.391194 202.12478 31.112529 C 203.99478 28.834532 206.34542 27.00745 209.17676 25.629451 C 212.00875 24.198786 215.24149 23.482605 218.87415 23.482605 z M 262.19555 24.681912 L 271.47623 24.681912 C 273.86356 24.681912 275.89742 25.001854 277.57942 25.641854 C 279.31609 26.281853 280.7004 27.162315 281.73173 28.282314 C 282.81639 29.348979 283.60323 30.522101 284.0919 31.8021 C 284.58056 33.082099 284.82487 34.38915 284.82487 35.722482 C 284.82487 38.389813 284.17417 40.549377 282.8715 42.202709 C 281.62351 43.802707 280.07588 44.975829 278.23055 45.722495 C 276.38588 46.415827 274.62294 46.869699 272.94095 47.083032 C 271.25828 47.243032 269.68528 47.322398 268.22061 47.322398 L 262.19555 47.322398 L 262.19555 24.681912 z M 114.21446 28.509277 L 113.10693 50.733043 L 98.144738 50.317565 L 114.21446 28.509277 z "
     style="fill:#c2bdbc;fill-opacity:1" />
  <path
     d="m 363.956,58.027 h 26.836 l 7.697,17.99 h 2.219 l -21.982,-51.6 h -2.704 l -21.982,51.6 h 2.219 z M 377.339,26.37 389.89,56.144 h -25.033 z m 20.049,-1.924 v 1.882 h 13.785 v 49.689 h 2.057 V 26.328 h 13.785 v -1.882 z m 30.932,25.786 q 0,5.645 2.024,10.593 2.094,4.947 5.793,8.571 3.699,3.555 8.584,5.576 4.885,1.95 10.399,1.95 5.513,0 10.398,-1.95 4.886,-2.021 8.585,-5.645 3.698,-3.624 5.722,-8.502 2.094,-4.948 2.094,-10.593 0,-5.645 -2.094,-10.593 -2.024,-4.948 -5.722,-8.502 -3.7,-3.624 -8.585,-5.575 -4.885,-2.021 -10.398,-2.021 -5.514,0 -10.4,2.02 -4.884,1.952 -8.583,5.576 -3.7,3.554 -5.793,8.502 -2.024,4.948 -2.024,10.593 z m 2.094,0 q 0,-5.227 1.884,-9.757 1.954,-4.6 5.304,-7.944 3.42,-3.415 7.887,-5.227 4.536,-1.882 9.63,-1.882 5.095,0 9.562,1.882 4.536,1.812 7.886,5.227 3.42,3.345 5.304,7.944 1.954,4.53 1.954,9.757 0,5.226 -1.954,9.826 -1.884,4.53 -5.304,7.945 -3.35,3.345 -7.886,5.226 -4.467,1.812 -9.561,1.812 -5.095,0 -9.631,-1.812 -4.467,-1.881 -7.887,-5.226 -3.35,-3.415 -5.304,-7.945 -1.884,-4.6 -1.884,-9.826 z m 61.554,-25.785 h -3.35 v 51.57 h 2.094 v -49.48 h 0.14 l 24.356,49.48 h 1.186 l 24.287,-49.48 h 0.14 -0.07 0.07 v 49.48 h 2.094 v -51.57 h -3.28 l -23.799,48.225 z"
     fill="#38894b"
     id="path5"
     style="stroke-width:0.688;fill:#ffffff;fill-opacity:1" />
</svg>
