<?xml version="1.0" encoding="UTF-8" standalone="no"?>
<!DOCTYPE svg PUBLIC "-//W3C//DTD SVG 1.1//EN" "http://www.w3.org/Graphics/SVG/1.1/DTD/svg11.dtd">
<svg width="100%" height="100%" viewBox="0 0 1014 166" version="1.1" xmlns="http://www.w3.org/2000/svg" xmlns:xlink="http://www.w3.org/1999/xlink" xml:space="preserve" xmlns:serif="http://www.serif.com/" style="fill-rule:evenodd;clip-rule:evenodd;stroke-linejoin:round;stroke-miterlimit:2;">
    <g>
        <path d="M1014,83C1014,128.809 976.809,166 931,166L83,166C37.191,166 0,128.809 0,83C0,37.191 37.191,0 83,0L931,0C976.809,0 1014,37.191 1014,83ZM200.41,127.67L200.41,126.39L166.54,38.2L135.36,38.2L101.49,126.39L101.49,127.67L131.52,127.67L135.48,115.4L166.41,115.4L170.37,127.67L200.41,127.67ZM142.76,92.52L150.94,67.09L159.12,92.52L142.76,92.52ZM530.53,127.67L530.53,126.78L492.57,38.21L479.53,38.21L441.44,126.78L441.44,127.67L459.97,127.67L466.62,111.18L505.47,111.18L512.12,127.67L530.53,127.67ZM472.24,96.99L486.05,62.48L499.85,96.99L472.24,96.99ZM766.83,129.2C782.68,129.2 800.57,121.66 800.56,102.88C800.56,86.01 788.55,80.26 771.68,75.53C756.34,71.06 750.08,68.25 750.08,61.6C750.08,54.82 756.09,52.14 764.27,52.14C773.73,52.14 780.5,56.87 783.95,64.41L799.03,57.12C794.05,45.49 783.06,36.8 764.91,36.8C748.43,36.8 732.58,43.83 732.58,61.47C732.58,79.23 749.7,84.73 763.25,88.82C777.05,92.91 783.06,96.36 783.06,103.52C783.06,110.55 776.54,113.74 767.85,113.74C758.14,113.74 750.09,109.01 745.23,97.89L730.79,105.94C735.9,121.28 749.83,129.2 766.83,129.2ZM342.14,127.67L342.14,102.74L307.76,102.74L307.76,38.2L278.36,38.2L278.36,127.67L342.14,127.67ZM636.84,127.67L636.84,38.2L621.25,38.2L588.66,85.11L556.07,38.2L540.48,38.2L540.48,127.67L557.73,127.67L557.73,69.77L586.49,110.29L590.84,110.29L619.6,69.77L619.6,127.67L636.84,127.67ZM396.71,129.07C425.08,129.07 443.61,106.96 439.9,75.27L398.75,75.27L398.75,89.19L423.42,89.19C422.27,103.25 411.53,112.58 397.09,112.58C380.6,112.58 368.84,100.7 368.84,82.93C368.84,65.16 380.6,52.89 397.09,52.89C405.4,52.89 414.35,57.11 419.46,63.37L431.35,53.02C423.68,43.31 410.26,36.79 396.71,36.79C369.87,36.79 350.57,56.09 350.57,82.93C350.57,109.77 369.87,129.07 396.71,129.07ZM269.16,127.67L269.16,102.74L234.78,102.74L234.78,38.2L205.38,38.2L205.38,127.67L269.16,127.67ZM720.82,53.41L720.82,38.2L657.81,38.2L657.81,127.67L720.82,127.67L720.82,112.46L675.7,112.46L675.7,89.2L713.91,89.2L713.91,74.5L675.7,74.5L675.7,53.41L720.82,53.41Z" style="fill:rgb(235,235,235);"/>
    </g>
</svg>
