<?xml version="1.0" encoding="UTF-8" standalone="no"?>
<!DOCTYPE svg PUBLIC "-//W3C//DTD SVG 1.1//EN" "http://www.w3.org/Graphics/SVG/1.1/DTD/svg11.dtd">
<svg width="100%" height="100%" viewBox="0 0 1014 166" version="1.1" xmlns="http://www.w3.org/2000/svg" xmlns:xlink="http://www.w3.org/1999/xlink" xml:space="preserve" xmlns:serif="http://www.serif.com/" style="fill-rule:evenodd;clip-rule:evenodd;stroke-linejoin:round;stroke-miterlimit:2;">
    <path d="M1014,83C1014,128.809 976.809,166 931,166L83,166C37.191,166 0,128.809 0,83C0,37.191 37.191,0 83,0L931,0C976.809,0 1014,37.191 1014,83ZM833.42,38.28L833.42,127.74L863.97,127.74C894.13,127.74 911.64,111.51 911.64,83.01C911.64,54.51 894.13,38.28 863.97,38.28L833.42,38.28ZM851.31,112.52L851.31,53.48L864.86,53.48C883.01,53.48 893.75,64.22 893.75,83C893.75,101.79 883.01,112.52 864.86,112.52L851.31,112.52ZM815.02,38.27L752,38.27L752,127.74L815.01,127.74L815.01,112.53L769.9,112.53L769.9,89.26L808.11,89.26L808.11,74.56L769.9,74.56L769.9,53.48L815.02,53.48L815.02,38.27ZM538.57,38.27L520.68,38.27L520.68,127.74L578.96,127.74L578.96,112.53L538.57,112.53L538.57,38.27ZM203.85,38.27L169.98,126.46L169.98,127.74L200.01,127.74L203.97,115.47L234.9,115.47L238.86,127.74L268.89,127.74L268.89,126.46L235.02,38.27L203.85,38.27ZM219.44,67.15L227.62,92.58L211.26,92.58L219.44,67.15ZM435.56,38.27L435.56,127.74L453.45,127.74L453.45,100.26L473,100.26C493.07,100.26 504.95,88.88 504.95,69.2C504.95,50.67 493.06,38.27 473,38.27L435.56,38.27ZM453.45,84.92L453.45,53.48L470.7,53.48C481.05,53.48 487.06,60.25 487.06,69.2C487.06,79.17 481.05,84.92 470.7,84.92L453.45,84.92ZM130.87,38.27L101.47,38.27L101.47,127.74L165.25,127.74L165.25,102.82L130.87,102.82L130.87,38.27ZM349.03,38.27L349.03,63.19L371.01,63.19L371.01,127.73L400.41,127.73L400.41,63.19L422.39,63.19L422.39,38.27L349.03,38.27ZM619.98,38.27L581.89,126.84L581.89,127.73L600.42,127.73L607.07,111.24L645.92,111.24L652.57,127.73L670.97,127.73L670.97,126.84L633.01,38.27L619.98,38.27ZM626.5,62.55L640.3,97.06L612.7,97.06L626.5,62.55ZM343.41,58.21C338.55,44.79 328.2,35.72 305.45,35.72C285,35.72 268.9,45.3 268.9,62.3C268.9,79.81 281.81,87.48 302.39,93.61C310.7,96.04 313.64,98.21 313.64,101.41C313.64,104.35 311.6,106.27 307.38,106.27C303.16,106.27 297.92,103.97 294.86,95.41L267.51,104.23C273.01,121.74 285.91,130.3 307.39,130.3C326.05,130.3 344.84,121.74 344.84,102.82C344.84,84.67 330.65,75.73 311.35,70.61C301.13,67.93 299.34,66.14 299.34,63.07C299.34,60.26 301.51,58.98 305.73,58.98C310.33,58.98 314.17,61.66 316.34,67.03L343.41,58.21ZM699.99,74.05L679.54,38.26L659.47,38.26L659.47,38.9L691.04,91.43L691.04,127.73L708.93,127.73L708.93,91.43L740.75,38.9L740.75,38.26L720.68,38.26L699.99,74.05Z" style="fill:rgb(235,235,235);"/>
</svg>
