<?xml version="1.0" encoding="UTF-8" standalone="no"?>
<!DOCTYPE svg PUBLIC "-//W3C//DTD SVG 1.1//EN" "http://www.w3.org/Graphics/SVG/1.1/DTD/svg11.dtd">
<svg width="100%" height="100%" viewBox="0 0 1014 166" version="1.1" xmlns="http://www.w3.org/2000/svg" xmlns:xlink="http://www.w3.org/1999/xlink" xml:space="preserve" xmlns:serif="http://www.serif.com/" style="fill-rule:evenodd;clip-rule:evenodd;stroke-linejoin:round;stroke-miterlimit:2;">
    <path d="M1013.11,83C1013.11,128.809 975.919,166 930.11,166L83,166C37.191,166 0,128.809 0,83C0,37.191 37.191,0 83,0L930.11,0C975.919,0 1013.11,37.191 1013.11,83ZM276.06,127.73L307.24,127.73L339.45,39.8L339.45,38.27L308.39,38.27L291.65,91.82L274.91,38.27L243.85,38.27L243.85,39.8L276.06,127.73ZM193.891,38.27L160.02,126.461L160.02,127.74L190.051,127.74L194.01,115.471L224.939,115.471L228.9,127.74L258.939,127.74L258.939,126.461L225.07,38.27L193.891,38.27ZM209.471,67.16L217.65,92.59L201.289,92.59L209.471,67.16ZM166.28,62.55L166.28,38.27L101.48,38.27L101.48,127.73L130.88,127.73L130.88,98.08L161.17,98.08L161.17,73.8L130.88,73.8L130.88,62.55L166.28,62.55Z" style="fill:rgb(241,241,241);"/>
    <path id="path10" d="M774.75,67.02C772.58,61.65 768.74,58.97 764.14,58.97C759.92,58.97 757.75,60.25 757.75,63.06C757.75,66.13 759.54,67.92 769.76,70.6C789.06,75.71 803.25,84.66 803.25,102.81C803.25,121.73 784.46,130.29 765.8,130.29C744.33,130.29 731.42,121.73 725.92,104.22L753.27,95.4C756.34,103.96 761.58,106.26 765.79,106.26C770,106.26 772.05,104.34 772.05,101.4C772.05,98.2 769.11,96.03 760.8,93.6C740.22,87.47 727.31,79.8 727.31,62.29C727.31,45.29 743.41,35.71 763.86,35.71C786.61,35.71 796.96,44.78 801.82,58.2L774.75,67.02Z" style="fill:rgb(221,206,185);fill-rule:nonzero;"/>
    <path id="path101" serif:id="path10" d="M719.29,62.04L679.16,62.04L679.16,71.11L712.39,71.11L712.39,94.12L679.16,94.12L679.16,103.96L719.29,103.96L719.29,127.73L650.79,127.73L650.79,38.27L719.29,38.27L719.29,62.04Z" style="fill:rgb(221,206,185);fill-rule:nonzero;"/>
    <path id="path102" serif:id="path10" d="M641.71,38.27L641.71,63.19L619.73,63.19L619.73,127.73L590.33,127.73L590.33,63.19L568.35,63.19L568.35,38.27L641.71,38.27Z" style="fill:rgb(221,206,185);fill-rule:nonzero;"/>
    <rect id="path103" serif:id="path10" x="529.88" y="38.27" width="29.4" height="89.47" style="fill:rgb(221,206,185);fill-rule:nonzero;"/>
    <path id="path104" serif:id="path10" d="M441.82,38.27L488.211,38.27C506.871,38.27 518.881,50.671 518.881,69.711C518.881,82.231 513.639,91.821 504.689,96.801L521.699,126.199L521.699,127.73L489.75,127.73L475.82,100.76L470.449,100.76L470.449,127.73L441.82,127.73L441.82,38.27ZM470.449,61.789L470.449,77.631L481.699,77.631C487.449,77.631 490.391,74.561 490.391,69.711C490.391,65.111 487.449,61.789 481.699,61.789L470.449,61.789Z" style="fill:rgb(221,206,185);"/>
    <path id="path105" serif:id="path10" d="M383.42,35.711C411.54,35.711 432.5,55.9 432.5,83C432.5,110.09 411.54,130.289 383.42,130.289C355.3,130.289 334.34,110.09 334.34,83C334.34,55.9 355.3,35.711 383.42,35.711ZM383.42,62.551C372.56,62.551 364.381,71.24 364.381,83C364.381,94.76 372.56,103.449 383.42,103.449C394.28,103.449 402.461,94.76 402.461,83C402.461,71.24 394.28,62.551 383.42,62.551Z" style="fill:rgb(221,206,185);"/>
</svg>
