<?xml version="1.0" encoding="UTF-8" standalone="no"?>
<!DOCTYPE svg PUBLIC "-//W3C//DTD SVG 1.1//EN" "http://www.w3.org/Graphics/SVG/1.1/DTD/svg11.dtd">
<svg width="100%" height="100%" viewBox="0 0 1014 166" version="1.1" xmlns="http://www.w3.org/2000/svg" xmlns:xlink="http://www.w3.org/1999/xlink" xml:space="preserve" xmlns:serif="http://www.serif.com/" style="fill-rule:evenodd;clip-rule:evenodd;stroke-linejoin:round;stroke-miterlimit:2;">
    <path d="M1014,83C1014,128.809 976.809,166 931,166L83,166C37.191,166 0,128.809 0,83C0,37.191 37.191,0 83,0L931,0C976.809,0 1014,37.191 1014,83ZM101.471,38.27L101.471,127.73L130.869,127.73L130.869,98.08L161.16,98.08L161.16,73.801L130.869,73.801L130.869,62.551L166.27,62.551L166.27,38.27L101.471,38.27ZM763.869,35.711C743.419,35.711 727.32,45.289 727.32,62.289C727.32,79.799 740.231,87.47 760.811,93.6C769.121,96.03 772.061,98.2 772.061,101.4C772.061,104.34 770.011,106.26 765.801,106.26C761.591,106.26 756.349,103.96 753.279,95.4L725.93,104.221C731.43,121.731 744.341,130.289 765.811,130.289C784.471,130.289 803.26,121.731 803.23,102.811C803.23,84.661 789.04,75.71 769.74,70.6C759.52,67.92 757.73,66.131 757.73,63.061C757.73,60.251 759.899,58.971 764.119,58.971C768.719,58.971 772.56,61.65 774.73,67.02L801.83,58.199C796.97,44.779 786.619,35.711 763.869,35.711ZM383.42,35.711C355.3,35.711 334.34,55.9 334.34,83C334.34,110.1 355.3,130.289 383.42,130.289C411.53,130.289 432.49,110.09 432.5,83C432.5,55.9 411.54,35.711 383.42,35.711ZM383.42,62.551C394.28,62.551 402.461,71.24 402.461,83C402.461,94.76 394.28,103.449 383.42,103.449C372.56,103.449 364.381,94.76 364.381,83C364.381,71.24 372.56,62.551 383.42,62.551ZM441.82,38.27L441.82,127.73L470.449,127.73L470.449,100.76L475.82,100.76L489.75,127.73L521.689,127.73L521.689,126.199L504.689,96.801C513.639,91.821 518.881,82.231 518.881,69.711C518.881,50.671 506.871,38.27 488.211,38.27L441.82,38.27ZM470.449,61.779L481.699,61.779C487.449,61.779 490.391,65.111 490.391,69.711C490.391,74.561 487.449,77.631 481.699,77.631L470.449,77.631L470.449,61.779ZM568.35,38.27L568.35,63.189L590.33,63.189L590.33,127.73L619.73,127.73L619.73,63.189L641.711,63.189L641.711,38.27L568.35,38.27ZM650.789,38.27L650.789,127.73L719.289,127.73L719.289,103.961L679.16,103.961L679.16,94.119L712.391,94.119L712.391,71.109L679.16,71.109L679.16,62.039L719.289,62.039L719.289,38.27L650.789,38.27ZM193.891,38.26L160.02,126.449L160.02,127.73L190.051,127.73L194.01,115.461L224.939,115.461L228.9,127.73L258.949,127.73L258.949,126.449L225.08,38.26L193.891,38.26ZM209.471,67.16L217.65,92.59L201.289,92.59L209.471,67.16ZM529.881,38.27L529.881,127.73L559.279,127.73L559.279,38.27L529.881,38.27ZM243.85,38.27L243.85,39.801L276.061,127.73L307.24,127.73L339.449,39.801L339.449,38.27L308.391,38.27L291.65,91.82L274.91,38.27L243.85,38.27Z" style="fill:rgb(235,235,235);"/>
</svg>
