<?xml version="1.0" encoding="UTF-8" standalone="no"?>
<!DOCTYPE svg PUBLIC "-//W3C//DTD SVG 1.1//EN" "http://www.w3.org/Graphics/SVG/1.1/DTD/svg11.dtd">
<svg width="100%" height="100%" viewBox="0 0 1014 166" version="1.1" xmlns="http://www.w3.org/2000/svg" xmlns:xlink="http://www.w3.org/1999/xlink" xml:space="preserve" xmlns:serif="http://www.serif.com/" style="fill-rule:evenodd;clip-rule:evenodd;stroke-linejoin:round;stroke-miterlimit:2;">
    <g transform="matrix(1.00073,0,0,1.00417,-0.000179121,-0.00398448)">
        <path d="M1012.37,83.134C1012.37,128.49 975.424,165.314 929.911,165.314L82.709,165.314C37.197,165.314 0.246,128.49 0.246,83.134C0.246,37.778 37.197,0.955 82.709,0.955L929.911,0.955C975.424,0.955 1012.37,37.778 1012.37,83.134ZM101.397,38.114L101.397,127.213L165.13,127.213L165.13,102.397L130.774,102.397L130.774,38.114L101.397,38.114ZM203.702,38.114L169.857,125.939L169.857,127.213L199.865,127.213L203.823,114.995L234.73,114.995L238.686,127.213L268.695,127.213L268.695,125.939L234.849,38.114L203.702,38.114ZM219.28,66.875L227.454,92.199L211.106,92.199L219.28,66.875ZM305.227,35.576C284.792,35.576 268.705,45.116 268.705,62.046C268.705,79.483 281.606,87.12 302.171,93.224C310.475,95.644 313.413,97.806 313.413,100.993C313.413,103.92 311.375,105.832 307.158,105.832C302.941,105.832 297.703,103.542 294.645,95.018L267.316,103.801C272.812,121.238 285.703,129.763 307.167,129.763C325.814,129.763 344.589,121.238 344.589,102.397C344.589,84.322 330.41,75.419 311.124,70.32C300.911,67.651 299.123,65.869 299.123,62.812C299.123,60.014 301.292,58.739 305.509,58.739C310.105,58.739 313.942,61.407 316.11,66.755L343.161,57.973C338.304,44.609 327.961,35.576 305.227,35.576ZM348.776,38.114L348.776,62.931L370.74,62.931L370.74,127.203L400.119,127.203L400.119,62.931L422.084,62.931L422.084,38.114L348.776,38.114Z" style="fill:rgb(241,241,241);"/>
    </g>
    <path id="path7" d="M435.561,38.27L435.561,127.74L453.449,127.74L453.449,100.26L473,100.26C493.07,100.26 504.949,88.879 504.949,69.199C504.949,50.669 493.06,38.27 473,38.27L435.561,38.27ZM453.449,53.48L470.699,53.48C481.049,53.48 487.061,60.249 487.061,69.199C487.061,79.169 481.049,84.92 470.699,84.92L453.449,84.92L453.449,53.48ZM538.57,38.27L520.68,38.27L520.68,127.74L578.96,127.74L578.96,112.53L538.57,112.53L538.57,38.27ZM619.98,38.27L581.891,126.84L581.891,127.73L600.42,127.73L607.07,111.24L645.92,111.24L652.57,127.73L670.971,127.73L670.971,126.84L633.01,38.27L619.98,38.27ZM626.5,62.551L640.301,97.061L612.699,97.061L626.5,62.551ZM699.99,74.05L679.54,38.26L659.47,38.26L659.47,38.9L691.04,91.43L691.04,127.73L708.93,127.73L708.93,91.43L740.75,38.9L740.75,38.26L720.68,38.26L699.99,74.05ZM815.02,38.27L752,38.27L752,127.74L815.01,127.74L815.01,112.53L769.9,112.53L769.9,89.26L808.11,89.26L808.11,74.56L769.9,74.56L769.9,53.48L815.02,53.48L815.02,38.27ZM833.42,38.279L833.42,127.74L863.971,127.74C894.131,127.74 911.641,111.51 911.641,83.01C911.641,54.51 894.131,38.279 863.971,38.279L833.42,38.279ZM851.311,53.48L864.859,53.48C883.009,53.48 893.75,64.22 893.75,83C893.75,101.79 883.009,112.52 864.859,112.52L851.311,112.52L851.311,53.48Z" style="fill:rgb(221,206,185);fill-rule:nonzero;"/>
</svg>
