<?xml version="1.0" encoding="UTF-8" standalone="no"?>
<!DOCTYPE svg PUBLIC "-//W3C//DTD SVG 1.1//EN" "http://www.w3.org/Graphics/SVG/1.1/DTD/svg11.dtd">
<svg width="100%" height="100%" viewBox="0 0 1014 166" version="1.1" xmlns="http://www.w3.org/2000/svg" xmlns:xlink="http://www.w3.org/1999/xlink" xml:space="preserve" xmlns:serif="http://www.serif.com/" style="fill-rule:evenodd;clip-rule:evenodd;stroke-linejoin:round;stroke-miterlimit:2;">
    <path d="M1013.11,83C1013.11,128.809 975.919,166 930.11,166L83,166C37.191,166 0,128.809 0,83C0,37.191 37.191,0 83,0L930.11,0C975.919,0 1013.11,37.191 1013.11,83ZM135.359,38.199L101.49,126.391L101.49,127.67L131.52,127.67L135.48,115.4L166.41,115.4L170.369,127.67L200.41,127.67L200.41,126.391L166.539,38.199L135.359,38.199ZM150.939,67.09L159.119,92.52L142.76,92.52L150.939,67.09ZM278.359,38.199L278.359,127.67L342.141,127.67L342.141,102.74L307.76,102.74L307.76,38.199L278.359,38.199ZM205.381,38.199L205.381,127.67L269.16,127.67L269.16,102.74L234.779,102.74L234.779,38.199L205.381,38.199Z" style="fill:rgb(241,241,241);"/>
    <path id="path5" d="M783.96,64.4C780.51,56.86 773.74,52.13 764.28,52.13C756.1,52.13 750.09,54.81 750.09,61.59C750.09,68.24 756.35,71.05 771.69,75.52C788.56,80.25 800.57,86 800.57,102.87C800.57,121.66 782.68,129.2 766.83,129.2C749.83,129.2 735.9,121.28 730.79,105.94L745.23,97.89C750.09,109.01 758.14,113.74 767.85,113.74C776.54,113.74 783.06,110.55 783.06,103.52C783.06,96.36 777.05,92.91 763.25,88.82C749.7,84.73 732.58,79.23 732.58,61.47C732.58,43.83 748.43,36.8 764.91,36.8C783.06,36.8 794.05,45.49 799.03,57.12L783.96,64.4ZM720.82,53.41L675.7,53.41L675.7,74.5L713.92,74.5L713.92,89.2L675.7,89.2L675.7,112.46L720.82,112.46L720.82,127.67L657.81,127.67L657.81,38.2L720.82,38.2L720.82,53.41ZM621.26,38.2L636.85,38.2L636.85,127.67L619.6,127.67L619.6,69.77L590.84,110.29L586.5,110.29L557.74,69.77L557.74,127.67L540.49,127.67L540.49,38.2L556.08,38.2L588.67,85.11L621.26,38.2ZM479.529,38.199L441.439,126.77L441.439,127.66L459.971,127.66L466.619,111.17L505.471,111.17L512.119,127.66L530.52,127.66L530.52,126.77L492.561,38.199L479.529,38.199ZM486.051,62.48L499.85,96.99L472.24,96.99L486.051,62.48ZM439.91,75.27C443.62,106.97 425.08,129.08 396.71,129.08C369.87,129.08 350.57,109.78 350.57,82.94C350.57,56.1 369.87,36.8 396.71,36.8C410.26,36.8 423.68,43.32 431.35,53.03L419.46,63.38C414.35,57.12 405.4,52.9 397.09,52.9C380.6,52.9 368.84,65.17 368.84,82.94C368.84,100.71 380.6,112.59 397.09,112.59C411.53,112.59 422.27,103.26 423.42,89.2L398.75,89.2L398.75,75.27L439.91,75.27Z" style="fill:rgb(221,206,185);fill-rule:nonzero;"/>
</svg>
