<?xml version="1.0" encoding="UTF-8" standalone="no"?>
<!DOCTYPE svg PUBLIC "-//W3C//DTD SVG 1.1//EN" "http://www.w3.org/Graphics/SVG/1.1/DTD/svg11.dtd">
<svg width="100%" height="100%" viewBox="0 0 601 163" version="1.1" xmlns="http://www.w3.org/2000/svg" xmlns:xlink="http://www.w3.org/1999/xlink" xml:space="preserve" xmlns:serif="http://www.serif.com/" style="fill-rule:evenodd;clip-rule:evenodd;stroke-linejoin:round;stroke-miterlimit:2;">
    <g id="g7" transform="matrix(0.156295,0,0,0.156295,0,0.000912955)">
        <path d="M3396.4,555.9C3370.5,768.7 3437.2,960.4 3664.8,1036.5C3453.3,988.5 3233.2,833.2 3272.3,469C3283.1,372.7 3330.5,310.1 3359.5,284.9C3373,273.2 3368.9,252 3351.6,245.3C3346.6,243.3 3341.1,242 3335.4,241.3C3335.6,239.4 3335.9,237.4 3336.1,235.5C3352.2,237.4 3368.2,239.3 3384.3,241.2C3400.7,243.2 3417,245.2 3433.4,247.2C3559.4,262.9 3685.1,280.5 3810.7,300.1C3824.2,302.2 3838.9,289.7 3838.9,289.7C3822.5,334.9 3786.2,384.5 3740.9,430.3C3740.9,430.4 3759.9,325.3 3630.5,306.7C3519.2,291.1 3454.5,352.4 3421.2,446C3508.9,457 3596.5,469 3684,481.9C3653.6,506.7 3621.3,529 3589.3,547.1C3601.4,538.7 3596.2,522.4 3579.5,520.1C3521.9,512 3464.2,504.4 3406.5,497.2C3402.3,516 3398.9,535.6 3396.4,555.9ZM2523.8,168.3C2563.9,170.2 2604.1,172.4 2644.2,175C2661.5,176.1 2678.8,177.1 2696.1,178.2C2695.9,180.2 2695.8,182.1 2695.7,184.1C2667,182.3 2642.8,198.8 2641.5,220.7C2628.6,439.9 2615.7,659 2602.8,878.2C2601.5,900.1 2622.3,919.2 2649.2,920.9C2649,922.9 2648.9,924.8 2648.8,926.8C2632.6,925.7 2616.3,924.8 2600.1,923.8C2562.5,921.6 2524.8,919.5 2487.1,917.7C2470.8,916.9 2454.6,916.1 2438.3,915.4C2438.4,913.4 2438.5,911.5 2438.6,909.5C2465.5,910.7 2488.2,894 2489.3,872C2496.7,721.3 2504.1,570.5 2511.5,419.8C2435.6,416.1 2359.8,413.1 2283.9,410.8C2279.4,561.6 2274.9,712.5 2270.4,863.3C2269.8,885.2 2291.1,903.7 2318,904.6C2317.9,906.6 2317.9,908.5 2317.8,910.5C2301.5,909.9 2285.3,909.4 2269,908.9C2231.3,907.8 2193.6,906.9 2155.9,906.1C2139.6,905.7 2123.4,905.5 2107.1,905.2C2107.1,903.2 2107.2,901.3 2107.2,899.3C2134.1,899.7 2156.3,882.4 2156.8,860.4L2170,201.9C2170.4,179.9 2147.5,161.6 2118.8,161.2C2118.8,159.2 2118.9,157.3 2118.9,155.3C2136.2,155.5 2153.6,155.9 2170.9,156.2C2211,157 2251.2,158 2291.4,159.2C2308.8,159.8 2326.1,160.3 2343.4,160.9C2343.3,162.9 2343.3,164.8 2343.2,166.8C2314.5,165.8 2290.7,182.9 2290.1,204.9C2288.6,256 2287,307 2285.5,358.1C2361.8,360.4 2437.9,363.4 2514.1,367.1C2516.6,316 2519.1,265 2521.6,214C2522.7,192 2500.3,173.1 2471.6,171.8C2471.7,169.8 2471.8,167.9 2471.9,165.9C2489.2,166.6 2506.5,167.5 2523.8,168.3ZM3276.3,228.5C3276.1,230.4 3275.9,232.4 3275.4,234.5C3246.8,231.3 3221.7,246.6 3219.4,268.4C3205.2,400.5 3191.1,532.5 3177,664.6C3155.9,860.5 3088.1,944.4 2998.2,998.1C3140.7,840.4 3140.2,671.8 3078.4,540.8C3017.5,409.9 2895.1,316.7 2813.4,311.2C2799.3,503.8 2785.1,696.5 2770.9,889.1C2769.3,911 2789.8,930.4 2816.7,932.5C2816.5,934.4 2816.4,936.4 2816.2,938.3C2800,937 2783.7,935.8 2767.5,934.6C2753.2,933.5 2738.9,932.5 2724.6,931.5C2708.4,930.4 2692.1,929.3 2675.9,928.2C2676,926.2 2676.2,924.3 2676.3,922.3C2703.2,924.1 2726.3,907.8 2727.8,885.9C2741.1,696.1 2754.3,506.2 2767.6,316.4C2768.5,302.9 2764.7,293.2 2747.7,286.8C2736.1,282.1 2721.6,279.8 2704.1,280C2703.8,279.8 2818.3,170.1 2818.6,170.3C3007.6,231.6 3110.1,344 3153.4,465.2C3160.3,398 3167.3,330.7 3174.2,263.5C3176.4,241.6 3155.1,221.5 3126.5,218.7C3126.7,216.8 3126.9,214.8 3127.1,212.9C3144.4,214.6 3161.6,216.3 3178.9,218.1L3224.5,222.9C3241.8,224.7 3259.1,226.6 3276.3,228.5ZM2117.2,253.4C2109.6,260.8 1958.6,394 1959.1,394.3C1881,417.5 1803.2,441.5 1726,466.2C1775.4,435.6 1825,405.2 1875.1,375.2C1902.2,335.4 1929.5,295.6 1957.1,255.9C1957.2,255.9 1907.8,184.5 1834.1,185C1785.7,185.4 1748.6,199.6 1723.2,227.3C1697.8,255.1 1683,291.5 1683.2,336.3C1686.7,510.9 1690.3,685.5 1693.8,860.1C1694.3,882.1 1716.5,899.4 1743.4,899C1743.4,901 1743.5,902.9 1743.5,904.9C1727.2,905.2 1711,905.5 1694.7,905.8C1657,906.5 1619.3,907.5 1581.6,908.6C1565.3,909.1 1549.1,909.6 1532.8,910.2C1532.7,908.2 1532.7,906.3 1532.6,904.3C1559.5,903.4 1580.8,885 1580.2,863C1574.3,667.2 1568.4,471.3 1562.5,275.5C1562.1,262.6 1545.1,249.6 1508,265.7C1506.9,264 1505.9,262.2 1504.8,260.4C1504.8,260.4 1592.9,213.3 1696.5,179C1757,158.9 1822.8,143.2 1878.2,143C2036.17,142.502 2116.96,252.923 2117.2,253.4ZM1311.1,169.1C1326.8,168.3 1342.6,167.6 1358.3,166.9C1400.1,164.9 1441.8,163.2 1483.5,161.7C1483.6,163.7 1483.6,165.6 1483.7,167.6C1455,168.7 1432.5,187.5 1433.4,209.4C1435.5,260.4 1437.5,311.5 1439.6,362.5C1440.3,380 1441,397.6 1441.7,415.1L1460,867.5C1460.9,889.5 1483.5,906.4 1510.4,905.4C1510.5,907.4 1510.5,909.3 1510.6,911.3C1494.3,911.9 1478.1,912.5 1461.8,913.2C1424.1,914.7 1386.4,916.4 1348.7,918.3C1332.5,919.2 1316.2,920 1300,920.9C1299.9,918.9 1299.8,917 1299.7,915C1326.6,913.5 1347.6,894.7 1346.5,872.7C1338.9,721.9 1331.3,571.2 1323.7,420.5C1271,423.1 1218.4,426.1 1165.8,429.5C1127.3,432 1116.7,458.2 1116.7,458.2C1125.1,429.7 1136,402.6 1149.6,377.8C1206.7,374.1 1263.8,370.8 1321,367.9L1320.7,362.2C1318.2,313.1 1315.8,264.1 1313.3,215C995.3,242.3 971.8,787.9 1173.3,998.7C797.5,819 949.2,324.5 1034.1,240.7C1043.5,231 1043.1,215.8 1032.7,207.2C1022.5,198.9 1007.5,194.1 991.1,195.4C991,193.4 990.8,191.4 990.7,189.5C1097.5,181.3 1204.3,174.5 1311.1,169.1ZM880.4,97.8C880.6,99.8 880.8,101.7 880.9,103.7C863.3,105.2 847.7,111.7 836.4,121.1C868.4,199.9 888.8,262.5 893.3,319.5C906.3,494.2 796.5,789.5 541.3,936.5C470.9,977.1 426.5,1002.1 426.5,1002.1C333.4,1014.4 240.5,1027.8 147.6,1042.4C147.2,1039.8 146.8,1037.3 146.4,1034.8C181.3,1029.3 193.4,1018.1 189.1,989.7C151.6,743.6 114,497.4 76.4,251.3C72,223.1 38.2,204.8 0.9,210.7C0.6,208.8 0.3,206.8 0,204.9C35.3,153.9 224.3,28.5 427.8,4.6C627.9,-19.6 834.8,57.5 880.4,97.8ZM726.6,392.5C728.3,281.1 692.5,42.7 435.6,72.8C236.5,97.6 233.5,232.1 244.2,308.1C244.2,308.1 309.6,776.9 327.6,906C330.6,927 346.8,944.7 366.9,932.7C621.4,780.3 724.2,551.1 726.6,392.5Z" style="fill:rgb(244,188,30);"/>
    </g>
</svg>
