<?xml version="1.0" encoding="UTF-8" standalone="no"?>
<svg
   id="Layer_1"
   data-name="Layer 1"
   version="1.1"
   viewBox="0 0 980.4 148"
   sodipodi:docname="fpinball-wht.svg"
   inkscape:version="1.3 (0e150ed, 2023-07-21)"
   xmlns:inkscape="http://www.inkscape.org/namespaces/inkscape"
   xmlns:sodipodi="http://sodipodi.sourceforge.net/DTD/sodipodi-0.dtd"
   xmlns:xlink="http://www.w3.org/1999/xlink"
   xmlns="http://www.w3.org/2000/svg"
   xmlns:svg="http://www.w3.org/2000/svg">
  <sodipodi:namedview
     id="namedview4"
     pagecolor="#ffffff"
     bordercolor="#000000"
     borderopacity="0.25"
     inkscape:showpageshadow="2"
     inkscape:pageopacity="0.0"
     inkscape:pagecheckerboard="0"
     inkscape:deskcolor="#d1d1d1"
     inkscape:zoom="0.70175437"
     inkscape:cx="490.20001"
     inkscape:cy="73.387502"
     inkscape:window-width="1944"
     inkscape:window-height="1212"
     inkscape:window-x="0"
     inkscape:window-y="25"
     inkscape:window-maximized="0"
     inkscape:current-layer="Layer_1" />
  <defs
     id="defs3">
    <style
       id="style1">&#10;      .cls-1 {&#10;        fill: url(#linear-gradient);&#10;      }&#10;&#10;      .cls-1, .cls-2, .cls-3 {&#10;        stroke-width: 0px;&#10;      }&#10;&#10;      .cls-2 {&#10;        fill: url(#linear-gradient-2);&#10;      }&#10;&#10;      .cls-3 {&#10;        fill: #fff;&#10;      }&#10;    </style>
    <linearGradient
       id="linear-gradient"
       x1="138.9"
       y1="32.8"
       x2="138.9"
       y2="32.8"
       gradientUnits="userSpaceOnUse">
      <stop
         offset="0"
         stop-color="#a56a27"
         id="stop1" />
      <stop
         offset=".7"
         stop-color="#a56a27"
         id="stop2" />
      <stop
         offset="1"
         stop-color="#9b6b44"
         id="stop3" />
    </linearGradient>
    <linearGradient
       id="linear-gradient-2"
       x1="56.5"
       y1="71.4"
       x2="56.5"
       y2="71.5"
       xlink:href="#linear-gradient" />
  </defs>
  <polygon
     class="cls-1"
     points="138.9 32.8 138.9 32.8 138.9 32.8 138.9 32.8"
     id="polygon3" />
  <path
     class="cls-2"
     d="M56.5,71.4c0,0-.1,0,0,0h0Z"
     id="path3" />
  <path
     id="path4"
     class="cls-3"
     d="m 428.6,83.8 c -0.2,-4.6 -1.8,-9.3 -5.3,-12.4 -3.6,-3.2 -8.7,-4.1 -13.4,-3.9 -9.1,0.3 -17.7,4.2 -24.9,9.6 -1,0.8 -2.1,1.6 -3.1,2.4 -1.4,-3.6 -4.2,-6.7 -7.6,-8.7 -3.4,-1.9 -7.4,-2.1 -11.1,-1.1 -5.1,1.3 -9.6,4.1 -14,6.7 -1,-3.6 -3.4,-7 -6.8,-8.7 -3.7,-2 -8.4,-2.4 -12.1,-0.2 -2.7,1.5 -5.1,3.5 -7.4,5.5 -0.2,-2.9 -2.6,-5.5 -5.5,-5.9 -1.9,-0.2 -3.9,0.2 -5.8,0.3 -5.4,0.4 -10.9,0.7 -16.3,1.3 -2.3,0.5 -4.1,2.3 -4.9,4.4 -5.2,10.1 -11.5,19.7 -17.8,29 -2.4,3.4 -4.8,6.8 -7.5,9.9 1.1,-3.6 2.6,-7.1 4.4,-10.4 0.4,-0.7 0.9,-1.7 1.3,-2.4 4.3,-7.7 9.2,-15.1 14.8,-22 2.2,-2.9 1.2,-7.6 -2.1,-9.4 -2.1,-1.3 -4.7,-0.7 -7,-0.6 -6.1,0.5 -12.3,0.8 -18.4,1.4 -2.4,0.4 -4.2,2.3 -5.1,4.5 L 238,103 c -2.6,0.1 -4.8,1.5 -6.7,3.2 -3.4,2.7 -6.2,6.1 -9.4,9.1 0.9,-3.4 3,-6.2 4.7,-9.2 l 25.6,-43.6 c 4.3,0 8.6,0 12.8,0 2.5,-0.3 4.6,-2.3 5.2,-4.8 0.5,-2.4 1.8,-4.8 1.2,-7.3 -0.7,-2.9 -3.8,-4.9 -6.7,-4.6 h -2 c 3.1,-5.4 6.3,-10.8 9.3,-16.2 1.5,-3.2 -0.4,-7.4 -3.8,-8.3 -2.1,-0.6 -4.2,0 -6.3,-0.1 -5.3,0.3 -10.6,0.4 -15.9,0.7 -1.9,0.3 -3.5,1.5 -4.4,3.1 -10.9,18.1 -21.9,36.3 -32.8,54.4 -3.5,5.8 -7,11.7 -9.7,17.9 -0.3,0.7 -0.7,1.5 -1,2.2 -1.2,-1.4 -3,-2.2 -4.9,-2.3 4.3,-6.6 8.7,-13.2 12.9,-19.8 1.2,-1.6 1.7,-3.7 1.1,-5.6 -0.6,-2.7 -3.1,-4.8 -5.9,-4.9 -1.9,0 -3.8,0.3 -5.8,0.4 -5.3,0.4 -10.5,0.7 -15.8,1.2 -2.3,0.5 -4.1,2.3 -4.9,4.4 -3.6,7.1 -7.8,13.8 -12.1,20.4 -4.2,6.4 -8.4,12.8 -13.3,18.6 2.2,-7.2 6.1,-13.8 10,-20.1 3.2,-5.2 6.8,-10.1 10.6,-14.8 2.1,-2.9 1.1,-7.6 -2.2,-9.3 -2,-1.3 -4.5,-0.8 -6.7,-0.6 -6.2,0.5 -12.5,0.8 -18.7,1.4 -2.4,0.4 -4.2,2.3 -5,4.5 -0.3,0.4 -0.4,1.3 -0.9,1.5 -0.9,0 -1.9,0 -2.8,0.1 0.8,-3.7 1.8,-7.4 3,-10.9 0.3,-1 0.7,-2.1 1,-2.9 2.6,-7.5 6.1,-14.7 9.2,-21.9 0.3,-1 0.4,-2.1 0.2,-3.1 5.1,1.3 10.4,2.6 15.7,2.3 6.8,-0.5 13.1,-3.8 18.7,-7.5 4.1,-2.7 7.9,-6.4 9.2,-11.3 0.8,-2.6 0.7,-5.5 -0.7,-7.9 -1.2,-2.4 -3.8,-3.5 -6.4,-3.9 -2.6,-0.4 -5,1 -7.5,1.6 -2.7,0.8 -5.3,1.7 -8.1,1.9 -0.9,0 -1.8,0 -2.6,-0.1 -1,0 -1.9,-0.2 -2.9,-0.3 C 158.9,10.2 155.2,9.5 151.8,8.9 140.6,6.8 129.4,4.1 117.9,4.3 v 0 c -16,0.2 -32,4.3 -46.3,11.5 -12,5.9 -23,14.1 -31.3,24.6 -4.6,5.7 -8.6,12.1 -10.2,19.4 -1.4,6.4 -0.7,13.5 2.8,19.2 2.8,4.6 7.3,8 12.2,10 4.7,1.9 9.9,2.7 15,2.5 -3.1,1.9 -6.2,4.1 -7.8,7.5 -1.1,2.4 -1.2,5.2 0,7.6 1,2.3 3.3,3.7 5.6,4.2 2.2,0.7 4.5,0 6.3,-1.1 5.7,-3 11.4,-6 17.2,-9 0.9,-0.6 0.4,0.1 0,0.7 -4.4,7.4 -10,14.3 -17.2,19.2 -5.3,3.5 -11.5,5.7 -17.9,6.3 -2.3,0.2 -4.6,0.3 -6.9,0.2 -0.3,0 -1.1,0 -1.7,-0.1 -3.6,-0.3 -7.2,-1 -10.7,-2.2 -0.8,-0.2 -0.1,-0.3 0.5,-0.4 1.7,-0.4 3.3,-0.8 5,-1.1 5.5,-1 10.4,-5.1 11.8,-10.6 1.2,-5.3 -0.4,-11.3 -4.4,-15.1 -3.8,-3.5 -9.1,-4.8 -14.2,-5 C 19.4,92.3 13,94.1 8,98.1 c -4.2,3.3 -7.1,8.1 -8,13.3 -1.2,6.2 0.2,12.8 3.9,17.9 4,5.7 10.2,9.4 16.7,11.6 10.4,3.5 21.6,3.9 32.5,3.3 14.8,-0.9 29.7,-4.6 42.5,-12.2 8.8,-5.2 16.5,-12.4 22.4,-20.8 -1.4,2.8 -3,5.6 -3.5,8.7 -0.9,4.1 -0.3,8.5 1.7,12.1 3.1,5.7 9,10 15.6,10.2 5.7,0.3 11.4,-1.5 15.9,-4.9 2.6,3.2 6.9,4.6 10.9,4.9 3.8,0.3 7.7,-0.5 11.2,-2.2 5.7,-2.7 10.6,-6.8 15.2,-11 2.1,-2 4.2,-4 6.2,-6.1 -0.3,3.5 -0.4,7.2 1,10.5 1.7,4.2 5.2,7.6 9.5,9.1 4.3,1.6 9.2,1.3 13.2,-0.8 5.1,-2.5 9.5,-6.4 13.6,-10.3 0.6,-0.6 1.3,-1.2 1.9,-1.8 2,5.3 6.4,9.8 11.8,11.7 5.1,1.7 10.7,1 15.5,-1 1.9,-0.8 3.6,-1.8 5.3,-3 2.6,3.2 6.7,4.6 10.7,4.9 3.9,0.4 7.9,-0.4 11.4,-2.1 3.7,-1.7 7,-4.1 10.2,-6.6 -1.4,2.3 -1.3,5.4 0.3,7.5 1.4,1.9 3.8,2.7 6.1,2.6 6,0 11.9,0.3 17.9,0.3 2.5,-0.2 4.7,-2 5.6,-4.3 3.2,-6.5 6.2,-13 9.4,-19.5 3.1,-5.8 6.4,-11.6 10.4,-16.8 2.2,-2.3 4.7,-4.4 7.2,-6.4 0.4,1.9 1.4,3.6 2.6,5.1 1.3,1.4 3,2.3 4.7,3.1 0.3,0.3 1.4,0.2 1.1,0.7 -3.2,6.8 -5.1,14.5 -4.2,22.1 0.6,5 3.4,9.9 7.8,12.5 4.8,3 10.7,3.5 16.3,3.1 8.5,-0.7 16.5,-4.5 23.2,-9.8 6.6,-5.1 12,-11.6 17.3,-18 1.7,-2.1 3.4,-4.3 4.7,-6.7 1.3,-3.1 0.3,-7.1 -2.7,-8.8 3.5,-4.7 5.5,-10.6 5.2,-16.5 z M 59.1,87.9 C 52,87.9 45.8,86 40.9,82.3 c 0,0 0,0 0,0 -4.9,-3.9 -7.4,-9.5 -7.4,-15.9 0,-6.4 2.1,-11.7 6.1,-17.7 0,0 0,0 0,0 8,-12.1 19.5,-21.9 34.2,-29.1 14.7,-7.3 30,-11 45.8,-11 v 0 c 6.4,0 15,1.2 26.1,3.5 v 0 c 10.9,2.2 18.8,3.2 23.1,3.2 4.3,0 6.2,-1.1 13,-3.4 0.7,-0.2 1.4,-0.3 2.1,0 l 1.1,0.3 c 0.9,0.3 1.7,0.9 2,1.8 l 0.4,1 c 0.1,0.3 0.2,0.6 0.2,0.9 0,5 -3.9,9.3 -10.1,13 -5.6,3.6 -10.9,5.6 -16.1,5.6 -5.2,0 -14.1,-2.3 -27.5,-6.6 -13.1,-4.2 -23.4,-6.2 -30.5,-6.2 -10.3,0 -20.5,3 -30.5,9.2 3.6,-1.5 7.5,-2.4 11.7,-2.4 4.2,0 9.2,1.7 11.9,5 2.7,3.3 3.7,7.7 3.7,13.1 v 1.6 c 0,10.5 -3.9,19.9 -11.5,27.8 -7.5,7.9 -17.6,12 -29.4,12 z m 44.8,-43 c -0.1,-5.3 -1.6,-10.9 -5.3,-14.8 -1.4,-1.5 -3,-2.7 -4.8,-3.6 3.2,-0.6 6.4,-0.9 9.6,-0.9 v 0 c 5.9,0 11.7,1.3 17.5,2.7 2.7,0.7 5.3,1.4 8,2.2 0.6,0.2 1.1,0.3 1.7,0.5 -5.3,2.8 -9.7,7.2 -13.7,11.6 -4.8,5.5 -9,11.4 -13.1,17.4 -1.1,1.7 -2.2,3.3 -3.3,5 2.8,-6.3 3.8,-13.4 3.4,-20.2 z M 95.3,74 94.9,74.8 c -0.8,1.6 -1.6,3.2 -2.4,4.9 -1,0.2 -2,0.5 -2.9,0.7 2.1,-1.9 4,-4.1 5.7,-6.4 z m 87.7,52.2 c 0,0 0,0 0,0 -8.6,7.9 -15.6,12.3 -21.8,12.3 -6.2,0 -7.8,-0.9 -9.9,-3.5 -0.4,-0.5 -0.5,-0.8 -0.7,-1.2 -0.2,-0.4 -0.4,-0.9 -0.7,-1.5 -0.1,-0.3 -0.3,-0.8 -0.5,-1.1 -4.3,4.7 -9.7,7.4 -16.1,7.4 -3.9,0 -7.5,-1.6 -10.3,-4.5 -2.8,-2.9 -4.3,-6.3 -4.3,-9.9 0,-3.6 0.7,-5.3 2.1,-8 l 14.3,-28.4 c -3.1,0.1 -6.2,0.4 -9.1,0.7 -5.8,16.6 -15.3,29.6 -28.7,38.5 -13.9,9.3 -31.2,13.8 -51.5,13.8 -20.3,0 -19,-1.5 -26.3,-4.5 0,0 0,0 0,0 -9.6,-4.2 -15,-11.3 -15,-20.3 0,-9 2,-9.9 5.8,-13.5 0,0 0,0 0,0 3.9,-3.7 9.2,-5.6 15,-5.6 5.8,0 8.9,0.9 11.9,3.2 3,2.3 4.4,5.8 4.4,9.7 0,3.9 -3,7.9 -7.4,9.5 -0.1,0 -0.3,0 -0.5,0.1 -3.1,0.6 -6.1,1.3 -9,2.1 -1.7,0.5 -2.7,1.1 -3.2,1.6 -0.5,0.5 -0.6,0.7 -0.6,1.1 0,1 0.3,1.6 1.4,2.5 1.1,0.9 3.1,1.9 6,2.8 0,0 0,0 0,0 4.5,1.3 9,2 13.5,2 13,0 23.6,-4.3 32.7,-13.3 0,0 0,0 0,0 5.8,-5.6 11.3,-13.9 16.5,-24.7 -3.7,1.1 -7.6,2.5 -11.8,4.5 -0.4,0.2 -0.7,0.4 -1.1,0.6 -0.8,0.4 -1.9,1 -3.3,1.8 -4.3,2.3 -8.6,4.5 -13,6.8 -0.8,0.4 -1.8,0.5 -2.7,0.2 l -0.9,-0.3 c -0.9,-0.3 -1.5,-0.9 -1.8,-1.7 0,-0.2 -0.2,-0.4 -0.2,-0.5 -0.2,-0.4 -0.3,-0.8 -0.3,-1.3 0,-3.1 2.4,-5.3 5.6,-7.4 3.2,-2.1 7.6,-4.1 13.4,-6.4 8.6,-3.3 15.3,-5.4 20.8,-6.5 3.4,-8 8.9,-17.2 16.7,-27.9 v 0 c 0,0 0,0 0,0 5.1,-7 9.7,-12.4 14,-16.2 4.3,-3.8 8.4,-6.1 12.8,-6.2 0.5,0 1.1,0 1.5,0.3 l 0.7,0.3 c 0.8,0.4 1.4,1 1.6,1.8 l 0.4,1.1 c 0.2,0.6 0.2,1.3 -0.1,1.9 -4.6,10 -7.6,17.3 -9.2,21.7 0,0 0,0 0,0 -2.1,6 -3.8,12.5 -5.1,19.2 3.1,-0.2 6.1,-0.3 10.6,-0.6 l 2.3,-4.6 c 0.4,-0.8 1.2,-1.3 2.1,-1.4 l 20.9,-1.5 v 0 c 0.6,0 1.3,0.2 1.8,0.6 1.1,0.9 1.2,2.5 0.3,3.5 -4.7,5.7 -9.4,12.4 -13.9,20.3 v 0 c -5.5,9.6 -8,16.8 -8,21.1 0,4.3 0.2,1.9 0.7,2.9 0,0 0,0 0,0 0.3,0.6 0.5,1 0.6,1.1 0,0 0.5,-0.1 1.5,-0.8 1,-0.7 2.3,-1.9 3.8,-3.6 3,-3.4 6.9,-8.6 11.6,-15.6 0,0 0,0 0,0 7.1,-10.5 12.4,-19.4 16,-26.6 0.4,-0.8 1.2,-1.3 2.1,-1.4 l 19.8,-1.5 c 0.5,0 1.1,0.1 1.6,0.4 1.2,0.8 1.5,2.3 0.7,3.5 l -15.2,23.3 c 0,0 0,0 0,0 -1.8,2.6 -4.5,6.5 -8,11.6 v 0 c -1.9,2.9 -3.4,5.6 -4.8,8.2 3,-1.5 5.8,-4 8.5,-7.5 0,0 0,0 0,0 1.9,-2.6 3.5,-4.6 4.7,-6 0.5,-0.6 1,-1.2 1.6,-1.7 0.5,-0.5 0.7,-0.8 1.6,-1.2 0.3,-0.1 0.7,-0.2 1,-0.2 h 0.7 c 0.7,0 1.4,0.3 1.9,0.8 0.8,0.9 1.4,2.2 1.4,3.5 0,6.1 -4.9,12.3 -13.5,20.4 z m 115.3,0 c -8.6,7.9 -15.6,12.3 -21.8,12.3 -6.2,0 -7.8,-0.9 -9.9,-3.5 -0.4,-0.5 -0.5,-0.8 -0.7,-1.2 -0.2,-0.4 -0.4,-0.9 -0.7,-1.5 -0.1,-0.3 -0.3,-0.8 -0.5,-1.1 -4.3,4.7 -9.7,7.4 -16.1,7.4 -3.9,0 -7.5,-1.6 -10.3,-4.5 -2.8,-2.9 -4.3,-6.3 -4.3,-9.9 0,-3.6 0.1,-2.3 0.4,-3.4 -0.4,0.5 -0.9,1 -1.4,1.5 -5.4,5.7 -10,10.1 -14.1,13.1 -4,3 -7.4,4.7 -10.7,4.7 -3.3,0 -6.7,-1.2 -9.1,-3.5 0,0 0,0 0,0 -2.3,-2.4 -3.5,-5.4 -3.5,-8.7 0,-9.6 3.3,-20.8 9.8,-33.8 v 0 c 1.6,-3.3 7.5,-13.3 18,-30.7 l 21.8,-36.1 c 0.4,-0.6 1,-1 1.7,-1 l 19.4,-0.8 v 0 c 0.4,0 0.8,0 1.2,0.3 1,0.6 1.4,1.9 0.8,2.9 l -12.5,21.6 h 9.7 c 0.2,0 0.4,0 0.6,0 1.1,0.3 1.8,1.5 1.5,2.6 l -1.3,4.4 c -0.3,0.9 -1.1,1.5 -2,1.5 h -14.4 l -29.7,50.6 v 0 c -1.9,3.3 -2.9,6.9 -2.9,11 l 1.1,2.3 c 0.6,-0.1 1.6,-0.5 3,-1.4 1.7,-1.2 3.7,-3 6.1,-5.5 2.5,-2.6 4.5,-4.6 6.2,-6 1.7,-1.4 2.8,-2.4 4.8,-2.4 2,0 1.1,0.1 1.7,0.5 L 257,74.3 c 0.4,-0.8 1.2,-1.3 2.1,-1.4 L 280,71.4 v 0 c 0.6,0 1.3,0.2 1.8,0.6 1.1,0.9 1.2,2.5 0.3,3.5 -4.7,5.7 -9.4,12.4 -13.9,20.3 v 0 c -5.5,9.6 -8,16.8 -8,21.1 0,4.3 0.2,1.9 0.7,2.9 0,0 0,0 0,0 0.3,0.6 0.5,1 0.6,1.1 0,0 0.5,-0.1 1.5,-0.8 1,-0.7 2.3,-1.9 3.8,-3.6 3,-3.4 6.9,-8.6 11.6,-15.6 0,0 0,0 0,0 7.1,-10.5 12.4,-19.4 16,-26.6 0.4,-0.8 1.2,-1.3 2.1,-1.4 l 19.8,-1.5 c 0.5,0 1.1,0 1.6,0.4 1.2,0.8 1.5,2.3 0.7,3.5 l -15.2,23.3 c 0,0 0,0 0,0 -1.8,2.6 -4.5,6.5 -8,11.6 v 0 c -1.9,2.9 -3.4,5.6 -4.8,8.2 3,-1.5 5.8,-4 8.5,-7.5 0,0 0,0 0,0 1.9,-2.6 3.5,-4.6 4.7,-6 0.5,-0.6 1,-1.2 1.6,-1.7 0.5,-0.5 0.7,-0.8 1.6,-1.2 0.3,-0.1 0.7,-0.2 1,-0.2 h 0.7 c 0.7,0 1.4,0.3 1.9,0.8 0.8,0.9 1.4,2.2 1.4,3.5 0,6.1 -4.9,12.3 -13.5,20.4 0,0 0,0 0,0 z m 112.1,-19.5 c -7,4.5 -15.2,7.7 -24.6,9.6 -1.4,3.5 -2.2,6.2 -2.2,7.8 0,1.6 0.2,1.5 0.3,1.6 0,0.1 0.2,0.2 0.8,0.2 4.5,0 9.2,-1.7 14.1,-5.4 2.1,-1.6 6,-5.2 11.4,-10.7 0,0 0,0 0,0 2,-2 3.7,-3.5 5.1,-4.6 1.4,-1.1 2.7,-1.9 4.3,-1.9 1.6,0 1.5,0.3 2.1,0.9 0.6,0.7 0.7,1.4 0.7,2 0,1.4 -0.5,1.8 -1,2.7 -0.5,0.8 -1.3,1.8 -2.2,3.1 -1.9,2.4 -4.7,5.7 -8.4,9.8 -10.5,11.8 -21.6,18 -33.1,18 -11.5,0 -9.7,-1.1 -12.8,-3.8 -3.1,-2.6 -4.5,-6.6 -4.5,-11.4 0,-7.9 2.7,-15.9 8,-24 -1.7,0.9 -3.4,1.3 -5.2,1.3 -1.8,0 -1.7,-0.3 -2.4,-0.7 -0.7,-0.4 -1.5,-0.8 -2.3,-1.4 -0.3,-0.2 -0.6,-0.5 -0.8,-0.9 -0.8,-1.4 -1.4,-2.3 -1.4,-4 0,-3.4 1.9,-6.5 4.9,-8.9 0.7,-0.6 1.4,-1.1 2.1,-1.5 -0.5,0.2 -0.7,0.2 -2,1 -2,1.2 -4.6,3.1 -7.9,5.7 0,0 0,0 0,0 -6.5,5.1 -10.5,8.8 -11.5,10.1 -3.5,4.7 -7.2,10.8 -11,18 -3,6.4 -6.1,12.8 -9.2,19.2 -0.4,0.9 -1.3,1.4 -2.3,1.4 l -18.1,-0.3 c -0.4,0 -0.8,-0.1 -1.1,-0.3 -1.2,-0.7 -1.7,-2.2 -1.1,-3.4 l 17.8,-34 c 0,0 0,0 0,-0.1 1.4,-2.4 2.9,-4.8 4.4,-7.2 v 0 c 0.7,-1.3 1.4,-2.6 2,-3.9 -0.7,0.7 -1.3,1.2 -2.3,2.2 v 0 c -1.6,1.6 -2.9,2.8 -4.1,3.7 -0.6,0.4 -1.1,0.8 -1.6,1.1 -0.5,0.3 -1.1,0.6 -2.1,0.6 -0.6,0 -1.2,-0.2 -1.7,-0.6 -0.6,-0.2 -1.2,-0.7 -1.4,-1.3 l -0.2,-0.5 c -0.1,-0.3 -0.2,-0.7 -0.2,-1 0.1,-2.3 1.4,-3.8 3.2,-6 1.8,-2.2 4.4,-4.9 7.7,-8.2 3.4,-3.3 6.3,-5.8 8.6,-7.5 2.4,-1.7 4,-2.9 6.4,-2.9 v 0 c 3.4,0 6.5,1.6 8.3,4.3 1.4,2.2 2,5.1 2.2,8.5 l 6.5,-3.8 c 6.3,-3.8 11,-5.9 15.1,-5.9 4.1,0 5.6,1.3 7.6,3.6 2.1,2.2 3.4,4.7 3.4,7.4 0,2.7 -0.2,3 -0.7,4.5 10.7,-11.3 21.9,-17.2 33.4,-17.2 v 0 c 4,0 7.5,1.1 9.8,3.5 2.3,2.4 3.4,5.9 3.4,10 0,8.4 -5,15.8 -14.2,21.6 z m -14.7,11.2 -0.4,0.3 c -2.1,1.5 -4.5,2.7 -7,3.3 0.2,-0.6 0.3,-1.3 0.7,-1.7 2.3,-0.5 4.5,-1.1 6.8,-1.8 z m 11.2,-33.6 c -2.4,2 -5.1,5.2 -8.2,9.5 0,0 0,0 0,0 -3.5,4.8 -6.3,9.4 -8.7,13.8 4.7,-1.8 9.2,-4.5 13.5,-8.4 0,0 0,0 0,0 6.4,-5.5 9.2,-10.7 9.2,-15.7 0,-5 -0.2,-1.6 -0.4,-2.1 -1.2,0 -3.1,0.8 -5.4,2.8 z m -1.4,7.2 c -0.3,0.4 -0.7,0.9 -1.1,1.3 0.5,-0.6 0.9,-1.2 1.4,-1.7 z M 979.3,13.3 c -1.5,-3 -4.4,-5.2 -7.6,-6.1 -4.1,-1.1 -8.4,-1 -12.5,-0.4 -8.2,1.5 -15.6,5.8 -22.2,10.7 -0.5,0.4 -1,0.8 -1.5,1.2 0.1,-3.6 -1.5,-7.3 -4.5,-9.4 -3,-2.3 -6.8,-2.9 -10.4,-3 -6.5,-0.2 -12.9,1.8 -18.6,4.8 -8,4.2 -15,10.2 -21.5,16.5 -8.1,8.1 -15.4,16.9 -22.3,26 -10.3,13.9 -19.2,28.8 -25.9,44.8 -0.9,-0.4 -1.9,-0.6 -2.8,-0.6 3.8,-5.6 7.4,-11.5 10,-17.8 0.8,-2 1.6,-4 1.9,-6.1 0.3,-3.3 -2.4,-6.5 -5.7,-6.7 -4.3,-0.6 -8.7,-0.6 -13,-0.3 -2.4,0.3 -4.9,0.9 -6.8,2.4 -2.8,-1.5 -5.9,-2.8 -9.1,-2.4 -7.2,0.4 -13.9,3.7 -19.7,7.8 -5.7,4.1 -10.9,8.9 -15.7,14.1 0.4,-3.9 0.6,-8.1 -0.9,-11.8 -1.8,-4.7 -5.8,-8.8 -10.8,-9.9 -1.9,-0.5 -3.9,-0.6 -5.9,-0.4 1.5,-2.8 2.6,-5.8 4.2,-8.6 4.8,-9.3 9.7,-18.5 14.5,-27.8 1.5,-3.2 -0.5,-7.5 -4,-8.4 -2,-0.5 -4,-0.2 -6,-0.3 -3.7,0 -7.4,-0.4 -11,0.7 -2.8,0.8 -5.5,2.1 -7.9,3.7 -1.6,1.3 -2.4,3.4 -3.6,5 -12.7,20.3 -24.9,40.9 -36.7,61.7 -2.9,5.1 -5.7,10.3 -8.4,15.5 -1.6,1 -3,2.2 -4.4,3.3 -3,2.3 -6,4.9 -9.7,6.1 4.1,-7.9 8.8,-15.7 11,-24.5 1.3,-5.2 1.2,-11 -1.5,-15.8 -2.2,-3.8 -6.1,-6.5 -10.4,-7.3 -4.8,-1.1 -9.8,-0.6 -14.3,1.2 -3.6,1.3 -7,3.2 -10.3,5.1 -1,-3.6 -3.3,-7 -6.7,-8.7 -3.7,-2 -8.4,-2.3 -12.1,-0.2 -0.9,0.5 -1.8,1.1 -2.7,1.7 1.2,-2.2 1.7,-4.7 1.9,-7.2 0.7,-2.7 0.6,-5.7 -0.2,-8.4 -1.3,-4.4 -4.6,-8 -8.7,-9.9 0.3,-7.3 -1.9,-14.7 -6.4,-20.5 -0.6,-0.7 -1.1,-1.5 -1.8,-2.2 2.5,-0.8 5.1,-1.6 7,-3.4 2,-2 2.7,-5.1 1.8,-7.8 -1,-3.2 -4,-5.6 -7.3,-5.9 -3.1,-0.4 -6.2,0.1 -9.3,0.6 -4.2,0.8 -8.3,2 -12.4,3.4 C 590.1,4 581.2,1.1 572.1,0.5 566,0 559.8,-0.1 553.7,-0.1 536.8,0.1 520,4.1 505,11.9 c -12,6.2 -23,14.8 -30.9,25.8 -4.4,6 -8.2,12.8 -9.1,20.3 -0.8,6.3 0.6,13.1 4.5,18.2 4.2,5.7 11,9 17.9,10.1 2.9,0.5 5.9,0.6 8.9,0.4 -1.1,3.6 0.6,7.7 3.9,9.5 2.9,1.7 6.5,1.4 9.7,0.4 2,-0.6 4.1,-1.1 6.2,-1.6 -5.1,9.3 -10.9,18.4 -19,25.3 -5.2,4.5 -11.6,7.9 -18.5,8.8 -4.5,0.6 -9,0.1 -13.3,-1.5 -0.9,-0.3 -1.8,-0.7 -2.7,-1.1 2.9,-0.8 5.9,-1.5 8.7,-2.5 5.4,-2.4 9.3,-8.1 9.4,-14.1 0.2,-5.6 -2.4,-11.3 -7,-14.6 -4.6,-3.5 -10.7,-4.5 -16.3,-3.8 -6.4,0.6 -12.6,3.6 -16.9,8.5 -4.8,5.2 -7.1,12.5 -6.5,19.5 0.4,6.5 3.5,12.8 8.3,17.3 5.6,5.3 12.9,8.2 20.4,9.8 9,1.8 18.4,1.6 27.5,0.4 13.7,-1.9 27,-7 38.4,-15 10.6,-7.3 19.7,-16.9 26.5,-27.8 3,-4.9 5.7,-10 7.9,-15.3 9.9,-1.2 19.8,-3.4 29.1,-7.1 -2.4,5 -4.7,10.1 -7.2,15.1 -3.1,5.1 -6.5,10 -9.4,15.1 -2.7,5 -4.5,10.7 -4,16.4 0.3,4.7 2,9.5 5.8,12.4 4.1,3.1 9.7,3.6 14.6,2.4 3.6,-0.9 6.9,-2.5 10,-4.5 0.6,2.8 3.3,4.9 6.1,4.9 2.9,0 5.9,-0.3 8.8,-0.5 4.9,-0.3 9.9,-0.5 14.8,-0.9 2.4,-0.4 4.3,-2.3 5.1,-4.5 4.6,-9.3 7.9,-19.1 12.2,-28.5 2.3,-4.8 4.9,-9.6 8.7,-13.4 1.4,-1.5 2.8,-2.9 4.3,-4.2 -1.4,4.5 -3.5,8.9 -5.7,12.9 -2.5,4.6 -5.1,9.2 -7.3,14.1 -1.3,2.7 -2.2,5.6 -1.8,8.6 0.3,4.7 2.5,9.4 6.5,12 4.1,2.9 9.3,3.4 14.2,3.2 6.8,-0.2 13.9,-1.8 19.5,-5.9 1.7,-1.2 3.2,-2.5 4.7,-3.9 2,4.3 5.7,7.7 10.1,9.4 5.8,2.4 12.3,2.4 18.5,1.8 10.1,-1 19.8,-5.1 27.6,-11.6 1.6,-1.3 3.2,-2.8 4.6,-4.2 1.3,5.3 5.1,10 10,12.4 3.3,1.7 7,2.2 10.7,1.7 4.3,-0.5 8.5,-2.2 12,-4.9 2.4,3.2 6.5,4.6 10.3,4.9 3.9,0.4 7.9,-0.4 11.4,-2.1 5.9,-2.8 10.8,-7.1 15.6,-11.5 0.9,-0.8 1.8,-1.7 2.6,-2.6 -0.2,3.2 0.3,6.5 1.9,9.3 1.9,3.7 5.3,6.6 9.3,7.9 4.2,1.4 9,1.1 12.9,-1 5,-2.5 9.2,-6.2 13.2,-10 2.7,-2.6 5.3,-5.3 7.9,-8.1 -0.3,3.4 -0.2,6.9 1.2,10 1.7,4.1 5.3,7.5 9.5,8.9 4.3,1.6 9.2,1.3 13.2,-0.9 5,-2.5 9.2,-6.2 13.2,-9.9 4.6,-4.4 9,-9.1 13.1,-14.1 1.8,-2.3 3.7,-4.9 3.7,-7.9 0,-3.2 -2.2,-6.3 -5.4,-7 -3.1,-0.8 -6.3,0.4 -8.6,2.5 -3.1,2.5 -5.8,5.4 -8.6,8.3 1.1,-3.7 2.4,-7.5 4.5,-10.8 0.7,-0.9 1.8,-1.4 2.6,-2.2 7.7,-5.9 15.6,-11.6 22.9,-18 16,-13.6 30.7,-28.9 42.2,-46.5 2.7,-4.1 5.2,-8.5 6.1,-13.4 0.6,-3.2 0.9,-6.7 -0.7,-9.7 z M 634,58.2 c 0,7.7 -6.3,14 -14,14 -7.7,0 -14,-6.3 -14,-14 0,-7.7 6.3,-14 14,-14 7.7,0 14,6.3 14,14 z m -6.9,16.3 -0.6,0.6 c -0.6,0.6 -1.2,1.1 -1.8,1.7 -0.3,-0.5 -0.7,-1 -1.1,-1.4 1.2,-0.2 2.4,-0.4 3.5,-0.9 z m -18.3,-1 c -1.1,0.3 -0.6,-0.5 0,0 z m -48.9,11.7 c -6.8,17.1 -17,31 -30.9,41.4 v 0 c -15.3,11.6 -33,17.4 -52.9,17.4 -19.9,0 -18.1,-1.8 -25.1,-5.6 0,0 0,0 0,0 -8.5,-4.7 -13.3,-12 -13.3,-20.7 0,-8.7 2.2,-11.5 6.3,-15.7 4.2,-4.3 9.9,-6.6 16.5,-6.6 6.6,0 8.3,1.2 11.3,3.8 3.1,2.6 4.7,6.3 4.7,10.4 0,4.1 -2.6,8.7 -6.9,10.8 0,0 0,0 0,0 -0.6,0.3 -0.7,0.3 -1.2,0.4 -0.5,0.1 -1.2,0.3 -2,0.6 -2.4,0.7 -4.8,1.3 -7.2,1.9 v 0 c -1.6,0.4 -2.6,1 -3,1.3 -0.4,0.4 -0.3,0.3 -0.3,0.4 0,0.9 0.3,1.6 1.3,2.6 1,1 2.7,2.1 5.3,3.2 v 0 c 4.3,1.7 8.3,2.6 12,2.6 11.4,0 21.9,-5.3 31.8,-16.6 0,0 0,0 0,0 5.6,-6.3 11.3,-15.5 17.2,-27.2 -4.3,0.7 -8.8,1.5 -13.6,2.9 0,0 0,0 0,0 -1,0.3 -1.8,0.5 -2.5,0.7 -0.7,0.2 -1.1,0.3 -1.9,0.3 -1.2,0 -2.3,-0.1 -3.5,-0.8 -1.1,-0.7 -2,-2.3 -2,-3.6 0,-1.3 1,-3.4 2.3,-4.3 1.3,-0.9 2.8,-1.6 4.6,-2.1 0,0 0,0 0,0 9.2,-2.5 16.6,-4 22.6,-4.7 15,-28.6 33.5,-48.6 55.4,-59.6 -7.1,-2.1 -16.7,-3.2 -28.6,-3.2 -11.9,0 -26.8,1.5 -35.5,4.3 v 0 c -5,1.6 -9.9,4 -14.8,7.1 3.9,-1.8 8.1,-2.9 12.7,-2.9 4.6,0 8.8,1.6 11.4,4.8 2.6,3.2 3.7,7.7 3.7,13.2 v 1.6 c 0,10.5 -3.9,19.9 -11.3,27.8 -7.4,7.8 -17.2,11.8 -28.7,11.8 -11.5,0 -12.9,-1.8 -17.7,-5.5 0,0 0,0 0,0 -4.8,-3.9 -7.3,-9.4 -7.3,-15.9 0,-6.5 2.1,-11.6 6,-17.7 v 0 C 482.9,31.2 494.5,21.3 509.5,14.2 523.7,7.4 539.1,3.9 555.3,3.9 v 0 c 9.8,0 17.3,0.4 22.7,1.3 v 0 c 6.3,1.1 13.1,3.4 20.3,6.8 8.1,-2.8 14.7,-4.4 19.9,-4.4 5.2,0 2.5,0.2 3.7,1 1.2,0.8 1.9,2.4 1.9,3.7 0,1.3 -0.5,1.7 -0.8,2.1 -0.3,0.4 -0.7,0.6 -1,0.8 -0.6,0.4 -1.2,0.6 -1.9,0.9 -1.5,0.6 -3.5,1.1 -6.1,1.8 -0.8,0.2 -2.4,0.6 -3.5,0.9 7.9,6 12.2,14 12.2,23.4 -0.9,-0.2 -1.9,-0.2 -2.8,-0.2 -2.6,0 -5.2,0.7 -7.5,2 -3,1.6 -5.5,4.3 -6.9,7.4 -1.3,2.9 -1.7,6 -1.2,9.1 0.5,2.9 1.8,5.7 3.7,8 -2.6,2 -5.6,3.8 -8.8,5.5 v 0 C 587.7,80 574.6,83.6 560,85.1 Z M 537.5,38 c -0.5,-5.1 -2.3,-10.4 -6.3,-13.8 -1.1,-0.9 -2.3,-1.7 -3.6,-2.4 1.3,-0.3 2.7,-0.6 4,-0.8 8.1,-1.4 16.3,-1.8 24.5,-1.8 5.8,0 11.6,0.3 17.4,1 -15.5,10 -28.1,24 -38.1,39.4 -3.1,4.8 -6,9.7 -8.7,14.7 -0.8,0.1 -1.6,0.2 -2.3,0.4 6.1,-6.1 10.7,-13.9 12.3,-22.5 1,-4.7 1.1,-9.5 0.7,-14.3 z m 281.8,88 c 0,0 0,0 0,0 -8.5,7.9 -15.3,12.2 -21.4,12.2 -6.1,0 -7.5,-0.9 -9.6,-3.4 -0.4,-0.5 -0.5,-0.7 -0.7,-1.1 -0.2,-0.4 -0.4,-0.9 -0.7,-1.5 -0.2,-0.4 -0.4,-1.1 -0.6,-1.6 -4.2,4.9 -9.6,7.7 -16,7.7 -6.4,0 -7.3,-1.6 -10,-4.5 -2.7,-2.8 -4.2,-6.2 -4.2,-9.7 0,-3.5 1,-7.4 2.8,-11.4 -4,7.1 -8.9,12.9 -14.6,17.3 -8.6,6.7 -18.7,10.1 -30.1,10.1 -11.4,0 -11.7,-1.4 -15.3,-4.5 -3,-2.5 -4.7,-6.2 -5.2,-10.6 -0.3,0.3 -0.6,0.6 -0.9,1 -4.5,4.6 -8.2,7.6 -11.4,9.1 -4.3,2.2 -9.6,3.2 -16,3.2 -6.4,0 -8.1,-0.9 -10.7,-3.2 -2.7,-2.2 -3.9,-5.7 -3.9,-9.6 0,-3.9 0.8,-3.9 2.2,-6.9 1.4,-3 3.4,-6.8 6,-11.5 5.2,-9.2 7.6,-16.4 7.6,-21.2 v -1.5 c 0,0 -0.1,-0.1 -0.2,-0.2 0,-0.4 -0.1,-0.5 -0.2,-0.6 0,0 0,0 0,0 -0.2,0 -0.3,-0.1 -0.5,-0.2 -0.2,0 -0.9,0.3 -2,1.1 -1.3,0.9 -3,2.4 -5.1,4.3 0,0 0,0 0,0 -3.4,3.2 -5.9,5.9 -7.4,8 0,0 0,0 0,0 -3,4.1 -6.4,10.6 -9.9,19.4 v 0 c -4.2,10.5 -7.1,17.3 -8.9,20.7 -0.4,0.8 -1.2,1.3 -2,1.3 l -22.2,1.3 c -0.4,0 -0.9,0 -1.3,-0.3 -1.2,-0.6 -1.7,-2.1 -1.1,-3.3 l 4.9,-9.5 c -0.4,0.4 -0.9,0.8 -1.4,1.2 -8.7,7.8 -16,12.2 -22.8,12.2 -6.8,0 -6.6,-1.3 -8.6,-3.8 -2,-2.5 -2.7,-5.9 -2.7,-9.9 0,-4 1.9,-9.6 5.3,-15 v 0 c 0,0 8,-12.6 8,-12.6 1,-2 4,-8.4 9.2,-19.5 0.5,-1 1.4,-1.6 2.5,-1.6 h 19 c 2.1,0 3.5,2.4 2.3,4.2 -8.6,13.8 -15.1,26.3 -19.7,37.6 2.6,-1.4 4.9,-3.5 6.9,-6.4 3.4,-5.1 6,-8.4 9.1,-9.9 0.4,-0.2 0.8,-0.3 1.2,-0.3 h 0.7 c 0.7,0 1.3,0.3 1.8,0.7 0.2,0.2 0.5,0.5 0.6,0.7 l 1.2,-2.3 c 0,0 0,0 0,-0.1 1.4,-2.4 2.9,-4.8 4.3,-7.2 1,-1.8 1.6,-3.1 2,-4.2 -0.7,0.7 -1.4,1.2 -2.4,2.3 -1.6,1.6 -2.9,2.9 -4,3.8 -0.6,0.4 -1.1,0.8 -1.6,1.1 -0.5,0.3 -1.1,0.6 -2.1,0.6 -0.6,0 -1.2,-0.2 -1.7,-0.6 -0.6,-0.2 -1.1,-0.7 -1.4,-1.3 l -0.2,-0.5 c -0.1,-0.4 -0.2,-0.8 -0.1,-1.1 0.2,-2.2 1.4,-3.7 3.2,-6 1.8,-2.3 4.3,-5 7.5,-8.2 0,0 0,0 0,0 3.3,-3.3 6.1,-5.7 8.5,-7.5 2.3,-1.7 4,-2.9 6.4,-2.9 3.3,0 6.4,1.6 8.1,4.3 1.4,2.2 2,5.1 2.2,8.5 2,-1.2 4.1,-2.4 6.2,-3.6 6.4,-3.7 11.5,-5.7 15.9,-5.7 4.4,0 8,1 10.6,3.4 2.6,2.4 3.8,5.9 3.8,10 0,4.1 -2.7,12.7 -7.8,22.3 0,0 0,0 0,0 -2.5,4.6 -4.4,8.2 -5.6,10.7 -0.6,1.2 -1.1,2.2 -1.3,2.9 v 0 c 0,0.1 0.1,0.2 0.2,0.2 5.4,-0.2 10.4,-1.9 15.2,-5.4 1.7,-1.3 4.2,-3.3 7.7,-5.9 0.3,-0.2 0.7,-0.4 1.1,-0.5 0.5,-1.1 1.1,-2.2 1.8,-3.4 3.9,-7.4 9.6,-17.6 17.3,-30.6 9.3,-16 18.9,-31.8 28.7,-47.5 0.2,-0.3 0.5,-0.6 0.8,-0.8 3.8,-2.2 7.2,-3.4 10.4,-3.4 v 0 c 0.7,0 3.8,0 9.9,0.2 0.3,0 0.7,0 1,0.3 1.1,0.6 1.5,1.9 1,3 l -16.1,30.9 c -1.3,3.1 -3.4,7.2 -6.2,12.2 0.9,-0.1 1.4,-0.1 2.6,-0.4 2.8,-0.7 4.9,-1 6.6,-1 3.6,0 6.8,1.4 8.9,4.1 2.1,2.5 3.2,5.6 3.2,9 0,7.8 -2.2,16 -6.4,24.6 3.1,-5.3 7.7,-11 13.6,-17.3 0,0 0,0 0,0 12.4,-13.1 23.2,-20 33.2,-20 10,0 3.7,0.8 6,2.1 v 0 c 1.6,0.7 2.5,0.9 3.3,1.2 0,-0.6 0.4,-1.1 0.8,-1.5 2.1,-1.6 5,-1.9 8.9,-1.9 v 0 c 3.7,0 6.5,0.2 8.6,0.5 0,0 0.2,0 0.2,0 1.2,0.3 1.9,1.6 1.5,2.7 -1.9,6.8 -6.4,14.9 -13.4,24.7 v 0 c -6.3,8.8 -10.1,15.2 -12.5,19.9 3.2,-1.5 6.2,-4.1 8.9,-7.8 0,0 0,0 0,0 1.9,-2.6 3.5,-4.6 4.6,-6 0.5,-0.6 1,-1.2 1.5,-1.7 0.4,-0.5 0.7,-0.8 1.5,-1.2 0.3,-0.1 0.6,-0.2 0.9,-0.2 h 0.7 c 0.6,0 1.2,0.3 1.7,0.8 0.8,0.9 1.3,2.1 1.3,3.3 0,5.8 -4.7,12.1 -13.2,20.1 z M 972,31.9 v 0 c -11.7,18.7 -28.7,37 -51.1,54.8 0,0 0,0 0,0 -3.8,2.9 -9.6,7.3 -17.2,13.1 -0.7,0.5 -2.8,3.9 -4.8,9.5 -1.7,4.9 -2.5,8.6 -2.7,10.9 l 1,1.9 c 0.6,-0.2 1.4,-0.5 2.7,-1.3 1.6,-1.1 3.6,-3 5.9,-5.4 2.4,-2.6 4.5,-4.6 6.1,-6 1.7,-1.4 2.8,-2.5 4.9,-2.5 2.1,0 1.6,0.2 2.3,0.8 0.7,0.7 1,1.7 1,2.4 0,1.1 -0.4,1.8 -0.8,2.5 -0.4,0.7 -1,1.6 -1.7,2.5 -1.4,1.9 -3.4,4.2 -6.1,7.1 -5.3,5.7 -9.9,10.1 -14,13.1 -4,3 -7.4,4.7 -10.8,4.7 -3.4,0 -6.7,-1.2 -9.2,-3.6 0,0 0,0 0,-0.1 -2.3,-2.5 -3.5,-5.5 -3.5,-8.8 0,-7.3 2.2,-16 6.5,-26.4 4.9,-12.1 11.4,-24 19.3,-35.8 -7.2,7.2 -15.2,14.3 -24.1,21.4 0,0 0,0 0,0 -3.8,2.9 -9.6,7.3 -17.2,13.1 -0.7,0.5 -2.8,3.9 -4.8,9.5 -1.7,4.9 -2.5,8.6 -2.7,10.9 l 1,1.9 c 0.6,-0.2 1.4,-0.5 2.7,-1.3 1.6,-1.1 3.6,-3 5.9,-5.4 2.4,-2.6 4.5,-4.6 6.1,-6 1.7,-1.4 2.8,-2.5 4.9,-2.5 2.1,0 1.6,0.2 2.3,0.8 0.7,0.7 1,1.7 1,2.4 0,1.1 -0.4,1.8 -0.8,2.5 -0.4,0.8 -1,1.6 -1.7,2.5 -1.4,1.9 -3.4,4.2 -6.1,7.1 -5.3,5.7 -9.9,10.1 -14,13.1 -4.1,3 -7.4,4.7 -10.8,4.7 -3.4,0 -6.7,-1.2 -9.2,-3.6 0,0 0,0 0,-0.1 -2.3,-2.5 -3.5,-5.5 -3.5,-8.8 0,-7.3 2.2,-16 6.5,-26.4 7.8,-19 19.2,-37.7 34.4,-55.9 18.9,-22.8 35.1,-34.7 49.5,-34.7 v 0 c 3.4,0 6.2,0.4 8.3,1.7 2.2,1.3 3.6,3.7 3.6,6.2 0,4.4 -1.6,8.9 -4.5,13.5 v 0 c 0,0 0,0 0,0 14,-14.2 26.4,-21.6 37.7,-21.6 v 0 c 3.4,0 6.2,0.4 8.3,1.7 2.2,1.3 3.6,3.7 3.6,6.2 0,4.4 -1.6,8.9 -4.5,13.5 z m -96.7,71.9 c -2.9,-1.5 -6.4,-0.9 -9,1 -3.4,2.5 -6.3,5.6 -9.2,8.6 -0.7,0.8 -0.6,0.4 -0.3,-0.4 1.1,-3.5 2.3,-6.9 4.3,-10 0.7,-0.9 1.8,-1.4 2.7,-2.2 6.5,-5 13.1,-9.8 19.4,-15 l -0.4,0.7 c -2.8,5.6 -5.3,11.3 -7.5,17.2 z m 44.8,-83.1 v 0 c -3,0.2 -7.4,2.3 -12.8,7.1 -5.7,5 -12.4,12.6 -20.1,22.8 v 0 C 877.1,64 869.7,75.4 865,84.7 c 8.4,-6.2 18.4,-15.2 29.9,-27 0,0 0,0 0,0 16,-16.4 24.5,-28.7 26.1,-35.7 -0.3,-0.4 -0.7,-1 -0.8,-1.2 z m -6.2,7.2 v 0 c -5.3,8.8 -12.2,16.5 -19.1,23.9 -4.3,4.5 -8.7,8.9 -13.2,13.2 5,-7.2 10.3,-14.3 15.9,-21.2 1,-1.2 2,-2.4 3.1,-3.6 4.1,-4.6 8.4,-9.2 13.5,-12.8 0.5,-0.4 0,0.3 -0.1,0.4 z m 51.3,-7.2 c -3,0.2 -7.4,2.3 -12.8,7.1 -5.7,5 -12.4,12.6 -20.1,22.8 v 0 c -10.1,13.4 -17.5,24.8 -22.2,34.1 8.4,-6.2 18.4,-15.2 29.9,-27 0,0 0,0 0,0 16,-16.4 24.5,-28.7 26.1,-35.7 -0.3,-0.4 -0.7,-1 -0.8,-1.2 v 0 z M 959,28 c -0.7,1.1 -1.5,2.4 -2.3,3.6 -1.2,1.7 -2.4,3.4 -3.7,5.1 -1.8,2.3 -3.6,4.6 -5.5,6.8 -6.6,7.6 -13.6,14.8 -20.9,21.7 2,-2.9 4.1,-5.8 6.2,-8.6 5.8,-7.8 11.8,-15.6 18.7,-22.5 2.4,-2.4 4.9,-4.7 7.8,-6.6 l -0.3,0.6 v 0 z M 499.1,61.3 c 3.1,-2 6,-3.6 8.7,-4.7 0.8,-0.3 1.4,-1.1 1.6,-2 0.6,-3.1 2,-6.6 4,-10.6 1.4,-2.6 2.7,-4.4 3.7,-5.5 1.1,-1.1 1.7,-1.2 2.1,-1.2 0.4,0 0.5,0 0.5,0 0,0 0.1,0.3 0.1,1 0,8.4 -3,15.8 -9.2,22.7 0,0 0,0 0,0 -6.5,7.4 -13.9,10.8 -22.9,10.8 -9,0 -5.3,-0.9 -7.1,-3 -1.9,-2.1 -2.7,-4.5 -2.7,-7.5 0,-6.8 4.3,-14.8 13.7,-23.7 1.6,-1.5 3.3,-2.9 4.9,-4.2 v 0 c -1,1.1 -2,2 -2.9,3.2 -5.5,7.3 -8.2,15.9 -8.2,25.4 0,0.2 0,0.5 0,0.7 0.2,0.9 0.5,1.8 0.7,2.5 0.5,1.5 2,2.3 3.5,1.8 0.2,0 0.5,-0.2 0.7,-0.3 l 8.6,-5.6 v 0 z m 313,20.3 c -2,4.3 -6.4,11.6 -13.7,21.9 -4.3,6.1 -7.9,10.7 -10.7,13.6 -1.4,1.5 -2.5,2.5 -3.4,3.2 -0.9,0.6 -1.5,0.7 -1.3,0.7 -0.6,0 -0.6,0 -0.6,-0.1 0,0 -0.2,-0.3 -0.2,-1.1 0,-4.9 2.8,-11.6 8.9,-19.8 v 0 c 0,0 0,0 0,0 5.2,-7 10.6,-12.6 16.2,-16.9 0,0 0.1,0 0.2,0 1.7,-1.2 3,-1.7 4.1,-1.7 1.1,0 0.5,0 0.6,0.1 z M 85,42.1 c -0.1,0 -0.7,0 -1.8,1.1 -1.1,1 -2.4,2.9 -3.7,5.5 v 0 c -2.1,4 -3.4,7.5 -4.1,10.6 -0.2,0.9 -0.9,1.7 -1.8,2 -2.4,1 -5.4,2.6 -8.8,4.7 -2.8,1.7 -4.9,3.1 -6.3,4 -0.7,0.5 -1.3,0.8 -1.6,1.1 -0.2,0.1 -0.3,0.2 -0.4,0.3 0,0 0,0 0,0 0,0 0,0 0.1,-0.1 -0.4,0.3 -0.8,0.6 -1.4,0.7 -1.7,0.4 -3.4,-0.4 -3.9,-2 -0.3,-0.8 -0.5,-1.6 -0.8,-2.5 0,-0.2 0,-0.5 0,-0.7 0,-9.5 2.8,-18 8.3,-25.4 0.3,-0.4 0.6,-0.7 0.9,-1 -0.7,0.7 -1.5,1.3 -2.2,2 0,0 0,0 0,0 -9.5,8.9 -13.8,16.8 -13.8,23.8 0,7 0.9,5.5 2.8,7.6 1.8,2 3.7,2.9 6.8,2.9 8.9,0 16.2,-3.4 22.8,-10.8 0,0 0,0 0,0 6.2,-6.9 9.3,-14.3 9.3,-22.8 0,-8.5 0,-0.8 -0.1,-0.9 0,0 -0.1,0 -0.2,0 z M 59.8,74.5 c -1.3,0 0.4,-1 0,0 z M 595.7,24.2 c -6.2,3.6 -12.8,11 -19.2,22.9 v 0 c 0,0 0,0 0,0 -3.1,5.9 -7,15.1 -11.4,26.5 8.6,-2.1 16,-6.3 22.4,-13.1 7.5,-8.2 11.1,-17 11.1,-26.8 0,-9.8 -1,-7.1 -2.8,-9.5 v 0 z m -1.6,14.4 c 0,0.4 -0.1,0.9 -0.2,1.4 -1.5,8.1 -6.4,15.2 -12.4,20.7 -2.9,2.5 -6.1,4.7 -9.6,6.3 3.4,-8.4 6.9,-16.8 11.8,-24.5 2.9,-4.5 6.2,-8.9 10.4,-12.4 v 0.3 c 0.6,2.7 0.4,5.4 0,8.1 z m 151.5,41.8 c 0,0 -0.3,-0.2 -1.1,-0.2 v 0 c -1,0 -2.1,0.3 -3.3,1 -2.6,3.3 -6.7,10 -12.1,20.2 v 0 c -2.9,5.5 -5.1,10 -6.5,13.5 -1.3,3.2 -1.9,5.4 -2,6.4 0.9,0 2.6,-0.7 4.8,-2.3 5.6,-4.2 10.3,-9.6 14.3,-16.5 0,0 0,0 0,0 4.3,-7.3 6.3,-13.9 6.3,-19.8 v -1.3 c 0,0 -0.1,-0.1 -0.2,-0.2 0,-0.6 -0.2,-0.7 -0.3,-0.7 z m -4.3,8.2 c -1.5,5.9 -4.5,11.3 -7.8,16.3 -1.3,1.9 -2.8,3.7 -4.3,5.4 2.9,-6 6.1,-11.8 9.3,-17.6 1,-1.7 2,-3.4 3,-5 z M 615.6,57.2 c 0.2,0.6 -0.4,1.9 -0.8,2.4 -0.6,0.7 -0.9,0.6 -1.6,0.7 -0.6,0 -1.3,0.2 -1.6,-0.6 -0.5,-0.8 -0.3,-1.1 -0.4,-1.9 -0.2,-0.6 0,-1.9 0.3,-2.2 0,0 0.9,-0.2 1.8,-0.3 0.4,0.4 1.2,0.7 1.6,1 0,0.2 0.8,0.5 0.9,1.4 -0.3,0.2 0,-0.4 0,-0.6"
     style="fill:#ffffff" />
</svg>
