<?xml version="1.0" encoding="UTF-8" standalone="no"?>
<svg
   height="160.71"
   viewBox="0 0 427.861 192.851"
   width="356.551"
   version="1.1"
   id="svg11"
   sodipodi:docname="gamepock-wht.svg"
   inkscape:version="1.3 (0e150ed, 2023-07-21)"
   xmlns:inkscape="http://www.inkscape.org/namespaces/inkscape"
   xmlns:sodipodi="http://sodipodi.sourceforge.net/DTD/sodipodi-0.dtd"
   xmlns="http://www.w3.org/2000/svg"
   xmlns:svg="http://www.w3.org/2000/svg">
  <defs
     id="defs11" />
  <sodipodi:namedview
     id="namedview11"
     pagecolor="#ffffff"
     bordercolor="#000000"
     borderopacity="0.25"
     inkscape:showpageshadow="2"
     inkscape:pageopacity="0.0"
     inkscape:pagecheckerboard="0"
     inkscape:deskcolor="#d1d1d1"
     inkscape:zoom="1.9295978"
     inkscape:cx="178.2755"
     inkscape:cy="80.586744"
     inkscape:window-width="1392"
     inkscape:window-height="1212"
     inkscape:window-x="0"
     inkscape:window-y="25"
     inkscape:window-maximized="0"
     inkscape:current-layer="svg11" />
  <g
     fill="#666666"
     id="g2"
     transform="translate(-0.619,-10.658)"
     style="display:inline;fill:#ffffff">
    <path
       d="m 24.059,194.897 c 0,-3.494 -1.92,-4.907 -5.52,-4.907 h -7.814 v 3.44 h 6.827 c 0.773,0 1.28,0.24 1.28,1.493 0,1.094 -0.4,1.494 -1.253,1.494 H 9.525 c -2.533,0 -3.226,-0.56 -3.226,-4.614 0,-3.866 0.666,-4.613 3.226,-4.613 h 13.707 v -4.107 H 5.925 c -3.413,0 -5.306,2 -5.306,5.307 v 6.827 c 0,3.306 1.893,5.306 5.306,5.306 H 18.54 c 3.6,0 5.52,-1.76 5.52,-5.626 z m 25.321,0.32 v -6.827 c 0,-3.307 -1.92,-5.307 -5.307,-5.307 H 26.767 v 4.107 h 13.68 c 2.586,0 3.226,0.747 3.226,4.613 0,4.054 -0.693,4.614 -3.226,4.614 h -8.054 c -0.853,0 -1.253,-0.4 -1.253,-1.494 0,-1.253 0.507,-1.493 1.28,-1.493 h 10.16 v -3.44 H 31.433 c -3.6,0 -5.493,1.413 -5.493,4.907 0,3.866 1.893,5.626 5.493,5.626 h 12.64 c 3.387,0 5.307,-2 5.307,-5.306 z m 33.617,5.306 V 188.39 c 0,-3.307 -1.894,-5.307 -5.307,-5.307 H 50.917 v 17.44 h 5.813 v -11.84 c 0,-1.333 0.16,-1.493 1.253,-1.493 h 4.827 c 1.067,0 1.253,0.16 1.253,1.493 v 11.84 h 5.787 v -11.84 c 0,-1.333 0.187,-1.493 1.253,-1.493 h 4.827 c 1.093,0 1.253,0.16 1.253,1.493 v 11.84 z m 25.36,-11.813 c 0,-3.867 -1.92,-5.627 -5.52,-5.627 H 90.223 c -3.413,0 -5.306,2 -5.306,5.307 v 6.827 c 0,3.306 1.893,5.306 5.306,5.306 h 17.307 v -4.106 H 93.823 c -2.56,0 -3.226,-0.747 -3.226,-4.587 0,-4.053 0.693,-4.64 3.226,-4.64 h 8.054 c 0.853,0 1.253,0.4 1.253,1.493 0,1.254 -0.507,1.494 -1.28,1.494 H 91.717 v 3.44 h 11.12 c 3.6,0 5.52,-1.414 5.52,-4.907 z m 53.132,6.507 v -6.827 c 0,-3.307 -1.893,-5.307 -5.28,-5.307 h -12.88 c -3.413,0 -5.307,2 -5.307,5.307 v 6.827 c 0,3.306 1.894,5.306 5.307,5.306 h 12.88 c 3.387,0 5.28,-2 5.28,-5.306 z m -5.68,-3.414 c 0,4.107 -0.747,4.614 -3.227,4.614 h -5.653 c -2.533,0 -3.227,-0.56 -3.227,-4.614 0,-3.866 0.667,-4.613 3.227,-4.613 h 5.653 c 2.48,0 3.227,0.587 3.227,4.613 z m 27.07,8.72 v -4.106 h -10.386 c -2.498,0 -3.182,-0.56 -3.182,-4.614 0,-3.866 0.657,-4.613 3.182,-4.613 h 10.386 v -4.107 h -13.936 c -3.366,0 -5.233,2 -5.233,5.307 v 6.827 c 0,3.306 1.867,5.306 5.233,5.306 z m 25.664,-17.474 -6.785,0.034 -3.526,7.334 c -0.406,0.844 -0.297,1.253 -1.298,1.253 h -4.743 v 4.347 h 4.925 c 0.974,0 1.11,0.106 1.407,1.146 l 2.35,3.36 h 6.696 l -4.188,-4.94 c -0.873,-1.536 -0.964,-1.562 0.227,-3.56 z m -17.596,17.474 v -20.426 h -5.895 v 20.426 z"
       id="path1"
       style="fill:#ffffff" />
    <path
       d="m 231.558,188.71 c 0,-3.867 -1.92,-5.627 -5.52,-5.627 h -12.613 c -3.414,0 -5.307,2 -5.307,5.307 v 6.827 c 0,3.306 1.893,5.306 5.307,5.306 h 17.307 v -4.106 h -13.707 c -2.56,0 -3.227,-0.747 -3.227,-4.587 0,-4.053 0.693,-4.64 3.227,-4.64 h 8.053 c 0.854,0 1.254,0.4 1.254,1.493 0,1.254 -0.507,1.494 -1.28,1.494 h -10.134 v 3.44 h 11.12 c 3.6,0 5.52,-1.414 5.52,-4.907 z m 12.039,11.813 v -4.106 h -2.106 c -2.267,0 -2.694,-0.534 -2.694,-2.96 v -6.267 h 4.8 v -4.107 h -4.8 v -2.986 h -5.813 v 15.12 c 0,3.306 1.893,5.306 5.307,5.306 z m 26.661,0 v -4.106 h -10.386 c -2.498,0 -3.182,-0.56 -3.182,-4.614 0,-3.866 0.658,-4.613 3.182,-4.613 h 10.386 v -4.107 h -13.936 c -3.365,0 -5.232,2 -5.232,5.307 v 6.827 c 0,3.306 1.867,5.306 5.232,5.306 z m 25.632,-5.306 v -6.827 c 0,-3.307 -1.893,-5.307 -5.28,-5.307 h -12.88 c -3.413,0 -5.306,2 -5.306,5.307 v 6.827 c 0,3.306 1.893,5.306 5.306,5.306 h 12.88 c 3.387,0 5.28,-2 5.28,-5.306 z m -5.68,-3.414 c 0,4.107 -0.746,4.614 -3.226,4.614 h -5.654 c -2.533,0 -3.226,-0.56 -3.226,-4.614 0,-3.866 0.666,-4.613 3.226,-4.613 h 5.654 c 2.48,0 3.226,0.587 3.226,4.613 z m 39.503,8.72 V 188.08 c 0,-3.392 -1.894,-5.443 -5.307,-5.443 h -26.773 v 17.887 h 5.813 V 188.38 c 0,-1.367 0.16,-1.531 1.253,-1.531 h 4.827 c 1.067,0 1.253,0.164 1.253,1.531 v 12.144 h 5.787 V 188.38 c 0,-1.367 0.187,-1.531 1.253,-1.531 h 4.827 c 1.093,0 1.253,0.164 1.253,1.531 v 12.144 z m 25.611,-5.576 v -7.049 c 0,-3.414 -1.937,-5.48 -5.4,-5.48 h -13.172 c -3.49,0 -5.427,2.066 -5.427,5.48 v 15.612 h 5.945 v -13.795 c 0,-2.505 0.436,-3.056 2.754,-3.056 h 6.191 c 2.536,0 3.3,0.606 3.3,4.763 0,4.24 -0.764,4.764 -3.3,4.764 h -7.99 v 4.24 h 11.699 c 3.463,0 5.4,-2.065 5.4,-5.48 z m 24.52,0 V 182.419 H 373.9 v 10.71 c 0,2.506 -0.436,3.057 -2.755,3.057 h -5.7 c -2.317,0 -2.754,-0.55 -2.754,-3.056 v -10.711 h -5.945 v 12.528 c 0,3.414 1.936,5.48 5.427,5.48 h 12.245 c 3.49,0 5.427,-2.066 5.427,-5.48 z m 11.753,5.576 v -4.287 h -2.106 c -2.267,0 -2.694,-0.557 -2.694,-3.09 v -6.542 h 4.8 v -4.287 h -4.8 v -3.118 h -5.813 v 15.784 c 0,3.452 1.893,5.54 5.307,5.54 z m 24.846,-12.334 c 0,-4.038 -1.92,-5.875 -5.52,-5.875 H 398.31 c -3.414,0 -5.307,2.088 -5.307,5.54 v 7.128 c 0,3.453 1.893,5.541 5.307,5.541 h 17.306 v -4.288 H 401.91 c -2.56,0 -3.227,-0.78 -3.227,-4.789 0,-4.232 0.693,-4.844 3.227,-4.844 h 8.053 c 0.853,0 1.253,0.417 1.253,1.559 0,1.308 -0.506,1.559 -1.28,1.559 h -10.133 v 3.592 h 11.12 c 3.6,0 5.52,-1.476 5.52,-5.123 z m 12.037,-1.587 v -4.288 h -5.307 c -3.413,0 -5.307,2.088 -5.307,5.54 v 12.67 h 5.814 v -10.832 c 0,-2.534 0.426,-3.09 2.693,-3.09 z m -292.351,2.743 c 0,-4.718 -3.032,-6.61 -5.983,-6.61 h -10.503 c -3.465,0 -5.387,2.057 -5.387,5.458 v 12.562 h 5.901 v -12.26 c 0,-1.372 0.163,-1.536 1.273,-1.536 h 6.497 c 1.543,0 2.463,0.685 2.463,2.304 0,1.618 -0.92,2.358 -2.463,2.358 h -6.633 v 4.307 h 8.852 c 2.951,0 5.983,-1.865 5.983,-6.583 z"
       id="path2"
       style="fill:#ffffff" />
  </g>
  <path
     d="m 33.94,1.622 a 1,1 0 0 0 -1,1 v 3.315 l -0.828,0.971 h -4.924 a 1,1 0 1 0 0,2 h 4.637 l 1.115,1.017 v 13.013 a 1,1 0 1 0 2,0 V 9.902 l 1.082,-0.995 h 5.603 a 1,1 0 1 0 0,-2 H 35.933 L 34.94,5.877 V 2.622 a 1,1 0 0 0 -1,-1 z"
     fill="#666666"
     id="path3"
     style="fill:#ffffff" />
  <circle
     cx="40.07"
     cy="2.7180004"
     fill="#666666"
     r="1.5"
     id="circle3"
     style="fill:#ffffff" />
  <g
     stroke-linecap="round"
     stroke-linejoin="round"
     id="g10"
     transform="translate(-0.619,-10.658)">
    <path
       d="m 40.687,13.202 v 5.272"
       fill="none"
       stroke="#666666"
       stroke-width="1.5"
       id="path4"
       style="stroke:#ffffff" />
    <path
       d="m 56.823,31.207 c 6.898,-1.83 6.92,-6.992 7.55,-11.896 M 58.758,18.68 c 0.006,0.934 -0.005,1.832 0.325,3.45 m -5.868,-2.346 c 0.349,0.373 0.694,0.616 1.124,3.52 M 80.375,16.97 89.65,16.547 C 88.537,24.19 85.446,29.645 78.926,32.2 m -2.635,-9.51 c 1.813,-2.072 3.623,-3.776 5.191,-9.16"
       fill="none"
       stroke="#666666"
       stroke-width="2"
       id="path5"
       style="stroke:#ffffff" />
    <path
       d="m 101.822,11.518 a 1,1 0 0 0 -1.004,0.994 l -0.015,3.113 c -0.809,0.17 -1.599,0.462 -2.307,1.021 a 1.0003125,1.0003125 0 1 0 1.24,1.57 c 0.335,-0.264 0.703,-0.29 1.055,-0.423 l -0.027,5.297 c -0.689,0.837 -1.314,1.575 -2.653,2.982 a 1,1 0 0 0 0.446,1.65 c 0.773,0.226 1.502,0.16 2.183,-0.02 l -0.029,5.821 a 1.000018,1.000018 0 0 0 2,0.012 l 0.037,-7.213 c 0.254,-0.267 0.512,-0.247 0.7,-0.545 0.347,0.282 0.684,0.325 1.099,0.573 a 1.0006159,1.0006159 0 1 0 1.023,-1.72 c -0.132,-0.078 -0.738,-0.571 -1.216,-0.937 -0.24,-0.182 -0.385,-0.337 -0.791,-0.486 -0.05,-0.018 -0.157,-0.022 -0.229,-0.037 0.026,-0.04 0.086,-0.085 0.111,-0.125 0.126,-1.184 0.844,-2.396 1.49,-3.996 0.231,-0.574 0.35,-1.054 0.41,-1.89 a 1,1 0 0 0 -0.572,-1.085 c -0.63,-0.286 -1.305,-0.288 -1.97,-0.379 l 0.015,-3.174 a 1,1 0 0 0 -0.996,-1.003 z"
       fill="#666666"
       id="path6"
       style="fill:#ffffff" />
    <path
       d="m 107.219,18.937 6.855,0.031 m -7.649,13.135 8.145,-0.039 m -4.11,-18.922 -0.19,18.79 m 21.054,-17.019 c -0.796,5.74 -1.109,11.643 -4.846,15.762 -2.879,2.656 -6.535,-14.225 3.762,-16.56 12.517,0.71 7.378,17.296 2.384,17.799 m 15.516,-12.938 12.225,-0.128 -0.2,9.756 c -0.573,2.896 -2.029,2.354 -3.195,2.69 m -8.65,0.074 c 3.904,-3.147 6.04,-5.552 5.703,-18.181 m 16.612,5.311 h 13.885 c -0.34,2.388 -1.661,4.526 -4.074,6.385 M 174.657,12.844 V 28.53 c 0.058,1.1 -0.105,2.511 2.607,2.408 l 7.313,-0.127 m 15.731,0.15 c 6.898,-1.83 6.921,-6.992 7.55,-11.896 m -5.615,-0.63 c 0.006,0.933 -0.005,1.831 0.325,3.45 M 196.7,19.538 c 0.35,0.373 0.694,0.617 1.125,3.52 m 23.833,-3.22 c 2.166,0.46 5.409,2.336 10.811,7.047 m -10.796,6.753 V 12.176 m 21.69,18.762 6.52,-1.558 m -2.991,-7.26 0.068,7.343 m -3.377,-7.24 5.847,-0.147 m 2.922,-10.418 c 1.226,12.964 1.647,19.646 3.546,20.44 1.43,-1.105 2.159,-2.04 2.692,-3.842 l -0.379,-1.034 M 242.752,16.595 257.556,16.55 c 0.277,-1.194 0.201,-2.388 -0.411,-3.582 m 19.498,5.549 -0.73,6.192 c -1.876,4.603 -3.669,4.84 -5.491,6.66 m -0.31,-13.61 10.887,0.368 m -14.708,4.564 c 1.813,-2.073 3.623,-3.777 5.191,-9.161 m 18.414,8.174 h 15.53 m 19.06,-0.501 4.93,10.629 m -1.69,-3.082 c -4.66,0.576 -9.057,1.532 -14.069,1.582 m 6.56,-17.054 c -1.095,6.14 -3.142,11.243 -4.713,16.865 m 24.414,0.704 c 6.476,-0.574 11.856,-7.03 12.023,-12.529 m -11.606,-3.776 c 0.747,0.56 1.455,1.112 2.943,1.829 m -4.867,4.143 c 0.51,0.045 0.928,-0.004 3.186,1.87 m 27.593,1.152 6.456,7.37 m -12.606,-16.09 9.51,-0.255 c -0.921,5.892 -4.398,11.192 -10.023,15.965 m 31.116,-9.172 c 0.512,5.087 -1.694,9.991 -4.651,10.23 M 385.446,20.67 h 14.867 m -12.932,-6.2 h 10.734 m 17.352,-1.193 -4.707,16.846 c 1.57,-5.614 3.612,-10.712 4.707,-16.846 z m -4.707,16.846 -1.854,0.209 c 5.012,-0.05 9.41,-1.005 14.07,-1.582 z m 8.976,-8.92 4.93,10.629 z"
       fill="none"
       stroke="#666666"
       stroke-width="2"
       id="path7"
       style="stroke:#ffffff" />
    <path
       d="m 27.48,31.438 c 1.303,-2.432 2.532,-4.91 3.424,-7.602 m 7.87,-0.061 c 0.73,2.986 1.742,5.262 2.801,7.419"
       fill="#ff0066"
       fill-opacity="0.437"
       stroke="#666666"
       stroke-width="2"
       id="path8"
       style="fill:none;stroke:#ffffff" />
    <path
       d="m 4.285,16.74 h 13.123 z m 6.426,0.147 V 29.889 Z M 2.813,30.03 H 18.69 Z"
       fill="#ff00ff"
       stroke="#666666"
       stroke-width="2"
       id="path9"
       style="fill:none;stroke:#ffffff" />
    <path
       d="m 277.73,13.452 3.364,0.424 0.247,-1.23 m -3.042,1.283 0.104,3.608"
       fill="none"
       stroke="#666666"
       stroke-width="1.5"
       id="path10"
       style="stroke:#ffffff" />
  </g>
  <path
     d="m 36.302,146.884 -0.397,0.004 1.024,-0.71 1.705,-1.709 -2.39,-1.55 1.226,-2.467 -1.306,-1.295 0.035,0.72 -3.612,3.11 -4.444,1.351 -1.058,0.942 0.168,-0.559 -1.662,-2.313 0.025,-2.039 0.718,2.317 0.91,-1.492 3.766,-2.743 3.098,-2.102 0.157,-1.697 0.355,-0.018 -0.163,-2.138 1.487,-5.261 0.195,1.302 2.905,0.376 -0.57,-5.289 1.712,-3.019 1.645,0.435 -1.072,1.096 1.942,-0.705 -1.254,0.057 0.904,-2.645 1.941,-2.418 2.907,-5.526 1.28,-6.399 -2.545,-1.41 -1.42,-1.433 -0.162,0.876 0.836,-0.024 -0.119,-0.197 0.811,-3.28 -1.485,-3.8 0.156,-3.593 -1.698,-0.916 -1.504,0.175 -0.38,2.056 -1.8,2.143 2.325,-0.175 -1.865,1.54 -1.52,5.131 -3.152,4.258 -3,0.834 -1.601,-0.353 -1.773,-1.96 -0.016,0.077 -1.2,-0.402 -3.017,2.495 -0.538,-0.813 1.067,1.962 -3.13,0.656 -1.238,-1.708 0.362,-1.587 -1.675,-0.423 0.093,-1.216 0.988,-0.705 2.758,-3.423 0.389,-4.13 1.2,-2.15 0.518,2.465 0.088,-7.555 1.454,-4.276 -1.589,-2.37 1.715,-2.834 0.492,-0.66 0.352,-4.677 0.291,-0.324 2.091,-3.863 -2.01,2.173 -0.432,-0.695 -1.75,-3.905 1.535,-1.155 -0.074,-0.621 0.821,-0.255 1.87,-0.985 1.436,-1.975 -3.73,-1.228 -0.926,-2.305 -0.166,0.52 1.457,-3.328 1.406,-1.15 4.358,-2.616 1.58,-0.434 1.52,-2.017 3.232,1.032 2.15,0.584 1.466,2.856 2.628,-0.61 -0.492,3.528 -0.435,0.65 0.898,0.164 0.298,-1.196 1.845,2.98 3.88,2.728 -0.198,0.29 -0.849,-0.37 -2.99,3.125 -3.923,2.65 2.59,1.181 1.381,0.425 -0.492,1.82 2.402,-2.639 10.183,0.063 10.176,-0.071 2.139,-0.461 2.302,-0.53 -0.338,1.604 -0.375,0.113 1.32,3.75 1.017,1.468 0.227,3.059 0.445,1.381 0.066,-0.27 0.112,5.302 -6.515,-1.945 -5.366,0.292 1.417,3.053 -2.755,-1.958 1.558,-1.134 1.41,2.254 -1.002,2.317 1.413,1.08 -3.018,-0.376 -0.545,-0.291 -0.499,1.346 0.613,2.14 -1.323,9.491 1.152,9.659 -0.72,4.198 0.036,4.646 -1.925,2.587 -0.02,3.762 -2.548,2.465 -2.835,5.643 -4.114,4.181 -4.348,5.9 -4.032,2.923 -4.138,1.391 -0.774,-3.408 -1.53,1.188 0.958,2.119 -0.162,1.86 z m 316.32,-2.577 -1.526,0.047 -1.649,-1.819 -5.001,-4.117 0.529,-3.44 -0.601,-2.684 0.855,-3.842 0.57,-3.64 1.512,0.589 -4.011,-0.651 2.492,-3.15 1.74,-5.932 -1.529,1.756 1.319,-1.459 5.3,-3.875 1.56,-1.118 6.9,-1.015 6.366,1.699 -1.297,-0.682 1.717,-3.292 2.109,0.994 4.671,-2.239 0.639,-2.494 4.444,-3.693 2.36,1.212 1.767,-2.373 2.353,-2.672 2.482,-2.289 4.02,-0.446 2.541,-0.132 0.383,-0.522 -1.989,-2.234 6.102,-3.058 3.893,-3.06 2.083,1.598 0.068,0.576 -1.973,2.577 -2.219,1.001 0.004,-0.324 0.081,2.149 3.342,-0.576 -0.515,-0.432 1.412,1.374 1.749,0.136 -2.684,1.967 -1.836,5.455 -0.294,1.323 -1.971,0.969 -1.458,-0.778 -4.128,1.233 -0.019,0.338 0.633,0.78 -0.464,3.463 -0.091,2.519 -3.129,1.861 -3.003,-2.141 2.319,0.826 -1.182,2.851 -1.808,0.152 1.23,3.4 -2.201,-0.241 -3.538,-0.086 -3.449,4.399 -4.687,6.15 -2.552,0.981 -0.009,0.302 -1.734,0.806 -2.324,2.09 0.916,0.764 0.01,-0.307 -1.58,0.898 -1.382,0.808 -3.594,5.451 -2.106,2.462 -1.838,0.564 -4.731,2.467 -1.354,-1.107 z m -158.876,-1.595 -1.533,0.88 0.184,-2.46 -1.138,0.065 0.918,-6.477 -0.249,-4.565 0.01,-3.034 1.272,-2.981 -0.457,-1.073 -0.733,-0.808 -0.265,-9.132 0.924,-7.176 -0.933,-2.505 -1.443,-0.188 -1.112,2.523 -1.277,1.843 -0.531,3.118 -1.011,3.724 -0.331,4.122 -1.089,0.596 -2.298,0.569 -0.752,0.188 -1.585,-0.243 0.199,3.602 -0.296,0.376 -0.126,1.471 1.855,0.352 -0.985,1.024 1.449,-3.714 -1.306,-0.629 2.381,-0.489 0.296,1.915 -2.823,2.325 -1.633,5.527 0.574,1.167 -0.759,2.627 -0.074,2.968 -1.498,1.93 -1.792,0.96 -2.305,-1.915 0.935,-1.985 -1.28,-0.842 -0.857,-0.952 0.729,-1.93 -0.446,-1.453 -2.285,-0.051 -0.925,-5.129 -0.126,-2.663 -0.126,-0.01 0.474,1.148 1.407,-4.358 -0.503,-2.852 2.039,-0.565 1.626,-2.442 -0.312,-0.789 2.139,-3.905 -1.475,-1.288 -2.682,-3.447 1.304,-1.86 0.835,-5.148 2.148,-1.657 2.524,-2.063 0.206,-2.052 -1.253,-1.722 -3.717,-0.907 -1.206,1.276 -3.985,-1.945 -2.874,-4.152 1.945,-4.738 -1.611,-6.75 3.541,-0.749 1.375,-2.111 -0.323,0.053 0.232,-0.789 -0.243,0.795 3.746,-0.903 0.02,-1.313 -1.465,-1.706 9.168,1.36 9.906,-1.198 -1.281,-2.842 -1.249,-3.624 -0.437,0.394 -3.104,-1.406 0.617,-2.982 0.001,-2.537 2.002,-2.507 2.442,-0.863 3.6,-1.843 3.76,-3.369 -0.204,-0.01 2.125,-2.43 0.724,1.343 1.179,1.61 -1.116,0.754 -0.402,-0.252 4.351,2.547 1.46,1.817 1.515,1.703 2.424,5.013 -0.352,3.85 -3.201,2.828 1.942,0.835 1.377,1.026 0.825,0.464 3.165,-2.48 2.439,-0.869 1.82,0.883 3.86,-0.25 5.981,3.968 2.382,2.3 -1.755,-1.51 1.779,3.068 1.981,2.925 -0.951,1.11 0.442,0.656 -1.587,-1.145 0.859,1.429 -3.976,3.301 -0.379,4.531 -0.06,-1.791 -1.145,1.013 0.663,0.36 0.016,2.29 -3.277,-2.522 -3.098,0.563 2.659,2.033 -2.808,0.93 -5.643,0.033 -4.709,-0.196 -1.09,0.13 -1.397,1.465 1.876,3.288 -1.029,3.772 -1.569,11.818 1.129,7.291 -0.983,4.757 -1.401,3.627 0.631,2.244 0.387,6.289 -1.289,3.204 -0.208,6.501 -1.722,-1.001 -2.625,-1.189 -1.377,0.456 -1.408,-0.154 -0.766,-5.429 -1.449,-3.239 0.61,-1.757 -0.312,2.093 -1.2,2.716 -0.377,0.955 -0.137,3.021 -0.269,4.534 z m -3.836,-47.333 1.059,-0.201 2.295,-2.219 -1.122,-2.413 -0.685,-0.591 -2.759,-2.459 -4.782,2.303 -3.86,0.027 0.029,0.046 0.126,0.02 0.869,0.804 0.539,1.955 1.824,-0.338 3.35,0.698 0.809,1.883 2.449,0.221 -0.636,0.644 z m 54.949,46.557 -1.978,1.472 -1.067,-3.924 0.107,-2.43 3.866,-4.592 3.207,-9.74 1.118,1.454 -3.932,-1.038 5.449,-2.861 1.293,-2.471 1.662,-2.489 -0.476,-0.169 0.592,-2.424 0.788,-0.863 1.476,-10.292 1.48,-10.372 -1.31,-1.829 0.986,-1.914 -3.796,0.303 -1.823,0.323 -1.449,0.329 -2.768,2.523 0.179,1.016 0.218,0.622 -1.766,2.958 -0.408,1.011 -3.447,3.245 1.158,3.771 -2.526,-0.243 -1.771,0.25 -0.405,-1.146 0.725,-1.339 -1.417,-1.564 0.722,-3.469 0.979,-1.947 2.065,-2.497 -1.354,-0.732 -0.443,-1.523 -2.037,3.264 -2.729,3.117 -1.721,-1.989 -2.123,1.29 2.584,-5.893 3.32,-3.843 1.239,-3.583 -3.102,-2.79 1.608,0.902 2.93,-1.757 -1.37,-4.029 0.416,-5.521 1.453,0.34 -0.407,0.358 1.092,-4.521 -0.449,-5.59 4.408,-1.11 0.468,-1.798 3.559,-2.134 5.153,-0.064 2.127,-0.386 1.937,1.088 -1.556,0.488 4.399,-1.631 0.631,2.752 0.64,1.194 0.764,5.394 0.105,2.472 -1.428,1.379 -2.66,1.51 1.897,2.43 -1.424,1.214 1.589,-2.017 1.548,0.692 1.152,0.034 -3.585,1.563 3.341,-2.886 2.672,-0.345 8.695,-0.996 10.513,0.08 -1.229,2.571 -0.207,-1.758 -1.94,2.775 -1.099,-0.819 -0.401,2.198 1.873,3.834 -1.991,-0.109 -2.941,2.732 2.385,2.166 5.186,-0.394 -0.241,1.596 0.935,1.951 -0.855,-0.622 0.79,1.935 -6.31,-0.47 -4.738,2.396 -0.933,-0.873 -0.466,1.53 -0.847,2.904 2.342,3.515 -0.531,-0.546 -2.364,-0.854 -1.434,5.943 0.835,3.344 -2.073,5.617 -0.006,2.007 -0.22,1.241 2.636,1.922 -1.048,1.12 0.446,1.258 -4.575,2.143 -2.016,2.236 0.612,1.037 0.686,1.473 -1.165,0.029 -0.114,2.123 -0.659,1.156 1.701,-1.309 -3.512,2.402 -1.779,4.305 -1.37,1.316 2.041,1.798 -3.159,-0.208 0.252,1.113 -3.191,1.913 -1.281,0.048 -1.987,0.894 2.04,2.727 -4.143,1.499 -1.326,-0.508 -1.881,-1.442 1.427,-3.084 -2.574,2.152 -1.149,0.462 0.981,1.424 -1.004,0.594 -1.045,-0.327 z m 58.583,-1.587 -2.306,0.019 -0.565,0.875 -2.171,-0.513 -2.595,-4.254 -3.715,-2.035 1.243,-4.509 0.967,-0.122 -4.561,-1.18 0.92,0.546 1.825,-3.722 1.304,-1.584 -0.189,-0.28 0.239,-1.633 -0.973,2.351 -4.349,0.646 2.132,-2.764 1.128,-2.877 1.433,-2.534 0.108,1.237 2.683,-1.717 2.455,-0.747 9.424,-1.069 11.906,1.845 0.498,-1.348 3.251,0.376 -3.644,-3.55 -0.195,-1.267 2.376,-8.094 -0.864,-8.166 1.304,-0.561 0.046,-1.864 -1.037,-1.955 -3.881,-3.07 -0.972,0.273 -2.716,0.19 -0.244,2.598 -2.991,0.325 -1.13,-2.242 -1.172,-0.236 -1.019,1.35 3.031,0.39 -4.74,0.964 -2.563,0.776 -2.755,1.726 -2.033,-0.9 -3.87,-2.092 -1.582,2.438 -0.33,-2.803 1.493,-3.32 -1.45,0.657 -1.138,-2.924 1.498,-1.159 -0.501,0.018 -0.423,-2.1 -3.299,0.975 1.676,-4.396 0.75,-4.203 5.234,-3.455 1.546,-3.019 3.583,-1.433 h 1.631 l 3.134,1.518 2.841,1.534 8.065,-1.007 10.519,1.382 -1.87,-1.742 0.917,-0.48 7.327,0.06 3.489,-0.426 0.861,4.018 0.889,2.775 1.848,3.587 1.583,0.79 -0.714,4.882 0.141,1.84 -2.212,2.499 -2.211,4.086 -0.47,7.782 0.931,5.444 -2.079,1.013 -0.108,1.294 -0.29,2.244 -1.065,0.872 2.252,4.054 -0.668,1.5 2.21,3.571 2.185,1.397 -0.162,1.063 0.142,1.775 -0.364,5.222 -2.043,6.991 -1.824,0.609 -1.812,2.144 -5.143,-2.028 -6.12,-0.222 -2.671,1.458 -3.158,-1.298 -3.94,1.342 -6.386,0.612 -1.42,0.234 -1.361,4.445 -0.143,-2.63 z m 24.789,-26.259 3.161,2.035 -2.184,-1.239 0.698,-3.02 -1.358,2.11 -1.478,-1.629 2.032,0.89 -0.57,1.223 z m 3.248,-4.178 -0.729,-0.544 0.406,-3.314 -0.302,-3.103 -0.615,-0.755 -1.163,-0.554 0.543,0.918 0.188,3.705 c -0.768,0.802 1.777,1.776 -2.304,2.406 l 2.673,0.828 z m -105.148,28.17 -1.171,0.053 0.914,-4.103 -0.611,-0.909 -0.988,-0.203 -1.848,1.025 -1.179,-2.466 -2.994,-1.79 1.598,-1.748 1.416,-0.72 -1.062,-1.842 -1.756,0.439 -0.704,-1.222 0.105,-3.837 -2.942,-2.255 -0.717,-2.433 1.068,-0.116 1.072,0.581 -2.418,-3.627 -0.988,-3.595 -1.33,1.194 0.56,-0.759 -1.677,-6.917 1.692,-5.379 2.621,-2.583 2.083,-2.839 1.977,2.021 1.42,2.481 3.774,-2.042 1.491,0.262 1.151,1.093 1.725,1 2.037,4.625 -1.786,3.795 1.792,9.518 0.034,6.862 2.638,2.934 -0.183,2.994 -3.821,3.236 -2.76,2.893 2.414,2.946 -1.355,-1.426 -0.092,1.155 z m -110.542,-3.739 -4.858,-0.433 0.136,-0.859 -2.278,-0.823 -1.361,-1.513 1.059,-2.138 -2.004,0.906 -0.735,-1.321 -0.732,-0.745 -1.179,-0.474 0.408,-2.569 1.431,-2.629 1.435,-1.575 1.978,-3.134 -0.699,1.484 -3.024,-2.36 3.647,-1.257 0.245,-0.93 3.29,-2.245 1.279,0.584 0.952,-4.29 3.297,-2.365 0.278,-1.709 0.509,-2.382 0.082,-0.889 2.263,-1.89 -1.144,-4.508 1.077,-4.644 1.187,-7.223 1.224,-9.12 0.012,-2.852 1.383,-0.62 0.582,-0.94 -1.474,-3.656 1.778,-5.439 4.051,-4.88 1.477,-0.691 3.671,0.795 1.365,-0.947 4.071,-0.84 0.124,2.974 -1.586,1.125 0.44,2.42 -1.149,1.538 0.608,0.91 0.355,0.693 2.809,-2.863 2.116,-1.021 1.023,3.458 2.454,0.51 0.9,1.346 -1.067,1.774 0.75,2.192 -0.202,0.875 -1.416,5.147 -1.299,1.883 -0.592,-2.516 2.163,-0.622 -1.99,1.533 -2.742,2.563 -0.795,4.37 -0.65,2.556 0.468,-1.184 -3.071,1.149 -0.345,1.64 0.437,-0.657 1.737,1.079 0.768,1.591 -1.147,0.621 0.239,2.44 -1.841,0.846 -1.953,3.217 -0.422,1.916 -0.806,0.534 -1.351,4.421 -1.746,3.807 0.869,1.223 -0.168,1.157 -1.792,1.289 -0.589,-0.273 -1.342,1.73 1.141,3.052 3.178,-2.309 2.951,1.687 2.55,-0.759 1.495,-0.885 2.583,-1.757 -2.282,-0.355 2.317,-1.875 0.269,-1.68 -1.285,-1.713 -2.553,-1.311 1.476,-2.234 2.355,-4.062 2.896,-2.315 1.474,-0.981 3.946,0.075 3.821,-1.57 2.841,5.102 2.209,4.227 1.501,4.257 -1.922,4.249 1.482,3.289 1.647,0.262 0.306,3.195 1.443,4.008 -0.246,0.992 1.944,1.518 -2.022,3.898 0.583,4.209 -3.808,-0.166 -0.667,-0.142 -1.097,3.022 -0.449,-0.171 -3.37,0.136 -3.862,0.691 -2.633,-1.811 -0.977,0.317 -0.667,-2.408 1.588,-1.077 -0.734,1.229 -2.093,-1.093 -1.002,-2.972 2.233,-1.277 -4.608,-0.316 -0.216,0.246 0.113,1.575 -0.451,0.292 0.214,0.161 -2.258,-1.581 -5.547,1.847 -6.09,2.454 -1.452,1.175 -2.866,2.722 -2.284,-1.453 -1.679,1.289 -4.188,0.046 z m -35.897,-27.268 -2.96,1.347 -2.321,-3.691 -2.73,-2.653 3.424,-2.185 -3.223,-2.881 -0.3,-0.151 1.675,-1.229 -3.25,0.869 -0.317,0.828 0.506,-4.828 2.32,-2.862 0.326,-0.259 -1.434,-1.161 2.067,-0.574 3.355,-0.722 -1.799,0.702 2.358,-2.456 3.736,1.742 2.074,-2.536 6.032,1.967 4.827,-1.357 7.911,1.334 9.96,-0.821 0.278,0.384 0.716,1.623 -2.28,3.224 0.351,-0.268 0.32,0.576 1.613,1.599 -3.731,0.868 -1.14,2.862 -0.806,0.249 1.023,0.136 1.884,0.484 3.886,-3.572 -1.073,3.972 1.389,1.303 -2.349,0.142 -2.772,0.045 -1.356,3.044 -2.264,0.391 -7.142,1.123 -4.363,0.268 -5.597,-0.974 -6.246,2.365 -0.656,-0.004 0.791,1.645 -4.316,-0.242 z m 35.741,-11.7 -0.423,1.007 -0.072,-2.519 -0.325,3.588 -0.859,-1.146 3.403,-0.644 -1.986,0.532 0.726,1.685 z m 252.39,-4.654 -4.949,-0.59 -2.996,-0.975 -2.635,-3.135 -0.536,-0.305 -2.967,1.508 -1.707,-1.86 -1.204,-1.968 -2.181,-4.683 -3.562,-1.78 0.053,-5.553 2.955,-4.768 0.615,-2.857 1.598,-3.176 4.413,-1.59 5.403,-4.057 2.732,1.77 2.642,0.365 2.553,0.265 0.326,-1.829 2.281,1.89 4.839,2.686 0.717,2.556 -0.785,2 1.936,1.517 0.95,0.15 -1.179,0.894 0.309,2.512 -2.348,6.952 1.66,4.573 -1.761,1.598 -1.742,-0.897 0.107,4.458 1.09,1.684 -2.892,-0.67 -2.209,2.053 z m -297.38,-2.764 -2.042,-1.565 0.39,-1.754 -0.577,-0.687 0.587,0.161 2.74,-0.21 -1.068,2.596 1.12,0.179 z m 9.004,-17.036 -1.966,-0.859 -0.319,-1.276 -1.627,-1.24 1.696,-0.901 2.68,-0.835 -0.427,2.267 1.716,-0.373 0.554,-0.634 -2.046,2.322 z m -9.823,-10.812 -6.58,1.875 -1.554,-3.677 -0.67,-3.25 0.62,-1.58 2.106,0.1 -1.661,-0.592 -0.257,-2.148 3.576,-0.224 3.407,-3.827 -2.677,0.37 2.265,0.218 0.527,-0.468 2.526,0.046 2.184,2.61 2.986,-0.084 0.4,5.205 2.64,4.827 -1.69,0.98 -0.806,1.077 z m 159.009,0.617 -4.222,1.506 -0.545,-2.139 -1.719,0.225 -1.013,-2.118 -1.715,-0.03 -2.906,-0.6 0.49,-2.115 0.223,-2.024 -1.516,-3.873 0.171,-1.944 -1.06,-3.442 5.429,-1.687 5.393,-3.933 1.183,-0.858 5.042,-1.055 0.497,1.458 2.709,3.25 -0.145,2.435 -0.113,-1.425 3.099,1.87 0.291,0.67 0.313,3.4 -0.976,2.967 -1.828,1.896 -0.966,0.588 0.654,0.534 0.244,3.547 -2.546,0.455 -1.425,2.064 z m -0.44,-9.672 -0.079,0.577 0.054,-0.823 0.499,-4.511 -2.155,1.144 0.012,-0.746 -3.972,1.61 1.045,2.317 -2.655,0.121 1.263,-0.01 3.221,0.791 2.181,0.398 -0.765,1.268 z m -142.548,6.692 -1.846,1.817 -2.174,-2.433 -0.273,-1.606 0.205,0.005 -0.085,-2.07 -1.146,1.272 0.672,-1.001 -1.796,-1.932 1.049,-1.577 2.227,-2.653 1.082,-2.426 2.261,0.861 2.23,-0.549 0.412,1.992 2.736,-1.466 -1.525,5.136 0.674,0.871 1.11,-0.356 1.94,1.075 0.483,1.675 -1.128,-0.861 -1.648,3.03 -3.956,2.84 z"
     fill="#d09607"
     id="path11"
     style="display:inline;fill:#ffffff" />
</svg>
