<?xml version="1.0" encoding="UTF-8" standalone="no"?>
<!-- Generator: Adobe Illustrator 25.0.0, SVG Export Plug-In . SVG Version: 6.00 Build 0)  -->

<svg
   version="1.1"
   id="Layer_1"
   x="0px"
   y="0px"
   viewBox="0 0 650 182.57545"
   xml:space="preserve"
   sodipodi:docname="gamecom.svg"
   width="650"
   height="182.57545"
   inkscape:version="1.3 (0e150ed, 2023-07-21)"
   xmlns:inkscape="http://www.inkscape.org/namespaces/inkscape"
   xmlns:sodipodi="http://sodipodi.sourceforge.net/DTD/sodipodi-0.dtd"
   xmlns="http://www.w3.org/2000/svg"
   xmlns:svg="http://www.w3.org/2000/svg"><defs
   id="defs24">&#10;	&#10;	&#10;&#10;		&#10;		&#10;		&#10;		&#10;		&#10;		&#10;		&#10;		&#10;		&#10;		&#10;		&#10;		&#10;		&#10;		&#10;		&#10;		&#10;		&#10;		&#10;		&#10;	</defs><sodipodi:namedview
   id="namedview24"
   pagecolor="#ffffff"
   bordercolor="#000000"
   borderopacity="0.25"
   inkscape:showpageshadow="2"
   inkscape:pageopacity="0.0"
   inkscape:pagecheckerboard="0"
   inkscape:deskcolor="#d1d1d1"
   inkscape:zoom="1.0584615"
   inkscape:cx="325"
   inkscape:cy="85.501453"
   inkscape:window-width="1392"
   inkscape:window-height="1212"
   inkscape:window-x="0"
   inkscape:window-y="25"
   inkscape:window-maximized="0"
   inkscape:current-layer="Layer_1" />&#10;<style
   type="text/css"
   id="style1">&#10;	.st0{fill:#CDD4D6;}&#10;	.st1{fill:#FF0000;}&#10;	.st2{fill:#A8A8A8;}&#10;</style>&#10;<path
   id="path1"
   class="st2"
   d="m 496.16654,69.350128 c -27.23561,0 -44.16249,16.927204 -44.16249,44.162822 0,27.23563 16.92688,44.16283 44.16249,44.16283 27.23564,0 44.16283,-16.9272 44.16283,-44.16283 0,-27.235618 -16.92719,-44.162822 -44.16283,-44.162822 z M 35.834511,69.925715 C 14.72648,69.925715 8.091e-6,87.343933 8.091e-6,112.27748 c 0,24.93354 14.726537909,42.35143 35.817641909,42.35143 h 16.284053 c -0.964841,1.28645 -2.505212,2.13274 -4.231771,2.13274 H 10.714984 c -2.2851515,0 -4.1302743,1.84512 -4.1302743,4.13028 v 17.55325 c 0,2.26823 1.8620499,4.11335 4.1302743,4.13027 h 41.065038 c 16.740851,0 30.299479,-13.57555 30.299479,-30.29947 V 74.05599 c 0,-2.285153 -1.845121,-4.130275 -4.130274,-4.130275 z m 55.419337,0 c -2.285153,0 -4.130274,1.845122 -4.130274,4.130275 v 17.553253 c 0,2.285153 1.845121,4.130274 4.130274,4.130274 h 37.138092 c 2.33593,0 4.3332,1.523441 5.02721,3.639323 h -21.63262 c -15.454394,0 -28.606768,12.64456 -28.352862,28.09896 0.253906,15.01429 12.542867,27.15111 27.624872,27.15111 h 47.41269 c 2.28516,0 4.13028,-1.84513 4.13028,-4.13028 v -50.27344 c 0,-16.740847 -13.57556,-30.299475 -30.29948,-30.299475 z m 79.523572,0 c -2.28515,0 -4.13027,1.845122 -4.13027,4.130275 v 76.44264 c 0,2.28515 1.84512,4.13028 4.13027,4.13028 h 20.65104 c 2.28516,0 4.13028,-1.84513 4.13028,-4.13028 V 95.739517 h 10.90077 v 54.742253 c 0,2.28515 1.84512,4.13028 4.13028,4.13028 h 20.65104 c 2.28515,0 4.13027,-1.84513 4.13027,-4.13028 V 95.722656 h 5.6028 c 2.92839,0 5.29831,2.369931 5.29831,5.298314 v 49.47766 c 0,2.28515 1.86205,4.13028 4.13028,4.13028 h 20.65104 c 2.28516,0 4.12994,-1.84513 4.12994,-4.13028 v -50.27344 c 0,-16.740847 -13.57556,-30.299475 -30.29948,-30.299475 z m 141.51042,0 c -21.09111,0 -35.83484,17.418218 -35.83484,42.351765 0,24.93354 14.74373,42.35143 35.83484,42.35143 v -0.0337 h 24.87157 c -0.62346,1.46332 -1.0031,2.89424 -1.0553,4.2655 -0.10156,2.84374 0.96491,5.39961 3.03001,7.22773 1.50652,1.32031 4.14707,2.91166 8.2265,2.91166 1.21875,0 2.52207,-0.15228 3.91009,-0.44004 0.76172,0.1862 1.55756,0.28763 2.38699,0.28763 3.63932,0 6.83834,-1.89578 8.68339,-4.75645 1.28646,-0.71094 2.62363,-1.54056 3.99472,-2.40384 2.11589,-0.3724 4.11342,-1.13405 5.89076,-2.21738 0.0508,-0.0677 0.1017,-0.0845 0.13555,-0.11836 2.35287,-1.4388 4.35013,-3.41921 5.78893,-5.77207 l 0.0509,-0.10183 c 0.35547,-0.57552 0.67695,-1.18476 0.96471,-1.81106 3.39278,-3.3369 7.11679,-7.62339 9.69307,-11.96467 6.34876,9.35191 16.24391,14.92691 28.17268,14.92691 v -0.0337 h 31.26452 c 2.28516,0 4.13028,-1.84512 4.13028,-4.13027 v -17.53639 c 0,-2.28516 -1.84512,-4.13028 -4.13028,-4.13028 h -25.83066 c -2.47135,0 -10.49479,-1.18512 -10.49479,-16.53796 0,-15.352829 8.04036,-16.537624 10.49479,-16.537624 h 25.83066 c 2.28516,0 4.13028,-1.845121 4.13028,-4.130274 V 74.05599 c 0,-2.285153 -1.84512,-4.130275 -4.13028,-4.130275 h -31.26452 c -21.10804,0 -35.8345,17.418218 -35.8345,42.351765 0,3.226 0.25157,6.32291 0.727,9.27584 -4.70175,0.17281 -10.41534,2.77686 -15.43671,5.70462 -0.93099,-0.16927 -1.8787,-0.27103 -2.84354,-0.28795 -0.11849,0 -0.23725,-0.0169 -0.35574,-0.0169 -0.59245,0 -1.16777,0.0339 -1.74329,0.0846 -0.1862,0.0169 -0.3554,0.0508 -0.52467,0.0846 -0.38932,0.0508 -0.77871,0.10149 -1.16804,0.18613 -0.22005,0.0508 -0.44017,0.10156 -0.66022,0.16927 -0.32162,0.0846 -0.6431,0.15234 -0.96471,0.2539 -0.25391,0.0677 -0.49102,0.16928 -0.728,0.25391 -0.28776,0.10156 -0.55866,0.18633 -0.82949,0.30482 -0.25391,0.10156 -0.50782,0.22005 -0.76172,0.33854 -0.23698,0.11849 -0.49069,0.21999 -0.72767,0.3554 -0.27083,0.13542 -0.52501,0.2877 -0.77891,0.44004 -0.20313,0.11849 -0.42304,0.25404 -0.62617,0.38946 -0.27083,0.16927 -0.52467,0.35533 -0.77858,0.54153 -0.18619,0.13542 -0.3554,0.25397 -0.52467,0.40632 -0.27083,0.20312 -0.52474,0.42324 -0.76172,0.66022 -0.15234,0.13542 -0.28803,0.25397 -0.44037,0.40632 -0.25391,0.2539 -0.50754,0.50781 -0.74452,0.76172 -0.11849,0.13541 -0.23725,0.2537 -0.35574,0.38912 -0.25391,0.28776 -0.49068,0.57572 -0.72766,0.88041 -0.0846,0.11849 -0.18613,0.23691 -0.27077,0.3554 -0.23698,0.32161 -0.45703,0.66022 -0.67708,0.99876 -0.0677,0.10157 -0.13562,0.21979 -0.20333,0.32135 -0.22005,0.3724 -0.42311,0.72813 -0.60931,1.11746 v -3.72396 c 0,-2.28516 -1.84512,-4.13028 -4.13027,-4.13028 h -25.83067 c -1.30338,0 -4.5871,-0.35547 -7.14309,-3.63932 h 32.97376 c 2.28515,0 4.13027,-1.84512 4.13027,-4.13027 v -17.5364 c 0,-2.28515 -1.84512,-4.130271 -4.13027,-4.130271 h -32.97376 c 2.53906,-3.283847 5.83971,-3.639323 7.14309,-3.639323 h 25.83067 c 2.28515,0 4.13027,-1.845121 4.13027,-4.130274 V 74.05599 c 0,-2.285153 -1.84512,-4.130275 -4.13027,-4.130275 z m 233.30578,0 c -2.28515,0 -4.12993,1.845122 -4.12993,4.130275 v 76.44264 c 0,2.28515 1.84478,4.13028 4.12993,4.13028 h 20.65105 c 2.28515,0 4.13027,-1.84513 4.13027,-4.13028 V 95.739517 h 10.90111 v 54.742253 c 0,2.28515 1.84512,4.13028 4.13028,4.13028 h 20.65104 c 2.28516,0 4.13028,-1.84513 4.13028,-4.13028 V 95.722656 h 5.60279 c 2.92839,0 5.29798,2.369931 5.29798,5.298314 v 49.47766 c 0,2.28515 1.84512,4.13028 4.13027,4.13028 h 20.65104 c 2.28516,0 4.13028,-1.84513 4.13028,-4.13028 v -50.27344 c 0,-16.740847 -13.57555,-30.299475 -30.29948,-30.299475 z m -49.42708,6.330795 c 22.78382,0 37.27364,13.32153 37.27364,37.27331 0,23.95177 -14.48982,37.27363 -37.27364,37.27363 -22.78379,0 -37.2733,-13.32186 -37.2733,-37.27363 0,-23.95178 14.48951,-37.27331 37.2733,-37.27331 z M 94.013095,76.798045 h 38.305795 c 12.93226,0 23.41029,10.478024 23.41029,23.410285 v 6.04284 12.03542 17.41771 12.03542 H 140.5963 111.0754 c -11.442688,0 -20.73568,-9.27607 -20.73568,-20.73568 0,-11.44269 9.276065,-20.73568 20.73568,-20.73568 h 17.09635 v -0.0341 h 12.40769 v -5.23054 c 0,-6.68618 -5.46753,-12.170305 -12.17064,-12.170305 H 94.013095 Z m -58.178584,0.01719 H 60.057432 75.18998 v 12.03509 46.837105 12.03509 4.53659 c 0,12.93227 -10.477693,23.4103 -23.409958,23.4103 H 13.4739 v -12.03543 h 34.396032 c 6.686184,0 12.170309,-5.46719 12.170309,-12.17031 v -3.72395 h -24.20573 c -18.907514,0 -28.9453122,-16.94405 -28.9453122,-35.46224 0,-18.518197 10.0377982,-35.462245 28.9453122,-35.462245 z m 137.735879,0 h 15.13288 17.90865 6.75398 15.13288 10.22402 6.17839 c 12.93225,0 23.41002,10.477694 23.39309,23.409955 v 47.51453 H 253.1614 v -46.71875 c 0,-6.68619 -5.46752,-12.170645 -12.17064,-12.170645 H 238.7228 228.49878 V 147.73972 H 213.3659 V 88.850326 h -6.75398 -17.90865 v 58.889394 h -15.13288 z m 138.73431,0 h 28.50527 v 12.03509 h -23.07175 c -2.62369,0 -14.59101,1.167802 -16.9608,17.400845 h 40.03255 v 12.03542 h -40.03255 c 2.36979,16.23304 14.33711,17.41771 16.9608,17.41771 h 23.07175 v 12.03542 H 312.3047 c -18.90752,0 -28.94532,-16.94405 -28.94532,-35.46224 0,-18.518197 10.0378,-35.462245 28.94532,-35.462245 z m 104.72773,0 h 28.50527 v 12.03509 h -23.07141 c -2.92838,0 -17.38432,1.438913 -17.38432,23.427155 0,21.98823 14.47286,23.42682 17.38432,23.42682 h 23.07141 v 12.03542 h -28.50527 c -18.90752,0 -28.94532,-16.94405 -28.94532,-35.46224 0,-18.518197 10.0378,-35.462245 28.94532,-35.462245 z m 131.32044,0 h 71.34766 c 12.93226,0 23.41009,10.477694 23.37624,23.409955 v 47.51453 h -15.13288 v -46.71875 c 0,-6.68619 -5.46722,-12.170645 -12.17031,-12.170645 H 603.28126 V 147.73972 H 588.14838 V 88.850326 h -24.66263 v 58.889394 h -15.13288 z m -52.18633,10.867056 c -14.25257,0 -21.15885,9.631409 -21.15885,25.847529 0,16.21611 6.90628,25.84785 21.15885,25.84785 14.25257,0 21.14193,-9.63174 21.15886,-25.84785 0,-16.21612 -6.90629,-25.847529 -21.15886,-25.847529 z M 41.268369,88.850326 c -2.928378,0 -17.384312,1.438913 -17.384312,23.427154 0,21.98823 14.472861,23.42682 17.384312,23.42682 H 60.040241 V 88.850326 Z m 454.898171,5.704295 c 3.89323,0 14.25274,3.8e-5 14.26967,18.958329 0,18.9583 -10.35951,18.95834 -14.26967,18.95834 -3.91015,0 -14.26933,-4e-5 -14.26933,-18.95834 0,-18.958291 10.35918,-18.958329 14.26933,-18.958329 z M 41.268369,95.739517 H 53.15105 V 128.8151 H 41.268369 c -2.471347,0 -10.494791,-1.18479 -10.494791,-16.53762 0,-15.352838 8.040371,-16.537963 10.494791,-16.537963 z m 72.803321,22.547073 c -4.7565,0 -8.59909,3.84226 -8.59909,8.59876 v 0.22018 c 0,4.73958 3.84259,8.59877 8.59909,8.59877 h 26.50775 v -17.41771 z m 0,6.88919 h 19.61856 v 3.63932 h -19.61856 c -0.94791,0 -1.70957,-0.76165 -1.70957,-1.70957 v -0.22018 c 0,-0.94792 0.76166,-1.70957 1.70957,-1.70957 z m 268.49528,3.26706 c 1.20247,0.0294 2.0667,0.40493 2.50733,1.16771 1.29617,2.24283 -4.15543,11.19705 -11.77094,18.23694 -0.10262,0.30122 -0.21813,0.59637 -0.34647,0.88471 a 10.579427,10.579427 0 0 1 -0.0992,0.21886 c -0.17532,0.37086 -0.37184,0.72941 -0.58749,1.07513 a 10.579427,10.579427 0 0 1 -0.18083,0.28234 c -0.20934,0.31308 -0.43515,0.61425 -0.67576,0.90256 a 10.579427,10.579427 0 0 1 -0.28203,0.32532 c -0.23533,0.25988 -0.48337,0.50778 -0.7432,0.7432 a 10.579427,10.579427 0 0 1 -0.36564,0.31705 c -0.26294,0.21733 -0.53654,0.42245 -0.81991,0.61394 a 10.579427,10.579427 0 0 1 -0.40928,0.2625 c -0.28949,0.17684 -0.58808,0.34005 -0.89497,0.48897 a 10.579427,10.579427 0 0 1 -0.44796,0.20399 c -0.30137,0.12921 -0.61007,0.24391 -0.92505,0.34515 a 10.579427,10.579427 0 0 1 -0.51937,0.15274 c -0.29243,0.0776 -0.59023,0.14149 -0.89199,0.19407 a 10.579427,10.579427 0 0 1 -0.64105,0.0926 c -0.18232,0.0203 -0.36613,0.036 -0.55111,0.0469 -2.38892,1.57606 -4.703,2.94357 -6.88159,4.0463 a 3.4361977,3.4361977 0 0 1 -3.38277,2.86372 3.4361977,3.4361977 0 0 1 -1.97009,-0.62947 c -3.46847,1.08075 -6.27359,1.0877 -7.96631,-0.40301 -2.50819,-2.21387 1.83833,-8.26947 9.1016,-14.88823 a 10.579427,10.579427 0 0 1 -0.11339,-1.53104 10.579427,10.579427 0 0 1 10.57943,-10.57943 10.579427,10.579427 0 0 1 4.19011,0.86817 c 6.34209,-4.01842 11.90357,-6.37945 15.08792,-6.3017 z m -2.36615,1.7423 c -2.28893,-0.0111 -6.55818,1.95081 -11.59407,5.12739 a 10.579427,10.579427 0 0 1 2.49178,2.00777 l 0.0109,-0.008 c 1.52642,1.67754 2.52405,3.85512 2.7209,6.25409 5.19536,-5.44085 8.76652,-11.20878 7.97688,-12.65233 -0.27295,-0.49194 -0.82445,-0.72521 -1.60641,-0.72899 z m -27.12335,16.97072 c -5.92204,5.36669 -9.5775,10.11362 -7.44328,11.73854 0.79376,0.60236 2.43666,0.52354 4.61031,-0.0982 a 3.4361977,3.4361977 0 0 1 -0.0231,-0.32499 3.4361977,3.4361977 0 0 1 3.43634,-3.436 3.4361977,3.4361977 0 0 1 2.66833,1.27185 c 1.11152,-0.5596 2.26696,-1.18777 3.45484,-1.88215 -0.2403,-0.0841 -0.47577,-0.17846 -0.70783,-0.27903 a 10.579427,10.579427 0 0 1 -0.3802,-0.17654 c -0.32628,-0.15711 -0.64314,-0.3302 -0.94984,-0.51873 a 10.579427,10.579427 0 0 1 -0.30779,-0.19539 c -0.32647,-0.21649 -0.63857,-0.45178 -0.93827,-0.70221 a 10.579427,10.579427 0 0 1 -0.20464,-0.17059 c -0.34235,-0.30096 -0.66507,-0.62359 -0.96603,-0.96603 a 10.579427,10.579427 0 0 1 -0.0493,-0.0546 c -0.3217,-0.3712 -0.6156,-0.76663 -0.88371,-1.1806 a 10.579427,10.579427 0 0 1 -0.01,-0.0165 c -0.098,-0.15191 -0.19536,-0.30437 -0.28565,-0.46153 l 0.0238,-0.0175 a 10.579427,10.579427 0 0 1 -1.04406,-2.52981 z"
   style="fill:#ffffff;stroke-width:0.169271" /><g
   id="g23"
   style="fill:#ff0000;fill-opacity:1"
   transform="matrix(0.16927083,0,0,0.16927083,-220.4414,0)">&#10;		<g
   id="g22"
   style="fill:#ff0000;fill-opacity:1">&#10;			<rect
   x="1529.7"
   y="0"
   class="st1"
   width="82.800003"
   height="287.79999"
   id="rect17"
   style="fill:#ff0000;fill-opacity:1" />&#10;			<polygon
   class="st1"
   points="1445.6,286.1 1445.6,71.5 1445.6,70.6 1506.1,70.6 1506.1,0 1302.3,0 1302.3,70.6 1362.8,70.6 1362.8,71.5 1362.8,286.1 1362.8,287.8 1445.6,287.8 "
   id="polygon17"
   style="fill:#ff0000;fill-opacity:1" />&#10;			<path
   class="st1"
   d="m 1758,0 c -82.5,0 -126.4,72 -126.4,143.9 0,71.9 43.9,143.9 126.4,143.9 0,-11.8 0,0 0,0 h 148.8 v -1.8 -68.8 -38.1 -70.6 0 h -146 v 70.6 h 63.2 v 38.1 h -42.2 c 0,0 0,0 0,0 -97.8,0 -97.8,-146.7 0,-146.7 v 0 h 125 V 0 H 1758 c 0,0 0,11.8 0,0 z"
   id="path18"
   style="fill:#ff0000;fill-opacity:1" />&#10;			<path
   class="st1"
   d="m 2818,120.9 c -22.9,-12.2 -50.6,5.2 -50.6,31.2 0,1.8 0,3.6 0,5.4 0,10.3 5.1,19.4 12.8,26.2 11.4,10.1 7.1,33.6 -12.8,33.6 v 0 h -375.8 v -27.5 c 0,-11.4 -6.5,-21.2 -16,-26.1 20.9,-17 34,-45.5 34,-74 0,-44.8 -32,-89.6 -76.4,-89.6 v 0 h -132.1 v 0 h -41.4 v 195 h 82.8 V 70.6 h 62 c 10.3,0 19.5,7.7 20.1,18 0.6,11 -8.2,20.1 -19,20.1 h -40.3 v 70.6 h 23.3 c 11.1,0 20.2,9 20.2,20.2 V 288 h 82.8 v 0 h 375.8 v 0 c 59.7,0 99.8,-44.8 99.8,-89.6 0,-30.6 -18.5,-61.1 -49.2,-77.5 z"
   id="path19"
   style="fill:#ff0000;fill-opacity:1" />&#10;			<path
   class="st1"
   d="m 1478.9,76.1 c -15,0 -27.2,12.2 -27.2,27.2 0,15 12.2,27.2 27.2,27.2 15,0 27.2,-12.2 27.2,-27.2 0,-15 -12.2,-27.2 -27.2,-27.2 z"
   id="path20"
   style="fill:#ff0000;fill-opacity:1" />&#10;			<path
   class="st1"
   d="m 1329.5,76.1 c -15,0 -27.2,12.2 -27.2,27.2 0,15 12.2,27.2 27.2,27.2 15,0 27.2,-12.2 27.2,-27.2 0,-15 -12.2,-27.2 -27.2,-27.2 z"
   id="path21"
   style="fill:#ff0000;fill-opacity:1" />&#10;			<path
   class="st1"
   d="m 2020.1,198.2 c 0,-10.5 8.5,-19 19,-19 h 105.4 v -70.6 h -105.4 c -10.5,0 -19,-8.5 -19,-19 0,-10.5 8.5,-19 19,-19 h 105.4 V 0 h -132.1 v 0 h -13.6 c -41,0 -74.3,33.3 -74.3,74.3 v 10.6 c 0,32.6 25.6,59.1 33.6,59.1 -8,0 -33.6,26.4 -33.6,59.1 v 10.6 c 0,41 33.3,74.3 74.3,74.3 h 13.6 v 0 h 230.1 V 217.4 H 2039 c -10.4,-0.1 -18.9,-8.6 -18.9,-19.2 z"
   id="path22"
   style="fill:#ff0000;fill-opacity:1" />&#10;		</g>&#10;	</g>&#10;</svg>
