<?xml version="1.0" encoding="UTF-8" standalone="no"?>
<!DOCTYPE svg PUBLIC "-//W3C//DTD SVG 1.1//EN" "http://www.w3.org/Graphics/SVG/1.1/DTD/svg11.dtd">
<svg width="100%" height="100%" viewBox="0 0 1124 177" version="1.1" xmlns="http://www.w3.org/2000/svg" xmlns:xlink="http://www.w3.org/1999/xlink" xml:space="preserve" xmlns:serif="http://www.serif.com/" style="fill-rule:evenodd;clip-rule:evenodd;stroke-linejoin:round;stroke-miterlimit:2;">
    <path d="M1123.1,88.4C1123.1,137.189 1083.49,176.8 1034.7,176.8L88.4,176.8C39.611,176.8 0,137.189 0,88.4C0,39.611 39.611,0 88.4,0L1034.7,0C1083.49,0 1123.1,39.611 1123.1,88.4ZM147.6,39.1C126.4,39.1 109.6,49.101 109.6,66.801C109.6,85.001 123.001,93.001 144.301,99.301C152.901,101.801 156,104.1 156,107.4C156,110.5 153.9,112.5 149.5,112.5C145.1,112.5 139.7,110.099 136.5,101.199L108,110.4C113.7,128.6 127.2,137.5 149.5,137.5C168.9,137.5 188.5,128.6 188.5,108.9C188.5,90 173.799,80.7 153.699,75.4C143.099,72.7 141.199,70.8 141.199,67.6C141.199,64.6 143.5,63.301 147.9,63.301C152.6,63.301 156.6,66.099 158.9,71.699L187.1,62.5C182,48.5 171.3,39.1 147.6,39.1ZM239.199,39.1C210.599,39.1 188.699,59.301 188.699,88.301C188.699,117.301 210.599,137.5 239.199,137.5C253.199,137.5 264.8,133.1 273,125L255.5,103.9C252.2,106.8 247.099,109.6 239.199,109.6C228.499,109.6 219.6,100.501 219.6,88.301C219.6,76.001 228.599,67 239.199,67C246.999,67 252.1,69.799 255.4,72.699L273,51.6C264.7,43.5 253.199,39.1 239.199,39.1ZM275.1,41.801L275.1,134.9L304.9,134.9L304.9,106.801L310.5,106.801L325,134.9L358.301,134.9L358.301,133.301L340.5,102.699C349.8,97.499 355.301,87.5 355.301,74.5C355.301,54.7 342.8,41.801 323.4,41.801L275.1,41.801ZM360.6,41.801L360.6,134.801L431.9,134.801L431.9,110.1L390.1,110.1L390.1,99.9L424.699,99.9L424.699,76L390.1,76L390.1,66.5L431.9,66.5L431.9,41.801L360.6,41.801ZM438,41.801L438,134.801L509.301,134.801L509.301,110.1L467.5,110.1L467.5,99.9L502.1,99.9L502.1,76L467.5,76L467.5,66.5L509.301,66.5L509.301,41.801L438,41.801ZM515.301,41.801L515.301,134.9L545.5,134.9L545.5,90.699L583.301,134.9L605.5,134.9L605.5,41.801L575.301,41.801L575.301,86L537.5,41.801L515.301,41.801Z" style="fill:rgb(241,241,241);"/>
    <path id="path2" d="M304.9,66.4L304.9,82.801L316.6,82.801C322.6,82.801 325.6,79.6 325.6,74.6C325.6,69.8 322.5,66.4 316.6,66.4L304.9,66.4Z" style="fill:rgb(241,241,241);fill-rule:nonzero;"/>
    <path id="path3" d="M668.8,69C665.2,61.2 658.2,56.2 648.3,56.2C639.8,56.2 633.5,59 633.5,66C633.5,72.9 640,75.8 656,80.5C673.6,85.4 686.1,91.4 686.1,109C686.1,128.6 667.5,136.4 651,136.4C633.3,136.4 618.8,128.2 613.5,112.2L628.5,103.8C633.6,115.4 641.9,120.3 652,120.3C661,120.3 667.8,117 667.8,109.7C667.8,102.3 661.5,98.7 647.2,94.4C633.1,90.1 615.3,84.4 615.3,65.9C615.3,47.5 631.8,40.2 649,40.2C667.9,40.2 679.3,49.2 684.5,61.3L668.8,69ZM752.4,41.8L771,41.8L771,134.9L752.4,134.9L752.4,94.2L710,94.2L710,134.9L691.4,134.9L691.4,41.8L710,41.8L710,78.2L752.4,78.2L752.4,41.8ZM823,40.199C795.7,40.199 775.1,60.801 775.1,88.301C775.1,115.901 795.7,136.5 823,136.4C850.3,136.4 870.9,115.801 870.9,88.301C870.9,60.801 850.3,40.199 823,40.199ZM822.9,57.699C839.7,57.699 852.199,70.601 852.199,88.301C852.199,106.001 839.7,118.9 822.9,118.9C806.1,118.9 793.6,106.001 793.6,88.301C793.6,70.601 806.1,57.699 822.9,57.699ZM938.3,41.8L938.3,57.6L910.5,57.6L910.5,134.9L891.9,134.9L891.9,57.6L864,57.6L864,41.8L938.3,41.8ZM993.6,69C990,61.2 983,56.2 973.1,56.2C964.6,56.2 958.3,59 958.3,66C958.3,72.9 964.8,75.8 980.8,80.5C998.4,85.4 1010.9,91.4 1010.9,109C1010.9,128.6 992.3,136.4 975.8,136.4C958.1,136.4 943.6,128.2 938.3,112.2L953.3,103.8C958.4,115.4 966.7,120.3 976.8,120.3C985.8,120.3 992.6,117 992.6,109.7C992.6,102.3 986.3,98.7 972,94.4C957.9,90.1 940.1,84.4 940.1,65.9C940.1,47.5 956.6,40.2 973.8,40.2C992.7,40.2 1004.1,49.2 1009.3,61.3L993.6,69Z" style="fill:rgb(221,206,185);fill-rule:nonzero;"/>
</svg>
