<?xml version="1.0" encoding="UTF-8" standalone="no"?>
<svg
   height="156.033"
   viewBox="0 0 196.898 45.964"
   width="668.402"
   version="1.1"
   id="svg34"
   sodipodi:docname="lcdgames.svg"
   inkscape:version="1.3 (0e150ed, 2023-07-21)"
   xmlns:inkscape="http://www.inkscape.org/namespaces/inkscape"
   xmlns:sodipodi="http://sodipodi.sourceforge.net/DTD/sodipodi-0.dtd"
   xmlns:xlink="http://www.w3.org/1999/xlink"
   xmlns="http://www.w3.org/2000/svg"
   xmlns:svg="http://www.w3.org/2000/svg">
  <defs
     id="defs34" />
  <sodipodi:namedview
     id="namedview34"
     pagecolor="#ffffff"
     bordercolor="#000000"
     borderopacity="0.25"
     inkscape:showpageshadow="2"
     inkscape:pageopacity="0.0"
     inkscape:pagecheckerboard="0"
     inkscape:deskcolor="#d1d1d1"
     inkscape:zoom="1.4556793"
     inkscape:cx="329.05599"
     inkscape:cy="-18.891524"
     inkscape:window-width="1840"
     inkscape:window-height="1212"
     inkscape:window-x="0"
     inkscape:window-y="25"
     inkscape:window-maximized="0"
     inkscape:current-layer="svg34" />
  <linearGradient
     id="c">
    <stop
       offset="0"
       stop-color="#f20f37"
       id="stop1" />
    <stop
       offset="1"
       stop-color="#582e37"
       id="stop2" />
  </linearGradient>
  <linearGradient
     id="b">
    <stop
       offset="0"
       stop-color="#fff"
       stop-opacity="0"
       id="stop3" />
    <stop
       offset="1"
       stop-color="#fff"
       stop-opacity=".615"
       id="stop4" />
  </linearGradient>
  <linearGradient
     id="a">
    <stop
       offset="0"
       stop-color="#fff"
       id="stop5" />
    <stop
       offset=".554"
       stop-color="#fff"
       id="stop6" />
    <stop
       offset="1"
       stop-color="#fff"
       stop-opacity="0"
       id="stop7" />
  </linearGradient>
  <radialGradient
     id="d"
     cx="96.115"
     cy="114.122"
     gradientTransform="matrix(0,0.73242,-3.12628,0,452.89,44.126)"
     gradientUnits="userSpaceOnUse"
     r="64.779">
    <stop
       offset="0"
       stop-opacity="0"
       id="stop8" />
    <stop
       offset="1"
       id="stop9" />
  </radialGradient>
  <linearGradient
     id="g"
     gradientUnits="userSpaceOnUse"
     x1="22.066"
     x2="187.042"
     y1="93.731"
     y2="93.731">
    <stop
       offset="0"
       stop-color="#fff"
       id="stop10" />
    <stop
       offset=".345"
       stop-color="#fff"
       id="stop11" />
    <stop
       offset="1"
       stop-color="#b3b3b3"
       id="stop12" />
  </linearGradient>
  <radialGradient
     id="f"
     cx="193.313"
     cy="208.918"
     gradientTransform="matrix(1.4e-4,-0.43732,1.99575,6.5e-4,-223.66,219.93)"
     gradientUnits="userSpaceOnUse"
     r="95.523">
    <stop
       offset="0"
       stop-color="#4d4d4d"
       id="stop13" />
    <stop
       offset=".593"
       stop-color="gray"
       id="stop14" />
    <stop
       offset="1"
       stop-color="#b3b3b3"
       id="stop15" />
  </radialGradient>
  <linearGradient
     id="e"
     gradientUnits="userSpaceOnUse"
     x1="2.675"
     x2="2.675"
     y1="135.046"
     y2="105.521">
    <stop
       offset="0"
       stop-color="#b3b3b3"
       id="stop16" />
    <stop
       offset=".163"
       stop-color="#fff"
       id="stop17" />
    <stop
       offset="1"
       stop-color="#fff"
       id="stop18" />
  </linearGradient>
  <linearGradient
     id="i"
     gradientTransform="matrix(1.0754932,0,0,1.10135,-11.256712,-103.65315)"
     gradientUnits="userSpaceOnUse"
     x1="180.054"
     x2="180.054"
     xlink:href="#a"
     y1="108.046"
     y2="109.748" />
  <linearGradient
     id="h"
     gradientTransform="matrix(1.0754932,0,0,1.10135,-11.344726,-94.658423)"
     gradientUnits="userSpaceOnUse"
     x1="180.054"
     x2="180.054"
     xlink:href="#a"
     y1="108.046"
     y2="109.748" />
  <linearGradient
     id="o"
     gradientUnits="userSpaceOnUse"
     x1="88.71"
     x2="86.561"
     xlink:href="#b"
     y1="74.853"
     y2="67.427"
     gradientTransform="matrix(0.26457535,0,0,0.2645798,-5.4713343,-5.0144158)" />
  <linearGradient
     id="m"
     gradientTransform="matrix(0.26457535,0,0,0.2645798,-11.811558,1.5539031)"
     gradientUnits="userSpaceOnUse"
     x1="88.71"
     x2="86.561"
     xlink:href="#b"
     y1="74.853"
     y2="67.427" />
  <linearGradient
     id="k"
     gradientTransform="matrix(0.26457535,0,0,0.2645798,0.9844734,1.5539031)"
     gradientUnits="userSpaceOnUse"
     x1="88.71"
     x2="86.561"
     xlink:href="#b"
     y1="74.853"
     y2="67.427" />
  <linearGradient
     id="q"
     gradientTransform="matrix(0.26457535,0,0,0.2645798,-5.4478416,7.9544801)"
     gradientUnits="userSpaceOnUse"
     x1="88.71"
     x2="86.561"
     xlink:href="#b"
     y1="74.853"
     y2="67.427" />
  <linearGradient
     id="n"
     gradientUnits="userSpaceOnUse"
     x1="102.258"
     x2="106.722"
     xlink:href="#c"
     y1="-10.476"
     y2="-13.149"
     gradientTransform="matrix(0.94237,0,0,0.93971,-83.482739,-7.055)" />
  <linearGradient
     id="j"
     gradientUnits="userSpaceOnUse"
     x1="16.818"
     x2="20.006"
     xlink:href="#c"
     y1="109.402"
     y2="113.491"
     gradientTransform="matrix(0.93971,0,0,0.94237,7.055,-83.364)" />
  <linearGradient
     id="l"
     gradientUnits="userSpaceOnUse"
     x1="3.667"
     x2="4.892"
     xlink:href="#c"
     y1="109.03"
     y2="114.503"
     gradientTransform="matrix(0.93971,0,0,0.94237,7.055,-83.364)" />
  <linearGradient
     id="p"
     gradientUnits="userSpaceOnUse"
     x1="116.201"
     x2="120.516"
     y1="-9.986"
     y2="-12.87"
     gradientTransform="matrix(0.94237,0,0,0.93971,-83.258455,-7.055)">
    <stop
       offset="0"
       stop-color="#f20f37"
       id="stop19" />
    <stop
       offset="1"
       stop-color="#0b2e37"
       id="stop20" />
  </linearGradient>
  <path
     d="M 9.3032882,14.844564 H 6.2839065 v -3.053422 h 3.0193817 z m -3.4261642,0 H 2.8237019 V 11.791142 H 5.877124 Z m 3.4261642,3.426164 H 6.2839065 v -3.019382 h 3.0193817 z m -3.4261642,0 H 2.8237019 V 15.251346 H 5.877124 Z m 3.4261642,3.460205 H 6.2839065 V 18.67751 h 3.0193817 z m -3.4261642,0 H 2.8237019 V 18.67751 H 5.877124 Z m 3.4261642,3.426164 H 6.2839065 V 22.137715 H 9.3032882 Z M 19.617523,35.46963 H 16.59644 v -3.019382 h 3.019381 z M 5.877124,25.155395 H 2.8237019 v -3.01768 H 5.877124 Z m 3.4261642,3.427866 H 6.2839065 v -3.021084 h 3.0193817 z m 6.8863688,6.886369 h -3.019382 v -3.019382 h 3.019382 z M 9.3032882,32.043466 H 6.2839065 V 28.990044 H 9.3032882 Z M 12.763493,35.46963 H 9.7100708 V 32.450248 H 12.763493 Z M 5.877124,28.583261 H 2.8237019 V 25.562177 H 5.877124 Z m 0,3.460205 H 2.8237019 V 28.990044 H 5.877124 Z M 9.3032882,35.46963 H 6.2839065 v -3.019382 h 3.0193817 z m -3.4261642,0 H 2.8237019 V 32.450248 H 5.877124 Z m 37.82567,-20.625066 h -3.053422 v -3.053422 h 3.053422 z m -3.460204,0 h -3.019382 v -3.053422 h 3.019382 z m -3.426165,0 h -3.019381 v -3.053422 h 3.019381 z m -3.426164,0 h -3.053422 v -3.053422 h 3.053422 z m 0,3.426164 h -3.053422 v -3.019382 h 3.053422 z m -3.460205,0 h -3.019381 v -3.019382 h 3.019381 z m 0,3.460205 H 26.910675 V 18.67751 h 3.019381 z m -3.426164,0 H 23.45047 V 18.67751 h 3.053422 z m 3.426164,3.426164 h -3.019381 v -3.019382 h 3.019381 z m 13.772738,10.448694 h -3.053422 v -3.053422 h 3.053422 z M 33.388559,32.043466 h -3.05172 v -3.053422 h 3.053422 z M 26.503892,25.157097 H 23.45047 v -3.019382 h 3.053422 z m 3.426164,3.426164 h -3.019381 v -3.021084 h 3.019381 z m 10.312534,7.02253 H 37.223208 V 32.552369 H 40.24259 Z M 29.928354,32.043466 h -3.017679 v -3.053422 h 3.019381 z m 3.461907,3.426164 h -3.053422 v -3.019382 h 3.053422 z M 26.503892,28.583261 H 23.45047 v -3.021084 h 3.053422 z m 10.312533,7.02253 h -3.019381 v -3.053422 h 3.019381 z M 64.159361,14.844564 h -3.055125 v -3.053422 h 3.053423 z m 3.426164,3.426164 h -3.019382 v -3.019382 h 3.019382 z m 3.460204,3.460205 H 67.992307 V 18.67751 h 3.053422 z M 60.697454,14.844564 h -3.01768 v -3.053422 h 3.019382 z m 3.461907,3.426164 h -3.055125 v -3.019382 h 3.053423 z m 3.426164,3.460205 H 64.566143 V 18.67751 h 3.019382 z m 3.460204,3.426164 h -3.053422 v -3.019382 h 3.053422 z M 57.272992,14.842862 H 54.25361 v -3.050018 h 3.019382 z m 10.312533,10.314235 h -3.019382 v -3.019382 h 3.019382 z m 3.460204,3.426164 h -3.053422 v -3.021084 h 3.053422 z M 53.846827,14.844564 h -3.053422 v -3.053422 h 3.053422 z m 13.738698,13.738697 h -3.019382 v -3.021084 h 3.019382 z M 50.384921,14.844564 h -3.015978 v -3.053422 h 3.01768 z m 3.461906,3.426164 h -3.053422 v -3.019382 h 3.053422 z m 13.738698,13.772738 h -3.019382 v -3.053422 h 3.019382 z M 50.384921,18.270728 h -3.015978 v -3.019382 h 3.01768 z m 3.461906,3.460205 H 50.793405 V 18.67751 h 3.053422 z m 10.312534,10.312533 h -3.055125 v -3.053422 h 3.053423 z M 50.384921,21.72923 h -3.015978 v -3.05172 h 3.01768 z m 3.461906,3.427867 h -3.053422 v -3.019382 h 3.053422 z M 64.159361,35.46963 h -3.055125 v -3.019382 h 3.053423 z M 50.384921,25.155395 h -3.015978 v -3.01768 h 3.01768 z m 3.461906,3.427866 h -3.053422 v -3.021084 h 3.053422 z m 6.852329,6.886369 h -3.019382 v -3.019382 h 3.019382 z m -6.852329,-3.426164 h -3.053422 v -3.053422 h 3.053422 z m -3.461906,-3.460205 h -3.015978 v -3.021084 h 3.01768 z m 6.888071,6.886369 H 54.25361 v -3.019382 h 3.019382 z m -6.888071,-3.426164 h -3.015978 v -3.053422 h 3.01768 z m 3.461906,3.426164 h -3.053422 v -3.019382 h 3.053422 z m -3.461906,0 h -3.015978 v -3.019382 h 3.01768 z M 102.16374,14.844564 h -3.053419 v -3.053422 h 3.053419 z m -3.460202,0 h -3.019381 v -3.053422 h 3.019381 z m -3.426164,0 h -3.019382 v -3.053422 h 3.019382 z m 10.312536,10.312533 h -3.01938 v -3.019382 h 3.01938 z M 91.85121,14.842862 h -3.055124 v -3.050018 h 3.053422 z m 10.31253,10.314235 h -3.053419 v -3.019382 h 3.053419 z m 3.42617,3.426164 h -3.01938 v -3.021084 h 3.01938 z M 91.85121,18.269026 h -3.055124 v -3.01768 h 3.053422 z m 13.7387,13.77444 h -3.01938 v -3.053422 h 3.01938 z m -6.886372,-6.886369 h -3.019381 v -3.019382 h 3.019381 z m 3.460202,3.426164 h -3.053419 v -3.021084 h 3.053419 z M 88.391005,18.269026 h -3.019382 v -3.01768 h 3.019382 z m 13.772735,13.77444 h -3.053419 v -3.053422 h 3.053419 z m 3.42617,3.426164 h -3.01938 v -3.019382 h 3.01938 z M 88.391005,21.730933 H 85.371623 V 18.67751 h 3.019382 z M 102.16374,35.46963 h -3.053419 v -3.019382 h 3.053419 z M 84.963139,21.730933 h -3.05172 V 18.67751 h 3.05172 z m 3.427866,3.426164 h -3.019382 v -3.019382 h 3.019382 z M 98.703538,35.46963 h -3.019381 v -3.019382 h 3.019381 z M 91.85121,32.043466 h -3.055124 v -3.053422 h 3.053422 z m -6.888071,-6.886369 h -3.05172 v -3.019382 h 3.05172 z m 3.427866,3.426164 h -3.019382 v -3.021084 h 3.019382 z m 6.886369,6.886369 h -3.019382 v -3.019382 h 3.019382 z m -6.886369,-3.426164 h -3.019382 v -3.053422 h 3.019382 z m 3.460205,3.426164 h -3.055124 v -3.019382 h 3.053422 z m -6.888071,-6.886369 h -3.05172 v -3.021084 h 3.05172 z m 37.859711,-6.852328 h -3.01938 V 18.67751 h 3.01938 z m 3.42616,3.426164 h -3.01938 v -3.019382 h 3.01938 z m -6.85232,-3.426164 h -3.05343 V 18.67751 h 3.05343 z m 3.42616,3.426164 h -3.01938 v -3.019382 h 3.01938 z m 3.42616,3.426164 h -3.01938 v -3.021084 h 3.01938 z M 115.93648,21.730933 H 112.9171 V 18.67751 h 3.01938 z m 10.31424,10.312533 h -3.02109 v -3.053422 h 3.01938 z m -3.42787,-3.460205 h -3.01938 v -3.021084 h 3.01938 z m -3.42616,0 h -3.05343 v -3.021084 h 3.05343 z m 3.42616,3.460205 h -3.01938 v -3.053422 h 3.01938 z m 3.42616,3.426164 h -3.01938 v -3.019382 h 3.01938 z m -10.31253,-6.886369 h -3.01938 v -3.021084 h 3.01938 z m 6.88637,6.886369 h -3.01938 v -3.019382 h 3.01938 z m -6.88637,-3.426164 h -3.01938 v -3.053422 h 3.01938 z m 3.46021,3.426164 h -3.05343 v -3.019382 h 3.05343 z m -6.88637,-3.426164 h -3.05343 v -3.053422 h 3.05343 z m 3.42616,3.426164 h -3.01938 v -3.019382 h 3.01938 z m 37.28273,-13.738697 h -3.01938 V 18.67751 h 3.01938 z m 3.4602,3.426164 h -3.05342 v -3.019382 h 3.05342 z m -6.88637,-3.426164 h -3.05342 V 18.67751 h 3.05342 z m 3.42617,3.426164 h -3.01938 v -3.019382 h 3.01938 z m 3.4602,3.426164 h -3.05342 v -3.021084 h 3.05342 z m 0,3.460205 h -3.05342 v -3.053422 h 3.05342 z M 146.33114,21.72923 h -3.01768 v -3.05172 h 3.01938 z m 6.88807,6.854031 h -3.01938 v -3.021084 h 3.01938 z m 0,3.460205 h -3.01938 v -3.053422 h 3.01938 z m 3.4602,3.426164 h -3.05342 v -3.019382 h 3.05342 z M 146.33114,25.155395 h -3.01768 v -3.01768 h 3.01938 z m -6.85063,-3.424462 h -3.05342 V 18.67751 h 3.05342 z m 13.7387,13.738697 h -3.01938 v -3.019382 h 3.01938 z M 142.90497,25.155395 h -3.01768 v -3.01768 h 3.01938 z m 3.42787,3.427866 h -3.01938 v -3.021084 h 3.01938 z M 136.0186,21.730933 h -3.01768 V 18.67751 h 3.01938 z m 10.31424,10.312533 h -3.01938 v -3.053422 h 3.01938 z m -3.42617,-3.460205 h -3.01938 v -3.021084 h 3.01938 z m -10.31423,-6.852328 h -3.05172 V 18.67751 h 3.05342 z m 3.42786,3.426164 h -3.01938 v -3.019382 h 3.01938 z m 6.88637,6.886369 h -3.01938 v -3.053422 h 3.01938 z m 3.42617,3.426164 h -3.01938 v -3.019382 h 3.01938 z m -13.7387,-10.314235 h -3.05342 v -3.01768 h 3.05342 z m 3.42616,3.427866 h -3.01938 v -3.021084 h 3.01938 z m 6.88637,6.886369 h -3.01938 v -3.019382 h 3.01938 z m -6.88637,-3.426164 h -3.01938 v -3.053422 h 3.01938 z m -3.42616,-3.460205 h -3.05342 v -3.021084 h 3.05342 z m 0,3.460205 h -3.05342 v -3.053422 h 3.05342 z m 3.42616,3.426164 h -3.01938 v -3.019382 h 3.01938 z m -3.42616,0 h -3.05342 v -3.019382 h 3.05342 z m 41.25184,-13.738697 h -3.01939 V 18.67751 h 3.01768 z m 3.42616,3.426164 h -3.01938 v -3.019382 h 3.01938 z m -6.85403,-3.426164 h -3.05172 V 18.67751 h 3.05172 z m 3.42616,3.426164 h -3.01768 v -3.019382 h 3.01768 z m 3.42787,3.426164 h -3.01938 v -3.021084 h 3.01938 z M 166.9579,21.730933 h -3.01938 V 18.67751 h 3.01938 z m 6.88637,6.852328 h -3.01768 v -3.021084 h 3.01768 z m -6.88637,-3.426164 h -3.01938 v -3.019382 h 3.01938 z m 3.46021,3.426164 h -3.05172 v -3.021084 h 3.05172 z m 6.85403,6.886369 h -3.01938 v -3.019382 h 3.01938 z m -13.7404,-10.314235 h -3.05342 v -3.01768 h 3.05342 z m 3.42616,3.427866 h -3.01938 v -3.021084 h 3.01938 z m 6.88637,6.886369 h -3.01768 v -3.019382 h 3.01768 z m -6.88637,-3.426164 h -3.01938 v -3.053422 h 3.01938 z m 3.46021,3.426164 h -3.05172 v -3.019382 h 3.05172 z m -6.88637,-6.886369 h -3.05342 v -3.021084 h 3.05342 z m 0,3.460205 h -3.05342 v -3.053422 h 3.05342 z m 3.42616,3.426164 h -3.01938 v -3.019382 h 3.01938 z m 27.34294,-13.738697 h -3.01938 V 18.67751 h 3.01938 z m -3.42616,0 h -3.05343 V 18.67751 h 3.05343 z m -3.46021,0 h -3.01938 V 18.67751 h 3.01938 z m 6.88637,6.852328 h -3.01938 v -3.021084 h 3.01938 z m -6.88637,-3.426164 h -3.01938 v -3.019382 h 3.01938 z m 3.46021,3.426164 h -3.05343 v -3.021084 h 3.05343 z m 3.42616,3.460205 h -3.01938 v -3.053422 h 3.01938 z m -3.42616,0 h -3.05343 v -3.053422 h 3.05343 z m -6.88637,-6.886369 h -3.05343 v -3.019382 h 3.05343 z m 3.42616,3.426164 h -3.01938 v -3.021084 h 3.01938 z m 3.46021,6.886369 h -3.05343 v -3.019382 h 3.05343 z m -6.88637,-6.886369 h -3.05343 v -3.021084 h 3.05343 z m 3.42616,6.886369 h -3.01938 v -3.019382 h 3.01938 z m -3.42616,0 h -3.05343 v -3.019382 h 3.05343 z"
     id="path34"
     style="fill:#5dff00;stroke-width:1.12503;fill-opacity:1"
     inkscape:label="path34" />
</svg>
