<?xml version="1.0" encoding="UTF-8" standalone="no"?>
<!DOCTYPE svg PUBLIC "-//W3C//DTD SVG 1.1//EN" "http://www.w3.org/Graphics/SVG/1.1/DTD/svg11.dtd">
<svg width="100%" height="100%" viewBox="0 0 1124 177" version="1.1" xmlns="http://www.w3.org/2000/svg" xmlns:xlink="http://www.w3.org/1999/xlink" xml:space="preserve" xmlns:serif="http://www.serif.com/" style="fill-rule:evenodd;clip-rule:evenodd;stroke-linejoin:round;stroke-miterlimit:2;">
    <path d="M1123.1,88.4C1123.1,137.189 1083.49,176.8 1034.7,176.8L88.4,176.8C39.611,176.8 0,137.189 0,88.4C0,39.611 39.611,0 88.4,0L1034.7,0C1083.49,0 1123.1,39.611 1123.1,88.4ZM138.587,41.783L108,41.783L108,134.875L174.361,134.875L174.361,108.942L138.587,108.942L138.587,41.783ZM565.872,82.079L542.2,41.783L524.912,41.783L524.912,42.448L558.159,96.973L558.159,134.875L573.585,134.875L573.585,96.973L607.098,42.448L607.098,41.783L589.81,41.783L565.872,82.079ZM386.852,134.875L394.831,115.592L438.185,115.592L446.164,134.875L474.86,134.875L474.86,99.5L496.404,99.5L515.422,134.875L531.779,134.875L531.779,134.077L511.565,97.904C523.667,94.313 530.715,84.472 530.715,70.642C530.715,52.954 519.145,41.783 499.995,41.783L459.434,41.783L459.434,128.164L422.093,41.783L410.79,41.783L374.178,126.477L358.211,97.904C370.313,94.313 377.362,84.472 377.362,70.642C377.362,52.954 365.792,41.783 346.641,41.783L306.08,41.783L306.08,134.875L321.507,134.875L321.507,99.5L343.051,99.5L362.068,134.875L386.852,134.875ZM416.508,62.795L433.131,103.224L399.885,103.224L416.508,62.795ZM344.78,54.949C355.419,54.949 361.935,61.199 361.935,70.642C361.935,80.217 355.419,86.467 344.78,86.467L321.507,86.467L321.507,54.949L344.78,54.949ZM498.133,54.949C508.772,54.949 515.289,61.199 515.289,70.642C515.289,80.217 508.772,86.467 498.133,86.467L474.86,86.467L474.86,54.949L498.133,54.949ZM180.856,134.875L211.443,134.875L211.443,41.783L180.856,41.783L180.856,134.875ZM291.459,86.334C297.311,82.611 299.971,75.562 299.971,67.716C299.971,51.624 289.465,41.783 271.378,41.783L218.582,41.783L218.582,134.875L272.974,134.875C291.725,134.875 302.63,124.768 302.63,107.08C302.63,97.505 298.774,90.058 291.459,86.334ZM248.504,113.198L248.504,96.973L263.798,96.973C269.782,96.973 272.708,100.032 272.708,105.085C272.708,110.139 269.782,113.198 263.798,113.198L248.504,113.198ZM263.266,63.46C268.187,63.46 270.713,65.987 270.713,70.376C270.713,74.764 268.187,77.291 263.266,77.291L248.504,77.291L248.504,63.46L263.266,63.46Z" style="fill:rgb(241,241,241);"/>
</svg>
