<?xml version="1.0" encoding="UTF-8" standalone="no"?>
<!DOCTYPE svg PUBLIC "-//W3C//DTD SVG 1.1//EN" "http://www.w3.org/Graphics/SVG/1.1/DTD/svg11.dtd">
<svg width="100%" height="100%" viewBox="0 0 1124 177" version="1.1" xmlns="http://www.w3.org/2000/svg" xmlns:xlink="http://www.w3.org/1999/xlink" xml:space="preserve" xmlns:serif="http://www.serif.com/" style="fill-rule:evenodd;clip-rule:evenodd;stroke-linejoin:round;stroke-miterlimit:2;">
    <path d="M1123.1,88.4C1123.1,137.189 1083.49,176.8 1034.7,176.8L88.4,176.8C39.611,176.8 0,137.189 0,88.4C0,39.611 39.611,0 88.4,0L1034.7,0C1083.49,0 1123.1,39.611 1123.1,88.4ZM138.587,41.783L108,41.783L108,134.875L174.361,134.875L174.361,108.942L138.587,108.942L138.587,41.783ZM180.856,134.875L211.443,134.875L211.443,41.783L180.856,41.783L180.856,134.875ZM291.459,86.334C297.311,82.611 299.971,75.562 299.971,67.716C299.971,51.624 289.465,41.783 271.378,41.783L218.582,41.783L218.582,134.875L272.974,134.875C291.725,134.875 302.63,124.768 302.63,107.08C302.63,97.505 298.774,90.058 291.459,86.334ZM263.266,63.46C268.187,63.46 270.713,65.987 270.713,70.376C270.713,74.764 268.187,77.291 263.266,77.291L248.504,77.291L248.504,63.46L263.266,63.46ZM248.504,113.198L248.504,96.973L263.798,96.973C269.782,96.973 272.708,100.032 272.708,105.085C272.708,110.139 269.782,113.198 263.798,113.198L248.504,113.198Z" style="fill:rgb(241,241,241);"/>
    <g transform="matrix(1,0,0,1,-58.4324,307.23)">
        <path d="M416.644,-209.326C428.746,-212.916 435.794,-222.757 435.794,-236.588C435.794,-254.276 424.224,-265.447 405.074,-265.447L364.513,-265.447L364.513,-172.355L379.939,-172.355L379.939,-207.73L401.483,-207.73L420.5,-172.355L436.858,-172.355L436.858,-173.153L416.644,-209.326ZM403.212,-252.281C413.851,-252.281 420.367,-246.03 420.367,-236.588C420.367,-227.013 413.851,-220.763 403.212,-220.763L379.939,-220.763L379.939,-252.281L403.212,-252.281Z" style="fill:rgb(221,206,185);fill-rule:nonzero;"/>
    </g>
    <g transform="matrix(1,0,0,1,-58.4324,307.23)">
        <path d="M469.222,-265.447L429.326,-173.153L429.326,-172.355L445.284,-172.355L453.263,-191.638L496.617,-191.638L504.597,-172.355L520.422,-172.355L520.422,-173.153L480.526,-265.447L469.222,-265.447ZM474.94,-244.434L491.564,-204.006L458.317,-204.006L474.94,-244.434Z" style="fill:rgb(221,206,185);fill-rule:nonzero;"/>
    </g>
    <g transform="matrix(1,0,0,1,-58.4324,307.23)">
        <path d="M569.998,-209.326C582.099,-212.916 589.148,-222.757 589.148,-236.588C589.148,-254.276 577.578,-265.447 558.428,-265.447L517.866,-265.447L517.866,-172.355L533.293,-172.355L533.293,-207.73L554.837,-207.73L573.854,-172.355L590.212,-172.355L590.212,-173.153L569.998,-209.326ZM556.566,-252.281C567.205,-252.281 573.721,-246.03 573.721,-236.588C573.721,-227.013 567.205,-220.763 556.566,-220.763L533.293,-220.763L533.293,-252.281L556.566,-252.281Z" style="fill:rgb(221,206,185);fill-rule:nonzero;"/>
    </g>
    <g transform="matrix(1,0,0,1,-58.4324,307.23)">
        <path d="M624.304,-225.151L600.633,-265.447L583.344,-265.447L583.344,-264.782L616.591,-210.257L616.591,-172.355L632.018,-172.355L632.018,-210.257L665.531,-264.782L665.531,-265.447L648.242,-265.447L624.304,-225.151Z" style="fill:rgb(221,206,185);fill-rule:nonzero;"/>
    </g>
</svg>
