<?xml version="1.0" encoding="UTF-8" standalone="no"?>
<svg
   version="1.0"
   width="816"
   height="96"
   viewBox="0 0 816 96"
   preserveAspectRatio="xMidYMid"
   id="svg48"
   sodipodi:docname="lowresnx-wht.svg"
   inkscape:version="1.3 (0e150ed, 2023-07-21)"
   xmlns:inkscape="http://www.inkscape.org/namespaces/inkscape"
   xmlns:sodipodi="http://sodipodi.sourceforge.net/DTD/sodipodi-0.dtd"
   xmlns="http://www.w3.org/2000/svg"
   xmlns:svg="http://www.w3.org/2000/svg">
  <defs
     id="defs52" />
  <sodipodi:namedview
     id="namedview50"
     pagecolor="#ffffff"
     bordercolor="#000000"
     borderopacity="0.25"
     inkscape:showpageshadow="2"
     inkscape:pageopacity="0.0"
     inkscape:pagecheckerboard="0"
     inkscape:deskcolor="#d1d1d1"
     showgrid="false"
     inkscape:zoom="1.567402"
     inkscape:cx="585.36355"
     inkscape:cy="74.964814"
     inkscape:window-width="2560"
     inkscape:window-height="1162"
     inkscape:window-x="0"
     inkscape:window-y="25"
     inkscape:window-maximized="0"
     inkscape:current-layer="svg48" />
  <g
     fill="#ff6700"
     id="g46"
     style="display:inline;fill:#ffffff">
    <path
       id="path44"
       d="M 804,66.9 V 60.5 L 795.5,52 c -4.7,-4.7 -8.5,-9.1 -8.5,-9.9 0,-0.8 0.7,-2.2 1.6,-3.2 1.2,-1.4 2.2,-1.5 4.7,-0.8 1.8,0.5 5.1,0.9 7.5,0.9 3.7,0 4.3,0.3 3.8,1.8 -0.4,1.2 1.1,3.5 5.4,7.7 l 6,5.9 v 8.8 c 0,8.5 -0.1,8.8 -2.2,8.8 -1.3,0 -4,0.3 -6,0.6 L 804,73.3 Z M 756,69 c 0,-3 0.9,-4.4 6,-9.5 l 6,-5.9 6,5.9 c 5.2,5.1 6,6.5 6,9.6 v 3.6 H 768 L 756,72.6 Z M 708,56 V 39.3 l 4.8,-0.5 c 2.6,-0.3 11.4,-0.4 19.6,-0.2 20.7,0.4 20.8,0.6 8.8,12.7 l -9.2,9.2 v 6.1 6 l -12,0.1 H 708 Z M 660.7,72.3 C 660.3,72 660,66.2 660,59.6 l 0.1,-12.1 11.6,11.9 c 8.7,8.9 11.2,12 10.2,12.7 -1.6,1 -20.2,1.2 -21.2,0.2 z M 624,56 V 39 h 3.8 c 2,0 4.7,-0.3 6,-0.6 L 636,37.8 V 55.4 73 h -6 -6 z m 0,27 V 70 h 6 6 v 7 7 h 12 12 v -7.4 -7.4 l 8.5,0.6 8.5,0.5 v -2.9 -2.8 l 3.5,3.4 c 3.3,3.2 3.5,3.8 3.5,9.7 V 84 h 12 12 v -6.9 -6.8 l 4.6,-0.7 c 5.9,-0.8 12.3,-0.8 16.3,0 l 3.1,0.6 v 6.9 6.9 h 12 12 v -6.9 -6.8 l 3.1,-0.7 c 4,-0.8 10.4,-0.8 16.3,0 l 4.6,0.7 v 6.8 6.9 h 12 12 v -6.9 c 0,-7.8 0.3,-8.1 7.6,-8.1 H 816 V 82.5 96 H 720 624 Z M 794.8,42.3 c -4.3,-0.2 -7.8,-0.7 -7.8,-1.1 0,-0.4 3.8,-4.5 8.5,-9.2 L 804,23.5 V 17.8 12 h -11.9 -11.9 l -6.1,6.3 -6,6.2 -6.3,-6.2 -6.4,-6.3 H 743.7 732 v 5.8 5.7 l 8.5,8.5 c 4.7,4.7 8.5,8.8 8.5,9.2 0,0.5 -9.2,0.8 -20.5,0.8 H 708 V 27 12 H 696 684 V 24.2 36.5 L 671.7,24.2 659.5,12 H 647.7 636 v 15 15 h -6 -6 V 21 0 h 96 96 v 14.8 14.7 l -6.6,6.8 c -3.6,3.7 -6.7,6.6 -6.8,6.5 0,-0.1 -3.6,-0.4 -7.8,-0.5 z"
       style="fill:#ffffff" />
  </g>
  <path
     id="path2"
     style="display:inline;fill:#ffffff"
     d="M 0 0 L 0 48 L 0 96 L 110.69922 96 L 221.5 96 L 230.69922 86.800781 L 240 77.5 L 249.30078 86.800781 L 258.5 96 L 408 96 L 557.5 96 L 566.69922 86.800781 L 576 77.5 L 576 38.800781 L 576 0 L 537.30078 0 L 498.5 0 L 489.30078 9.1992188 L 480 18.5 L 480 9.1992188 L 480 0 L 432 0 L 384 0 L 384 9.1992188 L 384 18.5 L 374.69922 9.1992188 L 365.5 0 L 278.69922 0 L 192 0 L 192 9.1992188 L 192 18.5 L 182.69922 9.1992188 L 173.5 0 L 144 0 L 114.5 0 L 105.30078 9.1992188 L 96 18.5 L 96 39.199219 L 96 60 L 84 60 L 72 60 L 72 42.300781 L 72 24.5 L 59.800781 12.300781 L 47.5 0 L 23.800781 0 L 0 0 z M 12 12 L 24 12 L 36 12 L 36 42 L 36 72 L 60 72 L 84 72 L 84 78 L 84 84 L 48 84 L 12 84 L 12 48 L 12 12 z M 120.59961 12 L 144.09961 12 L 167.59961 12 L 173.80078 18.300781 L 180 24.599609 L 180 48.099609 L 180 71.599609 L 173.69922 77.800781 L 167.40039 84 L 143.90039 84 L 120.40039 84 L 114.19922 77.699219 L 108 71.400391 L 108 47.900391 L 108 24.400391 L 114.30078 18.199219 L 120.59961 12 z M 204 12 L 216 12 L 228 12 L 228 30.199219 L 228 48.400391 L 234 42.5 L 240 36.599609 L 246 42.5 L 252 48.400391 L 252 30.199219 L 252 12 L 264 12 L 276 12 L 276 48 L 276 84 L 270.30078 84 L 264.5 84 L 252.30078 71.800781 L 240 59.5 L 227.69922 71.800781 L 215.5 84 L 209.69922 84 L 204 84 L 204 48 L 204 12 z M 300 12 L 329.80078 12 L 359.59961 12 L 365.80078 18.300781 C 371.90078 24.400775 372 24.599615 372 30.099609 C 372 35.499604 371.89921 35.600787 365.69922 41.800781 L 359.40039 48 L 353.5 48 L 347.5 48 L 359.80078 60.300781 L 372 72.5 L 372 78.300781 L 372 84 L 363.30078 84 L 354.5 84 L 339.30078 68.800781 L 324 53.5 L 324 68.800781 L 324 84 L 312 84 L 300 84 L 300 48 L 300 12 z M 396 12 L 432 12 L 468 12 L 468 18 L 468 24 L 444 24 L 420 24 L 420 30 L 420 36 L 432 36 L 444 36 L 444 42 L 444 48 L 432 48 L 420 48 L 420 60 L 420 72 L 444 72 L 468 72 L 468 78 L 468 84 L 432 84 L 396 84 L 396 48 L 396 12 z M 504.59961 12 L 534.30078 12 L 564 12 L 564 18 L 564 24 L 540 24 L 516 24 L 516 30 L 516 36 L 533.80078 36 L 551.59961 36 L 557.80078 42.300781 L 564 48.599609 L 564 60.099609 L 564 71.599609 L 557.69922 77.800781 L 551.40039 84 L 521.69922 84 L 492 84 L 492 78 L 492 72 L 516 72 L 540 72 L 540 60 L 540 48 L 522.19922 48 L 504.40039 48 L 498.19922 41.699219 C 492.09922 35.599225 492 35.400385 492 29.900391 C 492 24.500396 492.10079 24.399213 498.30078 18.199219 L 504.59961 12 z M 132 24 L 132 48 L 132 72 L 144 72 L 156 72 L 156 48 L 156 24 L 144 24 L 132 24 z M 324 24 L 324 30 L 324 36 L 336 36 L 348 36 L 348 30 L 348 24 L 336 24 L 324 24 z " />
</svg>
