<?xml version="1.0" encoding="UTF-8"?>
<svg id="Layer_1" data-name="Layer 1" xmlns="http://www.w3.org/2000/svg" version="1.1" viewBox="0 0 1454.9 451.7">
  <defs>
    <style>
      .cls-1 {
        fill: #f7f7f7;
        stroke-width: 0px;
      }
    </style>
  </defs>
  <path class="cls-1" d="M1406.9,158.9l48-110.3h-825.4l-87.1,193.6V8.7l-143.6,160.2V0L0,424.4h193.9l5.3-5.2,96-92.9v125.4l117.9-123v95.8h870.5l106-241.3h-136.7l10.6-24.3h143.5ZM1243.2,189.9h136.7l-100,227.6H420.7v-106l-117.9,123v-124.5l-107.6,104.2-3.3,3.2H16.6L392.7,17.2v169.5S536.3,26.5,536.3,26.5v247.4l98.5-218.7h261.4l-43.3,96.6h-144.7s-16.5,38-16.5,38h79l-42.9,99.6h-65.9s-16.2,36.3-16.2,36.3h285.3l16.2-36.3h-139.1l102.5-234.2h263.2l-42,96.6h-149.4s-16.5,38-16.5,38h138.6l-59.5,135.9h161.4l16.2-36.3h-139.1l102.5-234.2h259.4l-42,96.6h-143.5l-16.5,38ZM873.7,120.5l-77,176h139l-10.1,22.5h-270.3l10.1-22.5h66l48.9-113.4h-78.9l10.6-24.3h144.6l17.2-38.4ZM1132.3,158.9l-60.2,137.6h139l-10.1,22.5h-146.5l59.5-135.9h-138.6l10.6-24.3h146.4Z"/>
  <path class="cls-1" d="M311.1,289.4l-121.5,117.4-1,1H34.7L385.1,35.8v170.2l144-160.2v245.9h8.1l103.8-230h244.5l-36.2,80.6h-145.1l-23.6,54h79.2l-36.1,83.6h-66l-23.5,52.3h303.6l23.5-52.3h-139.5l95.7-218.2h246.3l-35.1,80.6h-149.8l-23.6,54h138.9l-59.6,135.9h179.3l23.5-52.3h-139.5l95.7-218.2h242.5l-35.1,80.6h-143.8l-23.6,54h137l-93.2,211.6H429.3v-117.9l-118.2,123v-123.5ZM187.2,404.3v-3.4,3.4Z"/>
</svg>