<?xml version="1.0" encoding="UTF-8"?>
<svg id="Layer_1" data-name="Layer 1" xmlns="http://www.w3.org/2000/svg" xmlns:xlink="http://www.w3.org/1999/xlink" version="1.1" viewBox="0 0 1454.9 451.7">
  <defs>
    <style>
      .cls-1 {
        fill: #ffe5c0;
      }

      .cls-1, .cls-2, .cls-3, .cls-4, .cls-5 {
        stroke-width: 0px;
      }

      .cls-2 {
        fill: url(#linear-gradient);
      }

      .cls-3 {
        fill: #a05f00;
      }

      .cls-4 {
        fill: #f7f7f7;
      }

      .cls-5 {
        fill: #ffa102;
      }
    </style>
    <linearGradient id="linear-gradient" x1="886.7" y1="400.6" x2="886.7" y2="243.1" gradientTransform="translate(-7 451.7) scale(1 -1)" gradientUnits="userSpaceOnUse">
      <stop offset="0" stop-color="#fff"/>
      <stop offset=".8" stop-color="#ffa102"/>
    </linearGradient>
  </defs>
  <path class="cls-1" d="M303.6,293.7l-119.3,115.5-1.3,1.3H26.3L379.7,34.4v170.1l143.6-160.2v247.7h6.2l103.6-230h246.4l-37.2,82.9h-144.7l-22.5,51.7h79l-37,85.9h-65.8s-22.4,50-22.4,50h300.4l22.4-50h-139.2l96.4-220.5h248.2l-36,82.9h-149.4l-22.5,51.7h138.5l-59.5,135.9h176.4l22.4-50h-139.2l96.4-220.5h244.4l-36,82.9h-143.5l-22.5,51.7h136.6l-94,213.8H421.4v-116.2l-117.9,123v-123.6ZM181.1,405.9v-4.6,4.6Z"/>
  <path class="cls-4" d="M295.2,326.3l-96,92.9-5.3,5.2H0L398.8,0v168.9L542.4,8.7v233.4l87.1-193.6h825.4l-48,110.3h-143.5l-10.6,24.3h136.7l-106,241.3H413.1v-95.8l-117.9,123v-125.4ZM186.5,406.1v-18.3,18.3ZM975.4,183.1h138.6l-59.5,135.9h146.5l10.1-22.5h-139l60.2-137.6h-146.4l-10.6,24.3h0ZM655.3,319h270.3l10.1-22.5h-139l77-176-17.2,38.4h-144.6l-10.6,24.3h78.9l-48.9,113.4h-66l-10.1,22.5Z"/>
  <path class="cls-3" d="M302.8,310l-107.6,104.2-3.3,3.2H16.6L392.7,17.2v169.5S536.3,26.5,536.3,26.5v247.4l98.5-218.7h261.4l-43.3,96.6h-144.7s-16.5,38-16.5,38h79l-42.9,99.6h-65.9s-16.2,36.3-16.2,36.3h285.3l16.2-36.3h-139.1l102.5-234.2h263.2l-42,96.6h-149.4s-16.5,38-16.5,38h138.6l-59.5,135.9h161.4l16.2-36.3h-139.1l102.5-234.2h259.4l-42,96.6h-143.5l-16.5,38h136.7l-100,227.6H420.7v-106l-117.9,123v-124.5ZM187.2,406v-11.4,11.4Z"/>
  <path class="cls-4" d="M311.1,289.4l-121.5,117.4-1,1H34.7L385.1,35.8v170.2l144-160.2v245.9h8.1l103.8-230h244.5l-36.2,80.6h-145.1l-23.6,54h79.2l-36.1,83.6h-66l-23.5,52.3h303.6l23.5-52.3h-139.5l95.7-218.2h246.3l-35.1,80.6h-149.8l-23.6,54h138.9l-59.6,135.9h179.3l23.5-52.3h-139.5l95.7-218.2h242.5l-35.1,80.6h-143.8l-23.6,54h137l-93.2,211.6H429.3v-117.9l-118.2,123v-123.5ZM187.2,404.3v-3.4,3.4Z"/>
  <path class="cls-5" d="M189.5,401.5l126-120.9v118.8l118.9-122v126.2h838.1l89.9-202.6h-136.6l26.5-60.9h143.5l32-73.7h-232.3l-90.3,209.2h139.2l-28.6,61.3h-188.5l59.5-135.9h-138.5l26.5-60.9h149.4l32-73.7h-236.1l-90.3,209.2h137.1l-28.6,61.3h-310.4l27.6-61.3h65.8l32-74.6h-79l26.5-60.9h144.7l33.1-73.7h-234.2l-103.6,230h-15.9V56.2l-143.6,160.2V45.9L45.3,401.5h144.2Z"/>
  <path class="cls-2" d="M635.3,84.4c66.6-5.2,146.6,8.8,212.5,53.2l31.9-71.1h-236.3l-8.1,17.9h0ZM1194.5,66.5l-17.4,39.7c69.9-7.5,164.8-8.4,222.6,27.5l29.2-67.2s-234.4,0-234.4,0ZM886.8,140.4c107.9.2,145.1-5.3,208-20.7,8-2,23.2-5.1,43-8.2l19.5-44.9h-238.2l-32.3,73.9h0ZM382.4,97.2v-51.3l-51.9,55.2c16.7-3.1,33.3-5.4,51.9-3.9ZM502.9,147.9c3.5-10.8,11.6-20.7,23.2-29.3v-62.4l-61.2,68.3c11.7,6.4,24.3,14.2,38,23.5Z"/>
</svg>