<?xml version="1.0" encoding="UTF-8" standalone="no"?>
<svg
   width="400"
   height="95.291"
   version="1.1"
   id="svg14"
   sodipodi:docname="moonlight.svg"
   inkscape:version="1.3 (0e150ed, 2023-07-21)"
   xmlns:inkscape="http://www.inkscape.org/namespaces/inkscape"
   xmlns:sodipodi="http://sodipodi.sourceforge.net/DTD/sodipodi-0.dtd"
   xmlns:xlink="http://www.w3.org/1999/xlink"
   xmlns="http://www.w3.org/2000/svg"
   xmlns:svg="http://www.w3.org/2000/svg">
  <sodipodi:namedview
     id="namedview14"
     pagecolor="#ffffff"
     bordercolor="#000000"
     borderopacity="0.25"
     inkscape:showpageshadow="2"
     inkscape:pageopacity="0.0"
     inkscape:pagecheckerboard="0"
     inkscape:deskcolor="#d1d1d1"
     inkscape:zoom="2.4324473"
     inkscape:cx="175.13226"
     inkscape:cy="46.249717"
     inkscape:window-width="1392"
     inkscape:window-height="1212"
     inkscape:window-x="0"
     inkscape:window-y="25"
     inkscape:window-maximized="0"
     inkscape:current-layer="svg14" />
  <defs
     id="defs2">
    <linearGradient
       id="a">
      <stop
         style="stop-color:#deddde;stop-opacity:1"
         offset="0"
         id="stop1" />
      <stop
         style="stop-color:#fff;stop-opacity:1"
         offset="1"
         id="stop2" />
    </linearGradient>
    <linearGradient
       xlink:href="#a"
       id="c"
       x1="231.498"
       y1="4.573"
       x2="230.492"
       y2="95.825"
       gradientUnits="userSpaceOnUse"
       gradientTransform="matrix(0.96374,0,0,-0.96374,0,95.29)" />
    <clipPath
       clipPathUnits="userSpaceOnUse"
       id="clipPath15">
      <g
         id="g16">
        <path
           d="M 0,-7.5624e-4 H 400.00125 V 95.29 H 0 Z"
           id="path15"
           style="stroke-width:0.96374" />
      </g>
    </clipPath>
    <clipPath
       clipPathUnits="userSpaceOnUse"
       id="clipPath16">
      <g
         id="g17">
        <path
           d="M 0,-7.5624e-4 H 400.00125 V 95.29 H 0 Z"
           id="path16"
           style="stroke-width:0.96374" />
      </g>
    </clipPath>
    <clipPath
       clipPathUnits="userSpaceOnUse"
       id="clipPath17">
      <g
         id="g18">
        <path
           d="M 0,-7.5624e-4 H 400.00125 V 95.29 H 0 Z"
           id="path17"
           style="stroke-width:0.96374" />
      </g>
    </clipPath>
    <clipPath
       clipPathUnits="userSpaceOnUse"
       id="clipPath18">
      <g
         id="g19">
        <path
           d="M 0,-7.5624e-4 H 400.00125 V 95.29 H 0 Z"
           id="path18"
           style="stroke-width:0.96374" />
      </g>
    </clipPath>
    <clipPath
       clipPathUnits="userSpaceOnUse"
       id="clipPath19">
      <g
         id="g20">
        <path
           d="M 0,-7.5624e-4 H 400.00125 V 95.29 H 0 Z"
           id="path19"
           style="stroke-width:0.96374" />
      </g>
    </clipPath>
    <clipPath
       clipPathUnits="userSpaceOnUse"
       id="clipPath20">
      <g
         id="g21">
        <path
           d="M 0,-7.5624e-4 H 400.00125 V 95.29 H 0 Z"
           id="path20"
           style="stroke-width:0.96374" />
      </g>
    </clipPath>
    <clipPath
       clipPathUnits="userSpaceOnUse"
       id="clipPath21">
      <g
         id="g22">
        <path
           d="M 0,-7.5624e-4 H 400.00125 V 95.29 H 0 Z"
           id="path21"
           style="stroke-width:0.96374" />
      </g>
    </clipPath>
    <clipPath
       clipPathUnits="userSpaceOnUse"
       id="clipPath22">
      <g
         id="g23">
        <path
           d="M 0,-7.5624e-4 H 400.00125 V 95.29 H 0 Z"
           id="path22"
           style="stroke-width:0.96374" />
      </g>
    </clipPath>
    <clipPath
       clipPathUnits="userSpaceOnUse"
       id="clipPath23">
      <g
         id="g24">
        <path
           d="M 0,-7.5624e-4 H 400.00125 V 95.29 H 0 Z"
           id="path23"
           style="stroke-width:0.96374" />
      </g>
    </clipPath>
    <clipPath
       clipPathUnits="userSpaceOnUse"
       id="clipPath24">
      <g
         id="g25">
        <path
           d="M 0,-7.5624e-4 H 400.00125 V 95.29 H 0 Z"
           id="path24"
           style="stroke-width:0.96374" />
      </g>
    </clipPath>
    <clipPath
       clipPathUnits="userSpaceOnUse"
       id="clipPath25">
      <g
         id="g26">
        <path
           d="M 0,-7.5624e-4 H 400.00125 V 95.29 H 0 Z"
           id="path25"
           style="stroke-width:0.96374" />
      </g>
    </clipPath>
    <clipPath
       clipPathUnits="userSpaceOnUse"
       id="clipPath26">
      <g
         id="g27">
        <path
           d="M 0,-7.5624e-4 H 400.00125 V 95.29 H 0 Z"
           id="path26"
           style="stroke-width:0.96374" />
      </g>
    </clipPath>
  </defs>
  <path
     d="m 309.0984,66.245768 h 0.1542 c 0.17637,0 0.31996,-0.05975 0.31996,-0.218769 0,-0.112758 -0.0887,-0.223588 -0.31996,-0.223588 a 0.83556258,0.83556258 0 0 0 -0.1542,0.0096 z m 0,0.71124 h -0.21973 v -1.281774 c 0.10987,-0.01542 0.21973,-0.03084 0.3855,-0.03084 0.19756,0 0.33056,0.04048 0.41826,0.09637 0.0771,0.05782 0.12143,0.143597 0.12143,0.265992 0,0.169618 -0.12143,0.269847 -0.26406,0.311288 v 0.0096 c 0.12046,0.01927 0.19853,0.122395 0.21973,0.311288 0.0328,0.199494 0.0655,0.277557 0.0877,0.318034 h -0.21973 c -0.0328,-0.04048 -0.0655,-0.158054 -0.0983,-0.325744 -0.0337,-0.1648 -0.11083,-0.224552 -0.28719,-0.224552 h -0.1436 z m 0.2207,-1.638358 a 0.96277626,0.96277626 0 0 0 -0.95796,0.968558 0.96181252,0.96181252 0 0 0 0.95796,0.975305 0.95988504,0.95988504 0 0 0 0.96952,-0.969522 c 0,-0.542586 -0.42983,-0.974341 -0.96952,-0.974341 m 0,-0.181183 c 0.66112,0 1.18925,0.510782 1.18925,1.149741 0,0.649561 -0.52813,1.153597 -1.18925,1.153597 -0.66113,0 -1.19022,-0.504036 -1.19022,-1.153597 0,-0.638959 0.52909,-1.149741 1.19022,-1.149741 m -5.6957,9.036026 v -5.107822 l -1.74052,3.324903 h -1.21142 l -1.76268,-3.324903 v 5.107822 h -1.79641 v -8.766179 h 1.77424 l 2.39008,4.738709 2.38044,-4.738709 h 1.77328 v 8.766179 z m -13.71981,-6.180465 -1.1613,3.184197 h 2.28406 z m 2.13951,6.180465 -0.5397,-1.552585 h -3.26419 l -0.55511,1.552585 h -1.86966 l 3.34129,-8.766179 h 1.40417 l 3.35863,8.766179 z m -15.3466,0 v -8.766179 h 6.05421 v 1.521745 h -4.25491 v 2.068186 h 3.62367 v 1.520782 h -3.62367 v 2.13372 h 4.25491 v 1.52271 z m -6.17757,-7.244434 v 7.245398 h -1.79545 v -7.245398 h -2.39971 v -1.520781 h 6.59487 v 1.520781 z m -7.69836,6.617039 c -0.63607,0.473196 -1.44946,0.708349 -2.4479,0.708349 -0.72088,0 -1.35116,-0.08674 -1.88989,-0.265028 a 3.8453226,3.8453226 0 0 1 -1.46296,-0.889532 l 1.16227,-1.106374 c 0.27274,0.262137 0.59752,0.451994 0.97338,0.565715 0.37393,0.117577 0.78834,0.174437 1.24322,0.174437 1.08228,0 1.62583,-0.364293 1.62583,-1.087098 0,-0.30647 -0.0829,-0.544514 -0.24575,-0.713168 -0.16384,-0.168655 -0.44718,-0.279485 -0.85291,-0.339236 l -0.51657,-0.07614 -0.59366,-0.07132 c -0.78448,-0.107939 -1.38104,-0.348874 -1.78485,-0.725696 -0.43946,-0.417299 -0.65823,-0.992652 -0.65823,-1.72124 0,-0.795085 0.28816,-1.438863 0.86351,-1.923625 0.57728,-0.48958 1.35502,-0.732442 2.33803,-0.732442 0.64185,0 1.20082,0.0771 1.67402,0.239971 a 3.5234334,3.5234334 0 0 1 1.28852,0.782557 l -1.13336,1.069752 c -0.26021,-0.237081 -0.54355,-0.397061 -0.85773,-0.478979 a 4.0766202,4.0766202 0 0 0 -1.02445,-0.123359 c -0.45681,0 -0.80665,0.10312 -1.05144,0.312252 a 0.99457968,0.99457968 0 0 0 -0.36815,0.792194 c 0,0.22937 0.0954,0.437538 0.28334,0.618721 0.19082,0.183111 0.46934,0.300687 0.83845,0.350801 l 0.55415,0.07228 0.53102,0.07517 c 0.41248,0.05782 0.75654,0.140706 1.03699,0.247681 0.27948,0.10312 0.51849,0.250572 0.71606,0.429828 0.47319,0.426937 0.70931,1.047585 0.70931,1.861946 0,0.828816 -0.31803,1.478377 -0.95025,1.951573 m -11.31045,-3.790389 c -0.96663,-0.249609 -1.53909,-1.199857 -1.27696,-2.122156 0.26118,-0.923263 1.25768,-1.469703 2.22335,-1.220095 0.9676,0.248645 1.54006,1.199857 1.27792,2.12312 -0.26117,0.922299 -1.25768,1.468739 -2.22431,1.219131 m -0.16191,0.557041 c -1.28466,-0.331526 -2.04795,-1.599808 -1.70004,-2.826649 0.34695,-1.226841 1.67595,-1.955428 2.96061,-1.623902 1.28467,0.33249 2.04795,1.599808 1.701,2.82665 -0.34694,1.225877 -1.6769,1.954464 -2.96157,1.623901 m -5.19938,3.055056 c -0.68907,0.848091 -1.97374,1.005181 -2.86327,0.346947 -0.41152,-0.302615 -0.66594,-0.729552 -0.75364,-1.183473 l 1.01096,0.744007 c 0.65727,0.485725 1.60174,0.369113 2.10866,-0.256355 0.50789,-0.626431 0.38743,-1.527528 -0.26888,-2.011325 L 244.337,70.238542 a 2.1038444,2.1038444 0 0 1 1.44754,0.395134 c 0.43176,0.318998 0.70642,0.779666 0.77485,1.294303 a 1.8744743,1.8744743 0 0 1 -0.41056,1.439827 M 230.79646,64.55344 a 1.9024228,1.9024228 0 0 1 -0.72088,-2.050839 c 0.0684,-0.240935 0.186,-0.472232 0.35658,-0.6804 0.68811,-0.850982 1.97278,-1.006145 2.86231,-0.349838 0.42019,0.310325 0.67462,0.745935 0.75846,1.209494 l -1.03505,-0.761354 c -0.65535,-0.483798 -1.59981,-0.369113 -2.1077,0.256354 a 1.393568,1.393568 0 0 0 0.26888,2.014217 l 1.03795,0.761355 c -0.51078,0.0424 -1.01193,-0.09637 -1.42055,-0.398989 m 22.12747,0.194676 c -1.92941,-0.498254 -3.92243,0.594627 -4.44381,2.436334 a 0.50210854,0.50210854 0 0 0 -0.0116,0.04337 l -3.13698,2.538491 a 2.7543689,2.7543689 0 0 0 -1.6239,0.0096 l -9.02253,-6.628603 c 0.0434,-0.799905 -0.3084,-1.604628 -1.01964,-2.13083 -1.15456,-0.851946 -2.81894,-0.64956 -3.71329,0.451994 -0.89242,1.100592 -0.6804,2.688835 0.47416,3.541745 a 2.7235292,2.7235292 0 0 0 2.42381,0.408626 l 9.04373,6.644023 a 2.4719931,2.4719931 0 0 0 1.02157,2.1077 c 1.15359,0.853873 2.81894,0.650524 3.71039,-0.449103 0.23227,-0.288158 0.39417,-0.610048 0.48091,-0.953139 l 3.84725,-1.362728 0.079,0.0212 c 1.92844,0.498253 3.92242,-0.595591 4.44284,-2.438262 0.52235,-1.840744 -0.62161,-3.742203 -2.55102,-4.240456 m -72.18605,9.034098 a 0.58209896,0.58209896 0 0 1 -0.59656,0.593664 v -0.0029 a 0.57631652,0.57631652 0 0 1 -0.60041,-0.590773 c 0,-0.354656 0.26792,-0.591736 0.60041,-0.591736 a 0.58113522,0.58113522 0 0 1 0.59656,0.591736 m 0.24189,0 c 0,-0.487652 -0.39609,-0.770028 -0.83845,-0.770028 -0.44525,0 -0.84134,0.282376 -0.84134,0.770028 0,0.486689 0.39513,0.770992 0.84134,0.770992 0.44236,0 0.83845,-0.284303 0.83845,-0.770992 m -0.97819,0.06553 h 0.0906 l 0.2072,0.34791 h 0.22937 l -0.23129,-0.36333 c 0.1195,-0.0077 0.2178,-0.06168 0.2178,-0.214914 0,-0.189857 -0.13781,-0.250573 -0.37007,-0.250573 h -0.33635 v 0.828817 h 0.19275 v -0.34791 m 0,-0.140706 v -0.199494 h 0.13492 c 0.0733,0 0.17348,0.0048 0.17348,0.09059 0,0.09252 -0.052,0.108903 -0.13782,0.108903 h -0.17058 m -6.62668,-6.572707 1.56704,4.093004 h -3.18419 z m -1.67883,-1.59499 -3.61403,8.739195 h 2.55199 l 0.57149,-1.545839 h 4.27515 l 0.54163,1.545839 h 2.76978 L 175.153,65.538382 Z m -7.25407,8.741122 h 2.58764 v -8.744013 h -2.58764 z m -17.9699,-8.744013 -2.15974,6.930254 -2.06915,-6.92929 -2.79388,-9.64e-4 2.95482,8.744013 h 3.72968 l 2.97795,-8.744013 z m 10.46236,1.90435 h 1.11216 c 1.61426,0 2.65799,0.691966 2.65799,2.486449 0,1.795448 -1.04373,2.487413 -2.65799,2.487413 h -1.11216 z m -2.56644,-1.90435 v 8.744013 h 4.19709 c 2.23588,0 2.96543,-0.354656 3.75473,-1.150706 0.55801,-0.558969 0.91844,-1.78581 0.91844,-3.125408 0,-1.228769 -0.3055,-2.325505 -0.83749,-3.008797 -0.95892,-1.221058 -2.33996,-1.459102 -4.4014,-1.459102 z m -24.52043,-0.01253 v 8.756542 h 2.61173 v -6.649806 l 2.02096,0.0019 c 0.6698,0 1.14685,0.159018 1.46971,0.487653 0.40959,0.415372 0.57631,1.087099 0.57631,2.314903 v 3.845323 h 2.52982 v -4.837975 c 0,-3.45308 -2.30719,-3.918567 -4.56234,-3.918567 z m 20.35418,0.01253 9.7e-4,8.744013 h 2.58668 v -8.744013 z"
     style="stroke-width:0.892132;fill:#ffffff"
     id="path3"
     clip-path="url(#clipPath26)" />
  <path
     d="m 106.47592,68.80257 c 0,0 2.02868,-2.858453 6.07927,-3.153357 v -1.036985 c -4.48621,0.344056 -8.37297,3.970609 -8.37297,3.970609 0,0 2.20118,6.07349 8.37297,6.630531 v -1.103482 c -4.52957,-0.543549 -6.07927,-5.307316 -6.07927,-5.307316 m 6.07927,3.116735 v 1.009036 c -3.42224,-0.582099 -4.37248,-3.979283 -4.37248,-3.979283 0,0 1.64317,-1.737623 4.37248,-2.019999 v 1.108301 l -0.005,-9.63e-4 c -1.43212,-0.163836 -2.55199,1.113119 -2.55199,1.113119 0,0 0.62643,2.151068 2.5568,2.769789 m 0,-9.219137 v 1.91206 c 0.13204,-0.0096 0.26407,-0.01735 0.3961,-0.02217 5.10204,-0.163835 8.42598,3.993739 8.42598,3.993739 0,0 -3.81834,4.430313 -7.79569,4.430313 -0.3643,0 -0.70546,-0.0318 -1.02639,-0.08674 v 1.182509 c 0.27467,0.03469 0.55897,0.05301 0.85484,0.05301 3.70173,0 6.37803,-1.804122 8.96953,-3.938806 0.42983,0.327672 2.18865,1.127576 2.55102,1.477414 -2.46525,1.968921 -8.20817,3.5562 -11.46272,3.5562 -0.31418,0 -0.6168,-0.01831 -0.91267,-0.04529 v 1.661487 h 14.06772 V 62.700168 Z m 0,4.228891 v -1.279846 c 0.13011,-0.0096 0.26214,-0.01542 0.3961,-0.01928 3.668,-0.109867 6.07542,3.008796 6.07542,3.008796 0,0 -2.60017,3.445371 -5.38731,3.445371 -0.40091,0 -0.76039,-0.06168 -1.08421,-0.1648 v -3.88194 c 1.42827,0.163836 1.71546,0.766174 2.57415,2.132757 l 1.91014,-1.537165 c 0,0 -1.39453,-1.74437 -3.74413,-1.74437 -0.25539,0 -0.50018,0.01638 -0.74016,0.04048"
     style="fill:#7db500;stroke-width:0.892132"
     id="path4"
     clip-path="url(#clipPath25)" />
  <path
     style="fill:#565c64;fill-opacity:1;stroke-width:0.892132"
     d="m 56.546481,94.395649 c -20.194208,0 -39.803426,-13.852798 -45.862459,-33.229755 C 4.6346257,42.406695 12.486215,20.123099 29.11073,9.4776267 45.980999,-2.1836273 70.272066,-2.188446 86.792497,10.150317 100.13548,19.592078 108.19716,36.448854 106.03549,52.795812 104.19475,68.749564 93.397007,83.275053 78.698045,89.72151 a 50.408421,50.408421 0 0 1 -22.151564,4.674139 z m 0.97145,-23.499836 C 69.171475,71.110727 80.435668,61.894482 81.904408,50.204315 83.350018,38.224063 73.812847,26.147437 61.80561,24.712429 51.419384,22.851447 39.813063,28.153944 35.210241,37.776888 c -4.819664,9.607524 -1.572824,22.414665 7.467057,28.317572 4.270332,3.068549 9.555483,4.765695 14.840633,4.800389 z"
     id="path5"
     clip-path="url(#clipPath24)" />
  <path
     style="fill:#565c64;fill-opacity:1;stroke-width:0.892132"
     d="m 60.290611,76.820887 c -1.916879,-0.653416 -4.542107,0.638959 -5.92411,-1.306832 -1.010963,-2.97121 -0.06939,-6.133241 -0.402843,-9.186369 0.03469,-16.52525 -0.05012,-33.055319 0.05782,-49.577677 0.300687,0.53873 0.894351,1.689436 1.890858,1.742442 1.368511,0.210095 3.175523,-0.324781 4.118061,1.04373 0.574389,1.181545 0.22166,2.601134 0.412481,3.87809 0.148416,7.211666 -0.0058,14.426224 0.06361,21.638854 l 0.0058,31.80342 -0.189857,-0.03084 z"
     id="path6"
     clip-path="url(#clipPath23)" />
  <path
     style="fill:#565c64;fill-opacity:1;stroke-width:0.892132"
     d="m 25.42057,51.102521 c 1.262499,-1.647995 -0.416336,-4.327193 1.481268,-5.631133 1.915915,-0.691965 4.066019,-0.501145 6.085055,-0.530057 6.842554,0.212023 13.687999,-0.03759 20.533444,0.03277 11.796178,0.02795 23.601993,-0.06746 35.394315,0.04433 0.369113,0.207204 -1.08228,0.451031 -1.252862,0.973378 -1.055295,1.416698 0.24479,3.559092 -1.262499,4.778223 -1.173835,0.722805 -2.701363,0.384532 -4.015905,0.571498 -19.034828,0.06168 -38.071585,0.0318 -57.107377,0.04144 l 0.0877,-0.170582 z"
     id="path7"
     clip-path="url(#clipPath22)" />
  <path
     style="fill:#565c64;fill-opacity:1;stroke-width:0.892132"
     d="M 37.362272,71.836423 C 36.09399,70.247216 33.536225,69.23047 33.691387,66.84425 35.277703,64.062897 38.006051,62.177821 40.183139,59.889902 52.52383,48.136129 64.828862,36.343807 77.164734,24.585215 c 0.09734,2.492232 3.827976,3.348996 3.275753,6.013737 -1.649923,2.366946 -4.114206,3.989884 -6.04265,6.113003 C 62.11497,48.481148 49.800301,60.217574 37.496232,71.964601 Z"
     id="path8"
     clip-path="url(#clipPath21)" />
  <path
     style="fill:#565c64;fill-opacity:1;stroke-width:0.892132"
     d="M 76.236653,69.967732 C 72.699727,68.855576 70.820434,65.373583 68.042935,63.174328 55.711882,51.450431 43.294092,39.765084 31.150968,27.877351 c -0.172509,-1.019637 1.104446,-0.515601 1.595953,-0.290086 2.152996,-0.0087 3.125409,-3.121554 5.441277,-2.577041 2.104808,0.596555 3.235275,2.683052 4.925675,3.917603 13.305394,12.668363 26.639701,25.316486 39.870887,38.056165 0.202386,0.938683 -1.133358,-0.01349 -1.605591,0.110831 -2.159741,0.03662 -2.900857,3.006868 -5.142516,2.871945 z m 92.774427,-8.576323 c -6.8493,-0.24479 -13.30057,-4.784969 -15.93062,-11.099393 0.22359,3.511868 0.39899,7.029519 0.61005,10.544279 h -13.55693 l -0.39513,-10.018077 a 1834.7605,1834.7605 0 0 0 -3.07915,9.500549 h -10.44695 l -2.1925,-7.628966 c -0.13011,2.715819 -0.26311,5.430675 -0.39032,8.146494 H 110.4234 c 0.84424,-12.628849 1.69233,-25.256734 2.5356,-37.884619 h 15.19625 c 1.35502,4.440914 2.74184,8.87219 4.01687,13.338161 1.36369,-4.365742 2.85171,-8.692935 4.30407,-13.031692 4.54307,-0.254427 9.18636,-0.720878 13.67739,0.187929 2.21371,1.792557 1.49091,4.950733 1.8234,7.421762 l 0.31996,5.613785 c 1.77039,-6.618002 7.20588,-12.331053 14.04651,-13.627283 7.87279,-1.813759 17.1141,1.500543 20.95846,8.858698 0.43079,0.793158 0.80183,1.619083 1.11697,2.466211 2.84111,-7.29744 10.5915,-12.340691 18.43538,-11.813525 7.37358,0.156126 14.74812,4.870742 17.04567,12.04675 v -11.46176 h 13.62729 c 2.31875,3.970609 4.70594,7.901704 7.01795,11.876168 -0.0164,-3.959044 -0.0318,-7.917124 -0.0511,-11.876168 h 13.08084 V 60.836295 H 244.8314 c -2.62523,-4.568128 -5.31503,-9.097706 -7.9123,-13.680289 0.0366,4.559454 0.027,9.119871 0.0308,13.680289 h -13.049 c 9.6e-4,-3.905074 0.002,-7.810149 -0.007,-11.715223 -2.11541,5.966514 -7.42465,10.819909 -13.75064,11.829908 -7.256,1.633539 -15.60295,-0.992652 -19.80968,-7.324424 a 19.322023,19.322023 0 0 1 -2.0624,-3.752803 c -2.60885,6.638241 -9.3849,11.368277 -16.52814,11.473324 -0.90785,0.08674 -1.82244,0.08385 -2.73317,0.04433 z m 146.82097,-0.242862 c -7.45067,0.215878 -15.40731,-3.62559 -18.48357,-10.679203 -0.46741,-1.276956 -0.58595,-1.236479 -0.49632,0.171546 V 60.836295 H 257.94597 V 22.951676 h 13.69282 v 25.712583 h 11.52055 V 22.951676 h 13.69282 v 12.551749 c 2.05276,-5.785331 7.12686,-10.315873 13.08084,-11.779794 6.34141,-1.895676 13.47501,-1.545839 19.41551,1.439828 1.54776,2.107699 -0.0154,4.674139 -0.4838,6.861829 -0.38646,1.501507 -0.8134,2.993376 -1.22684,4.489101 0.9753,-0.231298 2.89315,0.478978 3.23527,-0.385496 V 22.949748 h 13.69475 v 12.199021 h 6.23925 V 22.950712 h 43.24976 v 12.173 h -9.07843 V 60.836295 H 371.28373 V 35.123712 h -6.83292 V 60.836295 H 350.80714 V 47.554994 h -6.24021 v 13.281301 h -13.69379 c -0.18793,-0.736297 0.55801,-2.764006 -0.78063,-1.913988 -4.60185,1.449465 -9.4167,2.366946 -14.26046,2.22624 z M 170.72269,49.523915 c 3.34514,-0.26792 5.11938,-4.006267 4.89098,-7.032411 0.31418,-3.137937 -0.89339,-7.068069 -4.15372,-8.154204 -3.08397,-0.472233 -5.69571,2.611735 -5.55693,5.548251 -0.7228,3.352852 0.12625,7.868937 3.5909,9.436942 0.39609,0.128178 0.81147,0.202386 1.22877,0.201422 z m 35.52923,-0.0212 c 3.2401,-0.343092 4.91122,-3.982174 4.75124,-6.927364 0.29009,-3.147574 -0.82399,-7.064214 -4.10167,-8.206246 -3.12734,-0.5927 -5.7304,2.587642 -5.6321,5.554034 -0.72088,3.408748 0.18311,7.815931 3.60824,9.40803 0.44332,0.127214 0.91074,0.22166 1.37429,0.171546 z M 317.39813,49.26949 c 0.77581,-0.119504 0.45489,-1.52271 -0.38935,-1.023492 -1.10059,0.08963 -2.19829,-0.07999 -3.30948,0.07132 -0.90881,0.103121 -1.33478,-0.794121 -1.08421,-1.594989 V 36.515352 c 4.44766,-0.0039 8.96856,0.0067 13.36996,-0.0058 -4.29153,-1.845562 -9.70775,-2.876764 -13.82966,-0.120468 -4.22311,3.226602 -2.82376,11.16782 2.44404,12.480433 0.90977,0.295869 1.86387,0.285267 2.7987,0.399953 z"
     id="path9"
     clip-path="url(#clipPath20)" />
  <path
     d="m 142.4986,45.197686 c -0.14842,-3.814483 -0.29587,-8.430797 -0.29587,-13.045185 h -0.14842 c -1.03602,4.049636 -2.41802,8.571504 -3.70076,12.290577 l -4.04578,12.38695 h -5.8711 l -3.55235,-12.292504 c -1.08613,-3.720036 -2.22046,-8.239977 -3.00976,-12.385023 h -0.0983 c -0.19757,4.285752 -0.34502,9.182515 -0.5927,13.138668 l -0.59174,12.056387 h -6.95627 l 2.12119,-31.740777 h 10.01518 l 3.25745,10.595358 c 1.03602,3.673777 2.07204,7.629929 2.81219,11.349002 h 0.14745 c 0.93772,-3.671849 2.07204,-7.864118 3.15818,-11.395262 l 3.55138,-10.549098 h 9.81955 l 1.82532,31.740777 h -7.35141 z m 20.03422,-3.626554 c 0,6.216123 3.05988,10.595358 8.09156,10.595358 5.08277,0 7.9923,-4.614387 7.9923,-10.784251 0,-5.697631 -2.86231,-10.595357 -8.04048,-10.595357 -5.08277,0 -8.04338,4.615351 -8.04338,10.78425 m 24.02797,-0.424045 c 0,10.408392 -6.61126,16.717998 -16.33058,16.717998 -9.86869,0 -15.6415,-7.111438 -15.6415,-16.152283 0,-9.513077 6.36551,-16.624515 16.18313,-16.624515 10.21371,0 15.78895,7.299367 15.78895,16.0588 m 11.35093,0.424045 c 0,6.216123 3.06084,10.595358 8.09156,10.595358 5.08276,0 7.99326,-4.614387 7.99326,-10.784251 0,-5.697631 -2.86231,-10.595357 -8.04145,-10.595357 -5.08276,0 -8.04337,4.615351 -8.04337,10.78425 m 24.02796,-0.424045 c 0,10.408392 -6.61125,16.717998 -16.32961,16.717998 -9.86869,0 -15.6415,-7.111438 -15.6415,-16.152283 0,-9.513077 6.36454,-16.624515 16.18313,-16.624515 10.21371,0 15.78798,7.299367 15.78798,16.0588 m 4.93724,16.200469 V 25.606779 h 8.7816 l 6.90809,11.632342 a 90.215701,90.215701 0 0 1 5.42682,10.877733 h 0.14842 c -0.49344,-4.191305 -0.64089,-8.477057 -0.64089,-13.233113 v -9.276962 h 6.90713 v 31.740777 h -7.89496 L 239.4094,45.10324 c -1.97374,-3.390438 -4.14408,-7.48826 -5.7728,-11.208297 l -0.14842,0.04626 c 0.19757,4.192269 0.29587,8.66595 0.29587,13.846052 v 9.560301 z m 34.04605,-31.740777 h 7.54897 v 25.712584 h 13.22252 v 6.028193 h -20.77149 z m 32.7633,31.739813 H 286.1373 V 25.605816 h 7.54897 z m 34.28987,-1.459102 c -2.31779,0.752681 -6.70956,1.789665 -11.09939,1.789665 -6.06964,0 -10.46044,-1.460066 -13.51935,-4.285751 -3.05987,-2.73124 -4.73678,-6.875322 -4.68859,-11.537896 0.0501,-10.549098 8.09252,-16.576328 18.99628,-16.576328 4.2925,0 7.59812,0.799904 9.22684,1.554513 l -1.5786,5.74389 c -1.82533,-0.752681 -4.0959,-1.364656 -7.74654,-1.364656 -6.26721,0 -11.00206,3.390438 -11.00206,10.265759 0,6.546686 4.2925,10.408392 10.45947,10.408392 1.72606,0 3.10806,-0.188893 3.70076,-0.472233 V 44.77364 h -5.13191 v -5.604148 h 12.38406 z m 13.4249,-30.280711 v 12.19613 H 353.7851 V 25.605816 h 7.4979 v 31.74174 h -7.4979 V 44.067219 H 341.40104 V 57.347556 H 333.8511 V 25.606779 Z m 32.86161,6.02723 h -8.93002 v -6.02723 h 25.55742 v 6.02723 h -9.07843 v 25.713547 h -7.54897 z M 57.752119,20.207908 c -15.680049,0 -28.39178,12.133486 -28.39178,27.099405 0,14.966882 12.711731,27.100369 28.39178,27.100369 15.681014,0 28.391781,-12.133487 28.391781,-27.100369 0,-14.966882 -12.710767,-27.100369 -28.391781,-27.100369 m 44.998951,27.100369 c 0,23.720533 -20.146023,42.951 -44.998951,42.951 -24.851963,0 -44.997984,-19.230467 -44.997984,-42.951 0,-23.720533 20.146021,-42.9510007 44.997984,-42.9510007 24.852928,0 44.998951,19.2304677 44.998951,42.9510007"
     style="fill:url(#c);fill-opacity:1;stroke-width:0.892132"
     id="path10"
     clip-path="url(#clipPath19)" />
  <path
     d="M 58.622377,74.407682 H 55.925832 V 20.206944 h 2.695581 z"
     style="fill:#deddde;stroke-width:0.892132"
     id="path11"
     clip-path="url(#clipPath18)" />
  <path
     d="m 28.721379,46.891941 h 57.423485 v 2.573186 H 28.721379 Z"
     style="fill:#deddde;stroke-width:0.892132"
     id="path12"
     clip-path="url(#clipPath17)" />
  <path
     d="m 38.364562,68.18674 -1.906278,-1.819541 40.984007,-39.118207 1.905314,1.819541 z"
     style="fill:#deddde;stroke-width:0.892132"
     id="path13"
     clip-path="url(#clipPath16)" />
  <path
     d="M 78.469638,66.076149 76.562397,67.89569 36.1788,29.348982 38.084114,27.528477 Z"
     style="fill:#deddde;stroke-width:0.892132"
     id="path14"
     clip-path="url(#clipPath15)" />
</svg>
