<?xml version="1.0" encoding="UTF-8" standalone="no"?>
<svg
   height="101.1144"
   viewBox="0 0 519.99863 80.891526"
   width="649.99847"
   version="1.1"
   id="svg35"
   sodipodi:docname="multivision.svg"
   inkscape:version="1.3 (0e150ed, 2023-07-21)"
   xmlns:inkscape="http://www.inkscape.org/namespaces/inkscape"
   xmlns:sodipodi="http://sodipodi.sourceforge.net/DTD/sodipodi-0.dtd"
   xmlns="http://www.w3.org/2000/svg"
   xmlns:svg="http://www.w3.org/2000/svg">
  <defs
     id="defs35" />
  <sodipodi:namedview
     id="namedview35"
     pagecolor="#ffffff"
     bordercolor="#000000"
     borderopacity="0.25"
     inkscape:showpageshadow="2"
     inkscape:pageopacity="0.0"
     inkscape:pagecheckerboard="0"
     inkscape:deskcolor="#d1d1d1"
     inkscape:zoom="1.1674747"
     inkscape:cx="448.832"
     inkscape:cy="74.948092"
     inkscape:window-width="1560"
     inkscape:window-height="1212"
     inkscape:window-x="0"
     inkscape:window-y="25"
     inkscape:window-maximized="0"
     inkscape:current-layer="svg35" />
  <g
     id="g35"
     transform="matrix(0.72410116,0,0,0.72410116,-114.42898,8.3978783e-8)">
    <path
       d="m 159.029,96.579 16.839,0.093 m -6.552,12.238 V 92.086 c -1.102,8.95 -5.404,11.387 -9.237,14.759 m 25.23,-14.291 0.168,13.829 c 0,1.755 0.107,1.874 2.103,1.874 h 7.322"
       id="path2"
       style="fill:none;stroke:#ebe427;stroke-width:2;stroke-linecap:round;stroke-linejoin:round;stroke-opacity:1" />
    <path
       d="m 180.079,99.759 15.136,-2.339 -3.66,5.42 m 16.015,5.055 V 94.899 h 11.287 v 12.943 m -11.21,-2.059 h 10.832 m 10.051,-4.07 c 2.323,-2.437 3.926,-6.01 4.748,-9.118 m 10.448,4.262 H 232.1 m 1.125,12.339 c 2.865,-2.269 5.476,-5.4 6.088,-12.437 m 1.842,-4.96 1.446,2.1 m 1.691,-2.967 1.447,2.1 m 4.732,7.59 h 17.582 m 249.505,-0.036 h 17.582 m -261.478,6.523 c 5.568,-0.136 11.262,-0.269 14.931,-1.86"
       id="path3"
       style="fill:none;stroke:#ebe427;stroke-width:2;stroke-linecap:round;stroke-linejoin:round;stroke-opacity:1" />
    <path
       d="m 276.25,107.115 c 2.1,-4.13 4.352,-9.74 5.57,-14.322 m 3.783,8.733 4.948,6.242 m 7.795,2.945 V 94.779 h 17.06 v 13.398 c 0,1.048 -0.193,1.883 -1.246,1.766 h -3.307"
       id="path4"
       style="fill:none;stroke:#ebe427;stroke-width:2;stroke-linecap:round;stroke-linejoin:round;stroke-opacity:1" />
    <path
       d="m 307.262,91.013 c -0.22,6.143 -2.032,11.533 -5.311,14.984"
       id="path5"
       style="fill:none;stroke:#ebe427;stroke-width:2;stroke-linecap:round;stroke-linejoin:round;stroke-opacity:1" />
    <path
       d="m 312.384,105.936 c -1.158,-2.6 -3.957,-6.651 -5.92,-8.459"
       id="path6"
       style="fill:none;stroke:#ebe427;stroke-width:2;stroke-linecap:round;stroke-linejoin:round;stroke-opacity:1" />
    <path
       d="m 320.47,109.883 1.569,-4.148 v -8.738 l 17.7,-0.215"
       stroke-linecap="round"
       stroke-width="2"
       id="path7"
       style="fill:none;stroke:#ebe427;stroke-linejoin:round;stroke-opacity:1" />
    <path
       d="m 333.207,95.559 c 0.546,10.138 2.57,13.404 4.556,14.516 1.487,-0.23 1.906,-1.045 1.978,-2.62"
       stroke-linecap="round"
       stroke-width="2"
       id="path8"
       style="fill:none;stroke:#ebe427;stroke-linejoin:round;stroke-opacity:1" />
    <path
       d="m 338.185,100.143 c -1.518,4.222 -3.715,7.003 -5.79,10.043"
       stroke-linecap="round"
       stroke-width="2"
       id="path9"
       style="fill:none;stroke:#ebe427;stroke-linejoin:round;stroke-opacity:1" />
    <path
       d="m 330.536,108.235 h -5.725 v -8.629 h 5.865"
       stroke-linecap="round"
       id="path10"
       style="fill:none;stroke:#ebe427;stroke-linejoin:round;stroke-opacity:1" />
    <path
       d="m 325.16,102.393 h 5.391 v 2.99 h -5.652"
       stroke-linecap="round"
       id="path11"
       style="fill:none;stroke:#ebe427;stroke-linejoin:round;stroke-opacity:1" />
    <path
       d="m 328.124,102.384 v -2.697 m 0,8.309 v -2.697"
       stroke-width="2"
       id="path12"
       style="fill:none;stroke:#ebe427;stroke-linejoin:round;stroke-opacity:1" />
    <path
       d="m 339.809,91.445 h -8.457 m -2.885,0 h -8.28 m 17.186,2.66 2.394,2.668"
       stroke-linecap="round"
       stroke-width="2"
       id="path13"
       style="fill:none;stroke:#ebe427;stroke-linejoin:round;stroke-opacity:1" />
    <circle
       cx="334.26099"
       cy="91.357994"
       r="2"
       stroke="none"
       id="circle13"
       style="fill:#ebe427;fill-opacity:1" />
    <circle
       cx="325.77499"
       cy="91.622002"
       r="2.25"
       stroke="none"
       id="circle14"
       style="fill:#ebe427;fill-opacity:1" />
    <path
       d="m 330.55,101.934 a 1,0.868 0 0 0 -1,0.868 v 2.187 a 1,0.868 0 0 0 1,0.867 1,0.868 0 0 0 1,-0.867 v -2.187 a 1,0.868 0 0 0 -1,-0.868 z"
       stroke="none"
       id="path14"
       style="fill:#ebe427;fill-opacity:1" />
    <g
       fill="none"
       stroke="#050000"
       stroke-linecap="round"
       stroke-linejoin="round"
       stroke-width="2"
       id="g15"
       transform="translate(-13.918,-11.857)">
      <path
         d="m 442.516,105.043 h 10.03 m -13.333,4.723 h 15.623 m -7.696,-0.296 c 1.148,7.82 -1.452,9.534 -4.057,11.24"
         id="path15"
         style="stroke:#ebe427;stroke-opacity:1" />
    </g>
    <path
       d="m 450.962,93.357 0.09,14.208 c 5.889,-1.02 9.847,-4.045 12.706,-7.99"
       fill="none"
       stroke="#050000"
       stroke-linecap="round"
       stroke-linejoin="round"
       stroke-width="2"
       id="path16"
       style="stroke:#ebe427;stroke-opacity:1" />
    <g
       fill="none"
       stroke="#050000"
       stroke-linecap="round"
       stroke-linejoin="round"
       stroke-width="2"
       id="g18"
       transform="translate(-13.918,-11.857)">
      <path
         d="m 488.07,105.034 0.295,12.689 c 0.01,1.447 0.68,2.114 1.69,2.112 l 9.724,-0.291"
         id="path17"
         style="stroke:#ebe427;stroke-opacity:1" />
      <path
         d="m 488.245,111.269 c 3.54,-0.096 7.055,-0.883 10.195,-1.938 m -0.013,-4.847 1.447,2.1 m 1.691,-2.968 1.446,2.1"
         id="path18"
         style="stroke:#ebe427;stroke-opacity:1" />
    </g>
    <g
       fill="none"
       stroke="#050000"
       stroke-linecap="round"
       stroke-linejoin="round"
       stroke-width="2"
       id="g19"
       transform="translate(-13.918,-11.857)">
      <path
         d="m 522.166,103.846 1.447,2.1 m 1.691,-2.968 1.447,2.1 m -17.371,8.476 c 1.919,-2.61 3.959,-5.414 4.592,-9.449 m 0.192,17.177 c 3.455,-3.243 5.839,-7.12 5.742,-12.362 m 4.997,-0.169 h -12.13"
         id="path19"
         style="stroke:#ebe427;stroke-opacity:1" />
    </g>
    <g
       fill="none"
       stroke="#050000"
       stroke-linecap="round"
       stroke-linejoin="round"
       stroke-width="2"
       id="g21"
       transform="translate(-13.918,-11.857)">
      <path
         d="m 562.334,105.182 c -1.235,5.034 -3.327,9.32 -5.36,13.482 m 9.349,-5.294 4.74,6.239"
         id="path20"
         style="stroke:#ebe427;stroke-opacity:1" />
      <path
         d="m 554.487,118.875 c 8.288,-0.286 12.303,0.035 14.443,-1.842"
         id="path21"
         style="stroke:#ebe427;stroke-opacity:1" />
    </g>
    <path
       d="m 396.446,92.823 h -17.189 v 11.22 c 0.155,2.519 -0.822,4.77 -1.635,6.125"
       fill="none"
       stroke="#0e0000"
       stroke-linecap="round"
       stroke-linejoin="round"
       stroke-width="2"
       id="path22"
       style="stroke:#ebe427;stroke-opacity:1" />
    <path
       d="m 387.164,89.881 a 1.207,0.836 0 0 0 -1.207,0.836 v 2.12 a 1.207,0.836 0 0 0 1.207,0.837 1.207,0.836 0 0 0 1.207,-0.836 v -2.12 a 1.207,0.836 0 0 0 -1.207,-0.837 z"
       stroke="none"
       id="path23"
       style="fill:#ebe427;fill-opacity:1" />
    <path
       d="m 382.196,96.395 3.66,0.156 -3.598,4.955 3.447,0.169 -0.055,3.096 c -1.07,2.501 -2.18,3.96 -4.252,5.47"
       fill="none"
       stroke="#0e0000"
       stroke-width="1.5"
       id="path24"
       style="stroke:#ebe427;stroke-linecap:round;stroke-linejoin:round;stroke-opacity:1" />
    <path
       d="m 382.272,104.569 c 5.088,7.675 8.947,4.831 14.56,5.32 m -7.906,-12.893 6.45,-1.109"
       fill="none"
       stroke="#0e0000"
       stroke-width="1.5"
       id="path25"
       style="stroke:#ebe427;stroke-linecap:round;stroke-linejoin:round;stroke-opacity:1" />
    <path
       d="m 392.347,96.301 a 0.75,0.647 0 0 0 -0.75,0.648 v 8.627 a 0.75,0.647 0 0 0 0.75,0.648 0.75,0.647 0 0 0 0.75,-0.648 v -8.627 a 0.75,0.647 0 0 0 -0.75,-0.648 z"
       stroke="#000000"
       id="path26"
       style="fill:#ebe427;fill-opacity:1;stroke:#ebe427;stroke-linecap:round;stroke-linejoin:round;stroke-opacity:1" />
    <path
       d="m 388.03,106.146 h 8.491 m -7.411,-5.175 h 6.523"
       fill="none"
       stroke="#0e0000"
       stroke-width="1.5"
       id="path27"
       style="stroke:#ebe427;stroke-linecap:round;stroke-linejoin:round;stroke-opacity:1" />
    <path
       d="m 363.164,89.881 a 1.207,0.78 0 0 0 -1.207,0.78 v 1.979 a 1.207,0.78 0 0 0 1.207,0.78 1.207,0.78 0 0 0 1.207,-0.78 v -1.979 a 1.207,0.78 0 0 0 -1.207,-0.78 z"
       stroke="none"
       id="path28"
       style="fill:#ebe427;fill-opacity:1" />
    <path
       d="m 354.304,95.452 v -2.589 h 18.004 v 3.09"
       stroke-width="2"
       id="path29"
       style="fill:none;stroke:#ebe427;stroke-linecap:round;stroke-linejoin:round;stroke-opacity:1" />
    <path
       d="m 362.522,95.915 c 1.629,6.731 5.19,8.948 10.038,13.023 m -2.636,-12.994 h -13.032"
       stroke-width="1.5"
       id="path30"
       style="fill:none;stroke:#ebe427;stroke-linecap:round;stroke-linejoin:round;stroke-opacity:1" />
    <path
       d="m 363.991,95.996 c -1.933,2.602 -5.296,3.778 -9.034,4.578 m 9.276,-0.271 c -3.048,2.139 -5.745,3.894 -9.607,4.454 m 16.272,-5.354 c -4.833,3.815 -11.36,8.694 -16.422,9.847"
       stroke-width="1.5"
       id="path31"
       style="fill:none;stroke:#ebe427;stroke-linecap:round;stroke-linejoin:round;stroke-opacity:1" />
    <path
       d="m 365.552,103.378 -0.193,5.074 c -0.019,1.338 -1.27,1.98 -3.32,1.575"
       stroke-width="1.5"
       id="path32"
       style="fill:none;stroke:#ebe427;stroke-linecap:round;stroke-linejoin:round;stroke-opacity:1" />
    <path
       d="m 415.302,110.056 c 2.683,0.36 3.194,-0.551 3.077,-1.833 V 91.76 h -15.686 l -0.223,13.057 c 0,2.125 -0.684,3.881 -1.508,5.061 m 1.708,-12.799 h 15.606 m -15.774,6.024 h 15.77 m -7.91,7.01 V 91.769"
       id="path33"
       style="fill:none;stroke:#ebe427;stroke-width:2;stroke-linecap:round;stroke-linejoin:round;stroke-opacity:1" />
  </g>
  <path
     d="M 28.856879,8.3978783e-8 C 13.009201,8.3978783e-8 0,12.489297 0,27.947408 0,43.40552 13.009201,55.895541 28.856879,55.895541 a 28.942323,28.942323 0 0 0 25.044487,-14.3401 c 0.0239,1.209249 -0.02896,2.580697 0.04345,3.67409 a 2.9174036,2.9174036 0 0 0 0.03259,0.282399 c 0.278055,1.690776 1.107875,3.75012 2.955057,5.394554 1.846458,1.645158 4.615421,2.70669 8.150482,2.726965 l 16.601468,0.09486 a 2.9174036,2.9174036 0 0 0 0.0181,0 c 0.617659,0 1.125253,0.0181 1.789978,-0.06517 0.664001,-0.08327 1.751601,-0.366395 2.545216,-1.251247 0.794339,-0.885576 0.936987,-1.817494 1.006501,-2.459771 0.07096,-0.643002 0.06517,-1.199112 0.07241,-1.894973 0.04417,-4.151272 -0.0065,-12.239482 -0.02896,-16.28938 0.0391,-3.424998 2.102065,-4.706657 3.986176,-4.811652 0.942056,-0.05286 1.776945,0.223747 2.443842,0.870369 0.666173,0.645899 1.285279,1.753773 1.338139,3.856563 a 2.9174036,2.9174036 0 0 0 0.01158,0.186818 c 0.08038,0.897886 0.115857,4.504634 0.104995,8.13238 -0.01014,3.627747 -0.03983,7.449553 0.0036,9.689198 0.0058,0.283124 -0.0239,0.555386 0.08617,1.148425 0.109339,0.593762 0.693689,1.77622 1.555369,2.300469 1.724809,1.048498 2.181717,0.561178 3.099153,0.577109 a 2.9174036,2.9174036 0 0 0 0.04345,0 l 5.908668,0.01086 -0.147,-0.0029 c 0.54308,0.02896 0.98913,0.06155 1.59303,0.0087 0.6039,-0.05286 1.64371,-0.260677 2.4547,-1.122357 0.81172,-0.86168 0.93119,-1.790702 0.98043,-2.324365 0.0492,-0.53511 0.0333,-0.916712 0.0362,-1.371447 l 0.007,-1.064429 c 4.16575,4.45105 9.69209,6.803655 15.18874,7.065055 5.90143,0.280951 11.82747,-1.766807 16.20249,-5.752984 -0.0854,0.850095 -0.11875,1.687156 0.79796,3.012261 0.63431,0.917436 1.81098,1.411997 2.49019,1.524233 0.6792,0.11296 1.12163,0.08544 1.62198,0.08038 l 6.54877,-0.06517 c 0.45257,-0.0043 0.8501,0.02172 1.496,-0.08182 0.32584,-0.05141 0.78492,-0.199852 1.24545,-0.448219 0.47429,0.272262 0.95437,0.446771 1.307,0.506147 0.67993,0.114408 1.11657,0.08689 1.60751,0.08255 l 5.82032,-0.04562 c 0.55032,0 1.01664,0.01883 1.66326,-0.06662 0.6459,-0.08544 1.7364,-0.396084 2.49598,-1.275866 0.75886,-0.879783 0.88557,-1.771876 0.95002,-2.395327 0.0558,-0.541628 0.0507,-1.037637 0.05,-1.595195 4.21355,4.129549 10.12294,6.650869 16.52834,6.666075 a 2.9174036,2.9174036 0 0 0 0.007,0 c 12.45454,0 22.85046,-9.374213 22.85046,-21.183579 7.2e-4,-11.81009 -10.3952,-21.185028 -22.85046,-21.185028 a 2.9174036,2.9174036 0 0 0 -0.007,0 c -6.40106,0.01448 -12.30828,2.53363 -16.52182,6.658834 V 6.8456524 c 0,-0.6053485 0.0145,-1.095565 -0.0362,-1.6886039 -0.0507,-0.5930388 -0.14988,-1.4815109 -0.9015,-2.3801205 -0.75162,-0.8986095 -1.84863,-1.2215586 -2.50756,-1.3113472 -0.65894,-0.089789 -1.15132,-0.069514 -1.74509,-0.063721 l -5.83046,0.063721 c -0.48153,0 -0.89426,-0.024619 -1.54016,0.07241 -0.35988,0.053584 -0.87254,0.2461944 -1.38304,0.5387313 A 4.6675561,4.6675561 0 0 0 154.2652,1.5285775 c -0.59883,-0.039825 -1.1267,-0.027516 -1.80301,-0.032585 a 2.9174036,2.9174036 0 0 0 -0.002,0 l -4.17372,-0.030412 a 2.9174036,2.9174036 0 0 0 -0.0217,0 c -0.81678,0 -1.4482,-0.013758 -2.10931,0.028964 -0.6611,0.042722 -1.50251,0.07241 -2.49742,0.7921666 -0.99492,0.7197566 -1.43372,1.9782444 -1.53147,2.6987251 -0.0978,0.7197565 -0.0688,1.2367647 -0.0659,1.8732497 -0.007,6.8485491 -0.006,8.8716881 -0.008,12.0700421 -5.21136,-5.19977 -11.86802,-7.308353 -18.11919,-6.414088 -5.84204,0.836337 -11.24094,4.156341 -14.92155,9.229394 -0.0333,-0.07241 -0.0492,-0.147717 -0.0847,-0.220127 -1.52785,-3.128117 -4.42933,-5.730537 -8.74714,-7.428554 -2.201267,-0.865301 -4.910129,-1.153493 -7.797121,-0.784201 -1.774047,0.227367 -3.616161,0.782029 -5.309833,1.727705 l 0.02896,-8.0252135 a 2.9174036,2.9174036 0 0 0 0,-0.026792 C 87.094888,5.6762291 87.549623,4.9144746 86.433783,3.1295653 85.876225,2.2374727 84.685803,1.6350205 83.992114,1.5054064 83.298425,1.3750682 82.885688,1.409825 82.441089,1.4148937 l -6.43219,0.06879 c -0.48732,0.00507 -0.901506,-0.013758 -1.529302,0.076031 -0.62852,0.089064 -1.766083,0.458356 -2.476426,1.3649307 -0.711067,0.9072987 -0.778409,1.725533 -0.828372,2.3098827 -0.05069,0.5836255 -0.042,1.0970132 -0.042,1.7479802 -0.02027,2.7573772 -0.0058,5.1556007 -0.008,7.7261597 -0.05938,0 -0.140475,-0.0094 -0.2013,-0.01014 a 2.9174036,2.9174036 0 0 0 -0.156405,7.25e-4 c 0,0 -0.689345,0.01014 -1.170148,0.02317 -0.0043,-1.743636 -0.0072,-4.246854 -0.03331,-6.9079255 a 2.9174036,2.9174036 0 0 0 -0.021,-0.3200527 C 69.459404,6.7978618 69.224071,5.7652935 68.341392,4.9094059 67.459436,4.0535184 66.267566,3.800083 65.400093,3.7950142 c -2.009381,-0.01231 -5.19253,0.047791 -6.309094,0.038377 -0.609693,-0.00507 -1.173044,0.00507 -1.842837,0.1491648 -0.670518,0.1448207 -1.548128,0.5039749 -2.201268,1.2128699 -1.305554,1.4192383 -1.120908,2.7501362 -1.123805,3.7522922 l -0.01593,5.2859379 C 48.813107,5.5009966 39.291177,0.00434469 28.856879,8.3978783e-8 a 2.9174036,2.9174036 0 0 0 -0.0014,0 z M 314.17446,2.2591957 c -0.47646,0 -0.86892,-0.011586 -1.38521,0.039101 -0.51628,0.050687 -1.36131,0.1527854 -2.20561,0.8928168 -0.84358,0.7393073 -1.10787,1.7653586 -1.17883,2.3214683 -0.0702,0.5553856 -0.0529,0.9152639 -0.0529,1.3323461 v 6.4097441 c -0.0775,-0.01448 -0.19334,-0.0601 -0.25706,-0.06807 -0.51266,-0.063 -0.8233,-0.04634 -1.17884,-0.04634 h -7.41769 c -0.47646,0 -0.86385,-0.01014 -1.36783,0.03621 -0.50325,0.04634 -1.3041,0.123097 -2.15854,0.830544 -0.85444,0.707447 -1.16436,1.765358 -1.24039,2.326537 -0.0753,0.560454 -0.055,0.90585 -0.055,1.30121 0,16.511678 0,16.499369 -0.0138,19.384188 a 2.9174036,2.9174036 0 0 0 0,0.01376 c 0,0.99057 -0.27733,1.375792 -0.84647,1.813149 -0.56842,0.438081 -1.55537,0.767547 -2.57925,0.768271 -1.02388,0 -2.01155,-0.328742 -2.57997,-0.766099 -0.5677,-0.436633 -0.84358,-0.81751 -0.84358,-1.80446 V 17.63476 c 0,-0.388119 0.0319,-0.749445 -0.0818,-1.398964 -0.11296,-0.649519 -0.664,-1.829079 -1.53944,-2.404016 -1.75088,-1.149148 -2.46339,-0.691516 -3.68857,-0.713963 a 2.9174036,2.9174036 0 0 0 -0.0529,0 h -5.72982 c -0.99925,0 -1.73639,-0.283124 -2.97098,0.318604 -0.0195,-0.668345 0.0261,-2.585041 -0.0123,-3.134634 0.0616,-2.8276148 -1.34755,-5.5176506 -3.93766,-7.0114713 -2.60749,-1.503234 -6.39599,-1.1998356 -9.55235,1.2628325 a 2.9174036,2.9174036 0 0 0 -0.16865,0.1426479 L 249.5535,15.18585 238.20901,4.7703785 a 2.9174036,2.9174036 0 0 0 -0.0362,-0.034033 c -1.96014,-1.7385669 -4.33302,-2.5712833 -6.56904,-2.4452897 -3.72623,0.2114376 -7.03103,3.349692 -7.0093,7.3387653 L 224.57197,49.3627 a 2.9174036,2.9174036 0 0 0 0,7.24e-4 c 0,0.362051 -0.0188,0.680655 0.0478,1.204905 0.0659,0.524249 0.32367,1.522784 1.13756,2.246161 0.81462,0.724102 1.62923,0.82982 2.10931,0.88268 0.48008,0.05286 0.8233,0.04634 1.23676,0.05213 a 2.9174036,2.9174036 0 0 0 0.0471,0 l 6.45029,-0.021 c 0.45908,0 0.83272,0.01014 1.3157,-0.03258 0.48297,-0.042 1.24111,-0.09848 2.09772,-0.774789 0.85733,-0.67631 1.20201,-1.754497 1.28166,-2.312779 0.0782,-0.557558 0.0557,-0.882679 0.0557,-1.24473 V 27.853275 l 0.95075,0.849371 0.004,0.0036 c 0.10934,0.110064 1.26066,1.271522 2.71466,2.567663 0.7603,0.677759 1.56912,1.365655 2.37215,1.947832 0.40188,0.291089 0.79579,0.556834 1.25487,0.798684 0.45908,0.242574 0.90947,0.555385 2.01735,0.555385 1.14987,0 1.57998,-0.332362 2.0282,-0.577832 a 10.079488,10.079488 0 0 0 1.22084,-0.803753 c 0.77913,-0.583625 1.56261,-1.269349 2.30119,-1.946384 1.40186,-1.285279 2.49815,-2.418497 2.62125,-2.545939 0.0116,-0.01014 0.65386,-0.558282 0.88847,-0.761755 l 10e-4,2.314228 c 0.001,3.175907 0.007,6.346022 0.007,6.346022 l -0.0152,14.209037 a 2.9174036,2.9174036 0 0 0 2.91668,2.918852 h 10.28876 a 2.9174036,2.9174036 0 0 0 2.91667,-2.918128 l -0.004,-4.658866 c 2.51046,4.372846 6.64073,7.091846 10.78838,7.523411 4.98472,0.517732 8.02304,-0.643002 10.48499,-1.965935 0.1231,0.221575 0.2824,0.428668 0.46922,0.635037 a 2.9174036,2.9174036 0 0 0 1.21938,0.961606 c 0.084,0.03983 0.18682,0.141924 0.26285,0.166543 1.41417,0.451839 1.92611,0.247643 3.28959,0.246195 l 6.44595,-0.0065 c 0.76031,-7.24e-4 1.12236,0.468493 2.8001,-0.495285 0.0999,-0.05793 0.1593,-0.184646 0.25199,-0.259229 0.0384,0.02896 0.0557,0.07965 0.0956,0.106443 1.76898,1.179561 2.50539,0.691517 3.69364,0.682828 l 5.89418,-0.03838 a 2.9174036,2.9174036 0 0 0 10e-4,0 c 0.44677,-0.0029 0.8081,0.0058 1.28673,-0.0362 0.47863,-0.042 1.25269,-0.09775 2.11582,-0.794339 0.86313,-0.695861 1.18391,-1.766807 1.25777,-2.32002 0.0746,-0.553213 0.0543,-0.883403 0.0543,-1.261384 v -0.498182 c 0.26068,0.49963 0.45474,1.025328 0.79217,1.493821 1.27442,1.768255 3.29032,3.437308 6.00569,3.456135 5.48652,0.03838 16.02292,0.04345 21.18214,-0.0058 0.37074,-0.0036 0.73351,0.03476 1.42648,-0.109339 0.69368,-0.144821 1.90366,-0.851543 2.3946,-1.735671 0.98115,-1.768979 0.55176,-2.414877 0.55176,-3.745051 l 10e-4,-9.583479 2.31785,6.791345 a 2.9174036,2.9174036 0 0 0 0.0862,0.220127 c 1.38665,3.188941 2.0101,5.28811 4.21571,6.820309 2.19548,1.525681 4.41774,1.299037 7.63203,1.267177 1.44893,0.01521 2.5959,0.04127 3.73709,-0.07965 1.1477,-0.123097 2.40691,-0.465597 3.45758,-1.230972 2.10206,-1.529301 2.76607,-3.544475 4.25337,-6.761656 a 2.9174036,2.9174036 0 0 0 0.0702,-0.167992 c 0.46994,-1.209249 1.13394,-3.553164 1.72336,-5.34097 l -10e-4,8.078073 c 0,0.661828 -0.0167,1.200559 0.063,1.873974 0.0797,0.673414 0.32657,1.742187 1.21069,2.571283 0.88413,0.829096 1.86746,0.993467 2.53001,1.062256 0.66256,0.06951 1.2288,0.05648 1.9348,0.05648 9.46907,0 17.45663,-0.0058 26.2197,-0.05648 4.44237,0.03041 8.31703,-0.617658 11.39301,-2.666864 1.06298,-0.708171 1.92249,-1.646606 2.68352,-2.677726 v 2.484391 a 2.9174036,2.9174036 0 0 0 2.91668,2.916679 h 10.60084 a 2.9174036,2.9174036 0 0 0 2.91596,-2.916679 v -1.651675 c 0.73279,0.725549 1.48875,1.432272 2.32219,2.051378 4.00573,2.976056 9.07009,4.621938 14.15111,4.634248 a 2.9174036,2.9174036 0 0 0 0.0116,0 c 4.95503,-0.008 9.89919,-1.568403 13.85858,-4.406156 0.8834,-0.632864 1.69584,-1.349 2.47063,-2.099893 v 1.472098 a 2.9174036,2.9174036 0 0 0 2.91595,2.916679 h 10.39448 a 2.9174036,2.9174036 0 0 0 2.91523,-2.916679 c 0,-9.393765 0.029,-10.312649 0.33526,-21.073516 0.94278,-1.339588 2.33595,-2.141168 3.6205,-2.186786 1.30049,-0.04634 2.32292,0.37436 3.08033,1.847182 0.063,6.447397 0.0673,14.159798 0.0673,21.41312 a 2.9174036,2.9174036 0 0 0 2.91523,2.916679 h 10.46109 a 2.9174036,2.9174036 0 0 0 2.91668,-2.958677 c -0.11151,-7.718919 -0.0811,-15.405977 0,-23.149514 v -0.0043 c 0.009,-0.77334 -0.12672,-2.04993 -0.66183,-3.427171 -0.58145,-1.781289 -1.71829,-4.214269 -3.98328,-6.351815 -2.2954,-2.165063 -5.77833,-3.892044 -10.35609,-4.065828 -3.12595,-0.165095 -5.87608,0.705274 -8.42999,2.199095 a 2.9174036,2.9174036 0 0 0 -2.86816,-2.829787 l -5.2215,-0.02245 a 2.9174036,2.9174036 0 0 0 -0.0261,0 l -5.17154,0.02245 a 2.9174036,2.9174036 0 0 0 -2.90364,2.915955 v 3.522028 c -0.78493,-0.75741 -1.61185,-1.47789 -2.50684,-2.114375 -3.95649,-2.813857 -8.88689,-4.356193 -13.82599,-4.357641 a 2.9174036,2.9174036 0 0 0 -0.007,0 c -5.08029,0.01231 -10.14465,1.658192 -14.14966,4.632075 -0.83344,0.619107 -1.58795,1.325105 -2.32074,2.050655 l -0.004,-3.348244 a 2.9174036,2.9174036 0 0 0 -1.05574,-2.14334 2.9174036,2.9174036 0 0 0 0.61114,-1.52206 V 7.7066087 A 2.9174036,2.9174036 0 0 0 444.32955,4.7928256 L 439.48821,4.5799399 434.64687,4.365606 a 2.9174036,2.9174036 0 0 0 -3.04412,2.9116107 v 5.9267683 a 2.9174036,2.9174036 0 0 0 0.13323,0.311363 c -4.3475,-0.0036 -9.46834,-0.0014 -14.23221,-0.01448 -3.79139,-0.01159 -7.10633,0.178129 -11.01864,2.083239 a 2.9174036,2.9174036 0 0 0 -0.0167,0.0072 c -2.23602,1.106427 -3.88842,2.768239 -5.03395,4.66828 v -2.586489 c 0,-0.404048 0.0261,-0.764651 -0.0652,-1.370724 -0.0463,-0.304122 -0.17813,-0.742927 -0.40767,-1.187525 0.25489,-0.459805 0.41998,-0.907299 0.46053,-1.188975 0.0739,-0.50687 0.05,-0.745824 0.05,-0.992018 V 7.4118995 c 0,-0.1267177 0.0724,-0.3591541 -0.12599,-1.0731179 -0.1984,-0.7146878 -1.16218,-1.7928744 -1.86311,-2.0745498 -1.40186,-0.5619025 -1.55682,-0.272262 -2.18679,-0.272262 H 389.872 c -0.90296,0 -1.26573,-0.385946 -2.88048,0.4185304 -0.80737,0.4026003 -1.59519,1.5770924 -1.74363,2.2410931 -0.14772,0.6647249 -0.097,0.93047 -0.097,1.1556655 v 5.1722542 c 0,0.03693 0.0101,0.123097 0.009,0.160751 h -5.19543 c -1.32221,0 -2.87395,1.238937 -3.28597,2.033276 -0.41201,0.794339 -0.4627,1.215042 -0.56552,1.514819 a 2.9174036,2.9174036 0 0 0 -0.0406,0.12889 c -1.70381,5.818153 -4.10565,13.857848 -4.51477,15.227848 -0.47284,-1.35769 -3.60892,-10.347406 -5.24973,-15.343704 a 2.9174036,2.9174036 0 0 0 -0.11079,-0.282399 c -0.65749,-1.467753 -2.0369,-2.546664 -3.2266,-2.937679 -1.1897,-0.391014 -2.14841,-0.340327 -2.71538,-0.340327 h -2.66903 c -0.001,-0.07169 0.0123,-0.202748 0.0123,-0.27009 V 7.3489027 c 0,-0.1259936 0.0738,-0.3555336 -0.12455,-1.0702215 -0.19768,-0.7154119 -1.16508,-1.7993914 -1.86673,-2.0796185 -1.40403,-0.5611784 -1.55465,-0.2708138 -2.18389,-0.2708138 h -7.42276 c -0.90296,0 -1.26573,-0.3852219 -2.88048,0.4192545 -0.80737,0.4018762 -1.59519,1.5785406 -1.74363,2.2418172 -0.14844,0.6647249 -0.0985,0.93047 -0.0985,1.1556655 v 5.1737029 c 0,0.236057 -0.0304,0.477907 0.0623,1.029672 0.0471,0.27733 0.19768,0.698757 0.44026,1.120184 -0.0311,0.05793 -0.0601,0.09993 -0.0869,0.158578 -0.22012,0.03114 -0.4388,0.06517 -0.68717,0.06517 -0.097,0 -0.43446,-0.01303 -0.56262,-0.01593 V 8.2938548 c 0,-0.3620506 0.0413,-0.7161361 -0.0956,-1.4054804 -0.13713,-0.6893443 -0.83444,-1.9123512 -1.7193,-2.4076364 -1.77042,-0.9905703 -2.3946,-0.5524891 -3.68857,-0.5524891 h -5.60961 c -1.20563,0 -1.83777,-0.4670453 -3.61037,0.5973834 -0.24764,0.1491649 -0.41418,0.4163582 -0.61548,0.6444501 -0.11731,-0.5778328 -0.36929,-1.3555174 -1.08253,-1.9811408 -0.8472,-0.744376 -1.69657,-0.844302 -2.20996,-0.8928168 -0.51339,-0.049239 -0.89716,-0.037653 -1.36566,-0.037653 z M 29.294961,14.466817 c 5.910837,0 10.702215,6.005695 10.702215,13.415422 0,7.409003 -4.791378,13.416147 -10.702215,13.416147 -5.910838,0 -10.70294,-6.007144 -10.70294,-13.416147 0,-7.409727 4.792102,-13.415422 10.70294,-13.415422 z m 41.143428,10.127279 c 0.0036,0.881231 1.390998,2.260644 0.67269,2.264264 0.0087,4.553148 0.021,9.097607 -0.01593,14.105491 a 2.9174036,2.9174036 0 0 0 0,0.02462 c 0,0.345397 0.0094,0.147717 0,0.429392 l -0.417806,0.01448 c -0.609693,0.02317 -0.784926,-0.03983 -0.902954,-0.06951 -0.0072,-0.113684 -0.183198,-1.047051 -0.186094,-2.750861 l -0.02172,-11.768816 c 0.256332,0.0022 0.872542,0.0029 1.011569,0.0051 0.205645,0.0022 0.302674,0.0051 0.313536,0.0051 0.0051,0 -0.0029,7.24e-4 -0.08255,-0.0051 -0.04055,-0.0036 -0.08472,-0.0036 -0.252711,-0.03186 -0.084,-0.01448 -0.480079,-0.124545 -0.479355,-0.124545 l -0.09196,-0.03403 -0.10427,-0.04345 -0.221575,-0.107167 -0.09413,-0.05431 -7.25e-4,-0.869646 v -0.0014 c 7.25e-4,-0.03186 0.0094,-0.03258 0.01086,-0.063 l 0.863853,-0.924677 z m 56.185901,1.128149 c 0.72121,-0.0051 1.55393,0.205645 2.46702,0.988399 l -5.07016,0.09631 c 0.8682,-0.639381 1.79143,-1.078911 2.60314,-1.084704 z m 59.9831,0.249815 c 3.31638,0 6.00642,3.6053 6.00642,8.051281 0,4.445981 -2.68932,8.049833 -6.00642,8.049833 -3.31711,0 -6.0057,-3.603852 -6.0057,-8.049833 0,-4.445981 2.68859,-8.051281 6.0057,-8.051281 z m 278.21052,0.383774 c 3.3497,0.280227 5.2367,3.135358 5.2367,8.061418 0,3.745776 -1.02098,6.224374 -3.03253,7.365557 -4.31637,2.448186 -8.6016,-0.506871 -9.03389,-6.232338 -0.40622,-5.372831 1.51337,-8.687042 5.30621,-9.15626 a 7.3930728,7.3930728 0 0 1 1.52351,-0.03838 z m -33.68735,0.249091 v 6.268544 c -0.64952,-0.897886 -1.37942,-1.729878 -2.24327,-2.434429 -3.04557,-2.482942 -7.16426,-3.687123 -11.81009,-3.687123 -0.20709,0 -0.18971,-0.05793 -0.35191,-0.07458 0.13758,-0.0094 0.0825,-0.04634 0.24329,-0.04634 4.92896,0.13758 9.51107,0.01593 14.16198,-0.02607 z m -90.68571,1.076738 c 0.86675,0.03331 -0.18392,-0.07096 0.83416,0.02534 v 13.728958 c -0.56842,-0.02172 -0.58869,-0.01955 -0.83416,-0.05865 0.007,-4.483635 0.003,-9.142502 0,-13.69565 z m 60.41393,4.354745 c 0.004,0.0072 0.0109,0.01303 0.0145,0.02027 0.005,0.0094 0.007,0.01955 0.0116,0.02896 z m 0.57711,0.826923 c 1.33959,2.314227 3.14694,4.283783 5.5973,5.446689 2.68135,1.271522 5.86015,1.71612 9.71744,1.683535 0.1832,0.02752 0.22302,0.04345 0.23099,0.05648 0.0101,0.01593 0.10137,0.243298 0.0666,0.583626 -0.0333,0.323673 -0.19189,0.666173 -0.29544,0.810993 -5.84784,-0.130338 -10.34813,-0.03331 -15.31691,0 z m -269.99343,7.259838 c -1.50613,1.170872 -3.40979,1.78853 -5.1107,1.584334 a 5.5372016,5.5372016 0 0 1 -3.23311,-1.51482 z"
     fill="#ffffff"
     id="path34"
     style="stroke-width:0.724101" />
  <path
     d="m 314.17446,5.1751511 c -1.90656,0 -1.90583,0 -1.90583,1.6705013 V 49.296083 c 0,1.515544 0,1.549576 2.35188,1.533646 l 5.8949,-0.03693 c 1.8175,-0.01231 1.8175,0.01883 1.8175,-1.496717 0,-8.310509 -7.3e-4,-14.872314 -0.0167,-23.124895 0.0159,-1.396791 0.0167,-1.428651 1.01302,-1.448202 h 2.87975 c 0.71034,0.01159 0.71179,0.0072 0.71179,1.448202 v 18.189421 c 0,2.661072 2.24689,6.450293 5.14547,6.470568 5.46261,0.03838 16.01494,0.04345 21.13506,-0.0051 1.48296,-0.01448 1.48296,-0.01448 1.48296,-2.67483 0,-9.529895 0,-15.690548 0.004,-24.255217 -0.003,-1.56261 -0.24982,-1.59085 1.09194,0.845026 l 3.43369,9.51831 3.46772,10.159139 c 2.78055,6.393814 2.70814,6.39309 9.18378,6.332265 5.8377,0.06083 5.81308,0.06155 8.78986,-6.379331 1.02605,-2.638625 2.59663,-7.479965 3.93694,-12.216311 1.71829,-6.067968 3.25845,-10.897722 3.42355,-10.731179 -0.005,8.640699 -0.006,17.762201 -0.006,26.740332 0,2.648038 0,2.647314 2.82327,2.647314 9.48138,0 17.47039,-0.0058 26.23925,-0.05648 8.24896,0.05575 13.19023,-2.603868 13.72389,-9.773194 0,-7.002058 -5.44162,-11.31408 -13.72027,-11.31408 -5.75298,0 -6.62263,-5.95356 -0.10861,-5.95356 5.5343,0.158578 10.71525,-0.0094 16.11342,-0.02896 0.9645,-0.0022 0.96523,-0.0036 0.96523,1.07167 v 26.054608 h 10.60084 l 0.003,-12.287997 a 19.93016,18.453718 0 0 0 19.39361,14.405268 19.93016,18.453718 0 0 0 19.2495,-13.794127 v 11.676856 h 10.39302 c 0,-9.826053 0,-9.825329 0.35047,-22.125635 2.81603,-5.05133 10.12583,-5.743571 12.51609,-0.01593 0.0688,6.590045 0.0688,14.652187 0.0688,22.141566 h 10.46109 c -0.11224,-7.756572 -0.0811,-15.470422 0,-23.227717 0.009,-0.752342 0,-1.220835 -0.48081,-2.411257 -0.91888,-2.867441 -3.83628,-8.205515 -11.74274,-8.49081 -4.40761,-0.237506 -7.55962,1.524232 -11.17289,5.189633 v -5.815257 l -5.22004,-0.02245 -5.17226,0.02172 V 29.712043 A 19.93016,18.453718 0 0 0 464.04457,16.022186 19.93016,18.453718 0 0 0 444.65242,30.421662 l 10e-4,-6.797862 -0.006,-7.179463 c -12.37707,0 -18.06343,-0.0014 -27.15163,-0.02752 -3.72622,-0.01014 -6.28157,0.108616 -9.73192,1.78853 -4.96878,2.459048 -6.30619,8.662423 -4.29174,12.53564 2.27078,4.582112 6.03393,6.461878 13.56893,6.342402 4.59225,0.552489 3.16649,7.27794 -0.005,7.27794 -7.09619,-0.168715 -12.11566,0 -18.51671,0 V 17.673137 c 0,-1.61547 0,-1.616918 -2.19838,-1.616918 h -16.35672 c -0.7002,0 -0.78927,0.700206 -1.09339,1.581437 -1.85008,6.319231 -4.89492,16.509506 -4.89492,16.509506 -2.83052,8.995509 -1.42069,9.128744 -4.78124,0 0,0 -3.8725,-11.097574 -5.65813,-16.535574 -0.69659,-1.553921 -2.14986,-1.555369 -3.2809,-1.555369 h -13.9824 c -2.07817,0 -2.07817,0 -2.07817,1.578541 v 26.726573 l -2.69727,0.0051 c -3.32797,0.0043 -3.95722,-0.617658 -3.97025,-1.701638 0.013,-5.801498 0,-12.093213 0,-17.941778 l 3.57851,0.05069 c 1.53509,0 1.53509,0.0014 1.53509,-0.918884 V 19.15251 c 0,-0.945676 7.3e-4,-0.945676 -1.62995,-0.943504 -0.75741,0.0014 -1.86384,-0.06227 -3.48365,-0.09051 V 8.2938548 c 0,-1.4482024 0,-1.4482024 -2.58721,-1.4482024 h -5.60961 c -2.41126,0 -2.41126,0 -2.41126,1.4482024 v 8.4640182 c 0,1.448202 0,1.448202 -2.07383,1.448202 h -0.3968 c -2.10859,0 -2.11728,7.25e-4 -2.10931,-2.00576 l -0.007,-9.3553867 c 0.004,-1.6813629 0,-1.6697772 -1.88556,-1.6697772 z m -82.40633,0.028964 c -2.37216,0.1339587 -4.2722,1.9000415 -4.25772,4.4097761 l -0.0224,39.7495328 c 0,1.448203 0.001,1.448203 1.65384,1.469926 l 6.46043,-0.02172 c 1.83415,0 1.83415,0 1.83415,-1.448203 v -25.44419 c 0,-1.219387 -0.23316,-2.852235 0.83272,-1.84501 l 4.98181,4.459015 c 0,0 5.09188,5.126636 6.41482,5.126636 1.25414,0 6.21785,-5.126636 6.21785,-5.126636 0,0 1.57565,-1.369276 3.07671,-2.63066 2.67628,-2.542319 2.67628,-3.083222 2.68786,-0.02752 -0.0116,0.04345 0.001,12.722458 0.001,12.722458 l -0.0138,14.214106 h 10.2902 l -0.0203,-20.932317 c -0.0101,-10.917997 0.14772,-16.55078 -0.0797,-19.605039 0.10065,-3.4293427 -3.79357,-7.3155936 -8.78335,-3.4221017 L 250.497,18.272693 c -0.93409,0.794339 -0.92685,0.776236 -1.87469,0.01883 L 236.23656,6.9187867 C 234.78401,5.6298866 233.19099,5.1230158 231.76813,5.203391 Z M 346.0016,6.8456524 c -1.80591,0 -1.80591,0 -1.80591,0.8993337 v 5.1722549 c 0,0.942055 7.3e-4,0.941331 1.42576,0.944227 l 7.7696,-0.03331 c 1.29253,0.03114 1.29325,0.03114 1.29325,-0.957262 V 7.3489027 c 0,-0.5039744 0,-0.5032503 -1.25994,-0.5032503 z m 43.87112,0.061549 c -1.80591,0 -1.80519,7.241e-4 -1.80519,0.9000578 v 5.1722538 c 0,0.941332 0,0.943504 1.42504,0.9464 l 7.77177,-0.03403 c 1.29252,0.03114 1.29252,0.02896 1.29252,-0.95871 V 7.4118995 c 0,-0.5039744 0,-0.5046985 -1.25993,-0.5046985 z m 44.64808,0.3700157 v 5.9267679 l 4.83989,-0.215058 4.84134,-0.21361 V 7.7066087 L 439.36069,7.4922748 Z M 277.72103,16.033772 c -2.36201,0 -2.36201,0.03331 -2.36201,1.600264 v 18.203903 c 0,5.147635 1.13973,7.355419 1.80228,8.581323 2.0159,3.731293 5.69796,6.035383 8.76453,6.353987 5.76094,0.599556 7.59726,-0.900782 10.62039,-2.655279 1.26355,-0.769719 2.05644,-2.104238 2.05644,-2.104238 l -0.008,3.898561 c 0,0.892817 0.0282,0.892093 2.75448,0.889196 l 6.4445,-0.0072 c 1.54378,-7.24e-4 1.54306,0.01738 1.54378,-0.905126 V 17.635484 c 0,-1.578541 7.3e-4,-1.578541 -1.42141,-1.578541 h -7.41624 c -1.90583,0 -1.90656,0 -1.90656,1.578541 0,16.511678 0,16.512403 -0.0145,19.397946 0,7.328628 -12.68191,7.328628 -12.68191,0.01086 V 17.63476 c 0,-1.551025 0,-1.556818 -2.44674,-1.600988 z m 20.87367,33.878521 c 0,-0.0094 -0.003,-0.01303 -0.003,-0.02245 v 0.921781 z M 464.13871,23.391364 c 5.74502,-0.132511 9.00926,3.852218 9.00926,11.106988 0,5.148359 -1.53944,8.556703 -4.57197,10.124382 -6.50822,3.366346 -12.96865,-0.695137 -13.62034,-8.564669 -0.61332,-7.385831 2.28309,-11.940428 8.00131,-12.585602 0.4055,-0.04562 0.79869,-0.07241 1.18174,-0.0811 z M 28.856879,2.9174036 C 14.530538,2.9166795 2.9159554,14.122869 2.9159554,27.947408 c 0,13.82454 11.6145826,25.032177 25.9409236,25.030729 14.324894,0 25.938028,-11.206913 25.938028,-25.030729 a 24.169773,24.169773 0 0 0 -0.24547,-3.405447 c -0.210714,-0.756686 2.314951,-0.804477 2.337398,0.04055 0.05358,6.359057 -0.412737,14.672462 -0.03258,20.455858 0.378705,2.30409 2.257023,5.644369 8.246064,5.678401 l 16.602191,0.09486 c 2.469185,0 2.469185,0 2.498149,-2.785618 0.04345,-4.098412 -0.0072,-12.251791 -0.02896,-16.292276 0.108615,-9.541481 13.32853,-10.921617 13.600068,-0.123821 0.238229,2.658899 0.03765,13.734751 0.120925,18.02505 0.02317,1.176665 -0.0051,1.133943 1.873974,1.165803 l 5.907944,0.01086 c 2.07382,0.108615 1.98404,0 1.99562,-1.9138 l 0.0782,-11.884672 c 5.94705,19.875129 30.3145,18.75784 36.59173,4.016589 l -9.55668,-0.04417 c -4.37068,5.147635 -13.52259,5.720399 -16.70647,-3.668297 l 26.88805,-0.222299 V 48.18676 c -0.0282,2.624867 -0.0297,2.695829 1.90222,2.677002 l 6.54949,-0.06444 c 1.84067,-0.0181 1.84067,0.01303 1.84429,-2.647314 l 0.0101,-41.4113452 c -0.006,-2.4633922 -0.0145,-2.3062622 -2.83196,-2.3279853 l -4.17371,-0.030412 c -3.33015,0 -3.30118,-0.1057188 -3.28742,2.4633921 -0.0138,12.0649734 -0.0145,14.5689154 -0.0167,21.2342664 -9.50889,-20.1517351 -33.05884,-14.750665 -37.21301,3.29466 0,-6.449569 -0.96522,-11.549413 -8.635627,-14.566019 -3.110739,-1.223731 -9.584203,-1.203456 -12.791972,2.447462 -1.803736,2.522044 -2.183889,1.668329 -2.179544,0.265745 L 84.186897,7.0035065 C 84.172415,4.3815362 84.172415,4.3134707 82.47295,4.3315732 l -6.432191,0.06879 c -1.990554,0.021723 -1.991278,-0.019551 -1.991278,2.5821448 -0.08979,12.104799 0.05069,21.898267 -0.03838,34.003066 0.0036,3.375759 0.0036,3.242525 -0.881231,3.275109 l -2.34464,0.08834 c -4.073793,0.152061 -4.107102,-2.052827 -4.113619,-5.730537 l -0.02462,-13.116368 c 0.04417,-1.58361 -0.02824,-1.58361 0.926849,-1.582885 3.47279,0.0029 3.47279,0.02245 3.47279,0.02245 1.202007,-0.02317 1.176664,-0.01883 1.217214,-1.193319 0.03476,-0.996363 -0.02317,-3.690744 -0.02317,-3.690744 0.02028,-1.422134 0.0087,-1.422134 -1.359138,-1.442409 0,0 -2.152752,0.084 -3.105669,0.05431 -1.129598,-0.03476 -1.051395,0.09413 -1.08398,-0.673414 0,0 -0.01086,-5.64292 -0.04489,-9.154086 C 66.557927,7.1048861 66.258155,6.7160437 65.381992,6.710975 63.452987,6.698665 60.317629,6.75949 59.068554,6.749352 57.035278,6.732698 56.845564,7.1548486 56.839771,8.9556882 l -0.02027,6.6515928 c 0.04562,2.027484 0.04562,2.027484 -1.346828,2.027484 l -2.981125,0.0029 0.01159,0.04127 C 48.316374,8.6979032 39.061637,2.9203 28.856879,2.9174036 Z m 136.069471,1.4004117 -5.8616,0.062997 c -1.92611,0 -1.89063,0 -1.87687,2.5676627 0.0739,13.896949 -0.3845,27.767831 -0.0145,41.203528 0,2.660348 0,2.719724 1.90438,2.705242 l 5.84205,-0.04562 c 2.20417,0 2.25051,7.24e-4 2.25051,-2.659624 V 37.693086 c 1.96014,8.411159 10.05776,14.430612 19.44429,14.453059 11.00996,-7.24e-4 19.9345,-8.179447 19.93523,-18.268348 0,-10.088902 -8.92455,-18.269072 -19.93523,-18.269072 -9.38653,0.02172 -17.48415,6.040451 -19.44429,14.451611 V 6.8456524 c 0,-2.4648403 0.0557,-2.5524566 -2.24399,-2.5278371 z M 29.294961,11.015751 A 14.093181,16.943967 0 0 1 43.386693,27.959718 14.093181,16.943967 0 0 1 29.293512,44.903685 14.093181,16.943967 0 0 1 15.199607,27.959718 14.093181,16.943967 0 0 1 29.294237,11.015751 Z M 186.73121,22.525339 a 9.3539388,11.505243 0 0 1 9.35394,11.504519 9.3539388,11.505243 0 0 1 -9.35394,11.505243 9.3539388,11.505243 0 0 1 -9.35394,-11.505967 9.3539388,11.505243 0 0 1 9.35394,-11.503795 z m -60.12647,0.282399 c 2.68063,-0.01883 5.56617,1.745084 7.86085,6.719659 l -15.83392,0.299054 c 0.57131,-3.162874 4.05424,-6.992645 7.97235,-7.019437 z"
     fill="#003869"
     id="path35"
     style="fill:#003869;fill-opacity:1;stroke-width:0.724101" />
</svg>
