<?xml version="1.0" encoding="UTF-8" standalone="no"?>
<svg
   height="101.1144"
   viewBox="0 0 519.99863 80.891526"
   width="649.99847"
   version="1.1"
   id="svg35"
   sodipodi:docname="multivision-wht.svg"
   inkscape:version="1.3 (0e150ed, 2023-07-21)"
   xmlns:inkscape="http://www.inkscape.org/namespaces/inkscape"
   xmlns:sodipodi="http://sodipodi.sourceforge.net/DTD/sodipodi-0.dtd"
   xmlns="http://www.w3.org/2000/svg"
   xmlns:svg="http://www.w3.org/2000/svg">
  <defs
     id="defs35" />
  <sodipodi:namedview
     id="namedview35"
     pagecolor="#ffffff"
     bordercolor="#000000"
     borderopacity="0.25"
     inkscape:showpageshadow="2"
     inkscape:pageopacity="0.0"
     inkscape:pagecheckerboard="0"
     inkscape:deskcolor="#d1d1d1"
     inkscape:zoom="1.6123115"
     inkscape:cx="324.99924"
     inkscape:cy="59.231731"
     inkscape:window-width="1560"
     inkscape:window-height="1212"
     inkscape:window-x="0"
     inkscape:window-y="25"
     inkscape:window-maximized="0"
     inkscape:current-layer="svg35" />
  <g
     id="g35"
     transform="matrix(0.72410116,0,0,0.72410116,-114.42898,8.3978783e-8)">
    <path
       d="m 159.029,96.579 16.839,0.093 m -6.552,12.238 V 92.086 c -1.102,8.95 -5.404,11.387 -9.237,14.759 m 25.23,-14.291 0.168,13.829 c 0,1.755 0.107,1.874 2.103,1.874 h 7.322"
       id="path2"
       style="fill:none;stroke:#ffffff;stroke-width:2;stroke-linecap:round;stroke-linejoin:round;stroke-opacity:1" />
    <path
       d="m 180.079,99.759 15.136,-2.339 -3.66,5.42 m 16.015,5.055 V 94.899 h 11.287 v 12.943 m -11.21,-2.059 h 10.832 m 10.051,-4.07 c 2.323,-2.437 3.926,-6.01 4.748,-9.118 m 10.448,4.262 H 232.1 m 1.125,12.339 c 2.865,-2.269 5.476,-5.4 6.088,-12.437 m 1.842,-4.96 1.446,2.1 m 1.691,-2.967 1.447,2.1 m 4.732,7.59 h 17.582 m 249.505,-0.036 h 17.582 m -261.478,6.523 c 5.568,-0.136 11.262,-0.269 14.931,-1.86"
       id="path3"
       style="fill:none;stroke:#ffffff;stroke-width:2;stroke-linecap:round;stroke-linejoin:round;stroke-opacity:1" />
    <path
       d="m 276.25,107.115 c 2.1,-4.13 4.352,-9.74 5.57,-14.322 m 3.783,8.733 4.948,6.242 m 7.795,2.945 V 94.779 h 17.06 v 13.398 c 0,1.048 -0.193,1.883 -1.246,1.766 h -3.307"
       id="path4"
       style="fill:none;stroke:#ffffff;stroke-width:2;stroke-linecap:round;stroke-linejoin:round;stroke-opacity:1" />
    <path
       d="m 307.262,91.013 c -0.22,6.143 -2.032,11.533 -5.311,14.984"
       id="path5"
       style="fill:none;stroke:#ffffff;stroke-width:2;stroke-linecap:round;stroke-linejoin:round;stroke-opacity:1" />
    <path
       d="m 312.384,105.936 c -1.158,-2.6 -3.957,-6.651 -5.92,-8.459"
       id="path6"
       style="fill:none;stroke:#ffffff;stroke-width:2;stroke-linecap:round;stroke-linejoin:round;stroke-opacity:1" />
    <path
       d="m 320.47,109.883 1.569,-4.148 v -8.738 l 17.7,-0.215"
       stroke-linecap="round"
       stroke-width="2"
       id="path7"
       style="fill:none;stroke:#ffffff;stroke-linejoin:round;stroke-opacity:1" />
    <path
       d="m 333.207,95.559 c 0.546,10.138 2.57,13.404 4.556,14.516 1.487,-0.23 1.906,-1.045 1.978,-2.62"
       stroke-linecap="round"
       stroke-width="2"
       id="path8"
       style="fill:none;stroke:#ffffff;stroke-linejoin:round;stroke-opacity:1" />
    <path
       d="m 338.185,100.143 c -1.518,4.222 -3.715,7.003 -5.79,10.043"
       stroke-linecap="round"
       stroke-width="2"
       id="path9"
       style="fill:none;stroke:#ffffff;stroke-linejoin:round;stroke-opacity:1" />
    <path
       d="m 330.536,108.235 h -5.725 v -8.629 h 5.865"
       stroke-linecap="round"
       id="path10"
       style="fill:none;stroke:#ffffff;stroke-linejoin:round;stroke-opacity:1" />
    <path
       d="m 325.16,102.393 h 5.391 v 2.99 h -5.652"
       stroke-linecap="round"
       id="path11"
       style="fill:none;stroke:#ffffff;stroke-linejoin:round;stroke-opacity:1" />
    <path
       d="m 328.124,102.384 v -2.697 m 0,8.309 v -2.697"
       stroke-width="2"
       id="path12"
       style="fill:none;stroke:#ffffff;stroke-linejoin:round;stroke-opacity:1" />
    <path
       d="m 339.809,91.445 h -8.457 m -2.885,0 h -8.28 m 17.186,2.66 2.394,2.668"
       stroke-linecap="round"
       stroke-width="2"
       id="path13"
       style="fill:none;stroke:#ffffff;stroke-linejoin:round;stroke-opacity:1" />
    <circle
       cx="334.26099"
       cy="91.357994"
       r="2"
       stroke="none"
       id="circle13"
       style="fill:#ffffff;fill-opacity:1" />
    <circle
       cx="325.77499"
       cy="91.622002"
       r="2.25"
       stroke="none"
       id="circle14"
       style="fill:#ffffff;fill-opacity:1" />
    <path
       d="m 330.55,101.934 a 1,0.868 0 0 0 -1,0.868 v 2.187 a 1,0.868 0 0 0 1,0.867 1,0.868 0 0 0 1,-0.867 v -2.187 a 1,0.868 0 0 0 -1,-0.868 z"
       stroke="none"
       id="path14"
       style="fill:#ffffff;fill-opacity:1" />
    <g
       fill="none"
       stroke="#050000"
       stroke-linecap="round"
       stroke-linejoin="round"
       stroke-width="2"
       id="g15"
       transform="translate(-13.918,-11.857)">
      <path
         d="m 442.516,105.043 h 10.03 m -13.333,4.723 h 15.623 m -7.696,-0.296 c 1.148,7.82 -1.452,9.534 -4.057,11.24"
         id="path15"
         style="stroke:#ffffff;stroke-opacity:1" />
    </g>
    <path
       d="m 450.962,93.357 0.09,14.208 c 5.889,-1.02 9.847,-4.045 12.706,-7.99"
       fill="none"
       stroke="#050000"
       stroke-linecap="round"
       stroke-linejoin="round"
       stroke-width="2"
       id="path16"
       style="stroke:#ffffff;stroke-opacity:1" />
    <g
       fill="none"
       stroke="#050000"
       stroke-linecap="round"
       stroke-linejoin="round"
       stroke-width="2"
       id="g18"
       transform="translate(-13.918,-11.857)">
      <path
         d="m 488.07,105.034 0.295,12.689 c 0.01,1.447 0.68,2.114 1.69,2.112 l 9.724,-0.291"
         id="path17"
         style="stroke:#ffffff;stroke-opacity:1" />
      <path
         d="m 488.245,111.269 c 3.54,-0.096 7.055,-0.883 10.195,-1.938 m -0.013,-4.847 1.447,2.1 m 1.691,-2.968 1.446,2.1"
         id="path18"
         style="stroke:#ffffff;stroke-opacity:1" />
    </g>
    <g
       fill="none"
       stroke="#050000"
       stroke-linecap="round"
       stroke-linejoin="round"
       stroke-width="2"
       id="g19"
       transform="translate(-13.918,-11.857)">
      <path
         d="m 522.166,103.846 1.447,2.1 m 1.691,-2.968 1.447,2.1 m -17.371,8.476 c 1.919,-2.61 3.959,-5.414 4.592,-9.449 m 0.192,17.177 c 3.455,-3.243 5.839,-7.12 5.742,-12.362 m 4.997,-0.169 h -12.13"
         id="path19"
         style="stroke:#ffffff;stroke-opacity:1" />
    </g>
    <g
       fill="none"
       stroke="#050000"
       stroke-linecap="round"
       stroke-linejoin="round"
       stroke-width="2"
       id="g21"
       transform="translate(-13.918,-11.857)">
      <path
         d="m 562.334,105.182 c -1.235,5.034 -3.327,9.32 -5.36,13.482 m 9.349,-5.294 4.74,6.239"
         id="path20"
         style="stroke:#ffffff;stroke-opacity:1;fill:none" />
      <path
         d="m 554.487,118.875 c 8.288,-0.286 12.303,0.035 14.443,-1.842"
         id="path21"
         style="stroke:#ffffff;stroke-opacity:1;fill:none" />
    </g>
    <path
       d="m 396.446,92.823 h -17.189 v 11.22 c 0.155,2.519 -0.822,4.77 -1.635,6.125"
       fill="none"
       stroke="#0e0000"
       stroke-linecap="round"
       stroke-linejoin="round"
       stroke-width="2"
       id="path22"
       style="stroke:#ffffff;stroke-opacity:1" />
    <path
       d="m 387.164,89.881 a 1.207,0.836 0 0 0 -1.207,0.836 v 2.12 a 1.207,0.836 0 0 0 1.207,0.837 1.207,0.836 0 0 0 1.207,-0.836 v -2.12 a 1.207,0.836 0 0 0 -1.207,-0.837 z"
       stroke="none"
       id="path23"
       style="fill:#ffffff;fill-opacity:1" />
    <path
       d="m 382.196,96.395 3.66,0.156 -3.598,4.955 3.447,0.169 -0.055,3.096 c -1.07,2.501 -2.18,3.96 -4.252,5.47"
       fill="none"
       stroke="#0e0000"
       stroke-width="1.5"
       id="path24"
       style="stroke:#ffffff;stroke-linecap:round;stroke-linejoin:round;stroke-opacity:1" />
    <path
       d="m 382.272,104.569 c 5.088,7.675 8.947,4.831 14.56,5.32 m -7.906,-12.893 6.45,-1.109"
       fill="none"
       stroke="#0e0000"
       stroke-width="1.5"
       id="path25"
       style="stroke:#ffffff;stroke-linecap:round;stroke-linejoin:round;stroke-opacity:1" />
    <path
       d="m 392.347,96.301 a 0.75,0.647 0 0 0 -0.75,0.648 v 8.627 a 0.75,0.647 0 0 0 0.75,0.648 0.75,0.647 0 0 0 0.75,-0.648 v -8.627 a 0.75,0.647 0 0 0 -0.75,-0.648 z"
       stroke="#000000"
       id="path26"
       style="fill:#ffffff;fill-opacity:1;stroke:#ffffff;stroke-linecap:round;stroke-linejoin:round;stroke-opacity:1" />
    <path
       d="m 388.03,106.146 h 8.491 m -7.411,-5.175 h 6.523"
       fill="none"
       stroke="#0e0000"
       stroke-width="1.5"
       id="path27"
       style="stroke:#ffffff;stroke-linecap:round;stroke-linejoin:round;stroke-opacity:1" />
    <path
       d="m 363.164,89.881 a 1.207,0.78 0 0 0 -1.207,0.78 v 1.979 a 1.207,0.78 0 0 0 1.207,0.78 1.207,0.78 0 0 0 1.207,-0.78 v -1.979 a 1.207,0.78 0 0 0 -1.207,-0.78 z"
       stroke="none"
       id="path28"
       style="fill:#ffffff;fill-opacity:1" />
    <path
       d="m 354.304,95.452 v -2.589 h 18.004 v 3.09"
       stroke-width="2"
       id="path29"
       style="fill:none;stroke:#ffffff;stroke-linecap:round;stroke-linejoin:round;stroke-opacity:1" />
    <path
       d="m 362.522,95.915 c 1.629,6.731 5.19,8.948 10.038,13.023 m -2.636,-12.994 h -13.032"
       stroke-width="1.5"
       id="path30"
       style="fill:none;stroke:#ffffff;stroke-linecap:round;stroke-linejoin:round;stroke-opacity:1" />
    <path
       d="m 363.991,95.996 c -1.933,2.602 -5.296,3.778 -9.034,4.578 m 9.276,-0.271 c -3.048,2.139 -5.745,3.894 -9.607,4.454 m 16.272,-5.354 c -4.833,3.815 -11.36,8.694 -16.422,9.847"
       stroke-width="1.5"
       id="path31"
       style="fill:none;stroke:#ffffff;stroke-linecap:round;stroke-linejoin:round;stroke-opacity:1" />
    <path
       d="m 365.552,103.378 -0.193,5.074 c -0.019,1.338 -1.27,1.98 -3.32,1.575"
       stroke-width="1.5"
       id="path32"
       style="fill:none;stroke:#ffffff;stroke-linecap:round;stroke-linejoin:round;stroke-opacity:1" />
    <path
       d="m 415.302,110.056 c 2.683,0.36 3.194,-0.551 3.077,-1.833 V 91.76 h -15.686 l -0.223,13.057 c 0,2.125 -0.684,3.881 -1.508,5.061 m 1.708,-12.799 h 15.606 m -15.774,6.024 h 15.77 m -7.91,7.01 V 91.769"
       id="path33"
       style="fill:none;stroke:#ffffff;stroke-width:2;stroke-linecap:round;stroke-linejoin:round;stroke-opacity:1" />
  </g>
  <path
     id="path34"
     style="stroke-width:0.724101;fill:#ffffff;fill-opacity:1"
     d="M 28.856247,0 C 13.008584,0 0,12.488776 0,27.946872 c 0,15.458096 13.008584,27.948434 28.856247,27.948434 10.306292,0.02005 19.845688,-5.442084 25.045309,-14.340623 0.0239,1.209247 -0.02866,2.581607 0.04375,3.674999 0.0063,0.09475 0.01728,0.189132 0.03281,0.282813 0.278054,1.690774 1.107507,3.749317 2.954687,5.393749 1.846456,1.645156 4.614941,2.706287 8.149999,2.726562 l 16.60156,0.09531 c 0.0062,2e-5 0.0125,2e-5 0.01875,0 0.617659,0 1.124338,0.01764 1.789062,-0.06562 0.664001,-0.08327 1.751698,-0.365149 2.545313,-1.25 0.794338,-0.885575 0.936736,-1.818661 1.00625,-2.460938 0.07096,-0.643001 0.0662,-1.197889 0.07344,-1.893749 0.04417,-4.151268 -0.0072,-12.240729 -0.02969,-16.290623 0.0391,-3.424995 2.101827,-4.705942 3.985937,-4.810937 0.942055,-0.05286 1.776853,0.223691 2.443749,0.870312 0.666173,0.645899 1.286203,1.753462 1.339063,3.85625 0.0016,0.0626 0.0053,0.125134 0.01094,0.1875 0.08038,0.897885 0.11555,4.503506 0.104688,8.131249 -0.01014,3.627743 -0.03874,7.450981 0.0047,9.690624 0.0058,0.283123 -0.02413,0.555398 0.08594,1.148437 0.109338,0.593761 0.693008,1.775751 1.554687,2.3 1.724807,1.048497 2.182564,0.560631 3.1,0.576562 0.01406,1.02e-4 0.02813,1.02e-4 0.04219,0 l 5.909379,0.01094 -0.14688,-0.0031 c 0.54308,0.02896 0.98829,0.06222 1.59219,0.0094 0.6039,-0.05286 1.64526,-0.260196 2.45625,-1.121875 0.81172,-0.861679 0.93045,-1.791338 0.97969,-2.325 0.0492,-0.53511 0.033,-0.91714 0.0359,-1.371875 l 0.008,-1.064062 c 4.16574,4.451045 9.69085,6.804224 15.18749,7.065624 5.90143,0.280951 11.82811,-1.766951 16.20313,-5.753124 -0.0854,0.850094 -0.11827,1.687396 0.79844,3.012499 0.6343,0.917435 1.80985,1.411202 2.48906,1.523438 0.6792,0.112959 1.12309,0.08475 1.62343,0.07969 l 6.54844,-0.06406 c 0.45257,-0.0043 0.84941,0.02073 1.49531,-0.08281 0.32584,-0.05141 0.78479,-0.198508 1.24532,-0.446875 0.47429,0.272262 0.95518,0.445312 1.30781,0.504688 0.67993,0.114407 1.11687,0.08715 1.60781,0.08281 l 5.82031,-0.04531 c 0.55032,0 1.01588,0.01826 1.6625,-0.06719 0.6459,-0.08544 1.73574,-0.395219 2.49531,-1.275 0.75886,-0.879782 0.88555,-1.771862 0.95,-2.395312 0.0558,-0.541627 0.0507,-1.037755 0.05,-1.595312 4.21355,4.129545 10.1243,6.650418 16.52969,6.665624 0.002,2e-6 0.004,2e-6 0.006,0 12.45453,0 22.85,-9.373456 22.85,-21.18281 7.2e-4,-11.810078 -10.39475,-21.185935 -22.85,-21.185935 -0.002,-2e-6 -0.004,-2e-6 -0.006,0 -6.40105,0.01448 -12.30834,2.534174 -16.52187,6.659374 V 6.8453117 c 0,-0.6053479 0.0132,-1.0944615 -0.0375,-1.6874998 -0.0507,-0.5930382 -0.14838,-1.482641 -0.9,-2.3812497 -0.75162,-0.8986086 -1.84889,-1.2211489 -2.50782,-1.3109374 -0.65893,-0.089789 -1.15154,-0.069856 -1.74531,-0.064063 l -5.83125,0.064063 c -0.48153,0 -0.89316,-0.025154 -1.53906,0.071875 -0.35988,0.053584 -0.87387,0.2465258 -1.38437,0.5390625 -0.57932,-0.3130242 -1.21831,-0.4999299 -1.875,-0.5484375 -0.59883,-0.039825 -1.12682,-0.027744 -1.80313,-0.032813 h -0.002 l -4.175,-0.029687 c -0.007,-2.73e-5 -0.0146,-2.73e-5 -0.0219,0 -0.81677,0 -1.4467,-0.013034 -2.10781,0.029687 -0.6611,0.042722 -1.50353,0.070869 -2.49843,0.7906249 -0.99492,0.7197559 -1.4335,1.9795197 -1.53125,2.6999997 -0.0978,0.7197558 -0.0685,1.2369529 -0.0656,1.8734373 -0.007,6.8485413 -0.006,8.8703973 -0.008,12.0687483 -5.21136,-5.199764 -11.86915,-7.308326 -18.12031,-6.414062 -5.84204,0.836336 -11.23971,4.156638 -14.92031,9.229686 -0.0333,-0.07241 -0.0504,-0.147902 -0.0859,-0.220312 -1.52785,-3.128114 -4.42907,-5.730108 -8.74687,-7.428124 -2.201271,-0.8653 -4.909891,-1.153667 -7.796881,-0.784375 -1.774045,0.227367 -3.615704,0.78245 -5.309374,1.728125 l 0.02813,-8.0249988 c 4e-5,-0.00885 4e-5,-0.017708 0,-0.026562 -0.0068,-1.3106211 0.449058,-2.0729046 -0.66678,-3.8578121 C 85.876807,2.2375954 84.685866,1.6343013 83.992177,1.5046873 83.298489,1.3743492 82.885214,1.4105561 82.440615,1.4156248 l -6.431249,0.06875 c -0.48732,0.00507 -0.901892,-0.014789 -1.529687,0.075 -0.62852,0.089064 -1.76622,0.4590511 -2.476563,1.3656248 -0.711066,0.9072978 -0.778162,1.7250257 -0.828125,2.3093748 -0.05069,0.5836249 -0.04219,1.0974709 -0.04219,1.7484373 -0.02027,2.7573744 -0.0056,5.1560053 -0.0078,7.7265613 -0.05938,0 -0.140737,-0.0102 -0.201562,-0.01094 -0.05209,-8.74e-4 -0.10419,-3.54e-4 -0.15625,0.0016 0,0 -0.68951,0.0088 -1.170312,0.02187 -0.0043,-1.743634 -0.0067,-4.246743 -0.03281,-6.9078114 -0.0014,-0.1070914 -0.0087,-0.2140241 -0.02187,-0.3203125 C 69.458947,6.7971668 69.223295,5.7652612 68.340617,4.9093744 67.458662,4.0534878 66.267464,3.8003808 65.399992,3.795312 c -2.009379,-0.01231 -5.192811,0.046914 -6.309374,0.0375 -0.609692,-0.00507 -1.172395,0.00591 -1.842187,0.15 -0.670518,0.1448206 -1.548423,0.5036056 -2.201563,1.2124999 -1.305552,1.4192369 -1.12054,2.7509695 -1.123437,3.7531245 l -0.01563,5.2859366 C 48.813759,5.5017226 39.290534,0.0043446 28.856247,0 Z m 291.590593,2.2578122 -6.27188,0.00156 c -0.47646,0 -0.86965,-0.011624 -1.38594,0.039063 -0.51627,0.050687 -1.36038,0.1521568 -2.20468,0.8921874 -0.84358,0.7393066 -1.10873,1.7657656 -1.17969,2.3218747 -0.0702,0.5553851 -0.0531,0.9157306 -0.0531,1.3328124 v 6.4093743 c -0.0775,-0.01448 -0.19253,-0.06078 -0.25625,-0.06875 -0.51266,-0.063 -0.82415,-0.04531 -1.17969,-0.04531 h -7.41719 c -0.47646,0 -0.86321,-0.01041 -1.36719,0.03594 -0.50325,0.04634 -1.30493,0.122241 -2.15937,0.829687 -0.85444,0.707447 -1.1646,1.765384 -1.24063,2.326563 -0.0753,0.560453 -0.0547,0.906202 -0.0547,1.301562 0,16.511661 -2.7e-4,16.499556 -0.0141,19.384373 -10e-6,0.0047 -10e-6,0.0094 0,0.01406 0,0.990569 -0.27773,1.375143 -0.84687,1.8125 -0.56842,0.43808 -1.55425,0.768026 -2.57813,0.76875 -1.02387,0 -2.01126,-0.328269 -2.57968,-0.765625 -0.5677,-0.436633 -0.84375,-0.817738 -0.84375,-1.804687 V 17.634373 c 0,-0.388119 0.0309,-0.748919 -0.0828,-1.398437 -0.11296,-0.649519 -0.66363,-1.829751 -1.53907,-2.404688 -1.75088,-1.149147 -2.46388,-0.691615 -3.68906,-0.714062 -0.0172,-1.52e-4 -0.0344,-1.52e-4 -0.0516,0 h -5.73125 c -0.99925,0 -1.73572,-0.282978 -2.97031,0.31875 -0.0195,-0.668344 0.0259,-2.584782 -0.0125,-3.134375 0.0616,-2.8276117 -1.3474,-5.5171172 -3.9375,-7.0109364 -2.60749,-1.5032325 -6.39521,-1.2001658 -9.55156,1.2624999 -0.058,0.045251 -0.11431,0.092681 -0.16875,0.1421874 L 249.5531,15.185936 238.20935,4.7703119 c -0.0119,-0.01156 -0.0239,-0.023019 -0.0359,-0.034375 -1.96014,-1.7385651 -4.3343,-2.5713056 -6.57031,-2.4453122 -3.72623,0.2114374 -7.03111,3.3499923 -7.00938,7.3390616 l -0.0219,39.7328077 v 0.0016 c 0,0.36205 -0.0182,0.680437 0.0484,1.204687 0.0659,0.524248 0.32361,1.521936 1.1375,2.245312 0.81461,0.724101 1.62929,0.829953 2.10937,0.882813 0.48008,0.05286 0.82248,0.04734 1.23594,0.05313 0.0156,1.26e-4 0.0312,1.26e-4 0.0469,0 l 6.45156,-0.02188 c 0.45908,0 0.83265,0.0099 1.31563,-0.03281 0.48297,-0.042 1.24026,-0.09869 2.09687,-0.775 0.85733,-0.676309 1.2016,-1.754218 1.28125,-2.3125 0.0782,-0.557557 0.0563,-0.881699 0.0563,-1.243749 V 27.853122 l 0.95157,0.85 0.003,0.0031 c 0.10934,0.110063 1.26006,1.271047 2.71406,2.567187 0.7603,0.677758 1.57041,1.366261 2.37344,1.948437 0.40188,0.291089 0.79561,0.556588 1.25469,0.798437 0.45908,0.242574 0.90931,0.55625 2.01718,0.55625 1.14987,0 1.57991,-0.332655 2.02813,-0.578125 0.42571,-0.238342 0.83355,-0.507278 1.22031,-0.804687 0.77913,-0.583624 1.56299,-1.268278 2.30156,-1.945312 1.40186,-1.285278 2.49878,-2.419433 2.62188,-2.546875 0.0116,-0.01014 0.65289,-0.557465 0.8875,-0.760937 l 0.002,2.314062 c 10e-4,3.175904 0.006,6.345312 0.006,6.345312 l -0.0141,14.209373 c -7.4e-4,1.611067 1.30455,2.917765 2.91562,2.91875 h 10.28906 c 1.61107,-1.18e-4 2.91707,-1.306118 2.91719,-2.917188 l -0.005,-4.659374 c 2.51046,4.372842 6.64142,7.091872 10.78907,7.523437 4.98471,0.517731 8.02242,-0.642694 10.48437,-1.965625 0.1231,0.221575 0.28193,0.428006 0.46875,0.634375 0.31246,0.4247 0.73418,0.756782 1.22031,0.960937 0.084,0.03983 0.18647,0.142569 0.2625,0.167188 1.41417,0.451838 1.92559,0.248323 3.28906,0.246875 l 6.44688,-0.0078 c 0.76031,-7.24e-4 1.12226,0.468465 2.8,-0.495312 0.0999,-0.05793 0.15887,-0.18323 0.25156,-0.257813 0.0384,0.02896 0.0554,0.07946 0.0953,0.10625 1.76898,1.17956 2.5055,0.691502 3.69375,0.682813 l 5.89531,-0.03906 c 0.44677,-0.0029 0.80887,0.0061 1.2875,-0.03594 0.47863,-0.042 1.2525,-0.09716 2.11563,-0.79375 0.86313,-0.695861 1.18395,-1.7671 1.25781,-2.320313 0.0746,-0.553212 0.0547,-0.884519 0.0547,-1.262499 V 48.79842 c 0.26068,0.499629 0.45476,1.025257 0.79219,1.493749 1.27441,1.768254 3.28932,3.437423 6.00468,3.45625 5.48652,0.03838 16.0236,0.043 21.18281,-0.0062 0.37074,-0.0036 0.7336,0.03472 1.42656,-0.109375 0.69368,-0.144821 1.90282,-0.85181 2.39375,-1.735937 0.98115,-1.768977 0.55157,-2.41514 0.55157,-3.745312 l 0.002,-9.582812 2.31719,6.790625 c 0.0262,0.07459 0.0554,0.14809 0.0875,0.220312 1.38665,3.188938 2.01001,5.288114 4.21562,6.820312 2.19548,1.525679 4.41696,1.299047 7.63125,1.267187 1.44893,0.01521 2.59631,0.04123 3.7375,-0.07969 1.1477,-0.123097 2.40714,-0.465876 3.45781,-1.23125 2.10206,-1.5293 2.76583,-3.543759 4.25313,-6.760937 0.0252,-0.0555 0.0486,-0.111779 0.0703,-0.16875 0.46994,-1.209248 1.13402,-3.55282 1.72344,-5.340624 l -0.002,8.078124 c 0,0.661827 -0.0172,1.201585 0.0625,1.874999 0.0797,0.673414 0.32682,1.741218 1.21094,2.570313 0.88413,0.829095 1.8687,0.993711 2.53125,1.0625 0.66256,0.06951 1.22838,0.05625 1.93438,0.05625 9.46906,0 17.45568,-0.0056 26.21874,-0.05625 4.44237,0.03041 8.31777,-0.617984 11.39375,-2.667188 1.06298,-0.70817 1.92178,-1.647005 2.68281,-2.678124 v 2.484374 c 1.2e-4,1.61107 1.30612,2.91707 2.91719,2.917188 h 10.60156 c 1.61046,-9.79e-4 2.91551,-1.306727 2.91563,-2.917188 v -1.651562 c 0.73279,0.725548 1.48843,1.432457 2.32187,2.051562 4.00573,2.976053 9.07055,4.622065 14.15156,4.634375 0.004,7e-6 0.007,7e-6 0.0109,0 4.95502,-0.008 9.89999,-1.5685 13.85937,-4.40625 0.8834,-0.632863 1.69553,-1.349107 2.47031,-2.099999 v 1.471874 c 1.2e-4,1.610461 1.30517,2.916209 2.91563,2.917188 h 10.39531 c 1.60985,-0.0018 2.91394,-1.30734 2.91406,-2.917188 0,-9.393755 0.0297,-10.312578 0.33594,-21.073435 0.94278,-1.339586 2.33576,-2.140319 3.62031,-2.185937 1.30049,-0.04634 2.32228,0.374054 3.07969,1.846875 0.063,6.447391 0.0672,14.159183 0.0672,21.412497 1.2e-4,1.610457 1.30516,2.916203 2.91562,2.917188 h 10.46094 c 1.62707,3.7e-5 2.93973,-1.330902 2.91719,-2.957813 -0.11151,-7.718911 -0.0811,-15.406468 0,-23.149997 v -0.0047 c 0.009,-0.77334 -0.1274,-2.049323 -0.6625,-3.426562 -0.58145,-1.781288 -1.71783,-4.214018 -3.98282,-6.351562 -2.29539,-2.165061 -5.77849,-3.893403 -10.35625,-4.067187 -3.12594,-0.165095 -5.87577,0.70618 -8.42968,2.2 -0.0467,-1.558186 -1.31007,-2.804389 -2.86875,-2.829688 l -5.22031,-0.02344 c -0.009,-4e-5 -0.0177,-4e-5 -0.0266,0 l -5.17187,0.02344 c -1.60497,0.0079 -2.90217,1.310639 -2.90313,2.915625 v 3.521875 c -0.78492,-0.75741 -1.61282,-1.477578 -2.50781,-2.114063 -3.95648,-2.813854 -8.8859,-4.356364 -13.825,-4.357812 -0.003,-3e-6 -0.005,-3e-6 -0.008,0 -5.08028,0.01231 -10.14343,1.658932 -14.14843,4.632812 -0.83344,0.619107 -1.58909,1.324451 -2.32188,2.05 l -0.003,-3.348437 c -0.0298,-0.832624 -0.41421,-1.612772 -1.05625,-2.14375 0.34497,-0.438444 0.55699,-0.966605 0.61093,-1.521875 V 7.7062491 c -2.4e-4,-1.5605478 -1.2285,-2.8445755 -2.7875,-2.9140622 l -4.84218,-0.2125 -4.84063,-0.2140624 c -1.65779,-0.071864 -3.04163,1.2515883 -3.04375,2.9109371 v 5.9281244 c 0.0382,0.106126 0.0826,0.209946 0.13282,0.310937 -4.3475,-0.0036 -9.46895,-9.82e-4 -14.23282,-0.01406 -3.79138,-0.01159 -7.10488,0.177704 -11.01718,2.082812 -0.006,0.0021 -0.0115,0.0041 -0.0172,0.0063 -2.23602,1.106426 -3.88884,2.76871 -5.03437,4.66875 v -2.585938 c 0,-0.404047 0.0257,-0.76424 -0.0656,-1.370312 -0.0463,-0.304122 -0.17827,-0.742902 -0.40781,-1.1875 0.25489,-0.459804 0.42039,-0.907386 0.46094,-1.189062 0.0739,-0.50687 0.05,-0.745994 0.05,-0.992188 V 7.4124991 c 0,-0.1267176 0.0734,-0.3594743 -0.125,-1.0734374 -0.1984,-0.714687 -1.16314,-1.7933246 -1.86407,-2.0749997 -1.40185,-0.561902 -1.55596,-0.271875 -2.18593,-0.271875 h -7.425 c -0.90296,0 -1.26494,-0.3857256 -2.87969,0.41875 -0.80737,0.4025999 -1.59531,1.5766247 -1.74375,2.2406247 -0.14772,0.6647242 -0.0969,0.9310546 -0.0969,1.1562499 v 5.1718744 c 0,0.03693 0.009,0.123283 0.008,0.160937 h -5.19531 c -1.32221,0 -2.87392,1.238474 -3.28594,2.032813 -0.41201,0.794338 -0.46281,1.215848 -0.56563,1.515624 -0.0145,0.04239 -0.0281,0.08511 -0.0406,0.128125 -1.70381,5.818148 -4.10494,13.858125 -4.51406,15.228124 -0.47284,-1.357689 -3.60919,-10.347456 -5.25,-15.343749 -0.032,-0.09613 -0.0691,-0.190532 -0.11094,-0.282812 -0.65749,-1.467752 -2.03686,-2.546485 -3.22656,-2.9375 -1.1897,-0.391013 -2.14866,-0.340625 -2.71563,-0.340625 h -2.66875 c -0.001,-0.07169 0.0125,-0.20297 0.0125,-0.270312 V 7.3484366 c 0,-0.1259935 0.0734,-0.3556252 -0.125,-1.0703124 -0.19768,-0.7154111 -1.16397,-1.7994604 -1.86562,-2.0796872 -1.40403,-0.5611778 -1.55514,-0.2703125 -2.18437,-0.2703125 h -7.42344 c -0.90296,0 -1.26494,-0.3857256 -2.87969,0.41875 -0.80737,0.4018758 -1.59531,1.5789113 -1.74375,2.2421872 -0.14844,0.6647242 -0.0984,0.9310546 -0.0984,1.1562499 v 5.1734364 c 0,0.236057 -0.0302,0.477923 0.0625,1.029688 0.0471,0.27733 0.19649,0.698886 0.43907,1.120312 -0.0311,0.05793 -0.0591,0.09917 -0.0859,0.157813 -0.22012,0.03114 -0.43913,0.06562 -0.6875,0.06562 -0.097,0 -0.43434,-0.01272 -0.5625,-0.01563 V 8.293749 c 0,-0.3620502 0.0416,-0.7153437 -0.0953,-1.4046873 -0.13713,-0.6893436 -0.83546,-1.9125275 -1.72032,-2.4078122 -1.77041,-0.9905693 -2.39353,-0.553125 -3.6875,-0.553125 h -5.60937 c -1.20563,0 -1.83834,-0.4675527 -3.61094,0.596875 -0.24764,0.1491647 -0.41432,0.4172207 -0.61562,0.6453124 -0.11731,-0.5778322 -0.36957,-1.355627 -1.08281,-1.9812498 -0.8472,-0.7443752 -1.69599,-0.8436726 -2.20938,-0.8921874 -0.51339,-0.049239 -0.89712,-0.039063 -1.36562,-0.039063 z M 28.856247,2.9171871 c 10.204747,0.0029 19.460112,5.7814755 23.646872,14.7624979 l -0.01094,-0.04219 2.98125,-0.0031 c 1.392446,0 1.390932,9.2e-4 1.345312,-2.026562 l 0.02031,-6.6515621 c 0.0058,-1.8008378 0.196413,-2.2229037 2.229687,-2.2062497 1.249074,0.010138 4.383496,-0.051373 6.312499,-0.039063 0.876162,0.00507 1.176555,0.3941157 1.265625,1.1312499 0.03403,3.5111619 0.04531,9.1546859 0.04531,9.1546859 0.03258,0.767543 -0.04522,0.637115 1.084375,0.671875 0.952916,0.02969 3.104687,-0.05313 3.104687,-0.05313 1.367837,0.02028 1.379655,0.02005 1.359375,1.442187 0,0 0.0582,2.694263 0.02344,3.690625 -0.04055,1.174488 -0.01518,1.17058 -1.217188,1.19375 0,0 -6.5e-4,-0.02054 -3.473437,-0.02344 -0.955088,-7.25e-4 -0.882392,-7.96e-4 -0.926562,1.582812 l 0.025,13.117186 c 0.0065,3.677707 0.04027,5.881748 4.114062,5.729687 l 2.34375,-0.0875 c 0.88483,-0.03258 0.88485,0.100756 0.88125,-3.274999 0.08907,-12.104787 -0.05073,-21.898334 0.03906,-34.0031208 0,-2.6016932 7.3e-5,-2.5610893 1.990625,-2.5828122 l 6.432812,-0.06875 c 1.699463,-0.018103 1.69958,0.049907 1.714062,2.6718747 l -0.04687,12.5187483 c -0.0043,1.402582 0.375953,2.256416 2.179687,-0.265625 3.207766,-3.650915 9.68145,-3.672167 12.792186,-2.448438 7.670404,3.016603 8.635934,8.117624 8.635934,14.567186 4.15417,-18.045307 27.70362,-23.4470263 37.2125,-3.295312 0.002,-6.665344 0.003,-9.169411 0.0172,-21.2343718 -0.0138,-2.5691084 -0.0426,-2.4624997 3.2875,-2.4624997 l 4.17343,0.029687 c 2.81746,0.021723 2.82682,-0.135265 2.83282,2.3281247 l -0.0109,41.4109328 c -0.004,2.660341 -0.003,2.630337 -1.84375,2.648437 l -6.55,0.06406 c -1.93192,0.01883 -1.92976,-0.0517 -1.90156,-2.676562 V 37.095308 l -26.88906,0.221875 c 3.18388,9.388687 12.33557,8.816379 16.70625,3.66875 l 9.55781,0.04375 c -6.27723,14.741236 -30.64514,15.857922 -36.59219,-4.017187 l -0.0781,11.885936 c -0.0116,1.913798 0.0785,2.021114 -1.99531,1.912499 l -5.907816,-0.01094 c -1.879073,-0.03186 -1.85183,0.01104 -1.875,-1.165625 -0.08328,-4.290295 0.117916,-15.366101 -0.120313,-18.024998 -0.271537,-10.797785 -13.491383,-9.416471 -13.599998,0.125 0.02176,4.040481 0.07158,12.193778 0.02813,16.292186 -0.02896,2.785615 -0.02769,2.784374 -2.496875,2.784374 l -16.603123,-0.09375 c -5.989035,-0.03403 -7.866607,-3.374036 -8.245311,-5.678124 -0.380157,-5.78339 0.08639,-14.097197 0.03281,-20.456247 -0.02245,-0.845027 -2.548213,-0.797311 -2.3375,-0.04062 0.16191,1.127696 0.243885,2.265428 0.245313,3.404687 0,13.823802 -11.61418,25.031247 -25.939059,25.031247 C 14.52992,52.979567 2.9156246,41.771398 2.9156246,27.946872 2.9156246,14.122346 14.52992,2.9164631 28.856247,2.9171871 Z M 164.92654,4.317187 c 2.29969,-0.02462 2.24375,0.063287 2.24375,2.5281247 V 30.060934 c 1.96014,-8.411152 10.05723,-14.429841 19.44375,-14.451561 11.01067,0 19.93594,8.179856 19.93594,18.268748 -7.3e-4,10.088891 -8.92599,18.268024 -19.93594,18.268748 -9.38652,-0.02245 -17.48361,-6.041973 -19.44375,-14.453124 v 10.457812 c 0,2.660345 -0.0458,2.659374 -2.25,2.659374 l -5.84218,0.04687 c -1.90438,0.01448 -1.90469,-0.0459 -1.90469,-2.706249 -0.37,-13.435684 0.088,-27.306185 0.0141,-41.2031203 -0.0138,-2.5676602 -0.0495,-2.5671872 1.87656,-2.5671872 z m 149.24842,0.8578124 h 6.27188 c 1.88555,0 1.88993,-0.011049 1.88593,1.6703123 l 0.006,9.3546863 c -0.008,2.006483 7.9e-4,2.00625 2.10938,2.00625 h 0.39687 c 2.07383,0 2.075,-2.37e-4 2.075,-1.448438 V 8.293749 c 0,-1.4482009 -3.2e-4,-1.4484373 2.41094,-1.4484373 h 5.60937 c 2.58721,0 2.5875,2.364e-4 2.5875,1.4484373 v 9.824999 c 1.61981,0.02824 2.72541,0.09202 3.48282,0.09062 1.63067,-0.0022 1.62968,-0.0019 1.62968,0.94375 v 4.701562 c 0,0.920283 7.2e-4,0.91875 -1.53437,0.91875 l -3.57813,-0.05 c 0,5.848559 0.013,12.13913 0,17.940622 0.013,1.083979 0.64235,1.707425 3.97032,1.703125 l 2.69687,-0.0063 V 17.634373 c 0,-1.57854 -4e-5,-1.578125 2.07813,-1.578125 h 13.98281 c 1.13104,0 2.58309,7.68e-4 3.27968,1.554687 1.78563,5.437995 5.65938,16.535936 5.65938,16.535936 3.36054,9.128735 1.95073,8.9955 4.78125,0 0,0 3.04367,-10.190148 4.89375,-16.509373 0.30412,-0.88123 0.39355,-1.58125 1.09375,-1.58125 h 16.35624 c 2.19838,0 2.19844,0.0017 2.19844,1.617187 v 26.687497 c 6.40105,0 11.421,-0.168715 18.51719,0 3.17148,0 4.59693,-6.725636 0.005,-7.278124 -7.53499,0.119476 -11.29797,-1.760079 -13.56874,-6.342187 -2.01445,-3.873213 -0.67659,-10.07689 4.29218,-12.535936 3.45035,-1.679912 6.00504,-1.797639 9.73125,-1.787499 9.08819,0.02612 14.7745,0.02656 27.15156,0.02656 l 0.006,7.179687 v 6.798436 c 2.04315,-8.401777 10.09106,-14.377883 19.39219,-14.399998 9.02356,0.0027 16.91936,5.618645 19.24843,13.690623 v -13.65781 l 5.17188,-0.02031 5.22031,0.02188 v 5.815624 c 3.61326,-3.665397 6.76583,-5.42813 11.17343,-5.190624 7.90646,0.285295 10.82331,5.623186 11.74219,8.490624 0.48081,1.190421 0.49025,1.660158 0.48125,2.4125 -0.0811,7.757287 -0.11224,15.469995 0,23.226559 h -10.46094 c 0,-7.489371 5e-5,-15.550584 -0.0687,-22.140622 -2.39025,-5.727635 -9.70115,-5.0357 -12.51718,0.01563 -0.35047,12.300294 -0.35,12.298954 -0.35,22.124997 H 483.29213 V 39.13437 c -2.28669,8.112905 -10.19298,13.778682 -19.24844,13.793749 -9.30323,-0.02194 -17.35249,-6.000524 -19.39374,-14.404686 l -0.003,12.287498 H 434.04526 V 24.756247 c 0,-1.075269 4.4e-4,-1.072512 -0.96406,-1.070312 -5.39817,0.01956 -10.57977,0.186702 -16.11406,0.02812 -6.51402,0 -5.6436,5.953124 0.10937,5.953124 8.27864,0 13.72031,4.31201 13.72031,11.314061 -0.53366,7.169319 -5.47604,9.829186 -13.725,9.773436 -8.76885,0.05068 -16.75768,0.05625 -26.23905,0.05625 -2.82327,0 -2.82344,0.0012 -2.82344,-2.646874 0,-8.978122 0.001,-18.099932 0.006,-26.740622 -0.1651,-0.166543 -1.70515,4.663287 -3.42344,10.731249 -1.34031,4.736341 -2.91145,9.578563 -3.9375,12.217186 -2.97678,6.440874 -2.95137,6.438954 -8.78906,6.378124 -6.47563,0.06083 -6.40383,0.06256 -9.18437,-6.331249 l -3.46719,-10.159374 -3.43438,-9.518749 c -1.34175,-2.435874 -1.09362,-2.407921 -1.09062,-0.845312 -0.004,8.56466 -0.005,14.726361 -0.005,24.256247 0,2.660347 1.5e-4,2.660519 -1.48281,2.674999 -5.12011,0.04855 -15.67333,0.04307 -21.13593,0.0047 -2.89858,-0.02027 -5.14532,-3.809242 -5.14532,-6.470312 v -18.18906 c 0,-1.441001 -5.9e-4,-1.436847 -0.71093,-1.448437 h -2.87969 c -0.99632,0.01955 -0.99816,0.05165 -1.01406,1.448437 0.016,8.252573 0.0172,14.812934 0.0172,23.123435 0,1.515545 3.1e-4,1.484564 -1.81718,1.496874 l -5.89532,0.0375 c -2.35187,0.01593 -2.35156,-0.01883 -2.35156,-1.534374 V 6.8453117 c 0,-1.6704997 -3.1e-4,-1.6703123 1.90625,-1.6703123 z m -82.40624,0.028125 c 1.42286,-0.080375 3.01464,0.426726 4.46719,1.7156248 l 12.38594,11.3734358 c 0.94783,0.757406 0.94091,0.775589 1.87499,-0.01875 L 263.04216,6.8515617 c 4.98977,-3.893488 8.88346,-0.0059 8.78281,3.4234373 0.22742,3.054256 0.0696,8.686699 0.0797,19.604685 l 0.0203,20.931247 h -10.28906 l 0.0141,-14.21406 c 0,0 -0.0132,-12.678424 -0.002,-12.721874 -0.0116,-3.055699 -0.0112,-2.514191 -2.6875,0.02812 -1.50106,1.261383 -3.07657,2.629687 -3.07657,2.629687 0,0 -4.96461,5.126562 -6.21875,5.126562 -1.32293,0 -6.41406,-5.126562 -6.41406,-5.126562 l -4.98281,-4.457812 c -1.06588,-1.007224 -0.83281,0.624364 -0.83281,1.84375 v 25.44531 c 0,1.448201 -2.3e-4,1.446874 -1.83438,1.446874 l -6.45937,0.02188 c -1.65284,-0.02172 -1.65469,-0.02055 -1.65469,-1.468749 l 0.0234,-39.7499957 c -0.0145,-2.509732 1.88565,-4.2754159 4.25781,-4.4093744 z m 114.2328,1.6421873 h 7.42344 c 1.25994,0 1.25937,-8.49e-4 1.25937,0.5031249 v 5.5218744 c 0,0.988401 -10e-4,0.988952 -1.29375,0.957812 l -7.76875,0.03281 c -1.42503,-0.0029 -1.42656,-0.0017 -1.42656,-0.94375 V 7.7453116 c 0,-0.8993328 3.4e-4,-0.8999999 1.80625,-0.8999999 z m 43.87187,0.0625 h 7.42344 c 1.25993,0 1.25937,7.135e-4 1.25937,0.5046874 v 5.5203119 c 0,0.987669 3.3e-4,0.990515 -1.29219,0.959375 l -7.77187,0.03437 c -1.42504,-0.0029 -1.425,-0.0055 -1.425,-0.946875 V 7.8078116 c 0,-0.8993328 3.4e-4,-0.8999999 1.80625,-0.8999999 z m 44.64687,0.3687499 4.84062,0.215625 4.84063,0.2140625 v 5.0687489 l -4.84063,0.214063 -4.84062,0.215625 z M 29.293746,11.015624 c -7.783599,-3.76e-4 -14.093647,7.585673 -14.093748,16.943748 1.01e-4,9.358075 6.310149,16.944124 14.093748,16.943748 7.782989,-6.61e-4 14.092085,-7.586406 14.092186,-16.943748 -10e-5,-9.356608 -6.308244,-16.94205 -14.090623,-16.943748 z m 0.0016,3.451562 c 5.910831,0 10.701561,6.005904 10.701561,13.415623 0,7.408996 -4.79073,13.415624 -10.701561,13.415624 -5.910832,0 -10.703124,-6.006628 -10.703124,-13.415624 0,-7.409719 4.792292,-13.415623 10.703124,-13.415623 z m 248.424974,1.567187 h 5.72969 c 2.44673,0.04417 2.44687,0.04898 2.44687,1.6 v 19.409373 c 0,7.31776 12.68125,7.317683 12.68125,-0.01094 0.0145,-2.88554 0.0156,-2.885211 0.0156,-19.396873 0,-1.578539 4.3e-4,-1.579687 1.90625,-1.579687 h 7.41563 c 1.42214,0 1.42187,0.0011 1.42187,1.579687 v 32.253122 c -7.2e-4,0.922505 3e-5,0.903963 -1.54375,0.904687 l -6.44531,0.0078 c -2.72628,0.0029 -2.75312,0.0038 -2.75312,-0.889062 l -0.003,0.898437 v -0.920312 c 0,0.0094 0.003,0.01248 0.003,0.02188 l 0.008,-3.898437 c 0,0 -0.7927,1.334969 -2.05625,2.104687 -3.02313,1.754495 -4.85938,3.254243 -10.62031,2.654687 -3.06657,-0.318603 -6.74973,-2.623397 -8.76563,-6.354686 -0.66255,-1.225903 -1.80156,-3.433619 -1.80156,-8.581249 V 17.634373 c 0,-1.566953 -0.001,-1.6 2.36094,-1.6 z m -90.98905,6.490624 c -5.16615,-5.1e-4 -9.35444,5.150372 -9.35469,11.504686 2.5e-4,6.354314 4.18854,11.505197 9.35469,11.504687 5.16615,5.04e-4 9.35443,-5.150378 9.35468,-11.504687 -2.5e-4,-6.354309 -4.18853,-11.50519 -9.35468,-11.504686 z m -60.12656,0.28125 c -3.9181,0.02679 -7.40212,3.857441 -7.97343,7.020312 l 15.83437,-0.298438 c -2.29468,-4.97457 -5.18031,-6.739141 -7.86094,-6.720311 z m 337.53434,0.584375 c -0.38305,0.0087 -0.77732,0.03563 -1.18282,0.08125 -5.71821,0.645174 -8.61331,5.200113 -7.99999,12.585936 0.65168,7.869524 7.11209,11.931967 13.62031,8.565624 3.03252,-1.567677 4.57187,-4.976645 4.57187,-10.124999 0,-7.254762 -3.26436,-11.240322 -9.00937,-11.107811 z M 71.074976,25.492809 c 0.04746,0.0041 0.03595,1.365 0.03595,1.365 0.0087,4.553144 0.0213,9.09837 -0.01563,14.106249 -3.6e-5,0.0083 -3.6e-5,0.01667 0,0.025 0,0.345396 0.0094,0.14645 0,0.428125 l -0.417187,0.01563 c -0.609693,0.02317 -0.785098,-0.04063 -0.903125,-0.07031 -0.0072,-0.113684 -0.18277,-1.046191 -0.185938,-2.75 l -0.02188,-11.768748 c -0.0021,-0.420307 -0.0032,-1.260931 -0.0032,-1.260931 l 0.01094,-0.0641 z m 55.550004,0.229063 c 0.72121,-0.0051 1.55254,0.206309 2.46563,0.989062 l -5.06875,0.09531 c 0.8682,-0.639381 1.79142,-1.078582 2.60312,-1.084375 z m 59.98281,0.25 c 3.31638,0 6.00625,3.605585 6.00625,8.051561 0,4.445977 -2.68915,8.049999 -6.00625,8.049999 -3.31711,0 -6.00625,-3.604022 -6.00625,-8.049999 0,-4.445976 2.68914,-8.051561 6.00625,-8.051561 z m 278.20934,0.384375 c 3.3497,0.280227 5.2375,3.134881 5.2375,8.060936 0,3.745773 -1.02126,6.224443 -3.03281,7.365624 -4.31637,2.448184 -8.60209,-0.50735 -9.03438,-6.232811 -0.40621,-5.372826 1.51342,-8.687032 5.30625,-9.156249 0.50517,-0.06494 1.01569,-0.07751 1.52344,-0.0375 z m -33.68593,0.248437 v 6.26875 c -0.64952,-0.897886 -1.3799,-1.729825 -2.24375,-2.434375 -3.04557,-2.48294 -7.16511,-3.6875 -11.81094,-3.6875 -0.20709,0 -0.18936,-0.05835 -0.35156,-0.075 0.13758,-0.0094 0.083,-0.04531 0.24375,-0.04531 4.92895,0.13758 9.51159,0.01544 14.1625,-0.02656 z m -90.68593,1.076563 c 0.86675,0.03331 -0.1837,-0.0713 0.83438,0.025 v 13.729686 c -0.56842,-0.02172 -0.58891,-0.02028 -0.83438,-0.05937 0.007,-4.483631 0.003,-9.142168 0,-13.695311 z m 60.41406,4.354687 c 0.004,0.0072 0.0105,0.01307 0.0141,0.02031 0.005,0.0094 0.006,0.02028 0.0109,0.02969 z m 0.57656,0.828125 c 1.33959,2.314224 3.14652,4.282407 5.59687,5.445311 2.68135,1.271521 5.8599,1.71696 9.71719,1.684375 0.1832,0.02752 0.22328,0.04322 0.23125,0.05625 0.0101,0.01593 0.10196,0.244047 0.0672,0.584375 -0.0333,0.323673 -0.19177,0.666118 -0.29532,0.810938 -5.84783,-0.130338 -10.34841,-0.03331 -15.31718,0 z m -269.99372,7.259374 c -1.50613,1.170871 -3.41003,1.78857 -5.11094,1.584374 -1.21539,-0.134393 -2.35212,-0.667318 -3.23281,-1.515624 z"
     sodipodi:nodetypes="csccccccccccccccsccccccccccscccccccccccccccccccsccsccsssscccccscccsscccccccccccccccccccccccccccccccccccsccsccsssscssccccssccccscccscccccccsccsccccccsccssccsccccccccccccccccccccccccsccscccsccccccccccccccsscscscccccccsccccccccccccccsscccccccccccscccccccccccccccccscccssccssccsscsssccccsscssccssccsscccscsccsscccccccccccccccccccccccsccccccccccccccccccccccccccccccccccccccsccscccccsccccccscccsssssssccsscccccsssccccssscccccccccccccccccccccccccccccsccsccssccccccccsccsscccsccsssccsccccccccccsccssccccccssssccssssscsccssscccccccscscsssscsssccscsssscccccccccccsssccccccccccccccscccccccccccsccccsssssccsccsccccscccccccccccccccccccccccccccccc" />
</svg>
