<?xml version="1.0" encoding="UTF-8" standalone="no"?>
<svg
   width="490"
   height="150.39301"
   viewBox="0 0 490.00001 150.39301"
   version="1.1"
   id="svg11"
   sodipodi:docname="pico-wht.svg"
   inkscape:version="1.3 (0e150ed, 2023-07-21)"
   xmlns:inkscape="http://www.inkscape.org/namespaces/inkscape"
   xmlns:sodipodi="http://sodipodi.sourceforge.net/DTD/sodipodi-0.dtd"
   xmlns="http://www.w3.org/2000/svg"
   xmlns:svg="http://www.w3.org/2000/svg"
   xmlns:rdf="http://www.w3.org/1999/02/22-rdf-syntax-ns#"
   xmlns:cc="http://creativecommons.org/ns#"
   xmlns:dc="http://purl.org/dc/elements/1.1/">
  <defs
     id="defs11" />
  <sodipodi:namedview
     id="namedview11"
     pagecolor="#ffffff"
     bordercolor="#000000"
     borderopacity="0.25"
     inkscape:showpageshadow="2"
     inkscape:pageopacity="0.0"
     inkscape:pagecheckerboard="0"
     inkscape:deskcolor="#d1d1d1"
     inkscape:zoom="1.8836735"
     inkscape:cx="245"
     inkscape:cy="101.13218"
     inkscape:window-width="1392"
     inkscape:window-height="1212"
     inkscape:window-x="257"
     inkscape:window-y="25"
     inkscape:window-maximized="0"
     inkscape:current-layer="svg11" />
  <title
     id="title1">mainlogo</title>
  <g
     id="g11"
     transform="matrix(0.47353278,0,0,0.47353278,82.551896,53.445013)">
    <path
       d="m 488.36374,99.899968 h -5.61215 v -0.800056 c 0.17302,0 0.41901,-0.02115 0.73802,-0.03807 0.31896,-0.02538 0.53254,-0.06345 0.64069,-0.116318 0.17302,-0.112088 0.29192,-0.205142 0.35685,-0.276836 0.0649,-0.07191 0.0972,-0.183994 0.0972,-0.338591 v -6.938895 h -0.24332 l -3.95768,8.16975 h -0.51905 l -3.84414,-8.323501 h -0.24332 v 5.600392 c 0,0.543522 0.0352,0.956345 0.10546,1.238469 0.0702,0.282124 0.19197,0.49488 0.36496,0.63848 0.14047,0.08248 0.37845,0.167075 0.71367,0.253784 0.3352,0.08671 0.62716,0.131122 0.8759,0.131122 v 0.800057 h -5.10933 v -0.769391 c 0.17301,-0.02961 0.42982,-0.06979 0.77045,-0.114203 0.34062,-0.04653 0.59742,-0.124777 0.77046,-0.238557 0.18372,-0.133237 0.30815,-0.317866 0.37306,-0.553885 0.0649,-0.235809 0.0972,-0.676971 0.0974,-1.323064 v -5.338783 c -2e-5,-0.246171 -0.0406,-0.451314 -0.12174,-0.615428 -0.0811,-0.16496 -0.19732,-0.307714 -0.34873,-0.430799 -0.16231,-0.122663 -0.36496,-0.212756 -0.60825,-0.269223 -0.24332,-0.0571 -0.52177,-0.09517 -0.83534,-0.116318 v -0.784618 h 4.50919 l 3.42242,7.261836 2.85473,-5.953999 c 0.11884,-0.256534 0.20802,-0.500167 0.26764,-0.7309 0.0595,-0.230732 0.10546,-0.423186 0.13779,-0.576937 h 4.34712 v 0.784618 c -0.18408,0 -0.41919,0.03595 -0.70571,0.07614 -0.28659,0.04018 -0.48933,0.08248 -0.60826,0.122663 -0.16231,0.02961 -0.26496,0.101513 -0.30817,0.215294 -0.0433,0.112088 -0.0649,0.225656 -0.0649,0.338591 v 7.446464 c -5e-5,0.143811 0.0223,0.259071 0.0649,0.346204 0.0433,0.08671 0.14604,0.167075 0.30817,0.238558 0.10814,0.02961 0.29464,0.06979 0.55959,0.114203 0.26489,0.04653 0.5163,0.06979 0.75438,0.06979 z"
       id="path6742-path"
       style="fill:#ffffff;fill-rule:nonzero;stroke:none;stroke-width:1" />
    <path
       d="m 470.84609,92.39175 h -0.77857 c -0.10814,-0.33838 -0.32713,-0.761566 -0.65691,-1.269346 -0.32982,-0.50757 -0.65153,-0.792231 -0.9651,-0.853774 -0.2379,-0.02115 -0.4704,-0.03595 -0.69746,-0.04653 -0.22708,0 -0.41633,-0.02115 -0.5677,-0.02115 h -0.79478 v 8.061892 c -2e-5,0.143811 0.0243,0.264147 0.0729,0.361643 0.0486,0.09728 0.15941,0.181879 0.33252,0.253784 0.10813,0.03172 0.30817,0.07402 0.60014,0.131123 0.29196,0.0571 0.56228,0.08459 0.81101,0.08459 v 0.800056 h -5.72568 v -0.800056 c 0.21627,0 0.48119,-0.02115 0.79478,-0.05287 0.31357,-0.03595 0.51903,-0.06979 0.61635,-0.0994 0.16232,-0.05076 0.27034,-0.133237 0.32441,-0.246172 0.0539,-0.112088 0.0811,-0.225656 0.0811,-0.338379 v -8.154312 h -0.79478 c -0.16231,0 -0.37847,0 -0.64881,0.02326 -0.27034,0.02115 -0.47579,0.02749 -0.61637,0.03807 -0.33522,0.05076 -0.66232,0.335841 -0.98131,0.853773 -0.31899,0.518144 -0.53256,0.941118 -0.64069,1.269346 h -0.77855 v -3.046261 h 11.01344 z"
       id="path1"
       style="fill:#ffffff;fill-rule:nonzero;stroke:none;stroke-width:1" />
  </g>
  <path
     id="Path"
     style="fill:#ffffff;fill-rule:nonzero;stroke:none;stroke-width:1"
     d="m 114.24805,0 c -4.99185,0 -9.22862,2.986403 -10.94141,7.0976562 L 98.964844,19.755859 98.947266,0.65429688 77.884766,0.64257812 c -3.807126,0 -7.229427,1.48591558 -9.75,3.94335938 l 0.0078,-3.92578125 H 46.576172 c -4.016789,0 -7.669477,1.71230605 -10.22461,4.40429685 V 0.64257812 L 16.025391,0.66015625 C 7.2508462,0.65278346 0.05161401,7.5115437 0.04101562,16.580078 c 0,4.198344 1.83520098,8.007111 4.54101558,10.828125 L 0,27.400391 v 18.472656 l 20.478516,-0.0039 c 5.754004,-0.0069 11.455601,-3.479035 13.4375,-7.638672 l 0.06055,-0.169922 c 2.289713,4.624584 7.067141,7.8125 12.597657,7.8125 l 21.535156,-0.0039 v -3.984375 c 2.538084,2.464816 5.999143,3.988281 9.816406,3.988281 l 60.314445,0.0059 L 125.21484,7.0195312 C 123.4357,2.8912284 119.26108,0 114.24805,0 Z m -0.004,3.1992188 c 3.90206,0 7.19733,2.4219737 8.19727,5.7148437 l 11.41015,33.7597655 h -21.93945 v -5.408203 h 14.41797 L 117.01953,9.8378906 c -0.45803,-1.080113 -1.53364,-1.8457031 -2.78515,-1.8457031 -1.25845,0 -2.32933,0.7645375 -2.78321,1.8515625 l -11.17969,32.830078 h -4.466792 v 0.0039 l -17.853516,-0.0078 c -5.995457,0 -10.896484,-4.847765 -10.896484,-10.826172 V 14.650391 C 67.054687,8.6724438 71.912285,3.8320312 77.908203,3.8320312 H 95.804688 V 9.2460938 H 77.951172 c -2.988743,-1e-7 -5.41211,2.4118682 -5.41211,5.4042972 V 31.84375 c 10e-7,2.989664 2.440264,5.421875 5.425782,5.421875 H 90.380859 V 22.601562 h -9.919921 v -5.402343 h 15.34375 V 38.927734 L 106.04297,8.9003906 c 1.00731,-3.2901052 4.29313,-5.7011718 8.20117,-5.7011718 z M 15.949219,3.8320312 h 17.236328 l 0.0078,5.4277344 -17.248047,0.00391 c -4.041206,0 -7.320312,3.2699524 -7.320312,7.2968754 0,4.037982 3.279106,7.304687 7.320312,7.304687 l 4.50586,0.05078 c 3.345401,0 6.050781,2.693814 6.050781,6.02539 0,3.335264 -2.70538,6.033203 -6.050781,6.033203 H 3.1699219 L 3.1640619,30.58594 20.408202,30.57227 c 0.339149,0 0.626953,-0.276306 0.626953,-0.619141 0,-0.349287 -0.287804,-0.626953 -0.626953,-0.626953 l -4.458984,-0.0059 C 8.8911595,29.320313 3.15625,23.614768 3.15625,16.574219 3.15625,9.5336702 8.8911595,3.8320312 15.949219,3.8320312 Z m 30.664062,0 H 65.046875 V 9.25 L 46.613281,9.24609 c -2.996116,-1e-7 -5.449219,2.412717 -5.449219,5.345703 V 31.84375 c 0,3.048646 2.453103,5.435547 5.449219,5.435547 l 18.353516,-0.0059 0.0039,5.404296 -18.357422,-0.0078 c -5.998682,0 -10.857422,-4.847765 -10.857422,-10.826172 v -17.19333 c 0,-5.9779472 4.85874,-10.8183598 10.857422,-10.8183598 z m 67.634769,5.4140626 c 0.77322,0 1.43388,0.497113 1.66797,1.1855472 l 8.66601,25.603515 h -12.69141 l 0.0117,-4.8125 -3.88476,11.451172 h -6.39649 l 10.95899,-32.242187 c 0.24054,-0.6884342 0.89521,-1.1855472 1.66797,-1.1855472 z m -18.445316,1.2617182 0.0078,5.398438 H 80.484375 c -1.28334,0.03133 -1.279297,1.289062 -1.279297,1.289062 l 0.02734,12.103516 c 0,0.695806 0.569819,1.273438 1.265625,1.273438 h 3.1875 l -0.0098,-1.273438 h -3.201172 v -5.417969 h 8.626953 v 12.115235 h -11.15039 c -2.286025,0 -4.140625,-1.861711 -4.140625,-4.152344 V 14.650391 c 0,-2.286025 1.852647,-4.138672 4.138672,-4.138672 z m -49.189453,0.0039 H 65.046875 V 15.9375 H 49.166016 c -1.272267,0 -1.291016,1.261719 -1.291016,1.261719 h 13.25 v 5.402343 H 42.478516 l 0.0059,-7.951171 c 0,-2.286025 1.839197,-4.138672 4.128906,-4.138672 z m -30.667969,0.01172 h 17.248047 l -0.0078,5.408203 -17.236328,-0.0039 c -0.353434,0 -0.640625,0.289826 -0.640625,0.646485 0,0.356657 0.287191,0.646484 0.640625,0.646484 l 4.484375,-0.02539 c 7.065432,1e-6 12.791015,5.710352 12.791015,12.757813 0,7.033636 -5.725583,12.742187 -12.791015,12.742187 l -17.2695315,0.01758 0.00586,-5.46875 H 20.451172 c 4.04858,0 7.324219,-3.272126 7.324219,-7.302735 0,-4.027845 -3.2761,-7.291015 -7.324219,-7.291015 l -4.50586,-0.06055 c -3.335263,0 -6.0488276,-2.697719 -6.0488276,-6.029297 0,-3.328352 2.7140256,-6.037109 6.0488276,-6.037109 z M 42.478516,23.886719 H 61.125 v 5.412109 h -13.25 c 0.01751,1.272267 1.291016,1.279297 1.291016,1.279297 H 64.96875 l -0.002,5.380859 -18.353516,0.0059 c -2.282797,0 -4.134765,-1.841521 -4.134765,-4.121094 z m 71.757814,0.451172 -1.92383,5.673828 h 3.83398 z" />
  <path
     d="m 129.71703,8.1280502 c 1.02114,0 1.98237,-0.3985919 2.7026,-1.1151359 0.71977,-0.7234559 1.12204,-1.6777727 1.12204,-2.6984447 0,-1.0137599 -0.40227,-1.9648511 -1.12204,-2.6883071 -0.72023,-0.71285751 -1.68146,-1.11144948 -2.7026,-1.11144948 -2.10078,0 -3.81726,1.70265588 -3.81726,3.80021738 0,1.020672 0.39859,1.9749888 1.12527,2.6984447 0.71701,0.7160832 1.67455,1.1146751 2.69199,1.1146751 m -3.27859,-3.8140414 c 0,-0.8704512 0.33547,-1.6952831 0.96077,-2.3141375 0.62254,-0.6188543 1.44737,-0.9543167 2.31782,-0.9543167 0.88105,0 1.70589,0.3359232 2.32843,0.9543167 0.61885,0.6188544 0.96169,1.4436863 0.96169,2.3141375 0,1.8072576 -1.47548,3.2753663 -3.29012,3.2753663 -0.87091,0 -1.69574,-0.3391488 -2.31782,-0.9580032 -0.62577,-0.6183935 -0.96077,-1.4399999 -0.96077,-2.3173631 z"
     id="Shape"
     fill="#ffffff"
     style="fill-rule:nonzero;stroke:none;stroke-width:1" />
  <path
     d="m 128.7383,4.6356473 v 1.7966591 h -0.5525 V 2.2095353 h 1.56948 c 0.59121,0.00691 0.93727,0.00691 1.26582,0.2548224 0.31795,0.2345472 0.45112,0.58752 0.45112,0.9791999 0,0.986112 -0.80363,1.115136 -1.00731,1.1570688 l 1.18887,1.83168 h -0.6677 l -1.15707,-1.7966591 h -1.09071 m 0,-0.4649473 h 1.12204 c 0.17879,0 0.34653,0 0.51426,-0.041933 0.39168,-0.094464 0.5313,-0.3741696 0.5313,-0.6815232 0,-0.1119743 -0.0106,-0.3949055 -0.25206,-0.5907455 -0.22072,-0.1852416 -0.49997,-0.1783296 -0.82483,-0.1783296 h -1.09071 z"
     id="path11"
     fill="#ffffff"
     style="fill-rule:nonzero;stroke:none;stroke-width:1" />
  <metadata
     id="metadata11">
    <rdf:RDF>
      <cc:Work
         rdf:about="">
        <dc:title>mainlogo</dc:title>
      </cc:Work>
    </rdf:RDF>
  </metadata>
  <g
     id="g37"
     transform="matrix(0.46466769,0,0,0.46466769,0.126,8.2414596)">
    <path
       d="m 197.64018,132.96224 c -4.16512,-0.23704 -4.06354,11.02234 0.25397,10.48054 4.68999,-0.60953 3.09844,-10.29429 -0.25397,-10.48054 z"
       style="fill:#ffffff;stroke-width:0.169314"
       id="path1-4" />
    <path
       d="m 173.56373,140.17502 c -2.06563,2.25187 7.80537,11.39483 9.98952,8.0932 2.37039,-3.58945 -7.92388,-10.34508 -9.98952,-8.0932 z"
       style="fill:#ffffff;stroke-width:0.169314"
       id="path2-9" />
    <path
       d="m 164.89485,155.73497 c -1.87938,3.42014 6.97574,10.04032 9.27842,5.87519 2.50583,-4.55454 -8.19481,-7.83923 -9.27842,-5.87519 z"
       style="fill:#ffffff;stroke-width:0.169314"
       id="path3-2" />
    <path
       d="m 223.3759,135.02787 c -3.89422,-2.97992 -11.25938,8.09321 -6.6879,10.41281 4.96089,2.50585 9.83713,-8.00855 6.6879,-10.41281 z"
       style="fill:#ffffff;stroke-width:0.169314"
       id="path4-9" />
    <path
       d="m 242.67769,149.0132 c -1.30371,-4.16512 -14.32396,1.03282 -12.05515,4.97783 2.47197,4.30058 13.10489,-1.62541 12.05515,-4.97783 z"
       style="fill:#ffffff;stroke-width:0.169314"
       id="path5-1" />
    <path
       d="m 506.90901,164.40384 c -6.51859,4.53762 8.49956,26.1082 17.25307,22.01082 4.45301,-2.08257 -10.95456,-26.37912 -17.25307,-22.01082 z"
       style="fill:#ffffff;stroke-width:0.169314"
       id="path7-9" />
    <path
       d="m 580.50981,164.20067 c -7.43286,-2.47199 -23.90712,18.94623 -17.89648,22.73886 7.34822,4.6392 27.63204,-19.48804 17.89648,-22.73886 z"
       style="fill:#ffffff;stroke-width:0.169314"
       id="path8-3" />
    <path
       d="m 632.13362,184.39982 c -2.03177,-2.21801 -31.67866,9.75248 -25.97274,16.77901 5.21483,6.43393 30.81514,-11.49641 25.97274,-16.77901 z"
       style="fill:#ffffff;stroke-width:0.169314"
       id="path9-0" />
    <path
       d="m 649.89464,237.73371 c 2.20108,-7.39902 -30.79819,-10.37895 -32.1866,-2.69209 -1.13435,6.29848 30.05327,9.85407 32.1866,2.69209 z"
       style="fill:#ffffff;stroke-width:0.169314"
       id="path10-0" />
    <path
       d="m 630.57594,281.73841 c 4.96091,-5.57043 -21.40127,-22.3833 -25.78651,-16.18642 -3.57255,5.0625 20.97797,21.58753 25.78651,16.18642 z"
       style="fill:#ffffff;stroke-width:0.169314"
       id="path11-3" />
    <path
       d="m 455.16669,195.74385 c 4.94397,-5.63816 29.78231,7.44982 26.7516,16.3388 -2.47199,7.22971 -32.03419,-10.31122 -26.7516,-16.3388 z"
       style="fill:#ffffff;stroke-width:0.169314"
       id="path12" />
    <path
       d="m 499.03591,269.48008 c 4.43602,7.2805 -19.13248,24.58437 -24.65213,17.08377 -3.91112,-5.33338 21.46906,-22.29863 24.65213,-17.08377 z"
       style="fill:#ffffff;stroke-width:0.169314"
       id="path13" />
    <path
       d="m 535.92944,280.67173 c 6.55245,3.09844 -6.82336,27.85214 -12.71548,25.0246 -6.41699,-3.0815 6.53552,-27.95373 12.71548,-25.0246 z"
       style="fill:#ffffff;stroke-width:0.169314"
       id="path14" />
    <path
       d="m 570.87583,279.48653 c 9.29532,-3.91115 19.04782,23.73781 10.80223,26.14208 -7.44981,2.16721 -17.62559,-23.28067 -10.80223,-26.14208 z"
       style="fill:#ffffff;stroke-width:0.169314"
       id="path15" />
    <path
       d="m 446.7179,246.70735 c 1.06669,-6.11223 30.45956,-8.99057 31.30613,-0.35556 0.50799,5.06249 -32.25426,5.8244 -31.30613,0.35556 z"
       style="fill:#ffffff;stroke-width:0.169314"
       id="path16" />
    <path
       d="m 550.81213,212.33662 c -0.13546,0.16931 -12.56309,4.52067 -10.71758,7.68685 1.06669,1.84553 2.82754,0.81272 4.23285,-0.20316 5.33339,-3.89423 8.05936,1.52382 4.63918,3.50479 -7.24663,4.18204 -15.88164,0.42328 -15.79699,-4.35136 0.10161,-4.82545 5.77362,-8.4657 5.77362,-8.4657"
       style="fill:#ffffff;stroke-width:0.169314"
       id="path17" />
    <path
       d="m 576.70025,216.688 c -0.13546,0.16931 -15.797,0.91429 -13.54511,5.33339 0.96508,1.8963 2.4381,0.10159 4.09738,-0.38943 2.82755,-0.81272 5.4011,4.14819 1.48998,4.72386 -4.60534,0.69418 -13.42661,-0.57567 -13.42661,-5.92599 0,-4.82545 5.77362,-8.4657 5.77362,-8.4657"
       style="fill:#ffffff;stroke-width:0.169314"
       id="path18" />
    <path
       d="m 527.75157,237.5644 c 0,0 10.7853,5.92599 20.01291,5.92599 h 11.97049 c 2.94604,0 8.83819,-0.13546 12.05515,-1.06669"
       style="fill:none;stroke:#ffffff;stroke-width:6.16702px;stroke-linecap:round;stroke-miterlimit:10"
       id="path19" />
    <path
       d="m 590.83797,229.31881 c -3.35243,4.67306 -4.87625,13.13876 -9.00751,16.67742 -9.53237,8.16094 -19.04782,9.51545 -32.06804,9.51545 -23.39918,0 -32.60988,-5.75668 -39.29779,-15.25519 -3.14925,-4.46989 -0.49099,-9.26146 2.01482,-12.80013 3.58946,-5.06249 8.80433,-14.6118 35.08185,-14.6118 21.48593,0 31.15377,6.45086 34.84481,9.09215 3.23392,2.3196 5.04557,3.48787 7.12814,3.94503 a 2.1879155,2.1879155 0 0 1 1.30372,3.43707 z m -43.31052,-34.47232 c -44.34331,0 -67.48856,22.80658 -67.48856,41.32953 v 3.77571 c 0,11.53028 14.59486,34.20142 70.65471,34.20142 42.41315,0 61.34245,-20.96107 61.34245,-36.33477 v -14.86577 c 10e-6,-14.98428 -18.5568,-28.10611 -64.5086,-28.10611 z"
       style="fill:#ffffff;stroke-width:0.169314"
       id="path20" />
    <path
       d="m 65.643017,177.98282 c -54.925444,-3.33548 -51.708479,16.99912 -51.573028,22.77273 0,0 -14.069989,-1.91326 -14.069989,4.75772 0,10.41281 9.8710031,16.40652 10.785298,30.07016 0.474079,7.21277 5.197939,40.94012 30.764345,44.07242 11.885839,1.4561 23.602364,-1.94711 23.19601,-16.00016 -0.186245,-6.36622 -6.281547,-13.15571 -7.060391,-17.47321 a 1.151516,1.151516 0 0 1 1.151334,-1.35451 c 48.508444,0.0169 60.580534,-17.76104 62.070494,-31.23843 1.4561,-13.34194 -6.85722,-32.66066 -55.264073,-35.60672 z m 14.662588,31.78023 c -5.231801,9.76941 -21.096518,11.85197 -27.632036,12.29219 a 3.84748,3.84748 0 0 1 -3.860358,-2.45505 l -4.639202,-11.95357 a 2.7239448,2.7239448 0 0 1 1.473031,-3.48786 c 7.906961,-3.40321 12.969448,-5.80748 19.91132,-4.35136 3.775701,0.77883 17.168434,5.46883 14.747245,9.95565 z"
       style="fill:#ffffff;stroke-width:0.169314"
       id="path24" />
    <path
       d="m 223.25737,257.44186 c 2.38733,-15.45837 5.72281,-33.15167 -17.13457,-33.15167 -15.45836,0 -23.77168,6.21381 -26.31139,17.16843 -1.06668,4.60533 1.04974,14.27317 0.16932,18.31976 -1.28679,5.89213 -4.08047,18.09966 1.64233,25.97276 6.53552,9.00749 35.01413,13.83294 41.68509,-8.63501 1.9302,-6.50164 -1.3037,-11.47948 -0.0508,-19.67427 z"
       style="fill:#ffffff;stroke-width:0.169314"
       id="path25" />
    <path
       d="m 287.76598,240.83216 a 5.6800833,5.6800833 0 0 1 1.7778,-4.21592 c 15.83085,-14.96735 46.79838,-32.38976 83.57336,-32.38976 11.54721,0 25.58336,7.97469 25.58336,11.93664 0,7.80537 -11.5303,6.84028 -25.00766,9.87101 -19.62347,4.38523 -43.51369,10.76836 -43.51369,23.12828 0,6.36621 0.82964,15.44143 18.64149,15.44143 21.9092,0 30.64582,-12.95252 53.96034,-13.78216 7.24665,-0.25397 15.89856,2.43812 15.89856,9.48158 0,6.60325 -23.63624,23.58544 -51.31907,23.58544 h -29.73153 c -14.73031,0 -49.65977,-11.51335 -49.65977,-30.86594 z"
       style="fill:#ffffff;stroke-width:0.169314"
       id="path26" />
    <path
       d="m 205.68259,147.38779 c -23.46691,-0.79577 -27.6151,16.52504 -27.6151,21.40128 0,12.30913 15.98323,13.22342 16.66049,18.13353 0.37248,2.70902 0.67725,8.70273 8.51649,10.09111 a 0.70352315,0.70352315 0 0 1 0.11852,1.35451 c -3.16617,1.11747 -7.34823,3.06458 -7.34823,5.53656 0,3.97888 4.87625,5.5027 12.68162,5.5027 0,0 7.11118,0.44022 7.11118,-1.93018 0,-1.37144 -2.97992,-2.42119 -5.5027,-3.06458 a 0.70364167,0.70364167 0 0 1 0.0169,-1.37144 c 2.99685,-0.69419 6.84029,-1.96405 6.84029,-3.96195 0,-1.93018 -3.25083,-3.13231 -5.92599,-3.80956 a 0.70380591,0.70380591 0 0 1 0.0339,-1.37145 l 2.53971,-0.50794 a 2.6109294,2.6109294 0 0 0 2.0487,-2.26881 c 1.40531,-10.92074 15.06894,-8.87205 15.06894,-24.00871 0,-4.8593 -5.53656,-19.06475 -25.2447,-19.72507 z m 11.56413,26.7516 c -2.89527,2.15028 -5.62122,5.06249 -7.72071,10.31122 a 1.5464476,1.5464476 0 0 1 -1.26986,0.94816 c -0.98203,0.0847 -2.25188,-0.0169 -3.11538,-0.10159 a 1.4746263,1.4746263 0 0 1 -1.21906,-0.91429 c -1.38836,-3.99581 -6.73869,-8.36411 -10.53131,-10.36201 -5.19794,-2.72595 -6.06145,-5.58736 -6.06145,-7.12811 0,-2.86141 0.28783,-10.58213 16.8298,-10.29429 0.40636,0 0.81272,0 1.21906,0.0169 13.57897,0.45715 14.62872,9.12602 14.62872,10.32815 -0.0169,1.93017 0.64341,4.65612 -2.7598,7.19583 z"
       style="fill:#ffffff;stroke-width:0.169314"
       id="path27" />
    <ellipse
       cx="205.97043"
       cy="213.58954"
       rx="3.3693509"
       ry="3.0815053"
       style="fill:#ffffff;stroke-width:0.169314"
       id="ellipse27" />
  </g>
</svg>
