<?xml version="1.0" encoding="UTF-8" standalone="no"?>
<svg
   width="490"
   height="150.39301"
   viewBox="0 0 490.00001 150.39301"
   version="1.1"
   id="svg11"
   sodipodi:docname="pico.svg"
   inkscape:version="1.3 (0e150ed, 2023-07-21)"
   xmlns:inkscape="http://www.inkscape.org/namespaces/inkscape"
   xmlns:sodipodi="http://sodipodi.sourceforge.net/DTD/sodipodi-0.dtd"
   xmlns="http://www.w3.org/2000/svg"
   xmlns:svg="http://www.w3.org/2000/svg"
   xmlns:rdf="http://www.w3.org/1999/02/22-rdf-syntax-ns#"
   xmlns:cc="http://creativecommons.org/ns#"
   xmlns:dc="http://purl.org/dc/elements/1.1/">
  <defs
     id="defs11" />
  <sodipodi:namedview
     id="namedview11"
     pagecolor="#ffffff"
     bordercolor="#000000"
     borderopacity="0.25"
     inkscape:showpageshadow="2"
     inkscape:pageopacity="0.0"
     inkscape:pagecheckerboard="0"
     inkscape:deskcolor="#d1d1d1"
     inkscape:zoom="1.4040816"
     inkscape:cx="181.96948"
     inkscape:cy="107.89971"
     inkscape:window-width="1392"
     inkscape:window-height="1212"
     inkscape:window-x="257"
     inkscape:window-y="25"
     inkscape:window-maximized="0"
     inkscape:current-layer="svg11" />
  <title
     id="title1">mainlogo</title>
  <g
     id="g11"
     transform="matrix(0.47353278,0,0,0.47353278,82.551896,53.445013)">
    <path
       d="m 488.36374,99.899968 h -5.61215 v -0.800056 c 0.17302,0 0.41901,-0.02115 0.73802,-0.03807 0.31896,-0.02538 0.53254,-0.06345 0.64069,-0.116318 0.17302,-0.112088 0.29192,-0.205142 0.35685,-0.276836 0.0649,-0.07191 0.0972,-0.183994 0.0972,-0.338591 v -6.938895 h -0.24332 l -3.95768,8.16975 h -0.51905 l -3.84414,-8.323501 h -0.24332 v 5.600392 c 0,0.543522 0.0352,0.956345 0.10546,1.238469 0.0702,0.282124 0.19197,0.49488 0.36496,0.63848 0.14047,0.08248 0.37845,0.167075 0.71367,0.253784 0.3352,0.08671 0.62716,0.131122 0.8759,0.131122 v 0.800057 h -5.10933 v -0.769391 c 0.17301,-0.02961 0.42982,-0.06979 0.77045,-0.114203 0.34062,-0.04653 0.59742,-0.124777 0.77046,-0.238557 0.18372,-0.133237 0.30815,-0.317866 0.37306,-0.553885 0.0649,-0.235809 0.0972,-0.676971 0.0974,-1.323064 v -5.338783 c -2e-5,-0.246171 -0.0406,-0.451314 -0.12174,-0.615428 -0.0811,-0.16496 -0.19732,-0.307714 -0.34873,-0.430799 -0.16231,-0.122663 -0.36496,-0.212756 -0.60825,-0.269223 -0.24332,-0.0571 -0.52177,-0.09517 -0.83534,-0.116318 v -0.784618 h 4.50919 l 3.42242,7.261836 2.85473,-5.953999 c 0.11884,-0.256534 0.20802,-0.500167 0.26764,-0.7309 0.0595,-0.230732 0.10546,-0.423186 0.13779,-0.576937 h 4.34712 v 0.784618 c -0.18408,0 -0.41919,0.03595 -0.70571,0.07614 -0.28659,0.04018 -0.48933,0.08248 -0.60826,0.122663 -0.16231,0.02961 -0.26496,0.101513 -0.30817,0.215294 -0.0433,0.112088 -0.0649,0.225656 -0.0649,0.338591 v 7.446464 c -5e-5,0.143811 0.0223,0.259071 0.0649,0.346204 0.0433,0.08671 0.14604,0.167075 0.30817,0.238558 0.10814,0.02961 0.29464,0.06979 0.55959,0.114203 0.26489,0.04653 0.5163,0.06979 0.75438,0.06979 z"
       id="path6742-path"
       style="fill:#ffffff;fill-rule:nonzero;stroke:none;stroke-width:1" />
    <path
       d="m 470.84609,92.39175 h -0.77857 c -0.10814,-0.33838 -0.32713,-0.761566 -0.65691,-1.269346 -0.32982,-0.50757 -0.65153,-0.792231 -0.9651,-0.853774 -0.2379,-0.02115 -0.4704,-0.03595 -0.69746,-0.04653 -0.22708,0 -0.41633,-0.02115 -0.5677,-0.02115 h -0.79478 v 8.061892 c -2e-5,0.143811 0.0243,0.264147 0.0729,0.361643 0.0486,0.09728 0.15941,0.181879 0.33252,0.253784 0.10813,0.03172 0.30817,0.07402 0.60014,0.131123 0.29196,0.0571 0.56228,0.08459 0.81101,0.08459 v 0.800056 h -5.72568 v -0.800056 c 0.21627,0 0.48119,-0.02115 0.79478,-0.05287 0.31357,-0.03595 0.51903,-0.06979 0.61635,-0.0994 0.16232,-0.05076 0.27034,-0.133237 0.32441,-0.246172 0.0539,-0.112088 0.0811,-0.225656 0.0811,-0.338379 v -8.154312 h -0.79478 c -0.16231,0 -0.37847,0 -0.64881,0.02326 -0.27034,0.02115 -0.47579,0.02749 -0.61637,0.03807 -0.33522,0.05076 -0.66232,0.335841 -0.98131,0.853773 -0.31899,0.518144 -0.53256,0.941118 -0.64069,1.269346 h -0.77855 v -3.046261 h 11.01344 z"
       id="path1"
       style="fill:#ffffff;fill-rule:nonzero;stroke:none;stroke-width:1" />
  </g>
  <g
     id="SEGA_logo"
     style="fill:none;fill-rule:nonzero;stroke:none;stroke-width:1">
    <path
       d="m 68.109922,41.883952 c 2.538087,2.464819 5.999155,3.988685 9.816422,3.988685 l 60.313646,0.0069 L 125.2141,7.0193655 C 123.43495,2.8910585 119.26102,-5.6249995e-7 114.24798,-5.6249995e-7 109.25613,-5.6249995e-7 105.01908,2.9855225 103.30629,7.0967799 L 98.964167,19.755416 98.947117,0.65387461 77.884411,0.64327621 c -3.807129,0 -7.22949,1.48561909 -9.750066,3.94306539 l 0.0074,-3.92601579 H 46.575818 c -4.016793,0 -7.670016,1.71279349 -10.225151,4.40478699 V 0.64327621 L 16.02478,0.66078661 C 7.2502268,0.65341381 0.0525312,7.5124215 0.0419328,16.580965 c 0,4.198348 1.8349055,8.005939 4.5407229,10.826956 L 0,27.400548 v 18.472089 l 20.478872,-0.0037 c 5.75401,-0.0069 11.455948,-3.478579 13.437849,-7.63822 l 0.05944,-0.170957 c 2.289715,4.624589 7.068211,7.812864 12.598732,7.812864 l 21.534565,-0.0037 v -3.984998"
       id="Path"
       fill="#ffffff" />
    <path
       d="M 3.1638526,42.71201 20.433253,42.6945 c 7.065446,0 12.791347,-5.70839 12.791347,-12.74204 0,-7.047475 -5.725901,-12.756326 -12.791347,-12.756326 l -4.484966,0.02442 c -0.353434,0 -0.640051,-0.289843 -0.640051,-0.646502 0,-0.356659 0.286617,-0.646963 0.640051,-0.646963 l 17.238066,0.0037 0.0069,-5.407948 H 15.944601 c -3.33481,0 -6.048,2.709043 -6.048,6.037401 0,3.331584 2.712729,6.030028 6.048,6.030028 l 4.506163,0.05944 c 4.048127,0 7.323954,3.264767 7.323954,7.29262 0,4.030617 -3.275366,7.302758 -7.323954,7.302758 H 3.1707646 l -0.00691,5.466931"
       id="path2"
       fill="#0060a8" />
    <path
       d="M 3.1707646,35.975575 H 20.450764 c 3.345407,0 6.051225,-2.698445 6.051225,-6.033715 0,-3.331584 -2.705818,-6.026803 -6.051225,-6.026803 l -4.506163,-0.04885 c -4.041216,0 -7.3202687,-3.268454 -7.3202687,-7.306444 0,-4.026931 3.2790527,-7.2958458 7.3202687,-7.2958458 l 17.248664,-0.00369 -0.0069,-5.4286846 H 15.948287 c -7.0580731,0 -12.7913464,5.701939 -12.7913464,12.7425014 0,7.040563 5.7332733,12.745727 12.7913464,12.745727 l 4.460544,0.0069 c 0.339149,0 0.625766,0.27648 0.625766,0.625767 0,0.342835 -0.286617,0.618854 -0.625766,0.618854 l -17.2449784,0.01382 0.00691,5.390438"
       id="path3"
       fill="#0060a8" />
    <path
       d="m 46.613604,37.279639 c -2.996122,0 -5.450343,-2.387866 -5.450343,-5.436518 V 14.591692 c 0,-2.932992 2.454221,-5.3452802 5.450343,-5.3452802 l 18.433381,0.00323 V 3.8315512 H 46.613604 c -5.998694,0 -10.85783,4.8416254 -10.85783,10.8195838 v 17.192447 c 0,5.978419 4.859136,10.826956 10.85783,10.826956 l 18.356427,0.0074 -0.0037,-5.404723 -18.352741,0.0065"
       id="path4"
       fill="#0060a8" />
    <path
       d="m 42.484836,14.651135 c 0,-2.286029 1.839053,-4.138906 4.128768,-4.138906 h 18.433381 v 5.425459 H 49.165514 c -1.272269,0 -1.289779,1.262131 -1.289779,1.262131 h 13.249381 v 5.401037 H 42.478385 l 0.0065,-7.949721"
       id="path5"
       fill="#0060a8" />
    <path
       d="m 46.613604,35.965437 c -2.282803,0 -4.13568,-1.842278 -4.13568,-4.121855 v -7.956634 h 18.646732 v 5.412096 H 47.875274 c 0.01751,1.272269 1.289779,1.27872 1.289779,1.27872 h 15.804518 l -0.0037,5.380301 -18.35228,0.0074"
       id="path6"
       fill="#0060a8" />
    <path
       d="m 77.964591,37.265815 c -2.985524,0 -5.425459,-2.433024 -5.425459,-5.422694 V 14.650674 c 0,-2.992435 2.422425,-5.404723 5.411174,-5.404723 H 95.804001 V 3.8315512 H 77.908834 c -5.99593,0 -10.855065,4.8416254 -10.855065,10.8195838 v 17.192447 c 0,5.978419 4.901068,10.826956 10.896537,10.826956 l 17.853695,0.0074 V 17.199819 H 80.460744 v 5.401037 h 9.921023 V 37.265815 H 77.964591"
       id="path7"
       fill="#0060a8" />
    <path
       d="m 73.8114,31.843121 c 0,2.290637 1.852877,4.153651 4.138906,4.153651 h 11.15182 V 23.880036 h -8.628019 v 5.419008 h 3.202099 l 0.01014,1.272269 H 80.49853 c -0.695808,0 -1.265357,-0.576461 -1.265357,-1.272269 l -0.02857,-12.102911 c 0,0 -0.0037,-1.258445 1.279642,-1.289779 h 15.325746 l -0.0069,-5.397811 -17.853695,0.0037 c -2.286029,0 -4.138905,1.852877 -4.138905,4.138906 v 17.191986"
       id="path8"
       fill="#0060a8" />
    <path
       d="m 112.58034,10.431589 c 0.24054,-0.6884348 0.89442,-1.1847164 1.66718,-1.1847164 0.77322,0 1.43355,0.4962816 1.66764,1.1847164 l 8.66672,25.603429 h -12.69043 l 0.0138,-6.023116 h 4.24075 l -1.9091,-5.67383 -6.21895,18.335231 h -6.39729 l 10.95966,-32.241714"
       id="path9"
       fill="#0060a8" />
    <path
       d="m 126.32923,37.265815 h -14.41658 v 5.407488 h 21.9396 L 122.44193,8.914175 c -0.99994,-3.2928766 -4.29604,-5.7153021 -8.1981,-5.7153021 -3.90804,0 -7.19401,2.4118271 -8.20132,5.7019389 L 94.527585,42.673763 h 5.743875 L 111.45139,9.8445302 c 0.45388,-1.0870272 1.52432,-1.8528767 2.78277,-1.8528767 1.25153,0 2.32796,0.7658495 2.78599,1.8459647 l 9.30908,27.4281968"
       id="path10"
       fill="#0060a8" />
    <path
       d="m 129.71703,8.1280502 c 1.02114,0 1.98237,-0.3985919 2.7026,-1.1151359 0.71977,-0.7234559 1.12204,-1.6777727 1.12204,-2.6984447 0,-1.0137599 -0.40227,-1.9648511 -1.12204,-2.6883071 -0.72023,-0.71285751 -1.68146,-1.11144948 -2.7026,-1.11144948 -2.10078,0 -3.81726,1.70265588 -3.81726,3.80021738 0,1.020672 0.39859,1.9749888 1.12527,2.6984447 0.71701,0.7160832 1.67455,1.1146751 2.69199,1.1146751 m -3.27859,-3.8140414 c 0,-0.8704512 0.33547,-1.6952831 0.96077,-2.3141375 0.62254,-0.6188543 1.44737,-0.9543167 2.31782,-0.9543167 0.88105,0 1.70589,0.3359232 2.32843,0.9543167 0.61885,0.6188544 0.96169,1.4436863 0.96169,2.3141375 0,1.8072576 -1.47548,3.2753663 -3.29012,3.2753663 -0.87091,0 -1.69574,-0.3391488 -2.31782,-0.9580032 -0.62577,-0.6183935 -0.96077,-1.4399999 -0.96077,-2.3173631 z"
       id="Shape"
       fill="#ffffff" />
    <path
       d="m 128.7383,4.6356473 v 1.7966591 h -0.5525 V 2.2095353 h 1.56948 c 0.59121,0.00691 0.93727,0.00691 1.26582,0.2548224 0.31795,0.2345472 0.45112,0.58752 0.45112,0.9791999 0,0.986112 -0.80363,1.115136 -1.00731,1.1570688 l 1.18887,1.83168 h -0.6677 l -1.15707,-1.7966591 h -1.09071 m 0,-0.4649473 h 1.12204 c 0.17879,0 0.34653,0 0.51426,-0.041933 0.39168,-0.094464 0.5313,-0.3741696 0.5313,-0.6815232 0,-0.1119743 -0.0106,-0.3949055 -0.25206,-0.5907455 -0.22072,-0.1852416 -0.49997,-0.1783296 -0.82483,-0.1783296 h -1.09071 z"
       id="path11"
       fill="#ffffff" />
  </g>
  <metadata
     id="metadata11">
    <rdf:RDF>
      <cc:Work
         rdf:about="">
        <dc:title>mainlogo</dc:title>
      </cc:Work>
    </rdf:RDF>
  </metadata>
  <g
     id="g37"
     transform="matrix(0.46466769,0,0,0.46466769,0.126,8.2414596)">
    <path
       d="m 197.64018,132.96224 c -4.16512,-0.23704 -4.06354,11.02234 0.25397,10.48054 4.68999,-0.60953 3.09844,-10.29429 -0.25397,-10.48054 z"
       style="fill:#e3c820;stroke-width:0.169314"
       id="path1-4" />
    <path
       d="m 173.56373,140.17502 c -2.06563,2.25187 7.80537,11.39483 9.98952,8.0932 2.37039,-3.58945 -7.92388,-10.34508 -9.98952,-8.0932 z"
       style="fill:#e3c820;stroke-width:0.169314"
       id="path2-9" />
    <path
       d="m 164.89485,155.73497 c -1.87938,3.42014 6.97574,10.04032 9.27842,5.87519 2.50583,-4.55454 -8.19481,-7.83923 -9.27842,-5.87519 z"
       style="fill:#e3c820;stroke-width:0.169314"
       id="path3-2" />
    <path
       d="m 223.3759,135.02787 c -3.89422,-2.97992 -11.25938,8.09321 -6.6879,10.41281 4.96089,2.50585 9.83713,-8.00855 6.6879,-10.41281 z"
       style="fill:#e3c820;stroke-width:0.169314"
       id="path4-9" />
    <path
       d="m 242.67769,149.0132 c -1.30371,-4.16512 -14.32396,1.03282 -12.05515,4.97783 2.47197,4.30058 13.10489,-1.62541 12.05515,-4.97783 z"
       style="fill:#e3c820;stroke-width:0.169314"
       id="path5-1" />
    <path
       d="m 551.96347,199.26558 c -44.34331,0 -67.48856,22.80659 -67.48856,41.32954 v 3.77571 c 0,11.53028 14.59486,34.20141 70.65472,34.20141 42.41314,0 61.34244,-20.96107 61.34244,-36.33477 v -14.84884 c -0.0169,-15.00122 -18.57372,-28.12305 -64.5086,-28.12305 z m 50.70952,40.43217 a 23.137409,23.137409 0 0 1 -23.1283,23.12829 h -55.63658 a 23.137428,23.137428 0 0 1 -23.1283,-23.12829 v -10.36201 a 23.137409,23.137409 0 0 1 23.1283,-23.12828 h 55.63658 a 23.137437,23.137437 0 0 1 23.1283,23.12828 z"
       style="fill:#d42027;stroke-width:0.169314"
       id="path6-0" />
    <path
       d="m 506.90901,164.40384 c -6.51859,4.53762 8.49956,26.1082 17.25307,22.01082 4.45301,-2.08257 -10.95456,-26.37912 -17.25307,-22.01082 z"
       style="fill:#e3c820;stroke-width:0.169314"
       id="path7-9" />
    <path
       d="m 580.50981,164.20067 c -7.43286,-2.47199 -23.90712,18.94623 -17.89648,22.73886 7.34822,4.6392 27.63204,-19.48804 17.89648,-22.73886 z"
       style="fill:#e3c820;stroke-width:0.169314"
       id="path8-3" />
    <path
       d="m 632.13362,184.39982 c -2.03177,-2.21801 -31.67866,9.75248 -25.97274,16.77901 5.21483,6.43393 30.81514,-11.49641 25.97274,-16.77901 z"
       style="fill:#e3c820;stroke-width:0.169314"
       id="path9-0" />
    <path
       d="m 649.89464,237.73371 c 2.20108,-7.39902 -30.79819,-10.37895 -32.1866,-2.69209 -1.13435,6.29848 30.05327,9.85407 32.1866,2.69209 z"
       style="fill:#e3c820;stroke-width:0.169314"
       id="path10-0" />
    <path
       d="m 630.57594,281.73841 c 4.96091,-5.57043 -21.40127,-22.3833 -25.78651,-16.18642 -3.57255,5.0625 20.97797,21.58753 25.78651,16.18642 z"
       style="fill:#e3c820;stroke-width:0.169314"
       id="path11-3" />
    <path
       d="m 455.16669,195.74385 c 4.94397,-5.63816 29.78231,7.44982 26.7516,16.3388 -2.47199,7.22971 -32.03419,-10.31122 -26.7516,-16.3388 z"
       style="fill:#e3c820;stroke-width:0.169314"
       id="path12" />
    <path
       d="m 499.03591,269.48008 c 4.43602,7.2805 -19.13248,24.58437 -24.65213,17.08377 -3.91112,-5.33338 21.46906,-22.29863 24.65213,-17.08377 z"
       style="fill:#e3c820;stroke-width:0.169314"
       id="path13" />
    <path
       d="m 535.92944,280.67173 c 6.55245,3.09844 -6.82336,27.85214 -12.71548,25.0246 -6.41699,-3.0815 6.53552,-27.95373 12.71548,-25.0246 z"
       style="fill:#e3c820;stroke-width:0.169314"
       id="path14" />
    <path
       d="m 570.87583,279.48653 c 9.29532,-3.91115 19.04782,23.73781 10.80223,26.14208 -7.44981,2.16721 -17.62559,-23.28067 -10.80223,-26.14208 z"
       style="fill:#e3c820;stroke-width:0.169314"
       id="path15" />
    <path
       d="m 446.7179,246.70735 c 1.06669,-6.11223 30.45956,-8.99057 31.30613,-0.35556 0.50799,5.06249 -32.25426,5.8244 -31.30613,0.35556 z"
       style="fill:#e3c820;stroke-width:0.169314"
       id="path16" />
    <path
       d="m 550.81213,212.33662 c -0.13546,0.16931 -12.56309,4.52067 -10.71758,7.68685 1.06669,1.84553 2.82754,0.81272 4.23285,-0.20316 5.33339,-3.89423 8.05936,1.52382 4.63918,3.50479 -7.24663,4.18204 -15.88164,0.42328 -15.79699,-4.35136 0.10161,-4.82545 5.77362,-8.4657 5.77362,-8.4657"
       style="fill:#e3c820;stroke-width:0.169314"
       id="path17" />
    <path
       d="m 576.70025,216.688 c -0.13546,0.16931 -15.797,0.91429 -13.54511,5.33339 0.96508,1.8963 2.4381,0.10159 4.09738,-0.38943 2.82755,-0.81272 5.4011,4.14819 1.48998,4.72386 -4.60534,0.69418 -13.42661,-0.57567 -13.42661,-5.92599 0,-4.82545 5.77362,-8.4657 5.77362,-8.4657"
       style="fill:#e3c820;stroke-width:0.169314"
       id="path18" />
    <path
       d="m 527.75157,237.5644 c 0,0 10.7853,5.92599 20.01291,5.92599 h 11.97049 c 2.94604,0 8.83819,-0.13546 12.05515,-1.06669"
       style="fill:none;stroke:#e3c820;stroke-width:6.16702px;stroke-linecap:round;stroke-miterlimit:10"
       id="path19" />
    <path
       d="m 590.83797,229.31881 c -3.35243,4.67306 -4.87625,13.13876 -9.00751,16.67742 -9.53237,8.16094 -19.04782,9.51545 -32.06804,9.51545 -23.39918,0 -32.60988,-5.75668 -39.29779,-15.25519 -3.14925,-4.46989 -0.49099,-9.26146 2.01482,-12.80013 3.58946,-5.06249 8.80433,-14.6118 35.08185,-14.6118 21.48593,0 31.15377,6.45086 34.84481,9.09215 3.23392,2.3196 5.04557,3.48787 7.12814,3.94503 a 2.1879155,2.1879155 0 0 1 1.30372,3.43707 z m -43.31052,-34.47232 c -44.34331,0 -67.48856,22.80658 -67.48856,41.32953 v 3.77571 c 0,11.53028 14.59486,34.20142 70.65471,34.20142 42.41315,0 61.34245,-20.96107 61.34245,-36.33477 v -14.86577 c 10e-6,-14.98428 -18.5568,-28.10611 -64.5086,-28.10611 z"
       style="fill:#e3c820;stroke-width:0.169314"
       id="path20" />
    <path
       d="m 70.079043,182.41885 c -54.925445,-3.33548 -51.70848,16.99912 -51.573029,22.77272 0,0 -14.0699886,-1.91325 -14.0699886,4.75772 0,10.41281 9.8710026,16.40653 10.7852986,30.07016 0.474079,7.21277 5.197938,40.94011 30.764344,44.07241 11.885839,1.4561 23.602364,-1.94711 23.196011,-16.00017 -0.186246,-6.3662 -6.281548,-13.15569 -7.060392,-17.47319 a 1.151516,1.151516 0 0 1 1.151335,-1.35451 c 48.508448,0.0169 60.580528,-17.76104 62.070488,-31.23843 1.43917,-13.35885 -6.87414,-32.66064 -55.264067,-35.60671 z m 15.373706,47.78039 H 40.753867 v -36.9443 H 85.46968 v 36.9443 z"
       style="fill:#d42027;stroke-width:0.169314"
       id="path21" />
    <path
       d="m 227.6934,261.87788 c 2.38733,-15.45837 5.72282,-33.15168 -17.13456,-33.15168 -15.45837,0 -23.77168,6.21382 -26.31139,17.16844 -1.06668,4.60534 1.04974,14.27317 0.16932,18.31977 -1.28679,5.89212 -4.08047,18.09966 1.64233,25.97275 6.53552,9.00751 35.01414,13.83295 41.6851,-8.63501 1.91324,-6.51857 -1.32065,-11.47947 -0.0508,-19.67427 z"
       style="fill:#d42027;stroke-width:0.169314"
       id="path22" />
    <path
       d="m 292.20202,245.26818 a 5.6800901,5.6800901 0 0 1 1.77779,-4.21591 c 15.83086,-14.96736 46.79838,-32.38977 83.57339,-32.38977 11.54721,0 25.58335,7.97469 25.58335,11.93663 0,7.80538 -11.5303,6.84029 -25.00766,9.87101 -19.62347,4.38524 -43.51369,10.76837 -43.51369,23.12829 0,6.3662 0.82964,15.44143 18.64148,15.44143 21.90921,0 30.64583,-12.95252 53.96036,-13.78215 7.24664,-0.25397 15.89856,2.43812 15.89856,9.48158 0,6.60324 -23.63624,23.58543 -51.31907,23.58543 H 342.065 c -14.73031,0 -49.65977,-11.51335 -49.65977,-30.86593 z"
       style="fill:#d42027;stroke-width:0.169314"
       id="path23" />
    <path
       d="m 65.643017,177.98282 c -54.925444,-3.33548 -51.708479,16.99912 -51.573028,22.77273 0,0 -14.069989,-1.91326 -14.069989,4.75772 0,10.41281 9.8710031,16.40652 10.785298,30.07016 0.474079,7.21277 5.197939,40.94012 30.764345,44.07242 11.885839,1.4561 23.602364,-1.94711 23.19601,-16.00016 -0.186245,-6.36622 -6.281547,-13.15571 -7.060391,-17.47321 a 1.151516,1.151516 0 0 1 1.151334,-1.35451 c 48.508444,0.0169 60.580534,-17.76104 62.070494,-31.23843 1.4561,-13.34194 -6.85722,-32.66066 -55.264073,-35.60672 z m 14.662588,31.78023 c -5.231801,9.76941 -21.096518,11.85197 -27.632036,12.29219 a 3.84748,3.84748 0 0 1 -3.860358,-2.45505 l -4.639202,-11.95357 a 2.7239448,2.7239448 0 0 1 1.473031,-3.48786 c 7.906961,-3.40321 12.969448,-5.80748 19.91132,-4.35136 3.775701,0.77883 17.168434,5.46883 14.747245,9.95565 z"
       style="fill:#e3c820;stroke-width:0.169314"
       id="path24" />
    <path
       d="m 223.25737,257.44186 c 2.38733,-15.45837 5.72281,-33.15167 -17.13457,-33.15167 -15.45836,0 -23.77168,6.21381 -26.31139,17.16843 -1.06668,4.60533 1.04974,14.27317 0.16932,18.31976 -1.28679,5.89213 -4.08047,18.09966 1.64233,25.97276 6.53552,9.00749 35.01413,13.83294 41.68509,-8.63501 1.9302,-6.50164 -1.3037,-11.47948 -0.0508,-19.67427 z"
       style="fill:#e3c820;stroke-width:0.169314"
       id="path25" />
    <path
       d="m 287.76598,240.83216 a 5.6800833,5.6800833 0 0 1 1.7778,-4.21592 c 15.83085,-14.96735 46.79838,-32.38976 83.57336,-32.38976 11.54721,0 25.58336,7.97469 25.58336,11.93664 0,7.80537 -11.5303,6.84028 -25.00766,9.87101 -19.62347,4.38523 -43.51369,10.76836 -43.51369,23.12828 0,6.36621 0.82964,15.44143 18.64149,15.44143 21.9092,0 30.64582,-12.95252 53.96034,-13.78216 7.24665,-0.25397 15.89856,2.43812 15.89856,9.48158 0,6.60325 -23.63624,23.58544 -51.31907,23.58544 h -29.73153 c -14.73031,0 -49.65977,-11.51335 -49.65977,-30.86594 z"
       style="fill:#e3c820;stroke-width:0.169314"
       id="path26" />
    <path
       d="m 205.68259,147.38779 c -23.46691,-0.79577 -27.6151,16.52504 -27.6151,21.40128 0,12.30913 15.98323,13.22342 16.66049,18.13353 0.37248,2.70902 0.67725,8.70273 8.51649,10.09111 a 0.70352315,0.70352315 0 0 1 0.11852,1.35451 c -3.16617,1.11747 -7.34823,3.06458 -7.34823,5.53656 0,3.97888 4.87625,5.5027 12.68162,5.5027 0,0 7.11118,0.44022 7.11118,-1.93018 0,-1.37144 -2.97992,-2.42119 -5.5027,-3.06458 a 0.70364167,0.70364167 0 0 1 0.0169,-1.37144 c 2.99685,-0.69419 6.84029,-1.96405 6.84029,-3.96195 0,-1.93018 -3.25083,-3.13231 -5.92599,-3.80956 a 0.70380591,0.70380591 0 0 1 0.0339,-1.37145 l 2.53971,-0.50794 a 2.6109294,2.6109294 0 0 0 2.0487,-2.26881 c 1.40531,-10.92074 15.06894,-8.87205 15.06894,-24.00871 0,-4.8593 -5.53656,-19.06475 -25.2447,-19.72507 z m 11.56413,26.7516 c -2.89527,2.15028 -5.62122,5.06249 -7.72071,10.31122 a 1.5464476,1.5464476 0 0 1 -1.26986,0.94816 c -0.98203,0.0847 -2.25188,-0.0169 -3.11538,-0.10159 a 1.4746263,1.4746263 0 0 1 -1.21906,-0.91429 c -1.38836,-3.99581 -6.73869,-8.36411 -10.53131,-10.36201 -5.19794,-2.72595 -6.06145,-5.58736 -6.06145,-7.12811 0,-2.86141 0.28783,-10.58213 16.8298,-10.29429 0.40636,0 0.81272,0 1.21906,0.0169 13.57897,0.45715 14.62872,9.12602 14.62872,10.32815 -0.0169,1.93017 0.64341,4.65612 -2.7598,7.19583 z"
       style="fill:#e3c820;stroke-width:0.169314"
       id="path27" />
    <ellipse
       cx="205.97043"
       cy="213.58954"
       rx="3.3693509"
       ry="3.0815053"
       style="fill:#e3c820;stroke-width:0.169314"
       id="ellipse27" />
  </g>
</svg>
