<?xml version="1.0" encoding="UTF-8" standalone="no"?>
<!-- Generator: Adobe Illustrator 25.0.0, SVG Export Plug-In . SVG Version: 6.00 Build 0)  -->

<svg
   version="1.1"
   id="Layer_1"
   x="0px"
   y="0px"
   viewBox="0 0 707.68628 111"
   xml:space="preserve"
   sodipodi:docname="pokemini-wht.svg"
   width="707.68628"
   height="111"
   inkscape:version="1.3 (0e150ed, 2023-07-21)"
   xmlns:inkscape="http://www.inkscape.org/namespaces/inkscape"
   xmlns:sodipodi="http://sodipodi.sourceforge.net/DTD/sodipodi-0.dtd"
   xmlns="http://www.w3.org/2000/svg"
   xmlns:svg="http://www.w3.org/2000/svg"><defs
   id="defs29">&#10;	&#10;	&#10;&#10;		&#10;		&#10;		&#10;		&#10;		&#10;		&#10;		&#10;		&#10;		&#10;		&#10;		&#10;		&#10;		&#10;	&#10;		&#10;		&#10;		&#10;		&#10;		&#10;		&#10;		&#10;		&#10;		&#10;		&#10;		&#10;		&#10;		&#10;		&#10;		&#10;	</defs><sodipodi:namedview
   id="namedview29"
   pagecolor="#ffffff"
   bordercolor="#000000"
   borderopacity="0.25"
   inkscape:showpageshadow="2"
   inkscape:pageopacity="0.0"
   inkscape:pagecheckerboard="0"
   inkscape:deskcolor="#d1d1d1"
   inkscape:zoom="1.2742653"
   inkscape:cx="422.59644"
   inkscape:cy="-16.087701"
   inkscape:window-width="2360"
   inkscape:window-height="1212"
   inkscape:window-x="0"
   inkscape:window-y="25"
   inkscape:window-maximized="0"
   inkscape:current-layer="Layer_1" />&#10;<style
   type="text/css"
   id="style1">&#10;	.st0{fill:#FFE900;}&#10;	.st1{fill:#FFFFFF;}&#10;</style>&#10;<path
   id="path1"
   d="m 222.86604,0 c -2.28524,0 -4.55227,0.55281016 -6.57949,1.676997 L 188.99278,16.64183 c -5.1029,2.786245 -7.77223,8.417379 -6.95167,13.969216 H 165.5321 v -9.122518 c 0,-7.556011 -6.11841,-13.67442 -13.67442,-13.67442 h -16.12566 c -7.55601,0 -13.67442,6.118409 -13.67442,13.67442 v 13.692415 c -6.22442,-3.704791 -13.74117,-5.767803 -22.152273,-5.767803 -8.271083,0 -15.681718,1.989424 -21.844874,5.578471 C 73.729361,23.811624 62.602846,12.992678 35.771258,12.992678 H 13.674419 C 6.1184088,12.992678 0,19.111446 0,26.667457 v 69.459858 c 0,7.556005 6.1184088,13.674775 13.674419,13.674775 h 18.50312 c 7.55601,0 13.674778,-6.11877 13.674778,-13.674775 V 85.180581 C 51.240193,84.607799 56.12103,83.313463 60.410408,81.380971 64.780613,99.267017 79.79736,111 99.905327,111 c 9.480403,0 17.827643,-2.61992 24.467453,-7.25691 2.45394,3.65447 6.62349,6.059 11.35924,6.059 h 16.12566 c 2.37738,0 4.58891,-0.58974 6.54241,-1.65864 1.97194,1.0689 4.22032,1.65864 6.54242,1.65864 v -0.0184 h 19.49837 c 3.90002,0 7.53403,-1.6703 10.09294,-4.4792 6.17486,3.64954 13.55892,5.69546 21.71601,5.69546 8.10786,0 15.54253,-1.43127 22.11233,-4.23803 2.34787,1.89863 5.334,3.04012 8.59087,3.04012 h 16.12566 c 2.8934,0 5.58423,-0.90325 7.79575,-2.43288 2.21152,1.52963 4.90198,2.43288 7.79539,2.43288 h 16.12566 c 2.89341,0 5.58424,-0.90325 7.79576,-2.43288 2.21152,1.52963 4.90198,2.43288 7.79538,2.43288 h 16.08896 c 4.74164,0 8.91517,-2.4109 11.36787,-6.07304 6.64226,4.64584 14.99819,7.27095 24.49553,7.27095 9.48497,0 17.83154,-2.61846 24.46962,-7.25295 2.45427,3.65237 6.62293,6.05504 11.35707,6.05504 h 16.12566 c 3.31728,0 6.37663,-1.17941 8.73558,-3.15134 2.37738,1.97193 5.4183,3.15134 8.73558,3.15134 h 16.10694 c 7.55602,0 13.67478,-6.11877 13.67478,-13.674775 V 63.783841 c 0,-20.235364 -12.95593,-34.370701 -31.4958,-34.370701 -4.33089,0 -8.42228,0.737392 -12.145,2.156447 -1.56649,-0.608168 -3.26207,-0.958541 -5.04971,-0.958541 h -14.68803 c -4.73894,0 -8.91064,2.407962 -11.36391,6.066562 -6.63701,-4.641894 -14.98104,-7.264468 -24.46278,-7.264468 -11.63138,0 -21.55312,3.941914 -28.7044,10.727525 -6.04075,-8.424154 -15.3201,-10.727525 -23.6349,-10.727525 -5.80524,0 -11.18653,1.382419 -15.86758,3.99938 -4.40461,-2.598532 -9.60168,-3.99938 -15.29634,-3.99938 -4.3309,0 -8.42228,0.737392 -12.14501,2.156447 -1.56649,-0.608168 -3.26206,-0.958541 -5.04971,-0.958541 h -14.68802 c -2.18535,0 -4.24286,0.525114 -6.07448,1.435472 0.0964,-0.214086 0.20228,-0.422975 0.28759,-0.642867 1.30848,-3.37256 1.25327,-7.150731 -0.20265,-10.468003 L 235.39798,8.2010519 C 233.86835,4.6810568 230.91966,1.9719358 227.28908,0.73717322 225.85159,0.2395823 224.35881,0 222.86604,0 Z m -0.0187,13.656062 5.56588,12.734955 c 0,0 -28.1048,12.237075 -28.91569,12.439798 l -3.94395,-10.209921 z m -87.11529,7.832466 h 16.12566 v 44.580621 h 0.18429 l 13.43506,-21.801682 h 17.63672 L 166.9143,68.059661 184.45924,96.127315 H 164.94251 L 152.04197,70.455474 h -0.18429 V 96.127315 H 135.73202 Z M 13.674419,26.667457 h 22.096839 c 21.193686,0 31.145568,7.168895 31.145568,22.796938 0,14.024691 -10.246669,22.391636 -27.570206,22.391636 h -7.169081 v 24.290001 h -18.50312 z m 18.50312,13.139897 v 18.908421 h 4.773268 c 6.376537,0 11.444542,-2.285036 11.444542,-9.546178 0,-7.058418 -5.068005,-9.362243 -11.444542,-9.362243 z m 67.727788,3.280564 c 15.406893,0 27.128193,9.951944 27.128193,27.164905 0,17.120815 -11.7213,27.072399 -27.128193,27.072399 -15.40689,0 -27.12783,-9.951584 -27.12783,-27.072399 0,-17.212961 11.72094,-27.164905 27.12783,-27.164905 z m 114.225133,0 c 17.28668,0 23.55246,13.637591 23.55246,29.06291 v 3.280565 h -32.26968 c 0.90304,7.168995 5.82374,9.951838 13.7115,9.951838 4.38618,0 9.3991,-1.087262 14.24602,-3.980663 v 12.642449 c -5.19707,2.285233 -11.11304,3.280205 -17.10257,3.280205 -15.40688,0 -27.12783,-10.043731 -27.12783,-27.164546 0,-17.120814 10.48626,-27.072758 24.9901,-27.072758 z m 64.74202,0 c 6.61613,0 12.08986,3.188289 14.59625,9.951839 3.75958,-6.966272 9.93348,-9.951839 16.56804,-9.951839 13.43495,0 16.47553,8.459092 16.47553,22.483783 V 96.127315 H 310.38663 V 68.262312 c 0,-5.878946 -1.87979,-10.246636 -6.45026,-10.246636 -5.73152,0 -9.14088,5.068088 -9.14088,16.217811 V 96.127315 H 278.66983 V 68.262312 c 0,-5.878946 -1.87979,-10.246636 -6.45027,-10.246636 -5.73152,0 -9.14087,5.068088 -9.14087,16.217811 v 21.893828 h -16.12566 v -51.84149 h 0.0367 14.68839 v 9.546177 h 0.1843 c 3.22513,-7.463864 9.67521,-10.744084 17.01005,-10.744084 z m 83.46651,0 c 15.40688,0 27.12819,9.951944 27.12819,27.164905 0,17.120815 -11.72131,27.072399 -27.12819,27.072399 -15.40688,0 -27.12783,-9.951584 -27.12783,-27.072399 0,-17.212961 11.72095,-27.164905 27.12783,-27.164905 z m 67.72779,0 c 12.7162,0 17.82138,9.951645 17.82138,20.695923 V 96.127315 H 431.7625 V 71.045069 c 0,-9.749098 -3.04099,-13.029393 -7.42717,-13.029393 -6.63456,0 -10.02563,5.068088 -10.02563,16.217811 v 21.893828 h -16.12566 v -51.84149 h 14.68839 v 9.546177 h 0.1843 c 3.22513,-7.463864 9.67517,-10.744084 17.01005,-10.744084 z M 214.18553,54.421956 c -5.82363,0 -8.588,4.883856 -8.95658,10.854948 h 17.91353 c 0,-5.971092 -2.50669,-10.854948 -8.95695,-10.854948 z M 99.88697,55.619863 c -7.445435,0 -10.486361,6.874227 -10.486361,14.63296 0,7.666587 3.040926,14.522097 10.486361,14.522097 7.44543,0 10.48636,-6.85551 10.48636,-14.522097 0,-7.758733 -3.04093,-14.63296 -10.48636,-14.63296 z m 262.43366,0 c -7.44545,0 -10.48636,6.874227 -10.48636,14.63296 0,7.666587 3.04091,14.522097 10.48636,14.522097 7.44545,0 10.48637,-6.85551 10.48637,-14.522097 0,-7.758733 -3.04092,-14.63296 -10.48637,-14.63296 z"
   style="fill:#ffffff;stroke-width:0.184293" /><path
   id="path2"
   style="fill:#ffffff;stroke-width:0.184293"
   d="M 488.92969 30.371094 C 476.84008 30.371094 467.01758 40.19554 467.01758 52.285156 L 467.01758 88.314453 C 467.01758 100.40407 476.85851 110.22656 488.92969 110.22656 C 495.71168 110.22656 501.77537 107.14769 505.79297 102.30078 C 509.81055 107.12926 515.87426 110.22656 522.65625 110.22656 C 529.43823 110.22656 535.50195 107.14769 539.51953 102.30078 C 543.53713 107.12926 549.59888 110.22656 556.38086 110.22656 C 562.6652 110.22656 568.33042 107.54878 572.33203 103.29297 C 576.33407 107.55632 582.01228 110.22656 588.30078 110.22656 C 594.59776 110.22656 600.27606 107.55695 604.27539 103.29492 C 608.27677 107.55048 613.93878 110.22656 620.2207 110.22656 C 627.0027 110.22656 633.0664 107.14769 637.08398 102.30078 C 641.10158 107.12926 647.16528 110.22656 653.94727 110.22656 C 660.21546 110.22656 665.85716 107.57113 669.85352 103.3457 C 673.85281 107.57803 679.51112 110.22656 685.77344 110.22656 C 697.86306 110.22656 707.68555 100.40322 707.68555 88.332031 L 707.68555 74.675781 C 707.68555 70.678311 706.60714 66.930565 704.73242 63.699219 C 706.60707 60.470621 707.68555 56.723942 707.68555 52.726562 C 707.68555 40.655375 697.86306 30.814453 685.77344 30.814453 C 679.60821 30.814453 674.03687 33.37156 670.05273 37.478516 C 666.04337 33.12091 660.31494 30.371094 653.94727 30.371094 L 620.2207 30.371094 C 613.82102 30.371094 608.0749 33.141192 604.06641 37.525391 C 600.07935 33.391668 594.48887 30.814453 588.30078 30.814453 C 582.11097 30.814453 576.52046 33.393536 572.5332 37.529297 C 568.52186 33.142958 562.77257 30.371094 556.38086 30.371094 L 488.92969 30.371094 z M 488.92969 44.027344 L 509.71875 44.027344 L 515.68945 44.027344 L 556.38086 44.027344 C 560.9329 44.027344 564.61893 47.733122 564.58203 52.285156 L 564.58203 57.941406 L 564.58203 60.521484 L 564.58203 88.332031 C 564.58203 92.884068 560.89774 96.570312 556.3457 96.570312 C 551.79366 96.570313 548.10742 92.884068 548.10742 88.332031 L 548.10742 60.521484 L 530.875 60.521484 L 530.875 88.332031 C 530.875 92.884068 527.18876 96.570312 522.63672 96.570312 C 518.08468 96.570313 514.39844 92.884068 514.39844 88.332031 L 514.39844 60.521484 L 509.69922 60.521484 L 497.16797 60.521484 L 497.16797 88.314453 C 497.16797 92.86649 493.48173 96.550781 488.92969 96.550781 C 484.37765 96.550781 480.69141 92.86649 480.69141 88.314453 L 480.69141 60.503906 L 480.69141 57.222656 L 480.69141 52.265625 C 480.69141 47.713589 484.37765 44.027344 488.92969 44.027344 z M 620.2207 44.027344 L 653.94727 44.027344 C 658.4993 44.027344 662.18442 47.733122 662.16602 52.285156 L 662.16602 57.941406 L 662.16602 60.521484 L 662.16602 88.332031 C 662.16602 92.884068 658.47978 96.570312 653.92773 96.570312 C 649.3757 96.570313 645.68945 92.884068 645.68945 88.332031 L 645.68945 60.521484 L 628.45898 60.521484 L 628.45898 88.314453 C 628.45898 92.86649 624.77275 96.550781 620.2207 96.550781 C 615.66867 96.550781 611.98242 92.86649 611.98242 88.314453 L 611.98242 60.503906 L 611.98242 57.222656 L 611.98242 52.265625 C 611.98242 47.713589 615.66867 44.027344 620.2207 44.027344 z M 588.30078 44.488281 C 592.85283 44.488281 596.53906 48.174527 596.53906 52.726562 C 596.53906 57.278598 592.85283 60.964844 588.30078 60.964844 C 583.74875 60.964844 580.0625 57.278598 580.0625 52.726562 C 580.0625 48.174527 583.74875 44.488281 588.30078 44.488281 z M 685.77344 44.488281 C 690.32548 44.488281 694.01172 48.174527 694.01172 52.726562 C 694.01172 57.278598 690.32548 60.964844 685.77344 60.964844 C 681.2214 60.964844 677.53516 57.278598 677.53516 52.726562 C 677.53516 48.174527 681.2214 44.488281 685.77344 44.488281 z M 588.30078 66.4375 C 592.85283 66.4375 596.53906 70.123747 596.53906 74.675781 L 596.53906 88.332031 C 596.53906 92.884068 592.85283 96.570312 588.30078 96.570312 C 583.74875 96.570313 580.0625 92.884068 580.0625 88.332031 L 580.0625 74.675781 C 580.0625 70.123747 583.74875 66.4375 588.30078 66.4375 z M 685.77344 66.4375 C 690.32548 66.4375 694.01172 70.123747 694.01172 74.675781 L 694.01172 88.332031 C 694.01172 92.884068 690.32548 96.570312 685.77344 96.570312 C 681.2214 96.570313 677.53516 92.884068 677.53516 88.332031 L 677.53516 74.675781 C 677.53516 70.123747 681.2214 66.4375 685.77344 66.4375 z " />&#10;</svg>
