<?xml version="1.0" encoding="UTF-8" standalone="no"?>
<svg
   version="1.2"
   width="354.746"
   height="129.104"
   viewBox="48.598 9.613 354.746 129.104"
   xml:space="preserve"
   id="svg25"
   sodipodi:docname="ports.svg"
   inkscape:version="1.3 (0e150ed, 2023-07-21)"
   xmlns:inkscape="http://www.inkscape.org/namespaces/inkscape"
   xmlns:sodipodi="http://sodipodi.sourceforge.net/DTD/sodipodi-0.dtd"
   xmlns="http://www.w3.org/2000/svg"
   xmlns:svg="http://www.w3.org/2000/svg"><defs
   id="defs25" /><sodipodi:namedview
   id="namedview25"
   pagecolor="#ffffff"
   bordercolor="#000000"
   borderopacity="0.25"
   inkscape:showpageshadow="2"
   inkscape:pageopacity="0.0"
   inkscape:pagecheckerboard="0"
   inkscape:deskcolor="#d1d1d1"
   showgrid="false"
   inkscape:zoom="4.8767287"
   inkscape:cx="147.74248"
   inkscape:cy="55.467511"
   inkscape:window-width="2392"
   inkscape:window-height="1212"
   inkscape:window-x="0"
   inkscape:window-y="25"
   inkscape:window-maximized="0"
   inkscape:current-layer="svg25" />&#10;    <linearGradient
   id="a"
   gradientUnits="userSpaceOnUse"
   x1="200.236"
   y1="91.424"
   x2="200.236"
   y2="23.424"
   gradientTransform="matrix(0.93519,0,0,0.8839,-115.692,8.006)">&#10;        <stop
   offset="0"
   style="stop-color:#9b9b9b"
   id="stop1" />&#10;        <stop
   offset="1"
   style="stop-color:#5b5c60"
   id="stop2" />&#10;    </linearGradient>&#10;    <path
   d="m 53.034,120.829 1.012,-2.271 V 30.92 l -2.53,-2.99 h 31.498 l 8.602,4.903 v 40.77 L 68.214,85.917 v 20.804 h 3.163 z M 67.96,70.972 78.08,65.233 V 42.04 H 67.96 Z"
   style="fill:url(#a);stroke-width:0.909182"
   id="path2" />&#10;    <linearGradient
   id="b"
   gradientUnits="userSpaceOnUse"
   x1="246.428"
   y1="91.424"
   x2="246.428"
   y2="23.424"
   gradientTransform="matrix(0.93519,0,0,0.8839,-115.692,8.006)">&#10;        <stop
   offset="0"
   style="stop-color:#9b9b9b"
   id="stop3" />&#10;        <stop
   offset="1"
   style="stop-color:#5b5c60"
   id="stop4" />&#10;    </linearGradient>&#10;    <path
   d="m 128.173,27.93 5.566,6.099 v 69.584 l -20.62,16.499 -17.33,-15.185 v -70.42 l 5.314,-6.576 z m -18.09,12.914 v 53.8 l 8.476,7.055 V 40.843 h -8.476 z"
   style="fill:url(#b);stroke-width:0.909182"
   id="path4" />&#10;    <linearGradient
   id="c"
   gradientUnits="userSpaceOnUse"
   x1="290.793"
   y1="91.424"
   x2="290.793"
   y2="23.424"
   gradientTransform="matrix(0.93519,0,0,0.8839,-115.692,8.006)">&#10;        <stop
   offset="0"
   style="stop-color:#9b9b9b"
   id="stop5" />&#10;        <stop
   offset="1"
   style="stop-color:#5b5c60"
   id="stop6" />&#10;    </linearGradient>&#10;    <path
   d="M 138.291,118.797 V 30.92 l -2.53,-2.99 h 31.498 l 8.602,4.903 V 58.06 l -13.283,7.174 13.283,6.696 v 23.075 l 0.885,0.717 -14.674,10.163 V 77.548 l -9.613,-4.782 v 35.988 l 1.898,2.63 -17.457,12.195 z m 13.914,-60.976 10.12,-5.74 V 42.04 h -10.12 z"
   style="fill:url(#c);stroke-width:0.909182"
   id="path6" />&#10;    <linearGradient
   id="d"
   gradientUnits="userSpaceOnUse"
   x1="336.714"
   y1="91.424"
   x2="336.714"
   y2="23.424"
   gradientTransform="matrix(0.93519,0,0,0.8839,-115.692,8.006)">&#10;        <stop
   offset="0"
   style="stop-color:#9b9b9b"
   id="stop7" />&#10;        <stop
   offset="1"
   style="stop-color:#5b5c60"
   id="stop8" />&#10;    </linearGradient>&#10;    <path
   d="m 191.672,42.039 h -11.258 v -11.12 l -2.53,-2.99 h 42.63 l -2.53,2.99 v 11.12 h -12.271 v 68.268 l 2.024,2.87 -17.584,11.955 1.518,-6.457 V 42.04 Z"
   style="fill:url(#d);stroke-width:0.909182"
   id="path8" />&#10;    <linearGradient
   id="e"
   gradientUnits="userSpaceOnUse"
   x1="380.404"
   y1="91.424"
   x2="380.404"
   y2="23.424"
   gradientTransform="matrix(0.93519,0,0,0.8839,-115.692,8.006)">&#10;        <stop
   offset="0"
   style="stop-color:#9b9b9b"
   id="stop9" />&#10;        <stop
   offset="1"
   style="stop-color:#5b5c60"
   id="stop10" />&#10;    </linearGradient>&#10;    <path
   d="m 251.504,27.93 8.602,4.903 v 12.076 h -15.18 v -2.87 h -8.475 v 17.815 l 23.655,12.076 v 19.727 l -38.582,29.173 1.012,-2.271 V 79.34 h 13.915 v 8.489 l 8.475,-5.858 V 77.068 L 222.536,65.113 V 30.92 l -2.529,-2.99 z"
   style="fill:url(#e);stroke-width:0.909182"
   id="path10" />&#10;    <linearGradient
   id="f"
   gradientUnits="userSpaceOnUse"
   x1="201.03"
   y1="132.371"
   x2="201.03"
   y2="61.622"
   gradientTransform="matrix(0.93519,0,0,0.8839,-115.692,8.006)">&#10;        <stop
   offset="0"
   style="stop-color:#f9da55"
   id="stop11" />&#10;        <stop
   offset="1"
   style="stop-color:#e04305"
   id="stop12" />&#10;    </linearGradient>&#10;    <path
   d="m 91.599,65.64 v 7.916 L 68.198,85.87 v 20.804 h 3.163 l -18.342,14.108 1.012,-2.271 v -32.54"
   style="fill:url(#f);stroke-width:0.909182"
   id="path12" />&#10;    <linearGradient
   id="g"
   gradientUnits="userSpaceOnUse"
   x1="246.411"
   y1="132.371"
   x2="246.411"
   y2="61.622"
   gradientTransform="matrix(0.93519,0,0,0.8839,-115.692,8.006)">&#10;        <stop
   offset="0"
   style="stop-color:#f9da55"
   id="stop13" />&#10;        <stop
   offset="1"
   style="stop-color:#e04305"
   id="stop14" />&#10;    </linearGradient>&#10;    <path
   d="m 133.722,85.086 v 18.48 L 113.103,120.064 95.773,104.88 V 65.272 l 14.293,7.366 v 21.96 l 8.476,7.054 V 77.206 Z"
   style="fill:url(#g);stroke-width:0.909182"
   id="path14" />&#10;    <linearGradient
   id="h"
   gradientUnits="userSpaceOnUse"
   x1="291.385"
   y1="132.371"
   x2="291.385"
   y2="61.622"
   gradientTransform="matrix(0.93519,0,0,0.8839,-115.692,8.006)">&#10;        <stop
   offset="0"
   style="stop-color:#f9da55"
   id="stop15" />&#10;        <stop
   offset="1"
   style="stop-color:#e04305"
   id="stop16" />&#10;    </linearGradient>&#10;    <path
   d="m 152.443,79.193 v 29.514 l 1.897,2.63 -17.456,12.195 1.39,-4.782 V 85.528 m 33.915,-15.488 3.656,1.843 v 23.074 l 0.885,0.718 -14.674,10.162 V 77.502 l -2.846,-1.416"
   style="fill:url(#h);stroke-width:0.909182"
   id="path16" />&#10;    <linearGradient
   id="i"
   gradientUnits="userSpaceOnUse"
   x1="336.427"
   y1="132.371"
   x2="336.427"
   y2="61.622"
   gradientTransform="matrix(0.93519,0,0,0.8839,-115.692,8.006)">&#10;        <stop
   offset="0"
   style="stop-color:#f9da55"
   id="stop17" />&#10;        <stop
   offset="1"
   style="stop-color:#e04305"
   id="stop18" />&#10;    </linearGradient>&#10;    <path
   d="m 205.698,76.984 v 33.276 l 2.024,2.87 -17.584,11.955 1.518,-6.456 V 68.66"
   style="fill:url(#i);stroke-width:0.909182"
   id="path18" />&#10;    <linearGradient
   id="j"
   gradientUnits="userSpaceOnUse"
   x1="381.199"
   y1="132.371"
   x2="381.199"
   y2="61.622"
   gradientTransform="matrix(0.93519,0,0,0.8839,-115.692,8.006)">&#10;        <stop
   offset="0"
   style="stop-color:#f9da55"
   id="stop19" />&#10;        <stop
   offset="1"
   style="stop-color:#e04305"
   id="stop20" />&#10;    </linearGradient>&#10;    <path
   d="m 251.567,67.531 8.523,4.352 V 91.61 l -38.582,29.172 1.012,-2.271 V 79.295 h 13.915 v 8.49 l 8.475,-5.86 v -4.902 l -7.2,-3.845"
   style="fill:url(#j);stroke-width:0.909182"
   id="path20" />&#10;    <path
   style="fill:#542209;stroke-width:0.909183"
   d="M 54.477043,84.955682 90.248995,65.399395 91.185121,66.93031 55.415038,86.486597 Z m 41.873132,-18.345344 0.892171,-1.553896 13.269414,6.805146 -0.88937,1.553012 z m 22.649365,11.585277 0.95015,-1.52296 13.67716,7.625406 -0.95109,1.522076 z m 19.34254,6.626598 13.44242,-6.408275 0.84447,1.578646 -13.44335,6.407391 z m 21.02587,-9.937687 11.96971,-6.021094 0.87254,1.565387 -11.97065,6.021094 z m 32.65216,-5.329917 1.03058,-1.475229 12.81862,8.162777 -1.03151,1.476113 z m 45.71864,2.545632 12.96145,-5.500496 0.77807,1.608698 -12.96332,5.50138 z"
   id="path21"
   sodipodi:nodetypes="ccccccccccccccccccccccccccccccccccc" />&#10;    <path
   d="M 52.641,117.849 V 30.941 l -4.043,-4.778 h 34.805 l 9.614,5.478 v 42.3 L 69.615,86.254 v 18.698 h 5.704 l -21.4,16.462 -4.364,3.355 z m 1.684,3.051 -1.293,-0.514 z m 1.123,-90.888 v 86.806 l 11.98,-9.214 H 66.81 V 84.696 L 90.21,72.38 V 33.138 L 82.623,28.815 54.432,28.813 Z m 11.108,10.259 h 12.926 v 25.27 l -10.802,6.125 -0.721,-1.137 0.72,1.137 -2.123,1.208 z m 2.805,27.916 7.314,-4.146 V 42.923 l -7.314,-0.002 z m 25.024,36.875 V 33.616 l 6.02,-7.453 h 27.766 v 1.326 -1.326 h 0.64 l 6.33,6.929 v 70.692 L 113.075,121.44 Z M 97.19,34.513 v 69.393 l 15.97,13.992 19.174,-15.34 v -68.48 l -4.807,-5.264 h -25.732 z m 11.49,60.288 V 39.076 h 11.28 v 65.119 z m 2.805,-1.197 5.67,4.719 V 41.728 h -5.67 z m -1.403,-51.876 v -1.326 z"
   style="stroke-width:0.909182"
   id="path22" />&#10;    <path
   d="m 136.887,118.172 -0.002,-87.23 -4.044,-4.78 h 34.806 l 9.616,5.48 v 26.745 l -11.785,6.364 11.785,5.94 -0.002,23.26 1.74,1.409 -18.333,12.693 V 77.906 l -6.807,-3.387 v 33.383 l 2.415,3.346 -21.807,15.232 z m 2.805,0.361 -0.367,1.259 13.111,-9.158 -1.381,-1.917 v -38.59 l 12.42,6.177 -0.003,26.52 11.017,-7.628 -0.034,-0.026 V 72.282 l -14.78,-7.45 14.78,-7.984 v -23.71 l -7.59,-4.324 h -28.187 l 1.015,1.198 v 88.521 z m 11.11,-78.262 h 12.925 v 12.117 l -10.8,6.128 -0.723,-1.138 0.722,1.138 -2.125,1.204 z m 2.804,14.765 7.314,-4.148 v -7.966 h -7.314 z"
   style="stroke-width:0.909182"
   id="path23" />&#10;    <path
   d="M 190.268,118.09 V 42.921 h -11.26 v -11.98 l -4.042,-4.779 h 48.465 l -4.046,4.78 v 11.979 h -12.271 v 66.541 l 2.54,3.6 -21.671,14.737 z m 2.806,-77.82 v 78.108 l -0.755,3.206 13.498,-9.178 -1.507,-2.14 V 40.271 h 12.27 V 30.012 l 1.014,-1.197 H 180.8 l 1.016,1.197 v 10.259 h 9.855 v 1.326 -1.326 z"
   style="stroke-width:0.909182"
   id="path24" />&#10;    <path
   d="M 221.132,117.848 V 77.572 h 16.72 v 7.201 l 5.67,-3.917 V 77.398 L 221.133,65.445 V 30.942 l -4.044,-4.78 h 34.415 v 1.326 -1.326 h 0.39 l 9.617,5.479 v 14.15 h -17.986 v -2.868 h -5.67 V 58.62 l 23.657,12.077 v 21.156 l -43.427,32.828 z m 2.807,-0.986 34.762,-26.285 v -18.3 L 235.046,60.2 V 40.27 h 11.281 l -0.002,2.868 h 12.376 v -10 l -7.586,-4.323 -28.193,-0.002 1.017,1.2 -0.002,33.885 22.39,11.955 v 6.348 L 235.046,90 v -9.776 h -11.108 z"
   style="stroke-width:0.909182"
   id="path25" />&#10;</svg>
