<?xml version="1.0" encoding="UTF-8" standalone="no"?>
<svg
   id="Layer_1"
   data-name="Layer 1"
   version="1.1"
   viewBox="0 0 315.14056 127"
   sodipodi:docname="pv1000-wht.svg"
   width="315.14056"
   height="127"
   inkscape:version="1.3 (0e150ed, 2023-07-21)"
   xmlns:inkscape="http://www.inkscape.org/namespaces/inkscape"
   xmlns:sodipodi="http://sodipodi.sourceforge.net/DTD/sodipodi-0.dtd"
   xmlns="http://www.w3.org/2000/svg"
   xmlns:svg="http://www.w3.org/2000/svg"
   xmlns:rdf="http://www.w3.org/1999/02/22-rdf-syntax-ns#"
   xmlns:cc="http://creativecommons.org/ns#"
   xmlns:dc="http://purl.org/dc/elements/1.1/">
  <title
     id="title4">syslogo</title>
  <sodipodi:namedview
     id="namedview4"
     pagecolor="#ffffff"
     bordercolor="#000000"
     borderopacity="0.25"
     inkscape:showpageshadow="2"
     inkscape:pageopacity="0.0"
     inkscape:pagecheckerboard="0"
     inkscape:deskcolor="#d1d1d1"
     inkscape:zoom="1"
     inkscape:cx="219"
     inkscape:cy="147.5"
     inkscape:window-width="1392"
     inkscape:window-height="1212"
     inkscape:window-x="0"
     inkscape:window-y="25"
     inkscape:window-maximized="0"
     inkscape:current-layer="Layer_1" />
  <defs
     id="defs1">
    <style
       id="style1">&#10;      .cls-1 {&#10;        fill: #fff;&#10;        stroke-width: 0px;&#10;      }&#10;    </style>
  </defs>
  <path
     id="path1"
     class="cls-1"
     d="M 301.96045,13.508368 C 293.17099,4.505525 282.59244,0 270.21661,0 c -12.37583,0 -22.94617,4.505525 -31.71102,13.516575 -4.22649,4.341389 -7.42714,9.027464 -9.61835,14.06643 v -12.9421 c 0,-4.078773 -1.18178,-7.3943137 -3.54533,-9.9302103 -2.36356,-2.5358966 -5.318,-3.80794833 -8.83871,-3.80794833 -3.52071,0 -6.45053,1.27205173 -8.77305,3.80794833 -2.32252,2.5358966 -3.47968,5.8432313 -3.47968,9.9302103 v 37.463974 c -0.32827,-1.40336 -0.74682,-2.749273 -1.24743,-4.054152 -1.46081,-3.783328 -3.66023,-7.12349 -6.60646,-10.028691 -2.94624,-2.905202 -5.794,-4.891244 -8.54327,-5.966333 -2.75748,-1.075089 -5.62985,-1.86294 -8.64174,-2.355348 -3.01189,-0.492407 -4.85021,-0.902746 -5.51496,-1.222811 -0.67296,-0.328271 -1.00123,-0.976607 -1.00123,-1.969628 0,-0.993021 0.28724,-1.247431 0.87813,-1.797286 0.57447,-0.558061 1.12433,-0.837092 1.64135,-0.837092 1.46081,0 3.2581,0.311858 5.38365,0.935573 2.12556,0.623716 3.7505,0.935574 4.86663,0.935574 3.30733,0 6.16329,-1.214604 8.57609,-3.643813 2.40459,-2.429208 3.61098,-4.915864 3.61098,-7.451761 0,-4.9897249 -1.74804,-8.6499511 -5.25234,-10.9970916 -3.5043,-2.3389338 -8.97822,-3.51250405 -16.41357,-3.51250405 -7.43535,0 -14.96918,2.59334415 -20.02456,7.77182555 -5.04717,5.1866881 -7.57486,11.1694341 -7.57486,17.9646531 0,6.795218 2.0517,13.22113 6.15509,18.120581 4.10339,4.907658 9.57732,7.845687 16.41357,8.838708 6.54081,0.984814 9.80711,2.921615 9.80711,5.802197 0,4.300355 -1.85473,6.450533 -5.54779,6.450533 -3.69305,0 -3.97208,-1.255638 -6.25357,-3.775121 -2.28148,-2.519483 -4.21008,-4.095186 -5.77757,-4.743522 -1.5675,-0.648336 -3.2581,-0.968401 -5.06359,-0.968401 -3.44685,0 -6.38488,1.173571 -8.83871,3.512504 -0.68116,0.648336 -1.26384,1.337706 -1.75625,2.04349 L 123.7337,9.585525 C 122.48627,6.9265267 120.73002,4.8091761 118.47315,3.2416801 116.21628,1.682391 113.8117,0.89453958 111.2758,0.89453958 c -2.5359,0 -4.86662,0.77964462 -7.12349,2.33072702 -2.25687,1.5510823 -4.01312,3.6848465 -5.260549,6.4012924 L 74.550436,61.887367 C 72.326397,60.057254 69.831535,59.1463 67.065848,59.1463 c -2.765686,0 -4.866623,0.746818 -8.141131,2.24866 -4.776349,2.191211 -9.47063,3.29092 -14.074636,3.29092 -4.604007,0 -10.094346,-2.002455 -14.140291,-5.999159 -4.054152,-3.996705 -6.073021,-8.551471 -6.073021,-13.672505 0,-5.121033 2.027076,-9.782487 6.097641,-13.738158 4.062359,-3.95567 8.773054,-5.933505 14.107464,-5.933505 5.33441,0 9.339321,1.075088 14.074637,3.225266 3.233473,1.460808 5.941712,2.191212 8.14113,2.191212 3.487884,0 6.4095,-1.296672 8.78126,-3.898223 2.371761,-2.601551 3.553538,-5.121034 3.553538,-7.574863 0,-6.581842 -3.537124,-11.4156381 -10.635993,-14.5095961 C 61.657577,1.682391 53.705202,0.13130856 44.891115,0.13130856 36.077027,0.13130856 22.363489,4.546559 13.418094,13.385267 4.4726979,22.223974 0,32.769693 0,45.022423 c 0,12.25273 4.431664,22.741002 13.286785,31.60433 8.855121,8.855121 19.392633,13.286785 31.60433,13.286785 12.211696,0 16.38895,-1.567496 23.635541,-4.710695 0.960194,-0.410339 1.846527,-0.853505 2.683619,-1.329499 0.385719,0.541648 0.820678,1.066882 1.304878,1.58391 2.453829,2.617964 5.424685,3.93105 8.904362,3.93105 4.948692,0 8.73202,-2.55231 11.358191,-7.673344 l 2.798514,-5.547787 v 0 c 0,0 31.24323,0 31.24323,0 l 2.94624,5.547787 c 2.6672,5.112827 6.45053,7.673344 11.35819,7.673344 4.90765,0 6.42591,-1.296672 8.8387,-3.898223 1.10792,-1.198191 1.96143,-2.453829 2.56052,-3.783328 0.56627,0.500614 1.15716,0.993021 1.78908,1.469014 5.8022,4.415251 12.89286,6.614669 21.28019,6.614669 8.38734,0 14.72298,-3.03651 20.6729,-9.101325 4.02132,-4.095185 6.68032,-8.469402 7.9852,-13.139063 v 7.853894 c 0,4.078772 1.14895,7.369693 3.44685,9.864556 2.3061,2.494862 5.23593,3.742294 8.80588,3.742294 3.56995,0 6.58184,-1.247432 8.90436,-3.742294 2.32252,-2.486656 3.47968,-5.777577 3.47968,-9.864556 v 0 -12.958514 c 2.19121,5.022553 5.39186,9.692213 9.61835,14.017189 8.76485,8.970016 19.33519,13.450921 31.71102,13.450921 12.37583,0 23.01182,-4.489112 31.77667,-13.450921 8.76485,-8.961809 13.14727,-19.441874 13.14727,-31.440194 0,-11.99832 -4.39884,-22.494798 -13.1801,-31.505848 z m -196.47864,38.924782 5.76116,-12.572795 5.77758,12.572795 z m 179.10488,6.770598 c -3.93926,3.996704 -8.73202,5.99916 -14.37008,5.99916 -5.63806,0 -10.36517,-2.002456 -14.32084,-6.031987 -3.93926,-4.021325 -5.90889,-8.740226 -5.90889,-14.156705 0,-5.416478 2.0517,-9.995864 6.13868,-14.123877 4.09518,-4.119806 8.78946,-6.187916 14.08284,-6.187916 5.29338,0 10.33234,2.06811 14.31263,6.220743 3.98029,4.144427 5.97454,8.846915 5.97454,14.09105 0,5.244136 -1.96962,10.192828 -5.90888,14.189532 z"
     style="fill:#ffffff" />
  <path
     id="path4"
     class="cls-1"
     d="m 130.98029,106.40097 h -7.87851 c -2.5359,0 -4.5876,2.0517 -4.5876,4.58759 0,2.5359 2.0517,4.5876 4.5876,4.5876 h 7.87851 c 2.5359,0 4.58759,-2.0517 4.58759,-4.5876 0,-2.53589 -2.05169,-4.58759 -4.58759,-4.58759 z m -10.21745,-8.026237 c 0,-1.313085 -0.45958,-2.412794 -1.39515,-3.299127 -0.93557,-0.886333 -2.20763,-1.329499 -3.82436,-1.329499 -1.61674,0 -1.42798,0.270824 -2.15839,0.796058 -0.72219,0.533441 -1.26384,1.189984 -1.62494,1.969628 l -6.91832,15.781647 -6.975767,-15.79806 c -0.812472,-1.830113 -2.347141,-2.749273 -4.604007,-2.749273 -2.256866,0 -2.32252,0.475993 -3.167819,1.436187 -0.582682,0.66475 -0.960194,1.370533 -1.140743,2.133764 -0.172342,-0.213376 -0.361098,-0.418546 -0.558061,-0.615509 -1.920388,-1.961421 -4.398837,-2.946236 -7.451761,-2.946236 h -7.476381 c -1.37874,0 -2.544104,0.418546 -3.496091,1.263845 -0.94378,0.845299 -1.419774,1.83832 -1.419774,2.970857 v 23.873535 c 0,1.54288 0.43496,2.7821 1.304879,3.72588 0.869919,0.94378 1.977835,1.41157 3.323748,1.41157 1.345913,0 2.478449,-0.46779 3.356575,-1.41157 0.878126,-0.94378 1.313086,-2.183 1.313086,-3.72588 v -7.80465 h 4.579386 c 2.207625,0 4.234701,-1.07509 6.073021,-3.22527 1.698804,-1.97783 2.609758,-4.06236 2.749273,-6.26177 l 8.912566,19.18746 c 0.45138,0.99302 1.10792,1.78087 1.95322,2.36355 0.8535,0.58269 1.72342,0.87813 2.60976,0.87813 0.88633,0 1.87935,-0.28724 2.71644,-0.85351 0.8453,-0.56626 1.50184,-1.36232 1.96963,-2.38817 l 11.02992,-23.775057 c 0.21338,-0.443166 0.32006,-0.976607 0.32006,-1.60853 z m -38.670368,6.573637 c -0.262617,0.30365 -0.599096,0.45958 -1.001228,0.45958 h -3.24168 v -2.99548 h 3.24168 c 0.410339,0 0.738611,0.15593 1.001228,0.476 0.25441,0.32006 0.385719,0.66474 0.385719,1.03405 0,0.36931 -0.131309,0.71399 -0.385719,1.02585 z M 228.38662,93.746107 c -4.7271,0 -8.72381,1.674184 -12.00652,5.014345 -1.37874,1.403358 -2.47025,2.905198 -3.27451,4.497318 -0.80427,-1.59212 -1.89577,-3.09396 -3.27451,-4.497318 -3.29092,-3.340161 -7.29583,-5.014345 -11.99832,-5.014345 -4.70249,0 -8.72381,1.674184 -12.00652,5.014345 -1.37874,1.403358 -2.47025,2.905198 -3.27451,4.497318 -0.80427,-1.59212 -1.89577,-3.09396 -3.27451,-4.497318 -3.29092,-3.340161 -7.29583,-5.014345 -11.99832,-5.014345 -4.70249,0 -8.72381,1.674184 -12.00653,5.014345 -0.93557,0.951987 -1.73983,1.953218 -2.41279,2.995478 v -3.676641 c 0,-1.042262 -0.45137,-2.018869 -1.36233,-2.946236 -0.90274,-0.927366 -2.09273,-1.386946 -3.56995,-1.386946 -1.47722,0 -1.58391,0.25441 -2.33072,0.755024 l -6.97577,4.480905 c -1.11613,0.730403 -1.67419,2.059904 -1.67419,3.988494 0,1.9286 0.45958,2.13377 1.38695,2.99548 0.92737,0.86171 1.87115,1.28846 2.84775,1.28846 0.97661,0 1.02585,-0.18054 2.38818,-0.55806 v 15.16614 c 0,1.54288 0.44317,2.7821 1.32129,3.72588 0.88633,0.94378 2.00246,1.41157 3.34016,1.41157 1.33771,0 2.45383,-0.46779 3.32375,-1.41157 0.87813,-0.94378 1.31309,-2.183 1.31309,-3.72588 v 0 -2.86417 c 0.67295,1.04227 1.47722,2.03529 2.421,2.99548 3.29092,3.33196 7.29583,4.99793 11.99832,4.99793 4.70249,0 8.69919,-1.66597 11.99832,-4.99793 1.38694,-1.40336 2.47845,-2.89699 3.27451,-4.48911 0.80426,1.59212 1.89576,3.08575 3.28271,4.48911 3.29092,3.33196 7.29583,4.99793 11.99832,4.99793 4.70249,0 8.69919,-1.66597 11.99832,-4.99793 1.38695,-1.40336 2.47845,-2.89699 3.27451,-4.48911 0.80426,1.59212 1.89576,3.08575 3.2745,4.48911 3.29092,3.33196 7.29584,4.99793 11.99832,4.99793 4.70249,0 8.6992,-1.66597 11.99832,-4.99793 3.29092,-3.33195 4.94049,-7.19735 4.94049,-11.59619 0,-4.39883 -1.64957,-8.29706 -4.94049,-11.637218 -3.29092,-3.340161 -7.29583,-5.014345 -11.99832,-5.014345 z M 172.65435,115.6254 c -1.51826,1.4608 -3.30734,2.19121 -5.37545,2.19121 -2.06811,0 -3.89822,-0.7222 -5.38365,-2.18301 -1.50184,-1.4526 -2.24866,-3.20064 -2.24866,-5.24413 0,-2.04349 0.7222,-3.75871 2.1748,-5.24414 1.44439,-1.48543 3.2663,-2.22404 5.46572,-2.22404 2.19942,0 3.88181,0.7222 5.38365,2.1748 1.50184,1.4526 2.25687,3.21706 2.25687,5.29338 0,2.07631 -0.76324,3.77512 -2.27328,5.23593 z m 30.55386,0 c -1.51826,1.4608 -3.30734,2.19121 -5.37545,2.19121 -2.06811,0 -3.89822,-0.7222 -5.38365,-2.18301 -1.50184,-1.4526 -2.24866,-3.20064 -2.24866,-5.24413 0,-2.04349 0.7222,-3.75871 2.1748,-5.24414 1.44439,-1.48543 3.2663,-2.22404 5.46572,-2.22404 2.19942,0 3.88181,0.7222 5.38365,2.1748 1.50184,1.4526 2.25687,3.21706 2.25687,5.29338 0,2.07631 -0.76323,3.77512 -2.27328,5.23593 z m 30.55386,0 c -1.51826,1.4608 -3.30734,2.19121 -5.37545,2.19121 -2.06811,0 -3.89822,-0.7222 -5.38365,-2.18301 -1.50184,-1.4526 -2.24866,-3.20064 -2.24866,-5.24413 0,-2.04349 0.7222,-3.75871 2.1748,-5.24414 1.4444,-1.48543 3.2663,-2.22404 5.46572,-2.22404 2.19942,0 3.88181,0.7222 5.38365,2.1748 1.50184,1.4526 2.25687,3.21706 2.25687,5.29338 0,2.07631 -0.76323,3.77512 -2.27328,5.23593 z"
     style="fill:#ffffff" />
  <metadata
     id="metadata4">
    <rdf:RDF>
      <cc:Work
         rdf:about="">
        <dc:title>syslogo</dc:title>
      </cc:Work>
    </rdf:RDF>
  </metadata>
</svg>
