<?xml version="1.0" encoding="UTF-8" standalone="no"?>
<!DOCTYPE svg PUBLIC "-//W3C//DTD SVG 1.1//EN" "http://www.w3.org/Graphics/SVG/1.1/DTD/svg11.dtd">
<svg width="100%" height="100%" viewBox="0 0 1612 166" version="1.1" xmlns="http://www.w3.org/2000/svg" xmlns:xlink="http://www.w3.org/1999/xlink" xml:space="preserve" xmlns:serif="http://www.serif.com/" style="fill-rule:evenodd;clip-rule:evenodd;stroke-linejoin:round;stroke-miterlimit:2;">
    <g>
        <path d="M108.22,44.62L108.22,157.75L63.03,157.75L63.03,44.62L0,44.62L0,5.9L171.25,5.9L171.25,44.62L108.22,44.62Z" style="fill:white;fill-rule:nonzero;"/>
        <path d="M306.01,157.75L306.01,102.65L208.59,102.65L208.59,157.75L163.4,157.75L163.4,5.9L208.58,5.9L208.58,60.32L306,60.32L306,5.9L351.18,5.9L351.18,157.75L306.01,157.75Z" style="fill:white;fill-rule:nonzero;"/>
        <path d="M548.64,108.57C548.01,122.68 546.75,140.23 535.29,149.56C529.33,154.56 522.57,156.4 515.13,157.54C494.55,160.73 472.88,160.06 452.1,160.06C441.06,160.06 429.8,160.06 418.8,159.85C403.93,159.64 381.47,159.64 368.91,149.6C357.45,140.74 356.19,122.51 355.56,108.61C354.93,99.75 354.93,90.85 354.93,81.99C354.93,73.13 354.93,64.23 355.56,55.37C356.4,41.47 357.7,23.71 368.91,14.38C374.87,9.59 381.84,7.33 389.07,6.19C409.02,2.79 431.95,3.67 452.1,3.67C463.35,3.67 474.4,3.88 485.61,4.13C500.48,4.34 522.73,4.34 535.29,14.38C546.75,23.49 547.8,41.47 548.64,55.37C549.27,64.23 549.27,73.13 549.27,81.99C549.27,90.81 549.27,99.71 548.64,108.57ZM503.88,55.74C501.53,47.55 496.66,45.49 489.22,44.36C479.23,42.97 469.06,43.23 459.07,43.23L431.9,43.23C397.51,43.23 398.14,50.49 398.14,85.81C398.14,94.46 397.3,109.03 404.52,115.16C412.58,122 442.31,120.62 452.06,120.62C458.86,120.62 465.83,120.41 472.64,120.41C480.49,120.41 493.22,120.41 499.81,115.16C506.82,109.45 506.19,94.21 506.19,85.81C506.19,77.62 506.19,63.72 503.88,55.74Z" style="fill:white;fill-rule:nonzero;"/>
        <path d="M750.51,157.75L751.56,44.16L744.34,44.16L691.09,157.75L655.23,157.75L601.93,44.15L594.29,44.15L595.34,157.74L552.88,157.74L552.88,5.9L630.99,5.9L673.03,104.46L715.27,5.9L792.96,5.9L792.96,157.75L750.51,157.75Z" style="fill:white;fill-rule:nonzero;"/>
        <path d="M960.43,147.96C950.23,159.8 927.97,159.34 914.15,159.55C903.11,160.01 892.06,160.01 881.06,160.01C862.58,160.01 840.33,160.68 822.27,156.36C815.47,154.76 809.55,151.82 804.67,146.58C797.45,139.06 796.61,129.28 796.61,119.03C796.61,115.17 796.82,111.3 797.03,107.44L838.65,107.44C838.65,110.84 838.65,114.03 839.7,117.22C840.33,119.28 841.17,120.62 842.89,122.01C846.92,125.41 859.02,124.95 863.68,124.95C869.85,124.95 875.77,125.16 881.95,125.16C889.59,125.16 897.03,124.95 904.67,124.95C909.96,124.95 923.36,125.62 926.97,120.16C928.44,117.64 928.44,114.24 928.44,111.51C928.44,99.92 919.96,100.34 911.26,100.13C888.54,99.46 865.87,98.07 843.15,97.19C830.85,96.73 815.14,96.27 806.24,85.6C798.81,76.74 798.18,63.97 798.18,52.59C798.18,25.5 804.77,8.41 831.94,5.47C850.21,3.41 869.06,3.66 887.54,3.66C905.35,3.66 924.24,3.2 941.67,7.78C960.99,13.03 965.02,26.68 965.02,46.5L965.02,53.76L923.19,53.76L923.19,51.5C923.19,47.17 922.77,43.98 919.16,41.46C915.13,38.52 905.6,38.73 900.89,38.73L864.19,38.73C859.74,38.73 847.22,38.52 843.4,41.46C840.63,43.52 840,47.17 840,50.57C840,53.3 840.63,56.95 842.77,58.76C844.24,60.15 846.38,60.57 848.27,60.82C853.14,61.74 858.26,61.74 863.14,61.95C872.67,62.41 882.25,62.87 891.78,63.08C908.12,63.54 931.46,63.29 947.38,67.87C952.46,69.47 956.91,71.73 960.94,75.6C969.63,83.79 970.05,99.49 970.05,110.87C970.01,123.6 968.91,138.18 960.43,147.96Z" style="fill:white;fill-rule:nonzero;"/>
        <path d="M1167.38,108.57C1166.75,122.68 1165.49,140.23 1154.03,149.56C1148.07,154.56 1141.31,156.4 1133.87,157.54C1113.29,160.73 1091.62,160.06 1070.84,160.06C1059.8,160.06 1048.54,160.06 1037.54,159.85C1022.67,159.64 1000.21,159.64 987.65,149.6C976.19,140.74 974.93,122.51 974.3,108.61C973.67,99.75 973.67,90.85 973.67,81.99C973.67,73.13 973.67,64.23 974.3,55.37C975.14,41.47 976.44,23.71 987.65,14.38C993.61,9.59 1000.58,7.33 1007.81,6.19C1027.76,2.79 1050.69,3.67 1070.84,3.67C1082.09,3.67 1093.14,3.88 1104.35,4.13C1119.22,4.34 1141.47,4.34 1154.03,14.38C1165.49,23.49 1166.54,41.47 1167.38,55.37C1168.01,64.23 1168.01,73.13 1168.01,81.99C1168.05,90.81 1168.05,99.71 1167.38,108.57ZM1122.61,55.74C1120.26,47.55 1115.39,45.49 1107.95,44.36C1097.96,42.97 1087.79,43.23 1077.8,43.23L1050.67,43.23C1016.28,43.23 1016.91,50.49 1016.91,85.81C1016.91,94.46 1016.07,109.03 1023.29,115.16C1031.35,122 1061.08,120.62 1070.83,120.62C1077.63,120.62 1084.6,120.41 1091.41,120.41C1099.26,120.41 1111.99,120.41 1118.58,115.16C1125.59,109.45 1124.96,94.21 1124.96,85.81C1124.96,77.62 1124.96,63.72 1122.61,55.74Z" style="fill:white;fill-rule:nonzero;"/>
        <path d="M1293.69,158.95L1219.19,45.82L1214.53,45.82L1215.58,158.95L1171.65,158.95L1171.65,7.1L1247.2,7.1L1321.28,120.23L1325.73,120.23L1324.68,7.1L1368.61,7.1L1368.61,158.95L1293.69,158.95Z" style="fill:white;fill-rule:nonzero;"/>
    </g>
    <g>
        <path d="M1560.1,43.59L1588.87,54.05L1588.87,108.01L1596.13,105.36L1605.66,101.87L1605.66,130.09L1528.35,158.23L1528.35,130.01L1556.53,119.76L1560.1,118.46L1560.1,43.59M1554.68,35.9L1554.68,114.72L1522.93,126.27L1522.93,166L1611.03,133.92L1611.03,94.19L1594.27,100.28L1594.27,50.31L1554.68,35.9Z" style="fill:white;fill-rule:nonzero;"/>
        <path d="M1517.56,7.73L1517.56,35.95L1489.38,46.2L1485.81,47.5L1485.81,129.6L1457.04,119.14L1457.04,57.95L1449.78,60.6L1440.25,64.09L1440.25,35.86L1517.56,7.73M1522.93,0L1434.83,32.08L1434.83,71.81L1451.59,65.72L1451.59,122.96L1491.19,137.32L1491.19,51.27L1522.94,39.72L1522.94,0L1522.93,0Z" style="fill:white;fill-rule:nonzero;"/>
        <path d="M1522.93,0L1522.93,39.73L1611.04,71.77L1611.04,32.08L1522.93,0Z" style="fill:white;fill-rule:nonzero;"/>
        <path d="M1434.83,94.19L1434.83,133.92L1522.93,166L1522.93,126.27L1434.83,94.19Z" style="fill:white;fill-rule:nonzero;"/>
    </g>
</svg>
