<?xml version="1.0" encoding="UTF-8" standalone="no"?>
<svg
   height="152.116"
   viewBox="0 0 475.716 258.596"
   width="279.833"
   version="1.1"
   id="svg2"
   sodipodi:docname="tutor.svg"
   inkscape:version="1.3 (0e150ed, 2023-07-21)"
   xmlns:inkscape="http://www.inkscape.org/namespaces/inkscape"
   xmlns:sodipodi="http://sodipodi.sourceforge.net/DTD/sodipodi-0.dtd"
   xmlns="http://www.w3.org/2000/svg"
   xmlns:svg="http://www.w3.org/2000/svg">
  <defs
     id="defs2" />
  <sodipodi:namedview
     id="namedview2"
     pagecolor="#ffffff"
     bordercolor="#000000"
     borderopacity="0.25"
     inkscape:showpageshadow="2"
     inkscape:pageopacity="0.0"
     inkscape:pagecheckerboard="0"
     inkscape:deskcolor="#d1d1d1"
     inkscape:zoom="2.4586092"
     inkscape:cx="139.9165"
     inkscape:cy="75.855894"
     inkscape:window-width="1392"
     inkscape:window-height="1212"
     inkscape:window-x="25"
     inkscape:window-y="77"
     inkscape:window-maximized="0"
     inkscape:current-layer="svg2" />
  <path
     d="m 364.10619,194.78224 q 1.66744,0 2.89151,1.31732 1.22315,1.3164 1.22315,3.11273 0,1.9161 -1.22315,3.2325 -1.22407,1.3164 -2.89151,1.3164 h -3.78099 v -8.97895 z m 23.46392,27.53745 q 1.77988,-1.67659 3.3367,-4.19055 1.66744,-2.51395 2.89151,-5.38809 1.33469,-2.99299 2.00203,-6.34432 0.77704,-3.47292 0.77704,-6.94492 0,-6.7045 -2.33478,-12.57071 -2.33478,-5.86712 -6.44945,-10.17742 -4.00405,-4.42914 -9.45248,-6.94401 -5.44935,-2.51396 -11.67665,-2.51396 h -20.57332 q -2.89151,0 -5.55996,1.19756 -2.55784,1.19756 -4.44834,3.35225 -1.8905,2.03494 -3.00304,4.78932 -1.11162,2.75347 -1.11162,5.86621 v 59.2636 q 0,3.23249 1.11162,5.98687 1.11254,2.75347 3.00304,4.90908 1.8905,2.03493 4.44834,3.23158 2.66936,1.19756 5.55996,1.19756 3.00212,0 5.55996,-1.19756 2.55784,-1.19756 4.44833,-3.2325 2.00203,-2.15469 3.11366,-4.90907 1.11254,-2.75347 1.11254,-5.98596 v -8.6206 l 9.89676,17.12143 q 1.8905,3.47201 5.11568,5.14767 3.22518,1.67659 6.89465,1.67659 2.89151,0 5.44934,-1.19756 2.55784,-1.19756 4.44834,-3.2325 2.00202,-2.03493 3.11365,-4.78932 1.11163,-2.87322 1.11163,-5.98596 0,-4.19054 -2.11173,-7.90206 z M 281.48015,165.6898 q -8.89667,0 -16.79233,3.71152 -7.89566,3.59176 -13.78929,9.93699 -5.78302,6.22548 -9.23034,14.72631 -3.33671,8.49992 -3.33671,18.07856 0,9.57773 3.33671,18.07765 3.44732,8.50083 9.23034,14.84606 5.89363,6.22548 13.78929,9.937 7.89566,3.59267 16.79233,3.59267 8.89667,0 16.79233,-3.59267 7.89565,-3.71152 13.67776,-9.937 5.89454,-6.34523 9.23034,-14.84606 3.44732,-8.49992 3.44732,-18.07765 0,-9.57864 -3.44732,-18.07856 -3.33671,-8.50083 -9.23034,-14.72722 -5.78211,-6.34432 -13.67776,-9.937 -7.89566,-3.71151 -16.79325,-3.71151 z m 0.77795,29.09244 q 3.33671,0 6.22822,1.43707 3.00213,1.3164 5.11476,3.71152 2.22417,2.27445 3.44733,5.50694 1.33468,3.11365 1.33468,6.70541 0,3.59176 -1.33468,6.82426 -1.22316,3.11273 -3.44641,5.50694 -2.11355,2.27444 -5.11568,3.71151 -2.89151,1.3164 -6.22822,1.3164 -3.33579,0 -6.33791,-1.3164 -2.89151,-1.43707 -5.11568,-3.71151 -2.11355,-2.39512 -3.44732,-5.50694 -1.22316,-3.2325 -1.22316,-6.82426 0,-3.59267 1.22316,-6.70541 1.33468,-3.23249 3.44641,-5.50694 2.22508,-2.39512 5.11659,-3.71152 3.00212,-1.43707 6.33791,-1.43707 z m -63.05373,0 h 8.22933 q 2.66937,0 4.89353,-1.07689 2.33479,-1.0778 4.11375,-2.99298 1.77989,-1.91609 2.7809,-4.31029 1.00101,-2.51396 1.00101,-5.3881 0,-2.87323 -1.00101,-5.38719 -1.00101,-2.51395 -2.77998,-4.31029 -1.77988,-1.91518 -4.11467,-2.99298 -2.22416,-1.07781 -4.89353,-1.07781 h -45.03825 q -2.66937,0 -5.00415,1.07781 -2.33478,1.0778 -4.11375,2.99298 -1.66927,1.79542 -2.66936,4.31029 -1.00102,2.51396 -1.00102,5.38719 0,2.87322 1.00102,5.3881 1.00009,2.39511 2.66936,4.31029 1.77897,1.91518 4.11375,2.99298 2.3357,1.07689 5.00415,1.07689 h 8.45147 v 46.93332 q 0,3.23158 1.11254,5.98596 1.11163,2.75347 3.00213,4.90908 1.89049,2.03493 4.44833,3.23158 2.66937,1.19756 5.56088,1.19756 3.00212,0 5.55996,-1.19756 2.55784,-1.19756 4.44833,-3.2325 2.00203,-2.15469 3.11365,-4.90907 1.11163,-2.75347 1.11163,-5.98596 z m -91.5218,33.16414 q -2.8915,0 -5.00414,-2.15469 -2.11356,-2.27536 -2.11356,-5.3881 v -37.95254 q 0,-3.11274 -1.11162,-5.86621 -1.11254,-2.75438 -3.11366,-4.79023 -1.89049,-2.15469 -4.44833,-3.35134 -2.55784,-1.19756 -5.55996,-1.19756 -2.89151,0 -5.56088,1.19756 -2.55784,1.19756 -4.44833,3.35225 -1.8905,2.03494 -3.00213,4.78932 -1.11254,2.75347 -1.11254,5.86621 v 37.95254 q 0,7.90206 2.7809,14.84607 2.77906,6.94401 7.56198,12.21235 4.89262,5.14767 11.34298,8.14066 6.44945,2.99298 13.78929,2.99298 7.33893,0 13.67777,-2.99298 6.45036,-2.99299 11.23236,-8.14066 4.89262,-5.26834 7.6726,-12.21235 2.7809,-6.94401 2.7809,-14.84607 v -37.95254 q 0,-3.11274 -1.11254,-5.86621 -1.11163,-2.75438 -3.11365,-4.79023 -1.8905,-2.15469 -4.44834,-3.35134 -2.55784,-1.19756 -5.44843,-1.19756 -2.89151,0 -5.56088,1.19756 -2.55784,1.19756 -4.55895,3.35225 -1.89049,2.03494 -3.00304,4.78932 -1.11162,2.75347 -1.11162,5.86621 v 37.95254 q 0,3.11274 -2.11356,5.3881 -2.00202,2.15469 -4.89262,2.15469 z M 64.628842,194.78224 h 8.229328 q 2.669367,0 4.89262,-1.07689 2.335696,-1.0778 4.114665,-2.99298 1.779882,-1.91609 2.77998,-4.31029 1.001013,-2.51396 1.001013,-5.3881 0,-2.87323 -1.001013,-5.38719 -1.000098,-2.51395 -2.779066,-4.31029 -1.779883,-1.91518 -4.115579,-2.99298 -2.224167,-1.07781 -4.89262,-1.07781 H 27.81992 q -2.669366,0 -5.004148,1.07781 -2.335696,1.0778 -4.114664,2.99298 -1.668354,1.79542 -2.669367,4.31029 -1.001012,2.51396 -1.001012,5.38719 0,2.87322 1.001012,5.3881 1.001013,2.39511 2.669367,4.31029 1.778968,1.91518 4.11375,2.99298 2.335696,1.07689 5.005062,1.07689 h 8.451471 v 46.93332 q 0,3.23158 1.111627,5.98596 1.112541,2.75347 3.003038,4.90908 1.890496,2.03493 4.448335,3.23158 2.669366,1.19756 5.559961,1.19756 3.003038,0 5.559962,-1.19756 2.557839,-1.19756 4.448335,-3.2325 2.002025,-2.15469 3.113652,-4.90907 1.112541,-2.75347 1.112541,-5.98596 z M 367.16042,91.652366 q 2.54778,-3.705117 2.54778,-8.221101 0,-2.895165 -1.15825,-5.558133 -1.15733,-2.663882 -3.12645,-4.515983 -1.8521,-1.969115 -4.51598,-3.12645 -2.66297,-1.15825 -5.55813,-1.15825 -3.35774,0 -6.48419,1.505633 -3.01035,1.504718 -5.09465,4.515983 l -10.4215,14.821385 -10.3054,-14.821385 q -2.0843,-3.011265 -5.21075,-4.515983 -3.12645,-1.505633 -6.4851,-1.505633 -3.01035,0 -5.67332,1.15825 -2.54778,1.157335 -4.51598,3.12645 -1.85302,1.852101 -3.01126,4.515983 -1.15734,2.662968 -1.15734,5.558133 0,2.0843 0.57867,4.1686 0.69476,2.084301 1.9682,3.936402 l 19.10608,27.327193 v 22.23252 q 0,3.12645 1.15825,5.79033 1.15825,2.66296 3.12645,4.74726 1.9682,1.96821 4.63208,3.12645 2.77907,1.15825 5.78942,1.15825 3.01035,0 5.67423,-1.15825 2.77907,-1.15824 4.74727,-3.12645 2.0843,-2.0843 3.24164,-4.74726 1.15825,-2.66388 1.15825,-5.79033 v -22.23252 z m -96.76546,39.369494 2.43169,13.20057 q 0.46256,2.66388 1.73691,4.86336 1.38954,2.0843 3.35774,3.58993 1.9682,1.50564 4.28378,2.43169 2.43169,0.81086 4.97947,0.81086 3.82122,0 6.60028,-1.38953 2.77907,-1.38953 4.63208,-3.47383 1.85211,-2.0843 2.77907,-4.63209 0.92605,-2.66296 0.92605,-5.09465 0,-0.57958 -0.1161,-1.27434 0,-0.69477 -0.11518,-1.27343 L 291.12186,80.883483 q -1.04215,-5.442034 -4.97946,-8.568484 -3.93732,-3.24255 -9.49545,-3.24255 -4.51598,0 -7.98982,2.0843 -3.35773,1.968201 -5.32593,6.136801 l -13.77924,28.83282 -13.78015,-28.83282 q -3.9364,-8.221101 -13.31575,-8.221101 -5.55813,0 -9.61155,3.24255 -3.9364,3.12645 -4.86336,8.568484 l -10.65279,57.896917 -0.23128,1.38953 v 1.27343 q 0,2.89516 1.15733,5.55813 1.15825,2.54778 3.12645,4.63208 2.0843,1.96821 4.74819,3.12645 2.66296,1.15825 5.78941,1.15825 2.54779,0 4.86337,-0.81086 2.43168,-0.92605 4.39988,-2.43169 1.96912,-1.50563 3.24255,-3.58993 1.38954,-2.19948 1.85302,-4.86336 l 2.43168,-13.20057 7.98982,16.7905 q 3.82122,8.10591 12.85318,8.10591 9.03197,0 12.85319,-8.10591 z M 153.59554,67.566817 q -9.26325,0 -17.48435,3.589932 -8.22201,3.473834 -14.35881,9.610635 -6.02162,6.021616 -9.61064,14.242717 -3.47383,8.221099 -3.47383,17.485269 0,9.26325 3.47383,17.48434 3.58902,8.22202 9.61064,14.35881 6.1368,6.02162 14.35881,9.61064 8.2211,3.47383 17.48435,3.47383 9.26417,0 17.48527,-3.47383 8.2211,-3.58902 14.24272,-9.61064 6.1368,-6.13679 9.61063,-14.35881 3.58993,-8.22109 3.58993,-17.48434 0,-9.26417 -3.58993,-17.485269 -3.47383,-8.221101 -9.61063,-14.242717 -6.02162,-6.136801 -14.24272,-9.610635 -8.2211,-3.589932 -17.48527,-3.589932 z m 0.81087,28.13805 q 3.47383,0 6.48418,1.389534 3.12645,1.273434 5.32685,3.589929 2.31559,2.19949 3.58994,5.32594 1.38953,3.01126 1.38953,6.4851 0,3.47383 -1.38953,6.60028 -1.27435,3.01036 -3.58994,5.32594 -2.2004,2.2004 -5.32685,3.58992 -3.01035,1.27344 -6.48418,1.27344 -3.47383,0 -6.60028,-1.27344 -3.01036,-1.38952 -5.32685,-3.58992 -2.19949,-2.31558 -3.58902,-5.32594 -1.27435,-3.12645 -1.27435,-6.60028 0,-3.47384 1.27435,-6.4851 1.38953,-3.12645 3.58902,-5.32594 2.31649,-2.316495 5.32685,-3.589929 3.12645,-1.389534 6.60028,-1.389534 z m -63.99624,0 h 8.56848 q 2.77907,0 5.09466,-1.04215 2.43168,-1.04215 4.28469,-2.895166 1.85302,-1.852101 2.89517,-4.1686 1.04215,-2.431683 1.04215,-5.21075 0,-2.779066 -1.04215,-5.21075 -1.04215,-2.431683 -2.89517,-4.1686 -1.85301,-1.852102 -4.28469,-2.894252 -2.31559,-1.04215 -5.09466,-1.04215 H 52.081904 q -2.779067,0 -5.21075,1.04215 -2.431683,1.04215 -4.284699,2.895166 -1.736917,1.736917 -2.779067,4.1686 -1.04215,2.431684 -1.04215,5.21075 0,2.779067 1.04215,5.21075 1.04215,2.315585 2.779067,4.168601 1.853016,1.852101 4.284699,2.894251 2.431683,1.04215 5.21075,1.04215 h 8.800683 v 45.391113 q 0,3.12645 1.157335,5.79033 1.158249,2.66296 3.12645,4.74726 1.969115,1.96821 4.632082,3.12645 2.779067,1.15825 5.789418,1.15825 3.12645,0 5.790332,-1.15825 2.662967,-1.15824 4.631168,-3.12645 2.084298,-2.0843 3.242548,-4.74726 1.15825,-2.66388 1.15825,-5.79033 z"
     opacity="0.302"
     id="path1"
     style="fill:#ffffff;stroke-width:0.914167" />
  <g
     fill="#dc1c27"
     id="g2"
     transform="matrix(0.91416668,0,0,0.91416668,-12.442723,41.686758)">
    <path
       d="m 100.407,46.522 h 9.867 q 3.2,0 5.866,-1.2 2.8,-1.2 4.934,-3.333 2.133,-2.133 3.333,-4.8 1.2,-2.8 1.2,-6 0,-3.2 -1.2,-6 -1.2,-2.8 -3.333,-4.8 -2.134,-2.133 -4.934,-3.333 -2.666,-1.2 -5.866,-1.2 h -54 q -3.2,0 -6,1.2 -2.8,1.2 -4.934,3.333 -2,2 -3.2,4.8 -1.2,2.8 -1.2,6 0,3.2 1.2,6 1.2,2.667 3.2,4.8 2.134,2.133 4.934,3.333 2.8,1.2 6,1.2 H 66.407 V 98.79 q 0,3.6 1.333,6.667 1.334,3.066 3.6,5.466 2.267,2.267 5.334,3.6 3.2,1.334 6.666,1.334 3.6,0 6.667,-1.334 3.067,-1.333 5.333,-3.6 2.4,-2.4 3.734,-5.466 1.333,-3.067 1.333,-6.667 z m 72.756,-32.4 q -10.666,0 -20.133,4.134 -9.466,4 -16.533,11.066 -6.933,6.934 -11.067,16.4 -4,9.467 -4,20.134 0,10.666 4,20.133 4.134,9.467 11.067,16.533 7.067,6.934 16.533,11.067 9.467,4 20.133,4 10.667,0 20.134,-4 9.466,-4.133 16.4,-11.067 7.066,-7.066 11.066,-16.533 4.134,-9.467 4.134,-20.133 0,-10.667 -4.134,-20.134 -4,-9.466 -11.066,-16.4 -6.934,-7.066 -16.4,-11.066 -9.467,-4.134 -20.134,-4.134 z m 0.934,32.4 q 4,0 7.466,1.6 3.6,1.467 6.134,4.134 2.666,2.533 4.133,6.133 1.6,3.467 1.6,7.467 0,4 -1.6,7.6 -1.467,3.466 -4.133,6.133 -2.534,2.533 -6.134,4.133 -3.466,1.467 -7.466,1.467 -4,0 -7.6,-1.467 -3.467,-1.6 -6.133,-4.133 -2.534,-2.667 -4.134,-6.133 -1.466,-3.6 -1.466,-7.6 0,-4 1.466,-7.467 1.6,-3.6 4.134,-6.133 2.666,-2.667 6.133,-4.134 3.6,-1.6 7.6,-1.6 z m 133.556,40.667 2.8,15.2 q 0.533,3.067 2,5.6 1.6,2.4 3.867,4.133 2.266,1.734 4.933,2.8 2.8,0.934 5.733,0.934 4.4,0 7.6,-1.6 3.2,-1.6 5.334,-4 2.133,-2.4 3.2,-5.334 1.066,-3.066 1.066,-5.866 0,-0.667 -0.133,-1.467 0,-0.8 -0.133,-1.467 l -12.4,-66.666 q -1.2,-6.267 -5.734,-9.867 -4.533,-3.733 -10.933,-3.733 -5.2,0 -9.2,2.4 -3.867,2.266 -6.133,7.066 l -15.867,33.2 -15.866,-33.2 q -4.534,-9.466 -15.334,-9.466 -6.4,0 -11.066,3.733 -4.534,3.6 -5.6,9.867 l -12.267,66.666 -0.267,1.6 v 1.467 q 0,3.333 1.334,6.4 1.333,2.933 3.6,5.333 2.4,2.267 5.466,3.6 3.067,1.334 6.667,1.334 2.933,0 5.6,-0.934 2.8,-1.066 5.067,-2.8 2.266,-1.733 3.733,-4.133 1.6,-2.533 2.133,-5.6 l 2.8,-15.2 9.2,19.333 q 4.4,9.334 14.8,9.334 10.4,0 14.8,-9.334 z M 419.076,41.856 q 2.934,-4.267 2.934,-9.467 0,-3.333 -1.334,-6.4 -1.333,-3.067 -3.6,-5.2 -2.133,-2.267 -5.2,-3.6 -3.066,-1.333 -6.4,-1.333 -3.866,0 -7.466,1.733 -3.467,1.733 -5.867,5.2 l -12,17.067 -11.867,-17.067 q -2.4,-3.467 -6,-5.2 -3.6,-1.733 -7.466,-1.733 -3.467,0 -6.534,1.333 -2.933,1.333 -5.2,3.6 -2.133,2.133 -3.466,5.2 -1.334,3.067 -1.334,6.4 0,2.4 0.667,4.8 0.8,2.4 2.267,4.533 l 22,31.467 v 25.6 q 0,3.6 1.333,6.667 1.333,3.066 3.6,5.466 2.267,2.267 5.333,3.6 3.2,1.334 6.667,1.334 3.467,0 6.533,-1.334 3.2,-1.333 5.467,-3.6 2.4,-2.4 3.733,-5.466 1.334,-3.067 1.334,-6.667 v -25.6 z M 70.72,160.607 h 9.477 q 3.073,0 5.634,-1.24 2.689,-1.242 4.738,-3.447 2.048,-2.206 3.2,-4.963 1.153,-2.895 1.153,-6.204 0,-3.309 -1.152,-6.204 -1.153,-2.895 -3.201,-4.963 -2.05,-2.205 -4.738,-3.446 -2.561,-1.24 -5.634,-1.24 h -51.86 q -3.074,0 -5.763,1.24 -2.689,1.24 -4.738,3.446 -1.92,2.068 -3.073,4.963 -1.152,2.895 -1.152,6.204 0,3.309 1.152,6.204 1.153,2.757 3.073,4.963 2.05,2.205 4.738,3.446 2.69,1.24 5.762,1.24 h 9.732 v 54.042 q 0,3.722 1.28,6.893 1.281,3.17 3.458,5.652 2.177,2.344 5.122,3.722 3.073,1.379 6.403,1.379 3.457,0 6.402,-1.379 2.945,-1.378 5.122,-3.722 2.305,-2.482 3.585,-5.652 1.28,-3.171 1.28,-6.893 z m 72.605,38.187 q -3.33,0 -5.762,-2.482 -2.433,-2.619 -2.433,-6.203 v -43.702 q 0,-3.584 -1.28,-6.755 -1.281,-3.17 -3.586,-5.514 -2.177,-2.482 -5.122,-3.86 -2.945,-1.379 -6.403,-1.379 -3.329,0 -6.402,1.379 -2.945,1.378 -5.122,3.86 -2.177,2.343 -3.457,5.514 -1.28,3.171 -1.28,6.755 v 43.702 q 0,9.098 3.2,17.094 3.202,7.996 8.708,14.062 5.634,5.928 13.06,9.374 7.428,3.447 15.879,3.447 8.451,0 15.75,-3.447 7.427,-3.446 12.933,-9.374 5.634,-6.066 8.836,-14.062 3.2,-7.996 3.2,-17.094 v -43.702 q 0,-3.584 -1.28,-6.755 -1.28,-3.17 -3.585,-5.514 -2.177,-2.482 -5.122,-3.86 -2.945,-1.379 -6.275,-1.379 -3.329,0 -6.402,1.379 -2.945,1.378 -5.25,3.86 -2.177,2.343 -3.457,5.514 -1.28,3.171 -1.28,6.755 v 43.702 q 0,3.584 -2.434,6.203 -2.305,2.482 -5.634,2.482 z M 248.71,160.607 h 9.476 q 3.073,0 5.634,-1.24 2.689,-1.242 4.738,-3.447 2.048,-2.206 3.2,-4.963 1.153,-2.895 1.153,-6.204 0,-3.309 -1.152,-6.204 -1.153,-2.895 -3.201,-4.963 -2.05,-2.205 -4.738,-3.446 -2.561,-1.24 -5.634,-1.24 h -51.86 q -3.074,0 -5.763,1.24 -2.689,1.24 -4.738,3.446 -1.92,2.068 -3.073,4.963 -1.152,2.895 -1.152,6.204 0,3.309 1.152,6.204 1.153,2.757 3.073,4.963 2.05,2.205 4.738,3.446 2.69,1.24 5.762,1.24 h 9.732 v 54.042 q 0,3.722 1.28,6.893 1.281,3.17 3.458,5.652 2.177,2.344 5.122,3.722 3.073,1.379 6.403,1.379 3.457,0 6.402,-1.379 2.945,-1.378 5.122,-3.722 2.305,-2.482 3.585,-5.652 1.28,-3.171 1.28,-6.893 z m 71.708,-33.5 q -10.244,0 -19.336,4.274 -9.091,4.135 -15.878,11.442 -6.659,7.169 -10.628,16.957 -3.842,9.788 -3.842,20.816 0,11.03 3.842,20.817 3.97,9.788 10.628,17.095 6.787,7.168 15.878,11.442 9.092,4.136 19.336,4.136 10.244,0 19.335,-4.136 9.092,-4.274 15.75,-11.442 6.787,-7.307 10.628,-17.095 3.97,-9.788 3.97,-20.817 0,-11.028 -3.97,-20.816 -3.841,-9.788 -10.628,-16.957 -6.658,-7.307 -15.75,-11.442 -9.091,-4.274 -19.335,-4.274 z m 0.896,33.5 q 3.842,0 7.17,1.654 3.458,1.517 5.891,4.274 2.561,2.62 3.97,6.341 1.536,3.585 1.536,7.72 0,4.136 -1.536,7.858 -1.409,3.585 -3.97,6.342 -2.433,2.62 -5.89,4.274 -3.33,1.516 -7.17,1.516 -3.842,0 -7.3,-1.516 -3.329,-1.655 -5.89,-4.274 -2.433,-2.757 -3.97,-6.342 -1.408,-3.722 -1.408,-7.858 0,-4.135 1.408,-7.72 1.537,-3.722 3.97,-6.341 2.561,-2.757 5.89,-4.274 3.458,-1.654 7.3,-1.654 z m 94.245,0 q 1.92,0 3.329,1.516 1.409,1.517 1.409,3.585 0,2.205 -1.409,3.722 -1.409,1.516 -3.33,1.516 h -4.353 v -10.34 z m 27.018,31.707 q 2.049,-1.93 3.842,-4.825 1.92,-2.895 3.329,-6.203 1.537,-3.447 2.305,-7.307 0.896,-3.998 0.896,-7.996 0,-7.72 -2.689,-14.475 -2.689,-6.755 -7.427,-11.718 -4.61,-5.1 -10.884,-7.996 -6.274,-2.895 -13.445,-2.895 h -23.69 q -3.329,0 -6.402,1.379 -2.945,1.378 -5.122,3.86 -2.177,2.343 -3.457,5.514 -1.28,3.171 -1.28,6.755 v 68.24 q 0,3.723 1.28,6.894 1.28,3.17 3.457,5.652 2.177,2.344 5.122,3.722 3.073,1.379 6.403,1.379 3.457,0 6.402,-1.379 2.945,-1.378 5.122,-3.722 2.305,-2.482 3.585,-5.652 1.281,-3.171 1.281,-6.893 v -9.926 l 11.396,19.714 q 2.177,3.998 5.89,5.928 3.714,1.93 7.94,1.93 3.33,0 6.274,-1.379 2.945,-1.378 5.122,-3.722 2.305,-2.344 3.586,-5.514 1.28,-3.31 1.28,-6.893 0,-4.826 -2.433,-9.1 z"
       id="path2" />
  </g>
</svg>
