<?xml version="1.0" encoding="UTF-8" standalone="no"?>
<svg
   height="153.659"
   viewBox="0 0 1101.596 445.61"
   width="379.861"
   version="1.1"
   id="svg7"
   sodipodi:docname="vpinball-wht.svg"
   inkscape:version="1.3 (0e150ed, 2023-07-21)"
   xmlns:inkscape="http://www.inkscape.org/namespaces/inkscape"
   xmlns:sodipodi="http://sodipodi.sourceforge.net/DTD/sodipodi-0.dtd"
   xmlns="http://www.w3.org/2000/svg"
   xmlns:svg="http://www.w3.org/2000/svg">
  <defs
     id="defs7" />
  <sodipodi:namedview
     id="namedview7"
     pagecolor="#ffffff"
     bordercolor="#000000"
     borderopacity="0.25"
     inkscape:showpageshadow="2"
     inkscape:pageopacity="0.0"
     inkscape:pagecheckerboard="0"
     inkscape:deskcolor="#d1d1d1"
     inkscape:zoom="1.8111889"
     inkscape:cx="189.9305"
     inkscape:cy="77.021233"
     inkscape:window-width="1392"
     inkscape:window-height="1212"
     inkscape:window-x="0"
     inkscape:window-y="25"
     inkscape:window-maximized="0"
     inkscape:current-layer="svg7" />
  <linearGradient
     id="a"
     gradientUnits="userSpaceOnUse"
     x1="521.15"
     x2="547.153"
     y1="328.122"
     y2="114.908">
    <stop
       offset="0"
       stop-color="#edea22"
       id="stop1" />
    <stop
       offset=".748"
       stop-color="#fff"
       id="stop2" />
    <stop
       offset="1"
       stop-color="#fff"
       id="stop3" />
  </linearGradient>
  <g
     stroke-linecap="round"
     id="g6">
    <path
       id="path3"
       style="fill:#ffffff"
       d="M 330.2429 -0.00036745194 C 302.67993 -0.00036745194 278.85116 13.188618 261.60018 30.4666 C 259.44618 32.624598 257.48032 34.954465 255.51132 37.280462 C 251.00432 36.118463 246.14868 35.796721 240.97168 36.71972 C 227.0637 39.197718 217.28454 48.864799 212.32854 59.732788 C 211.41154 59.896788 210.50347 60.039202 209.58147 60.282202 C 202.38048 59.392203 195.25042 60.418374 188.69243 62.808372 C 184.96543 60.789374 181.12519 59.464858 177.61919 58.854859 C 172.4572 57.95486 166.6605 58.265055 161.0235 59.880054 A 34.478 34.478 0 0 0 142.2868 59.800757 C 137.81181 56.80476 133.12789 55.029643 128.34189 54.255644 C 122.1219 42.658656 110.10589 34.849581 95.7509 34.850581 C 91.074905 34.850581 86.730539 35.832401 82.774543 37.4164 C 80.469546 36.7204 78.036625 36.161049 75.354627 36.006049 A 16.957 16.957 0 0 0 75.326307 36.000385 A 31.213 31.213 0 0 0 73.26459 35.955073 L 73.258926 35.955073 C 69.71393 35.989073 66.339525 36.820213 63.267528 37.824212 A 35.843 35.843 0 0 0 53.808551 35.932416 C 40.704564 35.111417 26.310087 41.433742 17.887095 52.618731 A 16.957 16.957 0 0 0 17.881431 52.618731 A 31.21 31.21 0 0 0 16.465417 54.66912 L 16.465417 54.674784 C 6.1834268 70.878768 2.7860052 88.24183 0.70800725 100.92182 A 16.957 16.957 0 0 0 0.70234319 100.93315 A 31.198 31.198 0 0 0 0.44746058 102.89857 C -0.34453863 110.87257 -1.7004411 130.30319 12.568545 145.74717 L 12.568545 145.75284 L 12.574209 145.7585 L 12.732802 145.92842 A 16.957 16.957 0 0 0 12.749795 145.94541 C 22.695785 156.5294 36.07513 160.22175 47.510118 159.69775 A 47.674 47.674 0 0 0 58.623 157.85693 C 59.756999 157.52693 60.874795 157.1348 61.964794 156.6788 C 64.354792 155.67881 66.522416 154.53135 68.580414 153.33135 C 70.074413 154.14635 71.596639 154.90501 73.162637 155.51201 C 73.429637 155.61601 73.694269 155.6519 73.961269 155.7499 C 58.451285 172.88588 46.878508 193.7429 41.585514 217.30688 C 41.585514 217.31088 41.58185 217.31421 41.57985 217.31821 A 36.25 36.25 0 0 0 41.075749 220.05961 A 16.957 16.957 0 0 0 41.075749 220.07661 L 19.189828 371.3466 A 16.957 16.957 0 0 0 19.189828 371.36359 A 36.218 36.218 0 0 0 18.980258 373.14777 C 17.25826 391.46975 23.070015 409.40489 35.457003 422.12488 C 47.327991 434.31587 63.108648 440.02848 78.237633 440.37448 C 109.7146 441.09448 140.47227 417.17725 145.61727 380.72628 L 147.53738 367.5177 C 169.63436 370.9667 192.73105 364.87382 215.60803 355.66283 A 16.957 16.957 0 0 0 215.7383 355.60619 L 215.7553 355.60052 L 215.86291 355.55521 L 215.77229 355.58919 C 224.23614 352.13513 232.6859 347.60298 240.54121 341.71225 C 241.63621 343.31125 242.69397 344.93775 243.96797 346.42475 C 255.26396 359.60873 270.89437 366.14004 285.84235 367.51203 C 299.43334 368.75903 313.06667 365.4522 324.98666 358.45521 C 334.76065 364.8502 345.78629 368.03786 356.20128 368.61086 C 371.87926 369.47486 388.44573 364.59292 401.56472 354.71693 C 404.42472 378.7019 414.64985 399.8671 430.25884 415.17508 C 451.40482 435.91406 479.62046 445.4174 507.13143 445.6024 C 545.30339 446.1844 572.92309 416.42648 575.91009 384.56651 A 64.93 64.93 0 0 0 574.91321 365.81848 C 582.47321 367.25248 590.32642 367.74946 598.36241 367.31946 L 598.36241 367.38176 L 600.04464 367.33079 L 599.31398 367.33645 C 638.14894 367.89245 677.28649 351.39114 705.37346 321.61617 C 705.88346 322.31017 706.34644 323.03454 706.87444 323.71754 L 706.8801 323.71754 L 706.88576 323.7232 C 707.26576 324.2132 707.65423 324.69187 708.05822 325.16187 A 16.957 16.957 0 0 0 708.06389 325.1732 C 736.43086 358.15617 775.8518 372.37998 812.56576 366.88899 A 16.957 16.957 0 0 0 812.71869 366.86633 L 812.88861 366.83801 C 820.7896 365.58501 828.02229 362.8898 834.59328 359.3388 C 845.27227 366.00879 857.26198 368.54292 867.84696 368.47492 C 880.74995 368.39292 893.29515 364.69304 904.38014 358.07005 C 913.41613 363.44204 923.38563 366.25366 933.00062 366.87766 C 946.32061 367.74366 959.661 364.382 971.30098 357.43001 C 980.62797 363.22601 991.02265 366.22966 1000.9976 366.87766 C 1031.6796 368.87266 1065.0784 348.21037 1070.9544 311.69841 C 1070.9914 311.46541 1071.0237 311.2527 1071.0507 311.0697 A 16.957 16.957 0 0 0 1071.0564 311.00173 L 1100.8833 99.528459 L 1100.5944 100.57065 A 16.957 16.957 0 0 0 1101.0532 98.355999 C 1103.6902 79.402018 1096.5558 61.684628 1083.8968 49.92264 C 1072.2568 39.10865 1057.4409 34.033535 1043.1439 33.502536 C 1030.5489 33.035536 1018.1774 36.620027 1007.2734 43.30702 C 997.36643 37.017026 986.11087 33.908535 975.14688 33.502536 C 944.51691 32.364537 913.01636 54.580354 906.06236 91.151318 A 36.377 36.377 0 0 0 905.80182 92.70327 L 900.59655 128.47746 C 883.25657 115.47947 861.05805 106.54023 835.03508 105.82123 A 16.957 16.957 0 0 0 834.98976 105.82123 C 792.70581 104.70523 751.4635 122.19413 722.58653 153.1501 C 721.88953 152.1901 721.23982 151.21409 720.50782 150.26709 C 704.95484 130.14411 680.63585 113.68824 650.18288 109.41224 C 643.09089 107.09124 635.91669 105.87229 628.8577 105.68529 C 628.9177 105.11329 629.01694 104.44512 629.07294 103.88412 L 629.07294 103.87279 C 629.07294 103.86279 629.0776 103.85347 629.0786 103.84447 A 16.957 16.957 0 0 0 629.08426 103.69154 C 630.94326 84.913561 626.77154 65.659616 613.97256 51.389631 C 601.16757 37.112645 583.40621 31.728435 567.64623 32.273435 C 537.36826 33.320434 507.07395 55.201119 502.38495 90.211084 A 16.957 16.957 0 0 0 502.35663 90.273389 L 497.77441 123.32883 C 480.95942 112.64584 460.24081 106.0838 436.78383 106.0308 A 16.957 16.957 0 0 0 436.7725 106.0308 C 436.5825 106.0308 436.38611 106.03346 436.18911 106.03646 C 429.60311 106.12846 423.28455 106.8656 417.11256 107.9056 C 418.71256 100.84061 419.63275 93.501392 419.58775 85.9064 C 419.44075 61.606424 410.05506 38.661419 392.82508 22.865435 C 375.79109 7.2494503 353.19654 -0.00036745194 330.24856 -0.00036745194 L 330.2429 -0.00036745194 z M 330.2429 16.957822 L 330.24856 16.957822 C 349.65255 16.957822 367.9257 23.038359 381.36669 35.360347 C 394.80767 47.683334 402.50956 65.998373 402.62956 86.008353 C 402.74456 105.24733 396.08819 122.60512 385.3202 136.47511 C 399.95919 128.51312 417.18734 123.25499 436.43832 122.98899 C 436.54132 122.98699 436.64118 122.98332 436.74418 122.98332 C 469.35315 123.05732 494.54369 137.20303 510.22967 156.96201 L 519.12224 92.822215 C 522.49824 66.167241 545.40965 50.009296 568.22963 49.220296 C 579.63961 48.825297 592.44438 52.779428 601.34737 62.706419 C 610.24936 72.631409 613.74537 86.957254 612.20537 102.17924 L 612.20537 102.1849 C 611.52737 109.0619 610.37534 117.50851 609.37334 125.4925 C 620.38633 121.65451 633.42808 121.42465 646.15007 125.89465 C 672.71104 129.11665 693.69168 143.303 707.08967 160.63798 C 712.67467 167.86397 717.0682 175.56849 720.4172 183.44148 C 745.15317 144.58052 789.43535 121.58375 834.5423 122.77375 L 834.57062 122.77375 C 870.57859 123.76875 897.35912 142.77364 912.40611 165.04462 L 922.57876 95.144479 C 922.61976 94.868479 922.66736 94.592526 922.72036 94.317526 C 928.12635 65.879555 952.80019 49.637734 974.51817 50.443733 C 985.37816 50.847733 995.96943 54.550927 1004.3564 62.343919 C 1005.2054 63.132918 1005.9986 64.00841 1006.7806 64.898409 C 1016.9586 55.212419 1030.1582 49.984733 1042.5152 50.443733 C 1053.3752 50.847733 1063.9665 54.550927 1072.3534 62.343919 C 1080.7404 70.135911 1086.0533 83.130756 1084.2593 96.016744 L 1084.248 96.050728 L 1054.2681 308.63415 C 1054.2511 308.75815 1054.2315 308.87832 1054.2115 309.00232 C 1049.8115 336.34529 1024.3384 351.40412 1002.0965 349.95912 C 991.18848 349.25012 980.01714 344.99217 971.66915 336.08218 C 961.29616 345.80517 947.18944 350.80912 934.09945 349.95912 C 923.58746 349.27612 912.84669 345.27107 904.6067 337.01108 A 50.183 50.183 0 0 1 898.22897 342.10873 C 889.09198 348.23773 878.65734 351.44674 867.73935 351.51674 C 856.82036 351.58674 844.53479 348.11009 835.6298 338.4271 C 835.6178 338.4151 835.60582 338.39945 835.59582 338.38745 C 828.71783 344.25744 820.14149 348.51639 810.2265 350.08939 L 810.05658 350.11771 C 779.22561 354.72871 745.87328 343.12993 720.9213 314.11696 C 720.7043 313.86596 720.49559 313.60865 720.29259 313.34665 C 715.1146 306.65766 710.91475 299.25642 707.64475 291.39842 C 683.08677 329.48639 640.15547 351.22559 598.88351 350.38959 C 599.30051 350.36059 599.70694 350.40393 600.12394 350.36693 L 597.86964 350.42924 C 598.20564 350.43924 598.54651 350.38259 598.88351 350.38959 C 570.65654 352.41459 544.5238 339.10505 525.82282 319.67907 C 521.92683 315.63307 518.39408 311.19943 515.12908 306.57244 L 514.32479 312.24216 C 512.43479 325.94114 511.70392 334.28542 511.86092 335.55542 C 511.86592 335.55642 511.88424 335.56475 511.88924 335.56675 C 526.13223 334.81975 539.82112 339.73884 548.36011 349.13783 C 557.1741 358.84082 560.10753 371.43925 559.02553 382.98624 C 556.86353 406.04422 536.45964 429.12988 507.32967 428.64988 C 483.6147 428.50988 459.73868 420.34097 442.1307 403.07099 C 424.48972 385.77001 414.56096 359.00582 418.42096 328.09586 L 418.42096 328.08453 L 431.81645 219.26098 L 431.83344 219.13071 C 432.00244 217.83071 431.97005 217.64489 431.97505 217.28989 C 431.70705 217.23889 431.54052 217.17427 430.95552 217.18227 C 427.51452 217.23127 422.09384 219.73656 420.10884 225.25355 C 420.05584 225.75355 420.01925 226.16486 419.95025 226.76586 C 419.66425 229.27086 419.24481 232.70889 418.72681 236.84788 A 6222.207 6222.207 0 0 1 414.82428 267.16758 C 411.94228 289.22756 408.9903 311.34157 408.9903 311.34157 L 408.97897 311.44352 C 405.22997 338.5085 379.78716 352.92899 357.13018 351.68099 C 346.0132 351.06899 334.19464 346.59976 325.72865 336.96577 C 314.95966 346.87776 300.61429 351.84048 287.3943 350.62748 C 276.15931 349.59648 264.92737 344.82715 256.84237 335.39116 C 251.74438 329.44117 248.46671 321.60437 247.42871 313.19938 A 106.892 106.892 0 0 1 240.11075 319.48649 C 231.68175 328.89248 220.9649 335.16476 209.35491 339.89975 L 209.27561 339.93374 C 180.80864 351.39473 155.8655 356.24131 134.19853 345.90932 C 133.99053 345.81032 133.79947 345.66681 133.59247 345.56381 L 128.829 378.35304 C 124.865 406.45101 101.00843 423.93295 78.628453 423.42195 C 67.436464 423.16595 56.086399 419.00266 47.606407 410.29266 C 39.124416 401.58267 34.585152 388.2927 35.859151 374.73371 C 35.889151 374.41271 35.926432 374.09548 35.972432 373.77648 L 57.852688 222.50082 C 57.924688 222.00882 58.014563 221.52349 58.124563 221.0395 C 65.736555 187.11953 88.322951 159.05794 117.41592 141.87296 C 115.76492 142.08396 113.97778 142.20986 111.92179 142.09386 C 111.57179 142.07486 111.22193 142.04257 110.87394 141.99757 C 108.24194 141.65357 105.52062 140.84094 102.87062 139.73194 C 100.31362 140.54794 97.793718 141.04088 95.416721 141.31788 C 89.864726 141.96488 85.191142 141.99362 79.291148 139.70362 C 74.858152 137.98362 71.540497 135.37626 69.1185 131.80226 C 65.460503 135.27926 61.191473 138.61668 55.411479 141.03468 C 54.91348 141.24468 54.405847 141.42276 53.887848 141.57276 A 30.608 30.608 0 0 1 46.734142 142.76221 C 39.42815 143.09621 31.180763 140.79609 25.108769 134.3341 L 25.029472 134.24913 C 15.718482 124.17714 16.58069 112.01314 17.320689 104.55814 C 17.350689 104.25814 17.390635 103.96022 17.439635 103.66322 C 19.406633 91.663234 22.628163 76.606256 30.784155 63.754269 C 30.988155 63.43327 31.200858 63.118035 31.429858 62.814036 C 37.076852 55.314043 44.137381 52.316622 52.749372 52.856622 C 55.633369 53.037621 59.38911 54.030621 62.735106 56.481619 C 62.760106 56.465619 62.779075 56.435314 62.803075 56.419314 C 65.495072 54.605316 67.872189 52.959598 73.423184 52.907598 A 14.283 14.283 0 0 1 74.380409 52.930254 C 77.917406 53.134254 80.942506 54.541355 83.584504 56.334353 C 87.0565 53.573356 91.291241 51.808771 95.745236 51.808771 C 106.28023 51.808771 115.85425 61.331883 115.97725 71.853872 C 116.25825 71.766872 116.48588 71.645005 116.77588 71.565005 C 122.27788 70.068007 130.37156 71.364647 135.58056 75.971642 C 135.97656 76.323642 136.3517 76.694462 136.7077 77.087462 C 137.5277 77.994461 138.27334 79.160585 138.93934 80.440584 C 143.84834 75.910589 151.0764 74.084066 157.65339 76.504064 L 157.65905 76.504064 C 158.89205 76.957063 159.88787 77.652915 160.94987 78.276914 C 161.25787 78.079914 161.54112 77.814539 161.85612 77.642539 C 166.12112 75.318542 170.51154 74.827167 174.71353 75.558166 C 178.89653 76.286165 183.35203 78.343157 186.65903 82.825152 C 193.89602 77.637158 202.41359 75.513838 210.79358 77.721836 C 215.36958 75.600838 220.41325 75.652533 224.54025 76.934532 C 225.21725 74.581535 225.77631 72.495457 226.57931 69.85446 L 226.64162 69.639225 C 229.13661 61.861233 235.26332 54.958698 243.94531 53.411699 C 249.61731 52.4007 255.96971 54.780176 260.46171 58.900172 A 96.106 96.106 0 0 1 273.59666 42.446083 C 288.39464 27.626098 308.13592 16.957822 330.2429 16.957822 z M 182.37134 89.616358 C 182.15434 90.003358 181.94837 90.322584 181.57837 91.298583 C 181.33637 91.935583 180.97181 92.371794 180.62681 95.189791 A 15.395 15.395 0 0 0 180.53052 98.225726 A 16.368 16.368 0 0 0 180.90435 100.93315 C 181.15235 102.04514 182.41665 105.07357 182.41665 105.07357 L 186.82329 110.44876 L 194.5434 113.94349 L 201.36293 113.73392 C 201.36293 113.73392 204.38874 112.74361 205.37874 112.22161 C 213.22473 108.07262 211.19415 107.21064 211.72815 106.37064 C 212.26215 105.53064 212.49104 105.05744 212.69104 104.63744 A 13.405 13.405 0 0 0 213.42737 102.78529 L 182.37134 89.616358 z M 197.44906 97.24018 C 197.47106 97.22918 197.43845 97.328047 197.32445 97.529047 L 197.27348 97.625336 C 197.35348 97.375336 197.42706 97.25118 197.44906 97.24018 z M 258.8871 136.38448 C 251.81411 141.68048 247.4486 140.99927 242.5916 141.19327 C 242.0586 141.21427 241.53367 141.18927 241.00567 141.19327 C 251.99866 148.46426 260.86545 157.51138 267.54744 167.76337 L 268.82186 159.28994 L 268.6576 160.71161 C 268.9426 156.91862 269.99075 153.88999 271.23474 151.21299 C 266.46275 146.90699 262.33709 141.88948 258.8871 136.38448 z M 596.69718 211.80708 C 595.98918 216.07508 594.265 226.8973 594.205 227.2473 C 592.941 243.35829 595.59935 251.69182 597.06534 253.64181 C 598.49734 255.54581 600.45735 257.22747 611.54834 256.54747 C 620.90833 254.70048 629.09848 247.28954 630.80047 241.18655 C 633.52447 231.41756 633.0092 225.34353 632.1202 223.12953 C 631.3382 221.17953 630.44927 219.66767 624.71728 217.76567 C 614.36829 217.90867 604.72017 215.93808 596.69718 211.80708 z M 822.00208 216.38364 C 817.81608 216.54964 812.21719 217.96654 807.28119 220.95453 C 800.9532 224.78653 796.29339 230.49648 794.54839 236.28148 C 793.41039 244.83247 794.56413 247.55624 795.83413 249.82424 C 796.55613 251.11324 797.91699 252.63538 799.76499 254.57638 C 811.81298 254.82038 822.54345 257.49857 831.35344 262.86856 L 835.83371 233.62503 L 835.83371 233.61937 C 837.20671 223.62038 829.39421 217.68454 825.33821 216.60454 C 824.38221 216.43054 823.28208 216.33264 822.00208 216.38364 z M 174.61158 216.47426 A 24.797 24.797 0 0 0 171.13951 216.97837 C 161.65452 219.04436 151.92153 227.13128 149.38953 236.72327 L 145.88914 260.83517 C 146.54514 260.58917 147.2129 260.26619 147.8659 260.05919 C 154.56489 257.93819 159.13858 257.68632 163.04557 256.88732 C 163.85857 256.72032 164.68144 256.60747 165.50944 256.54747 C 183.72042 255.21348 192.58761 238.54561 189.73461 225.10063 C 187.76462 220.71063 185.63805 218.95768 183.00005 217.74868 C 180.83105 216.75368 177.94658 216.23226 174.61158 216.47426 z M 705.10725 217.65805 L 704.86936 218.47368 C 704.91536 218.30568 704.98095 218.14424 705.02795 217.97524 C 705.06095 217.86924 705.07325 217.76405 705.10725 217.65805 z M 610.96494 233.68167 C 612.26694 233.87467 613.55714 234.13307 614.87314 234.26507 C 614.73814 235.06507 614.71399 235.75865 614.47099 236.63265 C 615.03299 234.61765 614.65724 236.22695 613.21924 237.41995 C 612.57824 237.95195 611.78326 238.42663 610.99326 238.84163 C 610.90426 237.38563 610.93394 235.60767 610.96494 233.68167 z M 818.55833 234.43499 L 817.74271 239.75354 C 815.96271 239.37054 814.18251 238.99268 812.36752 238.72268 C 813.27152 237.62469 814.52148 236.39219 816.06048 235.46019 C 816.76348 235.03519 817.68433 234.74699 818.55833 234.43499 z M 172.31764 234.71253 C 171.42564 236.56953 169.89199 238.24219 167.20299 239.08518 C 168.51799 237.63619 170.49764 235.87753 172.31764 234.71253 z " />
    <path
       d="M180.104 142.896c-46.632 1.285-92.86 36.587-103.136 82.371l-21.88 151.274c-3.313 35.246 49.052 38.577 54.617-.887l20.76-143.013c8.671-36.12 62.885-51.503 77.827-13.375 6.517 25.21-11.01 54.318-41.371 56.541-5.102 1.044-9.103 1.36-13.223 2.665-4.978 1.576-7.53 3.163-15.563 9.731-21.976 41.541 12.345 54.58 63.927 33.812 10.472-4.27 19.568-10.042 25.03-16.755 46.402-35.066 54.058-117.765.585-149.82-14.188-8.72-30.973-12.87-47.573-12.544zM318.352 138.57c-4.953 3.798-12.026-.137-16.293 1.99-2.2 1.095-3.812 8.08-3.812 8.08-3.624 4.203-9.928 8.208-10.327 13.519l-20.992 139.788c-7.186 35.359 47.977 41.993 55.467 3.518l19.456-139.883c.699-5.282-2.862-12.387-5.558-16.086-4.23-5.804-10.721-9.973-17.94-10.926zM436.698 142.299c-50.202.693-83.041 41.778-88.05 68.324l-13.944 89.232c-6.507 43.276 50.768 40.53 55.144 8.936 0 0 11.787-88.386 11.24-87.83 8.155-29.88 54.127-31.91 49.897.658l-13.4 108.861c-6.477 51.837 31.34 78.685 69.97 78.863 39.187.75 45.309-57.686 4.465-54.485-2.43.21-4.863.018-6.933-1.15-16.008-9.038-13.624-17.085-9.882-44.177l12.928-91.246c6.716-32.174-17.917-75.865-71.435-75.986z"
       id="path5"
       style="fill:#ffffff" />
    <path
       d="m538.275 95.25-20.96 151.292c-5.705 42.787 38.45 88.328 81.121 84.585 52.493 1.534 111.02-40.468 110.47-111.996-.578-29.256-22.586-70.425-67.33-74.42-47.052-19.127-72.658 57.763-13.96 53.685 24.072 6.76 28.472 24.017 21.79 47.979-4.19 15.027-18.887 26.691-35.46 29.41-31.135 2.258-42.04-13.498-38.974-50.568 0 0 13.607-80.265 18.014-124.98 4.645-45.855-50.648-37.065-54.71-4.987zM834.03 142.078c-48.545-1.281-96.873 30.801-110.512 81.42-9.18 28.948-3.68 57.715 12.044 78.024 21.384 24.863 46.934 33.188 71.641 29.493 35.777-5.676 40.188-61.76-15.602-56.998-8.39-9.068-19.912-16.303-16.013-41.91 6.16-23.68 33.677-38.653 54.019-34.386 13.904 3.306 28.15 18.304 25.361 38.541l-10.155 66.31c-6.517 42.306 49.33 34.271 53.959 7.333l11.76-80.299c4.71-27.927-16.622-85.874-76.502-87.528zM941.686 97.928l-29.588 203.367c-5.749 37.154 49.407 39.675 55.045 4.641l29.983-212.58c3.893-27.969-47.63-36.514-55.44 4.572zM383.315 86.123c.211 35.15-31.297 64.012-62.225 64.012s-53.613-20.098-53.613-51.026 31.84-62.841 62.768-62.841 52.884 18.928 53.07 49.855zM1009.686 97.928l-29.588 203.367c-5.749 37.154 49.407 39.675 55.045 4.641l29.983-212.58c3.893-27.969-47.63-36.514-55.44 4.572z"
       id="path6"
       style="fill:#ffffff" />
  </g>
  <g
     fill="#100"
     transform="translate(-65.246 -52.553)"
     id="g7">
    <path
       d="M108.061 123.942c-6.12 9.643-9.497 23.492-11.315 34.58-.628 6.32-.592 13.651 3.99 18.607 3.642 3.876 9.465 4.755 14.422 3.314 6.115-2.56 11.484-8.458 16.848-14.234 5.527-6.603 8.579-17.557 10.123-25.773 6.05 3.744 11.011-3.108 3.964-5.35-2.47-1.008-2.225-2.94-2.01-4.732 1.16-4.12-.624-10.374-5.278-10.642-2.921.027-10.682 6.031-3.61 14.09.738 1.7 1.215 2.955.533 5.541-2.46 6.758-4.632 15.05-8.813 21.027-1.67 1.944-3.355 3.91-5.18 5.681-7.26 7.373-16.223 5.85-15.917-3.11.265-5.942 1.63-10.517 3.57-16.524 1.839-7.206 6.344-15.357 10.512-21.013 3.822-7.467-7.334-7.445-11.839-1.462zM295.383 175.67c1.661-.851 2.925 1.852 4.058 2.574 2.382 1.941 13.038 1.72 16.382-.855 7.377-5.484 5.216-9.737 1.27-6.352-4.752 5.408-14.85 5.244-13.94-.506 2.095-12.423 5.444-27.56 10.663-34.017 1.609-1.99 2.866-3.61 3.478-6.223.38-2.27.711-4.543.041-6.693-1.78-5.549-9.314-5.04-11.878 2.95-6.235 20.515-8.146 30.536-8.87 39.23-.705 9.843-19.456 12.233-16.89 3.038l8.266-22.007c1.366-3.131-4.423-6.011-7.073-2.794-.63.765-1.558 1.473-2.274 2.668 0 0-.949-.348-3.475-1.646-6.479-3.33-18.075.412-24.192 13.395-1.255 3.723-1.791 7.128-1.616 11.042-.272 1.195-.87 2.113-1.918 3.091-4.748 4.574-14.635 2.751-12.777-6.062 2.435-7.043 3.504-12.805 6.235-19.017 1.963-5.999-7.812-7.685-9.326-1.638-2.654 9.788-3.432 14.683-7.02 20.853l-3.053 4.249c-4.969 6.945-8.551.567-6.693-5.63l6.372-17.832c.763-2.073-1.095-4.293-3.169-5.056a4 4 0 0 0-5.134 2.373l-5.277 19.54c-1.753 7.274-3.095 7.598-9.024 10.513-5.46 2.619-7.107-.23-4.394-4.935 2.278-4.241 2.202-10.954-.842-15.778-.665-1.147-1.333-1.993-2.27-3.116-1.653-1.714-.521-4.928.618-6.43.547-1.564 1.82-3.085-.274-5.4-3.594-3.18-8.024-.954-10.108 1.733h0c-1.462 1.834-2.05 4.564.803 8.197l-13.995 20.946c-1.458 1.45-4.409 4.068-12.042 3.855-3.845-.48-3.52-3.821-2.829-5.495l6.91-21.453c1.722-6.209-8.204-5.983-9.61-1.29l-5.674 22.165c-.51 1.437-.7 3.583.117 6.073.596 2.11 2.488 4.17 4.734 5.041 4.283 1.662 14.258 1.35 18.928-3.054 2.473 2.611 5.561 4.011 9.346 4.506 4.469.25 7.013-1.14 10.404-2.243 4.765 2.444 7.695 2.372 12.724.172.903-.403 1.672-.867 2.432-1.35 2.282-1.612 2.942-2.985 4.4-.008 2.197 3.9 10.862 1.675 13.097-.22 1.402-.944 2.323-1.695 3.156-2.963 1.959-4.378 3.165-1.506 3.435-.033 1.515 8.372 14.148 7.429 17.909 4.693 4.563-2.574 3.512-2.988 7.579.503 2.818 2.308 9.436 3.176 16.08-5.075 1.098-2.038 1.766-.592 3.368 1.928 3.012 6.276 15.665 5.48 22.832-.158zm-30.59-3.55c-5.6 5.474-9.58-1.363-7.223-7.86 1.224-3.375 3.438-6.366 4.53-7.725 2.528-3.056 5.44-5.367 8.561-6.26 1.832-.259 8.925-1.24 4.28 6.88-2.667 5.05-5.973 10.045-10.147 14.965zm-81.278-14.225c.453-.741 1.017-.824 2.095 1.059 2.684 4.695.04 10.503-2.88 14.095-2.706 2.625-8.708-2.247-5.324-6.706z"
       stroke="#000"
       stroke-linecap="round"
       id="path7"
       style="fill:#ffffff;stroke:#ffffff" />
    <circle
       cx="160.993"
       cy="-124.609"
       transform="scale(1 -1)"
       r="6"
       id="circle7"
       style="fill:#ffffff" />
  </g>
</svg>
