<?xml version="1.0" encoding="UTF-8" standalone="no"?>
<svg
   id="Layer_1"
   data-name="Layer 1"
   version="1.1"
   viewBox="0 0 271.60001 101.7"
   sodipodi:docname="wasm4-wht.svg"
   width="271.60001"
   height="101.7"
   inkscape:version="1.3 (0e150ed, 2023-07-21)"
   xmlns:inkscape="http://www.inkscape.org/namespaces/inkscape"
   xmlns:sodipodi="http://sodipodi.sourceforge.net/DTD/sodipodi-0.dtd"
   xmlns="http://www.w3.org/2000/svg"
   xmlns:svg="http://www.w3.org/2000/svg">
  <sodipodi:namedview
     id="namedview9"
     pagecolor="#ffffff"
     bordercolor="#000000"
     borderopacity="0.25"
     inkscape:showpageshadow="2"
     inkscape:pageopacity="0.0"
     inkscape:pagecheckerboard="0"
     inkscape:deskcolor="#d1d1d1"
     inkscape:zoom="4.7586742"
     inkscape:cx="75.020896"
     inkscape:cy="84.792525"
     inkscape:window-width="1392"
     inkscape:window-height="1212"
     inkscape:window-x="0"
     inkscape:window-y="25"
     inkscape:window-maximized="0"
     inkscape:current-layer="Layer_1" />
  <defs
     id="defs1">
    <style
       id="style1">&#10;      .cls-1 {&#10;        fill: #787878;&#10;      }&#10;&#10;      .cls-1, .cls-2, .cls-3 {&#10;        stroke-width: 0px;&#10;      }&#10;&#10;      .cls-2 {&#10;        fill: #dbdbdb;&#10;      }&#10;&#10;      .cls-3 {&#10;        fill: #fff;&#10;      }&#10;    </style>
  </defs>
  <g
     id="g8"
     transform="translate(-0.5)"
     style="fill:#ffffff;fill-opacity:1">
    <path
       class="cls-3"
       d="m 42.5,82.9 5.8,-29.4 h 12 l -10.7,47 H 37 L 30.3,73.7 23.7,100.5 H 11.2 L 0.5,53.4 h 12 l 5.8,29.4 6.9,-29.4 h 10.3 l 7,29.4 z"
       id="path3"
       style="fill:#ffffff;fill-opacity:1" />
    <path
       class="cls-3"
       d="M 87.8,91.6 H 71.2 l -2.9,8.8 H 55.4 l 18.4,-47 h 11.4 l 18.6,47 h -13 L 87.9,91.6 Z M 74.1,82.9 H 84.9 L 79.5,66.6 Z"
       id="path4"
       style="fill:#ffffff;fill-opacity:1" />
    <path
       class="cls-3"
       d="m 130.5,87.9 c 0,-1.7 -0.6,-2.9 -1.9,-3.9 -1.3,-0.9 -3.5,-1.9 -6.6,-2.9 -3.1,-1 -5.7,-1.9 -7.7,-2.9 -6.5,-3 -9.8,-7.1 -9.8,-12.3 0,-5.2 0.8,-4.9 2.4,-6.9 1.6,-2 3.9,-3.5 6.9,-4.6 3,-1.1 6.3,-1.7 10,-1.7 3.7,0 6.8,0.6 9.7,1.8 2.9,1.2 5.1,2.9 6.7,5.1 1.6,2.2 2.4,4.8 2.4,7.6 h -12.1 c 0,-1.9 -0.6,-3.4 -1.9,-4.5 -1.3,-1.1 -2.9,-1.6 -5.1,-1.6 -2.2,0 -3.9,0.4 -5.1,1.3 -1.3,0.9 -1.9,2 -1.9,3.4 0,1.4 0.7,2.3 2.1,3.3 1.4,1 3.8,2 7.3,3 3.5,1 6.3,2.2 8.6,3.4 5.4,2.9 8.1,7 8.1,12.1 0,5.1 -1.7,7.3 -5,9.7 -3.3,2.3 -7.9,3.5 -13.6,3.5 -5.7,0 -7.8,-0.7 -11.1,-2 -3.3,-1.3 -5.8,-3.2 -7.5,-5.6 -1.7,-2.4 -2.5,-5.1 -2.5,-8.2 H 115 c 0,2.5 0.7,4.4 2.1,5.6 1.4,1.2 3.7,1.8 6.8,1.8 3.1,0 3.6,-0.4 4.7,-1.2 1.1,-0.8 1.7,-1.9 1.7,-3.4 z"
       id="path5"
       style="fill:#ffffff;fill-opacity:1" />
    <path
       class="cls-3"
       d="m 163.3,53.4 11.2,32.7 11.2,-32.7 h 15.9 v 47 h -12.1 v -11 l 1.2,-22.4 -12.1,33.4 h -8 L 158.4,67 l 1.2,22.5 v 11 h -12.1 v -47 h 15.9 z"
       id="path6"
       style="fill:#ffffff;fill-opacity:1" />
    <path
       class="cls-3"
       d="m 227.3,84.3 h -20.7 v -8.4 h 20.7 z"
       id="path7"
       style="fill:#ffffff;fill-opacity:1" />
    <path
       class="cls-3"
       d="m 266.8,82.6 h 5.3 v 8.7 h -5.3 v 10.4 H 254.7 V 91.3 h -20.2 l -0.7,-6.9 21,-31.5 v 0 c 0,-0.1 12.1,-0.1 12.1,-0.1 v 29.8 z m -21.5,0 h 9.4 v -15 l -0.8,1.1 -8.7,13.9 z"
       id="path8"
       style="fill:#ffffff;fill-opacity:1" />
  </g>
  <g
     id="Notch_-_Purple"
     data-name="Notch - Purple"
     style="fill:#787878;fill-opacity:1">
    <g
       id="icon"
       style="fill:#787878;fill-opacity:1">
      <path
         id="path71"
         class="cls-1"
         d="m 28.7,0 v 0.2 c 0,2.9 -2.4,5.3 -5.3,5.3 -2.9,0 -5.2,-2.3 -5.2,-5.3 V 0 H 0.5 V 45.9 H 46.4 V 0 Z"
         style="fill:#787878;fill-opacity:1" />
    </g>
  </g>
  <circle
     id="path128"
     class="cls-2"
     cx="30.1"
     cy="33.700001"
     r="3.8"
     style="fill:#dbdbdb;fill-opacity:1" />
  <path
     id="rect150"
     class="cls-2"
     d="M 10.400391 22.099609 L 10.400391 27.300781 L 4.8007812 27.300781 L 4.8007812 31.599609 L 10.400391 31.599609 L 10.400391 37 L 14.699219 37 L 14.699219 31.599609 L 19.699219 31.599609 L 19.699219 27.300781 L 14.699219 27.300781 L 14.699219 22.099609 L 10.400391 22.099609 z "
     style="fill:#dbdbdb;fill-opacity:1" />
  <circle
     id="path128-0"
     class="cls-2"
     cx="37.099998"
     cy="25.299999"
     r="3.8"
     style="fill:#dbdbdb;fill-opacity:1" />
</svg>
